<?xml version="1.0" encoding="utf-8"?>
<!-- Generator: Adobe Illustrator 16.0.4, SVG Export Plug-In . SVG Version: 6.00 Build 0)  -->
<svg version="1.2" baseProfile="tiny" id="Capa_1" xmlns="http://www.w3.org/2000/svg" xmlns:xlink="http://www.w3.org/1999/xlink"
	 x="0px" y="0px" width="300px" height="300px" viewBox="0 0 300 300" xml:space="preserve">
<g>
	<g>
		<path fill="#999999" d="M204.495,87.077c-0.235-6.151-1.571-10.213-3.58-12.993h0.006c-1.403-2.198-4.438-4.545-6.307-5.684
			c-12.27-7.487-18.922,2.084-19.688,3.279c-1.127,0.402-8.151,3.494-6.118,14.422c-0.021,0.365-0.041,0.734-0.054,1.112
			c-1.492,0.691-2.611,2.291-2.313,5.919c0.317,3.845,2.25,5.577,4.348,6.023c2.97,7.277,8.863,13.281,15.836,13.281
			c6.955,0,12.837-5.976,15.815-13.227c2.205-0.35,4.303-2.057,4.633-6.078C207.392,89.291,206.116,87.7,204.495,87.077z
			 M186.625,109.057c-7.23,0-13.194-8.827-14.327-17.183c0.539-3.008,2.208-9.481,6.996-14.253
			c3.681,3.975,10.414,8.555,21.748,8.162c0.069,1.024,0.105,2.122,0.105,3.305C201.147,98.133,194.668,109.057,186.625,109.057z"/>
		<path fill="#999999" d="M186.132,92.432c0-0.229-0.016-0.439-0.041-0.633h1.333c-0.026,0.193-0.04,0.404-0.04,0.634
			c0,3.602,3.573,3.596,5.294,3.596c1.716,0,5.292-0.005,5.292-3.608c0-3.6-3.576-3.607-5.292-3.607
			c-1.215,0-3.35,0.021-4.505,1.264h-2.832c-1.152-1.243-3.289-1.264-4.502-1.264c-1.719,0-5.294,0.002-5.294,3.605
			c0,3.603,3.575,3.603,5.294,3.603S186.132,96.034,186.132,92.432z M192.678,90.51c3.062,0,3.602,0.617,3.602,1.91
			c0,1.295-0.54,1.91-3.602,1.91c-3.064,0-3.603-0.615-3.603-1.91C189.075,91.127,189.613,90.51,192.678,90.51z M177.237,92.42
			c0-1.293,0.538-1.91,3.602-1.91c3.064,0,3.602,0.617,3.602,1.91c0,1.295-0.537,1.91-3.602,1.91
			C177.775,94.33,177.237,93.715,177.237,92.42z"/>
		<path fill="#999999" d="M202.292,111.844l-2.05-0.508l-13.576,30.876l-13.569-30.87l-1.971,0.502
			c-8.057,2.018-13.684,9.256-13.684,17.563v10.903c0,2.149,23.363,14.55,25.512,14.55l18.805-1.805
			c2.148,0,14.281-10.596,14.281-12.745v-10.903C216.04,121.1,210.349,113.861,202.292,111.844z M196.384,133.162l3.821-4.133
			c0.902-0.979,2.447-0.988,3.351-0.01l3.822,4.143H196.384z"/>
		<path fill="#999999" d="M186.801,136.562l4.534-11.51l-2.103-2.102c1.327-0.172,2.256-1.469,1.935-2.814l-0.933-3.875
			c-0.249-1.031-1.17-1.771-2.231-1.771h-2.49c-1.062,0-1.983,0.739-2.231,1.771l-0.931,3.87c-0.326,1.347,0.606,2.646,1.934,2.815
			l-2.104,2.105L186.801,136.562z"/>
	</g>
	<g>
		<g>
			<g>
				
					<rect x="223.263" y="136.032" transform="matrix(0.6666 -0.7454 0.7454 0.6666 -27.2942 216.7961)" fill="#999999" width="10.891" height="5.756"/>
				
					<rect x="224.797" y="139.928" transform="matrix(0.6667 -0.7453 0.7453 0.6667 -28.2831 219.7949)" fill="#999999" width="13.663" height="3.19"/>
			</g>
			<path fill="#999999" d="M281,174.327c2.389,2.137,2.643,5.754,0.564,8.076l-3.763,4.207c-2.078,2.323-5.699,2.471-8.09,0.334
				l-41.812-37.4c-2.39-2.14-0.178-3.549,1.899-5.87l3.764-4.207c2.075-2.321,3.233-4.68,5.623-2.541L281,174.327z"/>
		</g>
		<path fill="#999999" d="M147.369,70.615c-19.513,21.814-17.647,55.316,4.167,74.828c21.815,19.514,55.318,17.647,74.829-4.168
			c19.514-21.813,17.649-55.316-4.165-74.83C200.384,46.934,166.88,48.799,147.369,70.615z M219.562,135.189
			c-16.15,18.057-43.882,19.603-61.939,3.45c-18.057-16.151-19.603-43.884-3.449-61.941c16.15-18.058,43.883-19.6,61.939-3.447
			C234.171,89.402,235.714,117.131,219.562,135.189z"/>
	</g>
	<g>
		<path fill="#999999" d="M20.332,191.041v-23.26h4.41c2.609,0,4.572,0.5,5.895,1.502c1.32,1,1.98,2.494,1.98,4.484
			c0,1.215-0.268,2.268-0.805,3.158c-0.535,0.889-1.316,1.588-2.346,2.096c1.238,0.531,2.176,1.277,2.811,2.238
			c0.635,0.963,0.953,2.117,0.953,3.465c0,1.924-0.645,3.457-1.932,4.602c-1.287,1.143-3.041,1.715-5.264,1.715H20.332z
			 M22.371,178.275h3.051c1.637,0,2.898-0.381,3.789-1.143c0.889-0.764,1.334-1.842,1.334-3.234c0-1.381-0.441-2.434-1.326-3.158
			c-0.885-0.723-2.172-1.084-3.863-1.084h-2.984V178.275z M22.371,189.102h3.25c1.834,0,3.205-0.359,4.111-1.078
			c0.906-0.717,1.359-1.807,1.359-3.266c0-1.447-0.439-2.578-1.318-3.391c-0.877-0.812-2.102-1.217-3.672-1.217h-3.73V189.102z"/>
		<path fill="#999999" d="M35.121,182.586c0-2.508,0.855-4.605,2.568-6.291s3.848-2.527,6.4-2.527c2.541,0,4.666,0.842,6.373,2.527
			c1.709,1.686,2.562,3.783,2.562,6.291c0,2.52-0.854,4.629-2.562,6.326c-1.707,1.695-3.832,2.543-6.373,2.543
			c-2.543,0-4.674-0.85-6.391-2.553C35.98,187.201,35.121,185.096,35.121,182.586z M37.061,182.586c0,1.936,0.688,3.584,2.062,4.949
			c1.377,1.365,3.031,2.047,4.967,2.047c1.934,0,3.582-0.682,4.947-2.047s2.049-3.014,2.049-4.949c0-1.934-0.684-3.582-2.049-4.947
			s-3.014-2.049-4.947-2.049c-1.936,0-3.59,0.684-4.967,2.049C37.748,179.004,37.061,180.652,37.061,182.586z"/>
		<path fill="#999999" d="M55.943,191.307v-23.973l1.939-0.266v23.973L55.943,191.307z"/>
		<path fill="#999999" d="M60.387,188.902l1.426-1.359c0.607,0.697,1.279,1.223,2.014,1.576s1.523,0.529,2.363,0.529
			c1.049,0,1.906-0.293,2.568-0.879c0.664-0.586,0.996-1.342,0.996-2.271c0-0.828-0.244-1.48-0.73-1.955s-1.354-0.867-2.602-1.178
			c-2.123-0.529-3.57-1.156-4.344-1.881s-1.16-1.727-1.16-3.01c0-1.348,0.523-2.484,1.574-3.406
			c1.049-0.924,2.381-1.385,3.996-1.385c0.961,0,1.867,0.16,2.719,0.48c0.85,0.32,1.635,0.797,2.354,1.426l-1.193,1.559
			c-0.641-0.553-1.293-0.973-1.957-1.26c-0.662-0.287-1.314-0.432-1.955-0.432c-1.062,0-1.916,0.271-2.562,0.812
			c-0.646,0.543-0.969,1.256-0.969,2.139c0,1.338,1.166,2.289,3.498,2.852c0.486,0.111,0.85,0.205,1.094,0.283
			c1.436,0.408,2.514,1.006,3.232,1.789c0.719,0.785,1.078,1.758,1.078,2.918c0,1.525-0.547,2.791-1.643,3.797
			c-1.094,1.006-2.469,1.508-4.127,1.508c-1.172,0-2.236-0.223-3.191-0.67C61.908,190.436,61.082,189.775,60.387,188.902z"/>
		<path fill="#999999" d="M84.342,189.35c-0.607,0.697-1.293,1.223-2.055,1.576c-0.764,0.354-1.592,0.529-2.488,0.529
			c-1.723,0-3.191-0.604-4.4-1.814c-1.211-1.211-1.816-2.678-1.816-4.402c0-1.713,0.607-3.176,1.824-4.393
			c1.215-1.215,2.68-1.824,4.393-1.824c0.863,0,1.686,0.17,2.471,0.506c0.785,0.338,1.475,0.826,2.072,1.467v-2.139
			c0-1.17-0.295-2.035-0.887-2.594s-1.506-0.838-2.744-0.838c-0.729,0-1.52,0.105-2.371,0.316c-0.85,0.209-1.822,0.547-2.918,1.01
			l0.746-2.203c0.83-0.289,1.643-0.504,2.438-0.648c0.797-0.143,1.564-0.215,2.305-0.215c1.846,0,3.197,0.432,4.053,1.293
			c0.857,0.863,1.285,2.223,1.285,4.078v11.986l-1.906,0.414V189.35z M75.555,185.238c0,1.25,0.424,2.291,1.27,3.125
			c0.846,0.836,1.914,1.252,3.207,1.252s2.336-0.402,3.125-1.209c0.791-0.807,1.186-1.863,1.186-3.168
			c0-1.293-0.395-2.346-1.186-3.158c-0.789-0.812-1.82-1.217-3.092-1.217c-1.314,0-2.395,0.414-3.24,1.242
			C75.979,182.936,75.555,183.979,75.555,185.238z"/>
		<path fill="#999999" d="M113.885,187.709c-0.885,1.217-1.922,2.145-3.117,2.785c-1.193,0.641-2.486,0.961-3.879,0.961
			c-2.541,0-4.672-0.85-6.391-2.553c-1.719-1.701-2.578-3.807-2.578-6.316c0-2.508,0.857-4.605,2.57-6.291s3.846-2.527,6.398-2.527
			c1.459,0,2.783,0.32,3.971,0.961s2.197,1.574,3.025,2.801v-10.229l1.857-0.232v23.973l-1.857,0.232V187.709z M99.859,182.586
			c0,1.936,0.688,3.584,2.064,4.949s3.031,2.047,4.965,2.047s3.584-0.682,4.949-2.047s2.047-3.014,2.047-4.949
			c0-1.934-0.682-3.582-2.047-4.947s-3.016-2.049-4.949-2.049s-3.588,0.684-4.965,2.049S99.859,180.652,99.859,182.586z"/>
		<path fill="#999999" d="M134.045,189.035c-1.117,0.83-2.223,1.439-3.316,1.832s-2.227,0.588-3.398,0.588
			c-2.574,0-4.713-0.848-6.416-2.543c-1.701-1.697-2.553-3.807-2.553-6.326s0.857-4.619,2.57-6.299s3.846-2.52,6.398-2.52
			c1.613,0,3.025,0.348,4.236,1.043c1.211,0.697,2.152,1.703,2.826,3.018l-13.279,7.842c0.631,1.217,1.486,2.156,2.57,2.818
			c1.082,0.664,2.299,0.994,3.646,0.994c1.072,0,2.133-0.223,3.184-0.67c1.049-0.449,2.227-1.186,3.531-2.215V189.035z
			 M120.434,184.045l11.174-6.648c-0.475-0.584-1.074-1.027-1.799-1.326c-0.725-0.297-1.549-0.447-2.479-0.447
			c-1.945,0-3.592,0.67-4.939,2.006c-1.35,1.338-2.023,2.979-2.023,4.924c0,0.311,0.006,0.578,0.018,0.805
			C120.395,183.584,120.412,183.812,120.434,184.045z"/>
		<path fill="#999999" d="M153.01,191.041c-0.33,0.078-0.648,0.135-0.953,0.174c-0.303,0.039-0.588,0.059-0.854,0.059
			c-1.701,0-2.906-0.475-3.613-1.426c-0.709-0.951-1.062-2.691-1.062-5.223v-8.654h-2.453l0.547-1.84h1.906v-4.012l1.891-1.145
			v5.156h4.426v1.84h-4.426v8.887c0,1.824,0.213,3.033,0.639,3.631s1.174,0.895,2.246,0.895c0.232,0,0.488-0.018,0.771-0.057
			c0.281-0.039,0.594-0.092,0.936-0.158V191.041z"/>
		<path fill="#999999" d="M154.949,191.273v-17.143l1.891-0.232v3.664c0.686-1.326,1.523-2.32,2.512-2.984
			c0.988-0.662,2.137-0.994,3.439-0.994h0.465l-0.779,1.873c-1.924,0.189-3.344,1.029-4.26,2.521
			c-0.918,1.492-1.377,3.719-1.377,6.68v6.383L154.949,191.273z"/>
		<path fill="#999999" d="M173.949,189.35c-0.609,0.697-1.295,1.223-2.057,1.576s-1.592,0.529-2.486,0.529
			c-1.725,0-3.191-0.604-4.402-1.814c-1.209-1.211-1.814-2.678-1.814-4.402c0-1.713,0.607-3.176,1.822-4.393
			c1.217-1.215,2.682-1.824,4.395-1.824c0.861,0,1.686,0.17,2.471,0.506c0.783,0.338,1.475,0.826,2.072,1.467v-2.139
			c0-1.17-0.297-2.035-0.889-2.594c-0.59-0.559-1.506-0.838-2.742-0.838c-0.73,0-1.52,0.105-2.371,0.316
			c-0.852,0.209-1.824,0.547-2.918,1.01l0.746-2.203c0.828-0.289,1.641-0.504,2.438-0.648c0.795-0.143,1.562-0.215,2.305-0.215
			c1.844,0,3.195,0.432,4.053,1.293c0.855,0.863,1.285,2.223,1.285,4.078v11.986l-1.906,0.414V189.35z M165.162,185.238
			c0,1.25,0.422,2.291,1.268,3.125c0.846,0.836,1.916,1.252,3.209,1.252s2.334-0.402,3.125-1.209
			c0.789-0.807,1.186-1.863,1.186-3.168c0-1.293-0.396-2.346-1.186-3.158c-0.791-0.812-1.822-1.217-3.092-1.217
			c-1.316,0-2.396,0.414-3.242,1.242C165.584,182.936,165.162,183.979,165.162,185.238z"/>
		<path fill="#999999" d="M179.072,182.32v-15.02l1.906-0.232v10.428c0.873-1.215,1.906-2.141,3.1-2.775
			c1.193-0.637,2.492-0.953,3.896-0.953c2.541,0,4.67,0.842,6.383,2.527s2.568,3.783,2.568,6.291c0,2.51-0.855,4.615-2.568,6.316
			c-1.713,1.703-3.842,2.553-6.383,2.553c-2.609,0-4.744-0.844-6.408-2.535S179.072,185.029,179.072,182.32z M180.979,182.586
			c0,1.979,0.676,3.639,2.031,4.982c1.354,1.344,3.008,2.014,4.965,2.014c1.934,0,3.584-0.682,4.949-2.047
			c1.363-1.365,2.047-3.014,2.047-4.949c0-1.934-0.684-3.582-2.047-4.947c-1.365-1.365-3.016-2.049-4.949-2.049
			c-1.936,0-3.584,0.686-4.949,2.057S180.979,180.664,180.979,182.586z"/>
		<path fill="#999999" d="M209.295,189.35c-0.609,0.697-1.295,1.223-2.057,1.576s-1.592,0.529-2.486,0.529
			c-1.725,0-3.191-0.604-4.402-1.814c-1.209-1.211-1.814-2.678-1.814-4.402c0-1.713,0.607-3.176,1.822-4.393
			c1.217-1.215,2.682-1.824,4.395-1.824c0.861,0,1.686,0.17,2.471,0.506c0.783,0.338,1.475,0.826,2.072,1.467v-2.139
			c0-1.17-0.297-2.035-0.889-2.594c-0.59-0.559-1.506-0.838-2.742-0.838c-0.73,0-1.52,0.105-2.371,0.316
			c-0.852,0.209-1.824,0.547-2.918,1.01l0.746-2.203c0.828-0.289,1.641-0.504,2.438-0.648c0.795-0.143,1.562-0.215,2.305-0.215
			c1.844,0,3.195,0.432,4.053,1.293c0.855,0.863,1.285,2.223,1.285,4.078v11.986l-1.906,0.414V189.35z M200.508,185.238
			c0,1.25,0.422,2.291,1.268,3.125c0.846,0.836,1.916,1.252,3.209,1.252s2.334-0.402,3.125-1.209
			c0.789-0.807,1.186-1.863,1.186-3.168c0-1.293-0.396-2.346-1.186-3.158c-0.791-0.812-1.822-1.217-3.092-1.217
			c-1.316,0-2.396,0.414-3.242,1.242C200.93,182.936,200.508,183.979,200.508,185.238z"/>
		<path fill="#999999" d="M209.875,195.518h0.498c1.768,0,2.975-0.346,3.621-1.035c0.646-0.691,0.971-2.188,0.971-4.486v-15.865
			l1.939-0.232v16.098c0,2.754-0.453,4.65-1.359,5.695s-2.492,1.566-4.758,1.566h-0.332L209.875,195.518z M214.484,168.811
			l1.426-1.742l1.459,1.559l-1.459,1.74L214.484,168.811z"/>
		<path fill="#999999" d="M219.639,182.586c0-2.508,0.857-4.605,2.57-6.291s3.846-2.527,6.398-2.527
			c2.543,0,4.668,0.842,6.375,2.527s2.561,3.783,2.561,6.291c0,2.52-0.854,4.629-2.561,6.326c-1.707,1.695-3.832,2.543-6.375,2.543
			c-2.541,0-4.672-0.85-6.391-2.553C220.498,187.201,219.639,185.096,219.639,182.586z M221.578,182.586
			c0,1.936,0.688,3.584,2.064,4.949s3.031,2.047,4.965,2.047s3.584-0.682,4.949-2.047s2.047-3.014,2.047-4.949
			c0-1.934-0.682-3.582-2.047-4.947s-3.016-2.049-4.949-2.049s-3.588,0.684-4.965,2.049S221.578,180.652,221.578,182.586z"/>
	</g>
	<line fill="#999999" x1="17.204" y1="202.021" x2="236.996" y2="202.021"/>
	<g>
		<path fill="#999999" d="M18.801,206.793h1.82v15.004h-1.82V206.793z"/>
		<path fill="#999999" d="M23.262,211.014h1.4l0.262,1.381l0.119,0.02c1.1-1,2.141-1.561,3.521-1.561c2.24,0,3.42,1.561,3.42,4.002
			v6.941h-1.76v-6.682c0-1.961-0.781-2.801-2.121-2.801c-1.201,0-2.32,0.74-3.08,1.58v7.902h-1.762V211.014z"/>
		<path fill="#999999" d="M33.328,211.014h1.719l0.381-2.5h1.359v2.5h3.342l-0.16,1.32h-3.182v6.541c0,0.961,0.32,1.602,1.422,1.602
			c0.539,0,1.279-0.141,2.119-0.48l0.221,1.34c-0.98,0.441-1.961,0.621-2.721,0.621c-2.08,0-2.781-1.121-2.781-3.002v-6.621h-1.719
			V211.014z"/>
		<path fill="#999999" d="M50.533,221.236c-0.881,0.42-2.121,0.721-3.502,0.721c-2.881,0-5.34-1.541-5.34-5.402
			c0-4.041,2.16-5.701,4.881-5.701c3.141,0,4.221,1.961,4.221,4.541c0,0.26,0,0.5-0.02,0.76H43.49v0.502c0,2.92,1.762,3.9,3.762,3.9
			c1.08,0,2.34-0.32,3.08-0.621L50.533,221.236z M49.111,215.055c0-2.141-1.02-2.939-2.5-2.939s-2.781,0.84-3.041,2.939H49.111z"/>
		<path fill="#999999" d="M56.736,210.854c1.721,0,2.621,0.58,3.08,1.041h0.141c0.061-0.66,0.221-1.121,1.141-1.121
			c0.459,0,1.039,0.121,1.34,0.24l-0.1,1.041c-0.42-0.041-0.682-0.041-0.9-0.041c-0.801,0-0.84,0.461-0.881,1.221
			c0.141,0.359,0.201,0.781,0.201,1.1c0,2.121-1.801,3.342-4.281,3.342h-0.301c-0.721,0.24-1.961,0.82-1.961,1.68
			c0,0.621,0.682,0.781,1.16,0.781h3.482c2.26,0,3.52,0.879,3.52,2.779c-0.02,2.701-3.26,3.48-5.781,3.48
			c-1.58,0-4.58-0.439-4.58-2.74c0-1.32,0.939-2.061,1.801-2.561v-0.08c-1.061-0.359-1.182-1-1.182-1.4
			c0-1.18,1.16-1.939,2.182-2.299l-0.021-0.102c-1.359-0.42-2.141-1.439-2.141-2.881C52.676,212.273,54.195,210.854,56.736,210.854z
			 M55.896,221.377c-0.621,0.119-2.102,0.76-2.102,2.061c0,1.439,1.781,1.719,3.162,1.719c1.559,0,3.641-0.459,3.66-2.24
			c0-0.92-0.541-1.539-1.92-1.539H55.896z M56.637,216.496c1.5,0,2.459-0.74,2.459-2.182c0-1.461-0.879-2.301-2.359-2.301
			c-1.561,0-2.361,0.861-2.381,2.32C54.355,215.455,55.096,216.496,56.637,216.496z"/>
		<path fill="#999999" d="M64.08,221.797v-10.783h1.359l0.301,1.5h0.119c0.762-0.799,1.842-1.66,2.842-1.66
			c0.48,0,0.84,0.221,1.16,0.66l-0.4,1.32c-0.279-0.139-0.619-0.24-0.98-0.24c-0.879,0-1.98,0.941-2.641,1.561v7.643H64.08z"/>
		<path fill="#999999" d="M80.426,221.576c-0.461,0.201-1.061,0.381-1.561,0.381c-0.961,0-1.4-0.5-1.541-1.422l-0.08-0.039
			c-1.16,0.92-2.02,1.461-3.359,1.461c-1.781,0-3.242-1.301-3.242-3.162c0-1.5,0.881-2.08,2.502-2.5
			c1.379-0.34,3.061-0.721,4.141-0.98v-0.799c0-1.502-0.58-2.301-2.342-2.301c-1.18,0-2.359,0.439-3.381,0.98l-0.398-1.221
			c1.139-0.66,2.58-1.121,3.859-1.121c2.221,0,4.021,0.701,4.021,3.762v5.182c0,0.42,0.041,0.799,0.6,0.799
			c0.301,0,0.521-0.02,0.701-0.039L80.426,221.576z M74.344,220.615c0.92,0,2-0.52,2.941-1.479v-2.721
			c-1.16,0.219-2.58,0.58-3.441,0.82c-0.779,0.219-1.4,0.479-1.4,1.479C72.443,219.877,73.305,220.615,74.344,220.615z"/>
		<path fill="#999999" d="M81.988,211.014h1.4l0.26,1.381l0.119,0.02c1.102-1,2.141-1.561,3.521-1.561
			c2.24,0,3.422,1.561,3.422,4.002v6.941h-1.762v-6.682c0-1.961-0.779-2.801-2.119-2.801c-1.201,0-2.322,0.74-3.082,1.58v7.902
			h-1.76V211.014z"/>
		<path fill="#999999" d="M92.531,216.596c0-3.742,1.82-5.742,4.902-5.742c1.1,0,1.98,0.221,2.52,0.42v-4.881h1.74v15.404h-1.299
			l-0.32-1.361l-0.102-0.02c-0.74,0.701-1.699,1.541-3.24,1.541C93.912,221.957,92.531,219.436,92.531,216.596z M99.953,218.955
			v-6.221c-0.799-0.381-1.66-0.561-2.32-0.561c-2.461,0-3.301,1.98-3.301,4.342c0,2.461,1.1,4.041,2.621,4.041
			C98.152,220.557,99.213,219.855,99.953,218.955z"/>
		<path fill="#999999" d="M103.818,216.455c0-3.602,1.76-5.602,4.939-5.602c3.201,0,4.881,1.961,4.881,5.562
			c0,3.939-2,5.541-4.92,5.541C105.838,221.957,103.818,220.275,103.818,216.455z M111.859,216.416c0-3.102-1.301-4.182-3.102-4.182
			c-1.859,0-3.141,1.1-3.141,4.201c0,2.84,1.201,4.141,3.121,4.141C110.68,220.576,111.859,219.295,111.859,216.416z"/>
		<path fill="#999999" d="M129.686,216.215c0,3.721-1.801,5.742-4.922,5.742c-1.039,0-1.76-0.18-2.52-0.441v4.881h-1.74v-15.383
			h1.32l0.301,1.361l0.1,0.02c0.719-0.701,1.699-1.541,3.26-1.541C128.305,210.854,129.686,213.375,129.686,216.215z
			 M122.244,213.855v6.221c0.801,0.381,1.66,0.561,2.34,0.561c2.461,0,3.301-1.98,3.301-4.342c0-2.461-1.119-4.041-2.619-4.041
			C124.064,212.254,122.965,212.955,122.244,213.855z"/>
		<path fill="#999999" d="M131.709,221.797v-10.783h1.359l0.301,1.5h0.119c0.762-0.799,1.842-1.66,2.842-1.66
			c0.48,0,0.84,0.221,1.16,0.66l-0.4,1.32c-0.279-0.139-0.619-0.24-0.98-0.24c-0.879,0-1.98,0.941-2.641,1.561v7.643H131.709z"/>
		<path fill="#999999" d="M138.172,216.455c0-3.602,1.76-5.602,4.939-5.602c3.201,0,4.881,1.961,4.881,5.562
			c0,3.939-2,5.541-4.92,5.541C140.191,221.957,138.172,220.275,138.172,216.455z M146.213,216.416c0-3.102-1.301-4.182-3.102-4.182
			c-1.859,0-3.141,1.1-3.141,4.201c0,2.84,1.201,4.141,3.121,4.141C145.033,220.576,146.213,219.295,146.213,216.416z"/>
		<path fill="#999999" d="M149.256,211.014h1.721v-0.939c0-2.98,1.34-3.721,3.32-3.721c0.82,0,1.762,0.18,2.32,0.42l-0.318,1.301
			c-0.441-0.182-1.281-0.342-1.822-0.342c-1.119,0-1.76,0.521-1.76,2.281v1h2.961l-0.18,1.32h-2.781v9.463h-1.76v-9.463h-1.701
			V211.014z"/>
		<path fill="#999999" d="M165.221,221.236c-0.881,0.42-2.121,0.721-3.5,0.721c-2.881,0-5.342-1.541-5.342-5.402
			c0-4.041,2.16-5.701,4.881-5.701c3.141,0,4.221,1.961,4.221,4.541c0,0.26,0,0.5-0.02,0.76h-7.281v0.502c0,2.92,1.76,3.9,3.76,3.9
			c1.08,0,2.342-0.32,3.082-0.621L165.221,221.236z M163.801,215.055c0-2.141-1.02-2.939-2.5-2.939s-2.781,0.84-3.041,2.939H163.801
			z"/>
		<path fill="#999999" d="M170.504,221.957c-1.34,0-2.76-0.42-3.5-0.82l0.24-1.281c0.779,0.4,2.141,0.801,3.24,0.801
			c1.32,0,2.48-0.4,2.48-1.82c0-2.361-5.781-1.461-5.781-4.922c0-1.879,1.42-3.061,3.941-3.061c1.26,0,2.561,0.34,3.16,0.621
			l-0.301,1.301c-0.66-0.301-1.859-0.602-2.9-0.602c-1.32,0-2.16,0.541-2.16,1.641c0,2.201,5.762,1.42,5.762,4.961
			C174.686,220.957,172.904,221.957,170.504,221.957z"/>
		<path fill="#999999" d="M177.588,206.293c0.68,0,1.16,0.48,1.16,1.141s-0.48,1.16-1.16,1.16c-0.721,0-1.18-0.5-1.18-1.16
			C176.408,206.793,176.867,206.293,177.588,206.293z M176.707,211.014h1.76v10.783h-1.76V211.014z"/>
		<path fill="#999999" d="M180.57,216.455c0-3.602,1.76-5.602,4.939-5.602c3.201,0,4.881,1.961,4.881,5.562
			c0,3.939-2,5.541-4.92,5.541C182.59,221.957,180.57,220.275,180.57,216.455z M188.611,216.416c0-3.102-1.301-4.182-3.102-4.182
			c-1.859,0-3.141,1.1-3.141,4.201c0,2.84,1.201,4.141,3.121,4.141C187.432,220.576,188.611,219.295,188.611,216.416z"/>
		<path fill="#999999" d="M192.533,211.014h1.4l0.262,1.381l0.119,0.02c1.1-1,2.141-1.561,3.521-1.561c2.24,0,3.42,1.561,3.42,4.002
			v6.941h-1.76v-6.682c0-1.961-0.781-2.801-2.121-2.801c-1.201,0-2.32,0.74-3.08,1.58v7.902h-1.762V211.014z"/>
		<path fill="#999999" d="M212.861,221.576c-0.461,0.201-1.061,0.381-1.561,0.381c-0.961,0-1.4-0.5-1.541-1.422l-0.08-0.039
			c-1.16,0.92-2.02,1.461-3.359,1.461c-1.781,0-3.242-1.301-3.242-3.162c0-1.5,0.881-2.08,2.502-2.5
			c1.379-0.34,3.061-0.721,4.141-0.98v-0.799c0-1.502-0.58-2.301-2.342-2.301c-1.18,0-2.359,0.439-3.381,0.98l-0.398-1.221
			c1.139-0.66,2.58-1.121,3.859-1.121c2.221,0,4.021,0.701,4.021,3.762v5.182c0,0.42,0.041,0.799,0.6,0.799
			c0.301,0,0.521-0.02,0.701-0.039L212.861,221.576z M206.779,220.615c0.92,0,2-0.52,2.941-1.479v-2.721
			c-1.16,0.219-2.58,0.58-3.441,0.82c-0.779,0.219-1.4,0.479-1.4,1.479C204.879,219.877,205.74,220.615,206.779,220.615z"/>
		<path fill="#999999" d="M214.422,206.393h1.762v15.404h-1.762V206.393z"/>
		<path fill="#999999" d="M227.146,221.236c-0.881,0.42-2.121,0.721-3.5,0.721c-2.881,0-5.342-1.541-5.342-5.402
			c0-4.041,2.16-5.701,4.881-5.701c3.141,0,4.221,1.961,4.221,4.541c0,0.26,0,0.5-0.02,0.76h-7.281v0.502c0,2.92,1.76,3.9,3.76,3.9
			c1.08,0,2.342-0.32,3.082-0.621L227.146,221.236z M225.727,215.055c0-2.141-1.02-2.939-2.5-2.939s-2.781,0.84-3.041,2.939H225.727
			z"/>
		<path fill="#999999" d="M232.43,221.957c-1.34,0-2.76-0.42-3.5-0.82l0.24-1.281c0.779,0.4,2.141,0.801,3.24,0.801
			c1.32,0,2.48-0.4,2.48-1.82c0-2.361-5.781-1.461-5.781-4.922c0-1.879,1.42-3.061,3.941-3.061c1.26,0,2.561,0.34,3.16,0.621
			l-0.301,1.301c-0.66-0.301-1.859-0.602-2.9-0.602c-1.32,0-2.16,0.541-2.16,1.641c0,2.201,5.762,1.42,5.762,4.961
			C236.611,220.957,234.83,221.957,232.43,221.957z"/>
	</g>
	<g>
		<path fill="#999999" d="M122.253,240.802c-0.104,1.258,1.412,1.211,1.412,1.211c1.852-0.021,2.335-1.253,2.335-1.253v-1.4
			c-1,0.409-2.641,0.532-2.641,0.532C122.316,240.024,122.253,240.802,122.253,240.802z"/>
		<path fill="#999999" d="M117.836,239H113v3h4.836c0,0,1.253-0.133,1.253-1.499C119.089,240.501,119.199,239,117.836,239z"/>
		<path fill="#999999" d="M118.764,235.5c0,0,0.109-0.5-1.254-1.5H113v3h4.51C117.51,237,118.764,236.756,118.764,235.5z"/>
		<path fill="#999999" d="M124.275,236.734c-1.95,0-1.891,1.266-1.891,1.266h-2.116l-0.306,0.287
			c1.195-0.072,1.604,0.668,1.604,0.668c0.554-0.501,2.782-0.606,2.782-0.606c1.818-0.02,1.777-0.664,1.777-0.664
			C126.25,236.662,124.275,236.734,124.275,236.734z"/>
		<path fill="#999999" d="M17,230v17h220v-17H17z M85,243h-3v-10h3V243z M147,244h-3v-0.964c-1,1.554-2.891,1.404-2.891,1.404
			c-2.168-0.014-3.109-1.186-3.109-1.186V243h-3v-4.693c0-1.28-1.959-1.391-1.959-1.391c-1.771,0.11-2.041,1.553-2.041,1.553V243h-5
			v-0.605c-2,1.8-5.445,0.735-5.445,0.735c-0.49,0.572-1.928,0.871-1.928,0.871h-8.106h-0.208H108v-1.113
			c0,0-0.853,1.113-2.223,1.113h-4.312l-3.389-3.747L97,240.944V243h-5v-4.531c0,0,0.021-1.245-1.469-1.245
			c0,0-1.531-0.121-1.531,1.267V243h-3v-8h3v1.59c0,0,0.946-1.104,2.663-1.104c0,0,1.337-0.123,2.337,0.817V233h3v5.389l3.952-2.389
			H104v4.76c0,0,0.241,1.351,2.081,1.351c0,0,0.919,0.041,1.919-1.351V234h2v-1h8.551c3.292,0,2.883,2.492,2.883,2.492
			c4.243-1.514,6.566,0.586,6.566,0.586V235h3v1.263c1-1.146,3.436-1.186,3.436-1.186c3.067-0.02,3.252,2.065,3.252,2.065
			c1.082-1.492,3.575-1.288,3.575-1.288c1.982,0,2.737,1.144,2.737,1.144V233h3V244z M153.043,244.471
			c-3.049,0-5.52-2.471-5.52-5.52s2.471-5.52,5.52-5.52c1.754,0,5.325-0.168,5.325-0.168s0.195,4.393,0.195,5.688
			C158.563,242,156.093,244.471,153.043,244.471z"/>
		<ellipse fill="#999999" cx="141.112" cy="240.388" rx="3.364" ry="3.09"/>
		<circle fill="#999999" cx="153.012" cy="238.92" r="3.312"/>
	</g>
</g>
</svg>
