<?xml version="1.0" encoding="utf-8"?>
<!-- Generator: Adobe Illustrator 16.0.4, SVG Export Plug-In . SVG Version: 6.00 Build 0)  -->
<svg version="1.2" baseProfile="tiny" id="Capa_1" xmlns="http://www.w3.org/2000/svg" xmlns:xlink="http://www.w3.org/1999/xlink"
	 x="0px" y="0px" width="300px" height="300px" viewBox="0 0 300 300" xml:space="preserve">
<g>
	<path fill-rule="evenodd" fill="#999999" d="M287.509,150.014c-0.008,16.535-13.43,29.938-29.964,29.922
		c-16.535-0.017-29.934-13.447-29.907-29.979c0.025-16.536,13.467-29.931,29.995-29.893
		C274.148,120.102,287.519,133.503,287.509,150.014z"/>
	<path fill-rule="evenodd" fill="#999999" d="M42.219,135.665c-0.242-0.162-0.484-0.324-0.727-0.487
		c-0.136-0.118-0.319-0.148-0.465-0.251c-1.617-0.953-3.381-1.479-5.222-1.766c-3.272-0.509-6.442-0.281-9.285,1.59
		c-2.07,1.363-3.519,3.248-4.377,5.605c-0.998,2.744-1.361,5.572-1.338,8.468c0.015,1.772-0.18,3.568,0.121,5.312
		c0.516,2.994,1.188,5.975,3.123,8.451c1.646,2.104,3.768,3.449,6.434,3.92c4.988,0.879,9.436-0.434,13.502-3.291
		c0.64-0.449,1.212-0.998,1.791-1.527c0.298-0.271,0.495-0.263,0.724,0.071c0.647,0.946,1.308,1.884,1.969,2.821
		c0.217,0.307,0.128,0.529-0.104,0.796c-1.69,1.943-3.819,3.222-6.17,4.204c-1.581,0.66-3.159,1.371-4.866,1.545
		c-2.588,0.266-5.211,0.3-7.787,0.042c-3.224-0.322-6.27-1.403-8.938-3.306c-2.342-1.668-4.195-3.784-5.488-6.389
		c-1.357-2.736-2.131-5.609-2.416-8.646c-0.18-1.93-0.285-3.85-0.138-5.783c0.243-3.201,0.94-6.274,2.523-9.1
		c1.871-3.341,4.579-5.744,8.054-7.359c1.829-0.85,3.707-1.502,5.691-1.705c2.424-0.248,4.864-0.232,7.295,0.079
		c2.924,0.375,5.596,1.437,8.099,2.942c1.226,0.738,2.333,1.644,3.336,2.674c0.293,0.301,0.318,0.531,0.058,0.877
		c-0.666,0.881-1.275,1.805-1.997,2.645c-0.558,0.305-0.702-0.258-1.008-0.481c-0.518-0.446-1.035-0.893-1.552-1.339
		C42.786,136.063,42.552,135.796,42.219,135.665z"/>
	<path fill-rule="evenodd" fill="#999999" d="M107.053,173.158c-0.49-0.261-0.604-0.679-0.604-1.212
		c0.013-6.227,0.003-12.453,0.012-18.68c0.002-1.146-0.208-2.232-0.688-3.276c-0.729-1.586-2.058-2.329-3.698-2.384
		c-2.637-0.086-5.279-0.008-7.919-0.027c-0.544-0.004-0.69,0.172-0.688,0.712c0.044,6.81,0.063,13.62,0.089,20.429
		c0.004,1.08,0.002,1.08-1.083,1.08c-1.975,0-3.95-0.01-5.925,0.008c-0.408,0.004-0.558-0.099-0.557-0.535
		c0.012-8.262,0.012-16.524,0.001-24.787c0-0.396,0.116-0.497,0.513-0.511c3.304-0.116,6.607-0.006,9.912-0.023
		c2.136-0.011,4.271,0.006,6.407-0.022c2.089-0.027,4.077,0.373,5.946,1.312c2.981,1.5,4.717,3.904,5.193,7.211
		c0.064,0.218,0.033,0.44,0.033,0.66c0.002,6.113-0.04,12.228,0.037,18.34c0.015,1.17-0.514,1.822-1.297,2.44
		c-0.204,0.161-0.413,0.314-0.602,0.495c-0.367,0.442-0.79,0.83-1.249,1.171c-0.292,0.216-0.618,0.38-0.945,0.033
		c-0.394-0.33-0.711-0.751-1.181-0.991c-0.095-0.068-0.189-0.137-0.284-0.205C108.068,173.907,107.555,173.54,107.053,173.158z"/>
	<path fill-rule="evenodd" fill="#999999" d="M218.077,147.525c-2.93-1.336-6.019-1.72-9.197-1.477
		c-0.791,0.062-1.588,0.108-2.32,0.56c-1.808,1.115-1.933,3.44-0.196,4.656c1.771,1.24,3.812,1.773,5.892,2.182
		c1.932,0.379,3.916,0.529,5.774,1.228c2.272,0.853,4.506,1.808,6.004,3.856c1.323,1.811,1.566,3.786,0.734,5.881
		c-0.796,2.004-2.216,3.299-4.148,4.312c-2.447,1.282-4.984,1.605-7.645,1.557c-2.034-0.036-4.084,0.191-6.1-0.13
		c-2.205-0.351-4.38-0.909-6.467-1.707c-1.25-0.479-2.382-1.25-3.633-1.753c-0.248-0.1-0.246-0.24-0.104-0.412
		c0.787-0.945,1.298-2.084,2.118-3.007c0.167-0.188,0.311-0.294,0.561-0.132c1.562,1.014,3.296,1.639,5.039,2.262
		c3.144,1.121,6.366,1.074,9.604,0.717c1.102-0.122,2.165-0.473,2.744-1.61c0.448-0.88,0.296-2.97-0.978-3.642
		c-1.887-0.998-3.899-1.6-5.96-2.092c-2.073-0.494-4.18-0.865-6.201-1.562c-0.817-0.281-1.614-0.607-2.392-0.998
		c-2.798-1.41-4.19-4.465-3.745-7.385c0.375-2.458,2.011-4.054,4.402-4.913c1.734-0.623,3.49-1.063,5.312-1.279
		c1.626-0.192,3.258-0.134,4.888-0.104c2.682,0.05,5.276,0.587,7.792,1.49c1.136,0.407,2.234,0.916,3.353,1.371
		c0.265,0.107,0.318,0.23,0.17,0.5c-0.592,1.076-1.387,2.031-1.871,3.171c-0.154,0.363-0.396,0.178-0.586,0.035
		c-0.728-0.55-1.559-0.913-2.354-1.339C218.43,147.628,218.242,147.599,218.077,147.525z"/>
	<path fill-rule="evenodd" fill="#999999" d="M159.243,152.168c0,5.561-0.008,11.121,0.013,16.682
		c0.003,0.555-0.139,0.706-0.694,0.695c-1.934-0.035-3.869-0.032-5.803-0.001c-0.51,0.009-0.623-0.14-0.622-0.634
		c0.021-10.678,0.022-21.356,0.028-32.034c0-0.04-0.003-0.081,0-0.121c0.039-0.638-0.28-1.485,0.122-1.851
		c0.348-0.316,1.184-0.105,1.805-0.107c1.511-0.006,3.022,0.021,4.532-0.015c0.517-0.013,0.632,0.151,0.63,0.645
		C159.237,141.008,159.243,146.588,159.243,152.168z"/>
	<path fill-rule="evenodd" fill="#999999" d="M112.137,174.387c0.015-0.285,0.248-0.371,0.44-0.514
		c0.781-0.574,1.402-1.144,1.391-2.314c-0.065-6.229-0.032-12.457-0.031-18.687c0-0.14,0.019-0.28,0.028-0.421
		c0.163,0.261,0.089,0.551,0.089,0.825c0.007,6.304,0.004,12.608,0.016,18.911c0,0.371-0.109,0.642-0.358,0.914
		C113.246,173.61,112.73,174.042,112.137,174.387z"/>
	<path fill-rule="evenodd" fill="#999999" d="M107.053,173.158c0.609,0.258,1.147,0.597,1.425,1.237
		C107.97,174.02,107.443,173.667,107.053,173.158z"/>
	<path fill-rule="evenodd" fill="#999999" d="M169.079,145.678c-0.354,0.501-0.802,0.902-1.312,1.238
		C168.053,146.343,168.552,145.997,169.079,145.678z"/>
	<path fill-rule="evenodd" fill="#999999" d="M108.762,174.6c0.581,0.107,0.889,0.54,1.181,0.991
		C109.475,175.35,109.118,174.975,108.762,174.6z"/>
	<path fill-rule="evenodd" fill="#6177A9" d="M56.845,148.977c0.188-0.126,0.362-0.283,0.616-0.242
		C57.284,148.889,57.168,149.196,56.845,148.977z"/>
	<path fill-rule="evenodd" fill="#999999" d="M68.822,147.04c0.281-0.003,0.513,0.071,0.592,0.382
		C69.186,147.342,68.943,147.284,68.822,147.04z"/>
	<path fill-rule="evenodd" fill="#999999" d="M189.41,163.127c-0.127,0.074-0.255,0.148-0.382,0.224
		C189.093,163.169,189.14,162.958,189.41,163.127z"/>
	<path fill-rule="evenodd" fill="#7084B1" d="M218.077,147.525c0.198,0.006,0.407-0.011,0.49,0.235
		C218.377,147.737,218.186,147.719,218.077,147.525z"/>
	<path fill-rule="evenodd" fill="#FFFFFF" d="M237.559,140.431c-0.583-0.009-1.166-0.034-1.748-0.022
		c-0.317,0.008-0.417-0.107-0.414-0.419c0.013-1.389,0.019-2.778-0.002-4.167c-0.007-0.395,0.193-0.402,0.485-0.402
		c1.69,0.002,3.381-0.01,5.071-0.016c0.248-0.127,0.51-0.189,0.79-0.156c3.874-0.043,7.748-0.016,11.622-0.018
		c0.88,0.066,1.761-0.026,2.642,0.005c0.404,0.038,0.811,0.019,1.216,0.015c0.11-0.014,0.221-0.013,0.331-0.001
		c0.405,0.009,0.811,0.02,1.217-0.013c0.921-0.025,1.841,0.051,2.762-0.002c1.948-0.014,3.896-0.012,5.843-0.003
		c0.837,0.003,0.97,0.144,0.978,0.993c0.01,1.004,0.011,2.008,0,3.012c-0.05,0.273,0.028,0.551-0.033,0.824
		c-0.043,0.341-0.271,0.466-0.582,0.497c-0.24,0.024-0.481,0.02-0.723,0.02c-3.233,0.001-6.468,0.001-9.702,0.001
		c-0.2,0-0.401,0.008-0.603,0.004c-0.408-0.007-0.578,0.197-0.572,0.593c0.004,0.241,0.013,0.482-0.018,0.722
		c0.008,0.193,0.011,0.385-0.001,0.576c0.023,1.305,0.027,2.609,0,3.914c0.017,0.231-0.001,0.463,0.001,0.693
		c0.026,1.941,0.028,3.884,0.001,5.826c-0.005,0.23,0.017,0.461-0.002,0.692c0.023,1.304,0.026,2.608,0,3.913
		c0.01,0.193,0.009,0.387,0,0.579c0.028,2.145,0.029,4.289,0.002,6.434c-0.015,0.197,0.033,0.395,0,0.591
		c0.036,0.906,0.032,1.811,0.009,2.716c-0.017,0.636-0.166,0.794-0.799,0.801c-2.334,0.024-4.667,0.022-7.001,0.001
		c-0.646-0.006-0.799-0.174-0.803-0.861c-0.01-2.052-0.032-4.104,0.01-6.155c0.017-0.236-0.035-0.473,0-0.709
		c-0.035-6.281-0.006-12.562-0.016-18.844c0-0.081,0-0.161,0-0.241c0.008-1.403-0.024-1.213-1.2-1.246
		c-0.232-0.042-0.468,0.025-0.7-0.013c-2.462,0.028-4.924,0.017-7.387,0.011C238.006,140.538,237.761,140.584,237.559,140.431z"/>
	<path fill-rule="evenodd" fill="#FFFFFF" d="M277.716,158.542c-0.009,3.062-0.031,6.125-0.016,9.188
		c0.003,0.533-0.107,0.721-0.685,0.707c-1.833-0.041-3.668-0.049-5.5,0.004c-0.646,0.018-0.936-0.132-0.838-0.797
		c-0.188-0.195-0.135-0.449-0.168-0.682c-0.01-3.119-0.026-6.236,0.008-9.355c-0.049-0.391,0.048-0.782-0.013-1.172
		c-0.007-4.285-0.011-8.57-0.002-12.855c0.065-0.39-0.031-0.782,0.014-1.173c-0.03-2.03-0.016-4.062-0.014-6.091
		c0-0.963,0.118-1.074,1.072-1.085c0.522-0.006,1.045-0.009,1.567,0.019c0.277-0.029,0.54,0.016,0.783,0.156
		c1.045,0.007,2.091,0.04,3.134,0.008c0.488-0.014,0.649,0.104,0.643,0.621c-0.025,1.807,0.005,3.615,0.014,5.424
		c0.155,0.489,0.215,0.989,0.177,1.501c0.024,4.692,0.031,9.384,0,14.076C277.934,157.548,277.869,158.05,277.716,158.542z"/>
	<path fill-rule="evenodd" fill="#FEFDFD" d="M270.677,166.993c0,0.217,0,0.434,0.001,0.65c-2.928,2.127-6.146,3.568-9.742,4.102
		c-6.452,0.957-12.283-0.539-17.362-4.633c-4.683-3.774-7.351-8.728-8.044-14.701c-0.485-4.176,0.245-8.174,2.03-11.98
		c0.197,0.001,0.395,0.001,0.591,0.002c0.063,0.41-0.173,0.74-0.322,1.08c-0.929,2.106-1.488,4.314-1.654,6.598
		c-0.26,3.584,0.156,7.085,1.678,10.392c3.029,6.589,8.053,10.786,15.144,12.349c5.605,1.234,10.887,0.222,15.794-2.748
		c0.431-0.261,0.82-0.585,1.237-0.867C270.223,167.102,270.4,166.914,270.677,166.993z"/>
	<path fill-rule="evenodd" fill="#FEFDFD" d="M273.926,135.405c-0.233,0-0.467,0-0.699,0c-0.768-0.396-1.265-1.107-1.911-1.648
		c-3.253-2.719-6.952-4.441-11.163-4.926c-6.16-0.709-11.68,0.871-16.479,4.852c-0.467,0.387-0.902,0.802-1.326,1.231
		c-0.199,0.202-0.407,0.39-0.679,0.491c-0.238,0-0.478,0-0.717,0c3.068-3.505,6.876-5.854,11.409-6.83
		c8.295-1.785,15.435,0.438,21.346,6.547C273.789,135.207,273.854,135.31,273.926,135.405z"/>
	<path fill-rule="evenodd" fill="#FEFDFC" d="M277.714,142.902c0.001-0.481,0.001-0.963,0.002-1.444
		c0.827,1.674,1.262,3.468,1.527,5.297c0.57,3.92,0.132,7.736-1.323,11.428c-0.05,0.127-0.136,0.24-0.204,0.359
		c-0.001-0.48-0.001-0.961-0.002-1.441c0.329-1.651,0.813-3.27,0.951-4.963c0.21-2.566,0.076-5.102-0.596-7.594
		C277.922,144,277.865,143.442,277.714,142.902z"/>
	<path fill-rule="evenodd" fill="#999999" d="M68.822,147.04c-0.552-0.256-1.137-0.414-1.736-0.465
		c-2.619-0.225-5.173,0.096-7.604,1.117c-0.692,0.292-1.426,0.545-2.021,1.043c-0.21,0.07-0.373,0.258-0.616,0.242
		c-0.8-0.799-1.313-1.813-2.029-2.678c-0.227-0.273-0.12-0.525,0.206-0.674c1.297-0.59,2.575-1.217,3.938-1.655
		c1.359-0.438,2.726-0.821,4.136-1.066c0.884-0.154,1.767-0.071,2.648-0.116c2.289-0.113,4.548,0.014,6.706,0.896
		c2.283,0.933,4.288,2.288,5.667,4.335c0.986,1.464,1.597,3.12,1.584,4.981c-0.035,5.299-0.001,10.6,0.031,15.9
		c0.003,0.527-0.12,0.672-0.661,0.67c-6.248-0.021-12.496-0.013-18.744-0.014c-2.002-0.001-3.828-0.551-5.537-1.611
		c-1.124-0.699-1.73-1.752-2.358-2.836c-1.033-1.779-0.979-3.685-0.542-5.562c0.408-1.758,1.538-3.112,2.994-4.17
		c2.099-1.525,4.479-2.035,7.035-2.006c3.244,0.037,6.489-0.004,9.734,0.021c0.5,0.004,0.644-0.169,0.59-0.615
		c-0.258-2.148-1.003-4.037-2.829-5.356C69.267,147.217,69.021,147.163,68.822,147.04z M59.415,162.987
		c0.066,0.209,0.139,0.415,0.198,0.625c0.377,1.348,1.806,2.359,3.105,2.391c2.838,0.07,5.68,0,8.521-0.023
		c0.853-0.008,0.875-0.099,0.872-0.962c-0.008-2.395-0.109-4.79,0.054-7.184c0.028-0.411-0.11-0.621-0.581-0.616
		c-2.478,0.022-4.956,0.035-7.434,0.02c-1.586-0.011-2.964,0.429-4.029,1.656C59.139,160.129,59.248,161.553,59.415,162.987z"/>
	<path fill-rule="evenodd" fill="#999999" d="M60.121,158.893c-0.833,1.262-0.816,2.67-0.706,4.094
		c-0.265-1.24-0.336-2.469,0.321-3.622C59.831,159.199,59.804,158.891,60.121,158.893z"/>
	<path fill-rule="evenodd" fill="#999999" d="M135.292,169.557c-3.323-0.036-6.649,0.164-9.969-0.037
		c-2.828-0.173-5.063-1.465-6.604-3.86c-0.393-0.61-0.533-1.349-0.655-2.06c-0.309-1.798-0.24-3.592,0.51-5.27
		c0.496-1.11,1.329-2.018,2.314-2.746c2.01-1.485,4.278-2.137,6.773-2.137c3.263,0.001,6.526-0.061,9.79-0.096
		c1.049-0.012,1.048-0.012,0.849-1.084c-0.214-1.156-0.625-2.242-1.185-3.271c-0.961-1.771-2.631-2.292-4.464-2.366
		c-1.422-0.058-2.861-0.129-4.273,0.158c-1.523,0.311-2.98,0.82-4.348,1.57c-1.257,0.689-1.243,0.679-1.967-0.55
		c-0.305-0.518-0.679-0.997-1.042-1.478c-0.19-0.252-0.18-0.395,0.115-0.554c1.74-0.938,3.584-1.622,5.453-2.246
		c2.693-0.898,5.476-0.937,8.245-0.696c3.278,0.285,6.172,1.588,8.354,4.092c1.719,1.974,2.789,4.242,2.743,7.006
		c-0.082,4.995-0.007,9.992,0.024,14.988c0.003,0.494-0.114,0.65-0.629,0.646C141.982,169.545,138.637,169.557,135.292,169.557z
		 M137.432,165.993c0.756,0,0.812-0.057,0.809-0.836c-0.012-2.438-0.04-4.875-0.024-7.312c0.003-0.502-0.171-0.612-0.629-0.609
		c-2.679,0.016-5.359,0.01-8.039,0.006c-0.596,0-1.16,0.139-1.681,0.412c-2.068,1.088-2.939,3.039-2.39,5.318
		c0.41,1.703,1.479,2.733,3.198,2.972c1.562,0.217,3.138,0.021,4.707,0.05C134.732,165.993,136.082,165.993,137.432,165.993z"/>
	<path fill-rule="evenodd" fill="#999999" d="M189.41,163.127c0.729,1.028,1.459,2.057,2.188,3.086
		c0.188,0.266-0.069,0.363-0.207,0.473c-1.225,0.971-2.563,1.766-4.051,2.238c-2.381,0.757-4.794,1.33-7.329,1.381
		c-2.534,0.049-4.906-0.54-7.239-1.413c-1.228-0.46-2.408-1.023-3.531-1.702c-0.454-0.273-0.823-0.658-1.146-1.064
		c-1.489-1.875-2.712-3.9-3.367-6.227c-0.536-1.902-0.47-3.854-0.187-5.758c0.387-2.596,1.332-5.01,3.056-7.055
		c0.051-0.061,0.113-0.113,0.17-0.17c0.375-0.479,0.887-0.812,1.312-1.238c2.235-2.002,4.864-3.042,7.852-3.11
		c1.849-0.042,3.709-0.169,5.543,0.232c2.729,0.597,5.326,1.507,7.363,3.509c1.768,1.736,2.833,3.883,3.314,6.317
		c0.272,1.38,0.098,2.772,0.143,4.159c0.02,0.604-0.032,1.213,0.015,1.813c0.039,0.503-0.162,0.585-0.612,0.583
		c-4.657-0.015-9.313-0.009-13.97-0.009c-1.915,0-3.83,0.009-5.745-0.007c-0.441-0.004-0.531,0.111-0.447,0.559
		c0.808,4.258,4.492,6.98,8.577,6.721c1.926-0.123,3.802-0.395,5.543-1.272c0.904-0.456,1.745-1.003,2.374-1.822
		C189.165,163.293,189.189,163.042,189.41,163.127z M179.423,155.454c0.12,0,0.241,0.001,0.362,0
		c1.852-0.014,3.704-0.025,5.557-0.049c0.194-0.002,0.456,0.056,0.425-0.325c-0.095-1.179-0.118-2.366-0.254-3.54
		c-0.108-0.938-0.36-1.842-0.912-2.656c-1.467-2.162-4.81-3.354-7.657-2.359c-1.766,0.615-3.186,1.666-3.819,3.561
		c-0.525,1.571-0.662,3.176-0.65,4.813c0.003,0.384,0.091,0.526,0.492,0.523c2.151-0.015,4.304-0.007,6.456-0.007
		C179.422,155.428,179.423,155.441,179.423,155.454z"/>
	<path fill-rule="evenodd" fill="#999999" d="M270.677,166.993c-2.346,1.75-4.901,3.078-7.745,3.813
		c-12.27,3.173-24.205-4.653-26.588-16.562c-0.96-4.798-0.333-9.409,1.807-13.812c2.484-0.002,4.967-0.003,7.45-0.004
		c0.099,0.264-0.114,0.41-0.237,0.576c-1.643,2.225-2.651,4.721-2.884,7.461c-0.381,4.492,0.86,8.482,3.999,11.809
		c0.41,0.434,0.931,0.773,1.198,1.336c0.006,2.075,0.022,4.15,0.011,6.225c-0.002,0.414,0.055,0.605,0.547,0.6
		c2.397-0.027,4.795-0.021,7.192-0.004c0.421,0.004,0.554-0.114,0.543-0.539c-0.023-0.926,0.006-1.853,0.014-2.779
		c0.507-0.197,1.034-0.079,1.55-0.084c2.1-0.021,4.11-0.43,6.027-1.291c2.654-1.193,4.793-2.99,6.408-5.415
		c0.19-0.286,0.285-0.683,0.708-0.762C270.677,160.704,270.677,163.848,270.677,166.993z"/>
	<path fill-rule="evenodd" fill="#999999" d="M270.678,143.557c0,4.297,0,8.592,0.001,12.887c-0.178,0.787-0.624,1.439-1.084,2.072
		c-2.445,3.374-5.719,5.443-9.833,6.141c-1.011,0.171-2.039,0.246-3.069,0.195c-0.263-0.013-0.531-0.008-0.706-0.26
		c0.001-2.182,0.002-4.364,0.002-6.547c0.197-0.18,0.422-0.068,0.635-0.056c3.019,0.185,5.497-0.845,7.311-3.303
		c2.743-3.719,1.663-9.097-2.286-11.507c-1.569-0.959-3.267-1.328-5.091-1.143c-0.197,0.02-0.4,0.092-0.568-0.084
		c-0.114-1.551-0.114-1.551,1.409-1.551c3.396,0,6.793,0,10.189,0.002c0.281,0,0.587,0.053,0.572-0.383
		c0.105-0.049,0.205-0.016,0.271,0.06C269.365,141.12,270.237,142.2,270.678,143.557z"/>
	<path fill-rule="evenodd" fill="#999999" d="M241.668,135.405c2.961-3.255,6.596-5.428,10.876-6.34
		c7.982-1.703,14.876,0.426,20.617,6.241c0.027,0.028,0.044,0.065,0.065,0.099c-0.663,0.008-1.328,0.049-1.987,0.008
		c-0.476-0.029-0.556,0.146-0.553,0.576c0.016,2.15-0.003,4.3-0.01,6.449c-0.202,0.021-0.279-0.139-0.362-0.268
		c-0.574-0.898-1.192-1.764-1.942-2.527c-0.101-0.102-0.131-0.248-0.211-0.363c-0.01-1.045-0.054-2.09-0.015-3.133
		c0.021-0.561-0.101-0.751-0.709-0.738c-1.968,0.038-3.938,0.004-5.906-0.002c-2.716-0.5-5.433-0.557-8.149-0.002
		C249.478,135.405,245.573,135.405,241.668,135.405z"/>
	<path fill-rule="evenodd" fill="#999999" d="M255.986,146.459c0-1.334,0-2.667,0-4c0.546-0.314,1.149-0.329,1.748-0.292
		c3.499,0.22,6.212,2.374,7.227,5.72c1.339,4.417-1.806,9.25-6.39,9.842c-0.725,0.093-1.438,0.167-2.158-0.002
		c-0.156-0.036-0.323-0.037-0.427-0.188c0-1.333,0.001-2.666,0.001-3.999c0.215-0.142,0.431-0.04,0.643,0.005
		c1.532,0.323,2.997-0.254,3.855-1.522c0.82-1.214,0.82-2.837-0.001-4.048c-0.86-1.269-2.324-1.844-3.856-1.52
		C256.416,146.5,256.2,146.601,255.986,146.459z"/>
	<path fill-rule="evenodd" fill="#999999" d="M246.274,140.43c1.422-0.1,1.422-0.1,1.422,1.303c0,6.158,0,12.318-0.001,18.477
		c0,0.241-0.018,0.482-0.027,0.723c-0.308,0.023-0.463-0.215-0.644-0.393c-2.425-2.39-3.867-5.273-4.3-8.65
		c-0.512-3.988,0.494-7.584,2.858-10.814C245.77,140.821,245.932,140.524,246.274,140.43z"/>
	<path fill-rule="evenodd" fill="#999999" d="M255.986,152.956c0-1.971,0.001-3.941,0.001-5.912c0.392-0.477,0.967-0.489,1.49-0.494
		c1.529-0.016,3.036,1.17,3.287,2.609c0.319,1.831-0.306,3.254-1.942,3.979c-0.713,0.315-1.467,0.41-2.235,0.182
		C256.354,153.25,256.119,153.188,255.986,152.956z"/>
	<path fill-rule="evenodd" fill="#FEFDFD" d="M255.986,157.54c2.352,0.371,4.471-0.144,6.332-1.652
		c2.313-1.873,3.312-5.054,2.492-7.941c-0.844-2.973-3.354-5.137-6.359-5.533c-0.832-0.111-1.645-0.045-2.465,0.047
		c0.001-0.169,0.001-0.338,0.002-0.506c4.508-0.777,8.433,2.107,9.387,6.074c1.4,5.815-3.437,10.967-9.387,10.018
		C255.987,157.877,255.986,157.708,255.986,157.54z"/>
	<path fill-rule="evenodd" fill="#FEFDFD" d="M246.274,140.43c-1.371,1.692-2.47,3.543-2.989,5.67
		c-1.41,5.781,0.035,10.742,4.383,14.832c0.003,0.227,0.006,0.451,0.009,0.678c-2.146-1.721-3.672-3.898-4.544-6.486
		c-1.792-5.32-0.925-10.229,2.469-14.695C245.825,140.428,246.05,140.429,246.274,140.43z"/>
	<path fill-rule="evenodd" fill="#FDFDFC" d="M255.986,164.592c5.399,0.61,11.293-2.049,14.327-7.531
		c0.115-0.209,0.243-0.411,0.365-0.616c-0.001,0.372-0.001,0.743-0.002,1.115c-1.396,2.252-3.153,4.146-5.455,5.5
		c-2.858,1.681-5.937,2.368-9.238,2.052C255.984,164.939,255.985,164.766,255.986,164.592z"/>
	<path fill-rule="evenodd" fill="#FDFCFB" d="M255.986,152.956c2.498,1.166,5.113-0.93,4.688-3.527
		c-0.291-1.775-2.367-3.438-4.687-2.385c0-0.194-0.001-0.389-0.001-0.584c2.554-0.914,4.579,0.7,5.093,2.412
		c0.841,2.799-1.6,5.471-4.452,4.837c-0.215-0.048-0.426-0.112-0.64-0.168C255.987,153.346,255.987,153.151,255.986,152.956z"/>
	<path fill-rule="evenodd" fill="#FDFCFB" d="M253.382,135.405c1.773-0.629,3.608-0.675,5.452-0.532
		c0.914,0.071,1.834,0.177,2.697,0.534c-0.928,0-1.854-0.002-2.782-0.002c-0.412-0.068-0.823-0.069-1.234,0
		c-0.081,0-0.162,0-0.243,0c-0.4-0.068-0.801-0.07-1.201,0C255.174,135.405,254.278,135.405,253.382,135.405z"/>
	<path fill-rule="evenodd" fill="#FDFBFA" d="M268.161,139.28c1.054,0.881,1.754,2.045,2.516,3.158
		c0.001,0.373,0.001,0.746,0.001,1.119c-0.634-1.082-1.254-2.176-2.103-3.113c-0.133-0.146-0.277-0.281-0.416-0.422
		C268.16,139.775,268.16,139.528,268.161,139.28z"/>
	<path fill-rule="evenodd" fill="#999999" d="M277.714,142.902c0.772,1.92,1.11,3.931,1.211,5.983
		c0.134,2.716-0.189,5.373-1.082,7.95c-0.032,0.092-0.085,0.177-0.129,0.265c-0.009-2.315-0.023-4.632-0.023-6.947
		C277.69,147.735,277.705,145.319,277.714,142.902z"/>
</g>
</svg>
