<?xml version="1.0" encoding="utf-8"?>
<!-- Generator: Adobe Illustrator 16.0.4, SVG Export Plug-In . SVG Version: 6.00 Build 0)  -->
<svg version="1.2" baseProfile="tiny" id="Capa_1" xmlns="http://www.w3.org/2000/svg" xmlns:xlink="http://www.w3.org/1999/xlink"
	 x="0px" y="0px" width="300px" height="300px" viewBox="0 0 300 300" xml:space="preserve">
<g>
	<g>
		<g>
			<g>
				<polygon fill="#E43022" points="42.905,180.886 44.159,141.713 52.597,141.713 52.083,158.016 61.368,141.713 75.444,141.713 
					73.681,170.22 90.532,141.713 96.765,141.713 73.585,180.886 65.021,180.886 66.683,154.021 51.378,180.886 				"/>
			</g>
			<g>
				<path fill="#E43022" d="M105.583,173.555l1.844-6.009h-2.025c-5.537,0-8.799,1.606-9.787,4.822
					c-0.334,1.091-0.217,2.013,0.357,2.749c0.572,0.741,1.447,1.111,2.631,1.111C100.606,176.229,102.929,175.339,105.583,173.555
					 M104.271,177.766c-3.631,2.504-7.07,3.759-10.328,3.759c-2.781,0-4.799-0.775-6.059-2.335
					c-1.262-1.552-1.512-3.568-0.748-6.036c0.986-3.221,3.152-5.698,6.496-7.441c3.342-1.735,7.637-2.613,12.871-2.613h2.291
					l0.805-2.616c0.914-2.986-0.51-4.47-4.279-4.47c-3.34,0-6.992,0.879-10.953,2.646l1.654-5.411
					c4.318-1.407,8.379-2.103,12.195-2.103c8.322,0,11.555,3.033,9.686,9.122l-3.971,12.947c-0.703,2.295-0.232,3.434,1.395,3.434
					c0.295,0,0.695-0.03,1.186-0.105l-1.16,4.448c-1.941,0.358-3.613,0.533-5.02,0.533c-3.549,0-5.447-1.255-5.688-3.759H104.271z"
					/>
			</g>
			<g>
				<path fill="#E43022" d="M119.636,180.886l8.936-29.115h8.59l-1.678,5.481c3.492-4.081,7.529-6.106,12.107-6.106
					c0.545,0,1.059,0.065,1.545,0.201l-2.145,6.988c-1.098-0.419-2.174-0.639-3.232-0.639c-3.445,0-6.74,1.588-9.865,4.743
					l-5.664,18.446H119.636z"/>
			</g>
			<g>
				<path fill="#E43022" d="M143.688,180.886l8.934-29.115h8.598l-1.678,5.481c3.484-4.081,7.525-6.106,12.104-6.106
					c0.543,0,1.057,0.065,1.553,0.201l-2.148,6.988c-1.1-0.419-2.18-0.639-3.23-0.639c-3.451,0-6.742,1.588-9.875,4.743
					l-5.66,18.446H143.688z"/>
			</g>
			<g>
				<path fill="#E43022" d="M167.745,180.886l8.932-29.115h8.59l-8.93,29.115H167.745z M178.167,146.906l2.014-6.567h8.596
					l-2.016,6.567H178.167z"/>
			</g>
			<g>
				<path fill="#E43022" d="M198.978,176.648c4.885,0,8.389-3.454,10.512-10.375c0.969-3.166,1.094-5.662,0.357-7.505
					c-0.725-1.843-2.217-2.756-4.48-2.756c-2.248,0-4.295,0.913-6.145,2.756c-1.865,1.843-3.287,4.359-4.262,7.56
					c-0.973,3.166-1.1,5.68-0.389,7.541C195.286,175.722,196.747,176.648,198.978,176.648 M197.337,181.524
					c-4.965,0-8.484-1.373-10.564-4.119c-2.082-2.742-2.41-6.433-0.988-11.077c1.439-4.689,4.049-8.398,7.822-11.113
					c3.777-2.72,8.205-4.069,13.256-4.069c5.074,0,8.67,1.35,10.779,4.069c2.111,2.715,2.451,6.405,1.023,11.059
					c-1.463,4.771-4.088,8.504-7.867,11.2C207.015,180.175,202.528,181.524,197.337,181.524"/>
			</g>
			<g>
				<path fill="#E43022" d="M219.101,180.886l8.93-29.115h8.596l-1.684,5.481c3.5-4.081,7.531-6.106,12.109-6.106
					c0.543,0,1.061,0.065,1.545,0.201l-2.137,6.988c-1.105-0.419-2.18-0.639-3.232-0.639c-3.447,0-6.746,1.588-9.875,4.743
					l-5.66,18.446H219.101z"/>
			</g>
			<g>
				<path fill="#E43022" d="M242.632,179.943l1.756-5.728c3.773,1.627,7.172,2.433,10.211,2.433c3.525,0,5.633-1.101,6.312-3.306
					c0.439-1.426-0.654-2.671-3.27-3.741l-2.588-1.047c-2.803-1.147-4.682-2.391-5.635-3.736c-0.943-1.333-1.111-2.993-0.51-4.973
					c0.85-2.754,2.65-4.892,5.43-6.419c2.779-1.524,6.23-2.281,10.383-2.281c2.596,0,5.576,0.352,8.945,1.047l-1.686,5.504
					c-3.078-1.124-5.74-1.684-7.986-1.684c-3.547,0-5.625,1.009-6.246,3.022c-0.406,1.325,0.539,2.443,2.83,3.365l2.23,0.88
					c3.352,1.291,5.555,2.601,6.607,3.926c1.061,1.321,1.277,3.027,0.635,5.105c-0.838,2.739-2.77,4.961-5.781,6.661
					c-3.01,1.699-6.514,2.552-10.506,2.552C249.933,181.524,246.218,180.991,242.632,179.943"/>
			</g>
			<g>
				<path fill="#E43022" d="M47.159,116.014c7.832-2.879,16.613-4.184,24.535-0.753c0,0,5.266-11.562,10.066-20.151
					c0,0-34.68-7.896-61.924,25.496l4.797,8.18c1.576-0.957,10.203-7.876,20.936-12.167c-9.893,4.094-20.977,14.082-31.154,35.559
					c0,0,30.961-48.47,60.994-28.463v-4.227C75.409,119.486,63.001,110.376,47.159,116.014"/>
			</g>
		</g>
		<g>
			<g>
				<path fill="#E43022" d="M280.698,150.084c-2.697,0-4.889-2.193-4.889-4.888c0-2.697,2.191-4.894,4.889-4.894
					c2.701,0,4.887,2.197,4.887,4.894C285.585,147.892,283.399,150.084,280.698,150.084z M280.698,140.664
					c-2.5,0-4.525,2.031-4.525,4.532c0,2.498,2.025,4.528,4.525,4.528c2.494,0,4.527-2.03,4.527-4.528
					C285.226,142.695,283.192,140.664,280.698,140.664z"/>
			</g>
			<g>
				<g>
					<path fill="#E43022" d="M278.679,147.841v-5.471h2.424c0.49,0,0.863,0.05,1.113,0.149c0.25,0.101,0.455,0.274,0.611,0.521
						c0.145,0.245,0.227,0.522,0.227,0.827c0,0.382-0.131,0.71-0.379,0.976c-0.25,0.27-0.641,0.438-1.17,0.509
						c0.197,0.091,0.344,0.179,0.443,0.271c0.209,0.196,0.408,0.437,0.6,0.726l0.951,1.492h-0.914l-0.721-1.141
						c-0.209-0.326-0.381-0.578-0.52-0.75c-0.141-0.176-0.262-0.299-0.363-0.368c-0.115-0.069-0.225-0.118-0.336-0.147
						c-0.078-0.016-0.217-0.028-0.404-0.028h-0.836v2.434H278.679z M279.405,144.786h1.557c0.33,0,0.588-0.034,0.775-0.102
						c0.182-0.073,0.33-0.179,0.424-0.33c0.098-0.15,0.145-0.311,0.145-0.487c0-0.263-0.096-0.475-0.285-0.641
						c-0.186-0.17-0.48-0.25-0.885-0.25h-1.73V144.786z"/>
				</g>
			</g>
		</g>
	</g>
	<g>
		<g>
			<path fill="#E43022" d="M69.456,199.397c0,1.569,1.152,2.18,2.574,2.18c1.564,0,2.148-0.773,2.148-1.535
				c0-0.784-0.424-1.097-0.834-1.254c-0.715-0.272-1.639-0.457-3.033-0.84c-1.734-0.472-2.248-1.519-2.248-2.573
				c0-2.034,1.877-2.99,3.713-2.99c2.119,0,3.898,1.124,3.898,3.246h-1.779c-0.082-1.31-0.967-1.795-2.189-1.795
				c-0.826,0-1.869,0.299-1.869,1.325c0,0.712,0.486,1.108,1.213,1.31c0.158,0.043,2.404,0.625,2.93,0.779
				c1.342,0.402,1.98,1.538,1.98,2.589c0,2.277-2.023,3.189-4.041,3.189c-2.322,0-4.203-1.111-4.244-3.631H69.456z"/>
		</g>
		<g>
			<path fill="#E43022" d="M78.554,199.529c0,1.152,0.627,2.179,1.975,2.179c0.941,0,1.512-0.415,1.797-1.228h1.539
				c-0.357,1.61-1.727,2.505-3.336,2.505c-2.301,0-3.598-1.606-3.598-3.869c0-2.094,1.367-3.887,3.559-3.887
				c2.318,0,3.74,2.094,3.475,4.3H78.554z M82.341,198.462c-0.057-1.024-0.756-1.948-1.852-1.948c-1.123,0-1.893,0.851-1.936,1.948
				H82.341z"/>
		</g>
		<g>
			<path fill="#E43022" d="M90.167,197.892c-0.125-0.895-0.779-1.378-1.68-1.378c-0.838,0-2.016,0.438-2.016,2.671
				c0,1.223,0.537,2.523,1.947,2.523c0.939,0,1.592-0.63,1.748-1.679h1.623c-0.293,1.906-1.482,2.956-3.371,2.956
				c-2.303,0-3.568-1.634-3.568-3.801c0-2.218,1.205-3.955,3.627-3.955c1.707,0,3.158,0.853,3.312,2.662H90.167z"/>
		</g>
		<g>
			<path fill="#E43022" d="M99.577,202.787h-1.592v-1.025H97.96c-0.402,0.74-1.283,1.224-2.092,1.224c-1.92,0-2.75-0.965-2.75-2.888
				v-4.668h1.627v4.511c0,1.293,0.523,1.768,1.404,1.768c1.354,0,1.811-0.87,1.811-2.008v-4.271h1.617V202.787z"/>
		</g>
		<g>
			<path fill="#E43022" d="M101.296,195.43h1.518v1.424h0.031c0.186-0.78,1.152-1.624,2.148-1.624c0.369,0,0.471,0.027,0.615,0.043
				v1.562c-0.23-0.022-0.471-0.07-0.699-0.07c-1.113,0-1.988,0.899-1.988,2.524v3.498h-1.625V195.43z"/>
		</g>
		<g>
			<path fill="#E43022" d="M106.345,192.624h1.621v1.538h-1.621V192.624z M106.345,195.43h1.621v7.357h-1.621V195.43z"/>
		</g>
		<g>
			<path fill="#E43022" d="M108.993,195.43h1.227v-2.208h1.625v2.208h1.463v1.212h-1.463v3.926c0,0.666,0.057,1.01,0.781,1.01
				c0.227,0,0.455,0,0.682-0.057v1.25c-0.357,0.029-0.697,0.089-1.053,0.089c-1.693,0-2.006-0.654-2.035-1.879v-4.339h-1.227V195.43
				z"/>
		</g>
		<g>
			<path fill="#E43022" d="M113.665,195.43h1.775l1.928,5.493h0.023l1.865-5.493h1.695l-2.857,7.759
				c-0.529,1.322-0.914,2.516-2.605,2.516c-0.389,0-0.758-0.032-1.125-0.087v-1.368c0.256,0.048,0.508,0.104,0.766,0.104
				c0.754,0,0.941-0.401,1.137-1.026l0.191-0.575L113.665,195.43z"/>
		</g>
		<g>
			<path fill="#E43022" d="M125.085,195.43h1.229v-2.208h1.619v2.208h1.467v1.212h-1.467v3.926c0,0.666,0.057,1.01,0.781,1.01
				c0.227,0,0.453,0,0.686-0.057v1.25c-0.359,0.029-0.703,0.089-1.053,0.089c-1.689,0-2.01-0.654-2.033-1.879v-4.339h-1.229V195.43z
				"/>
		</g>
		<g>
			<path fill="#E43022" d="M130.569,192.624h1.621v3.773h0.023c0.402-0.668,1.24-1.168,2.213-1.168c1.59,0,2.6,0.853,2.6,2.509
				v5.049h-1.619v-4.622c-0.029-1.156-0.486-1.651-1.441-1.651c-1.078,0-1.775,0.851-1.775,1.937v4.337h-1.621V192.624z"/>
		</g>
		<g>
			<path fill="#E43022" d="M144.901,201.148c0,0.396,0.086,0.56,0.391,0.56c0.098,0,0.223,0,0.396-0.034v1.126
				c-0.248,0.085-0.758,0.186-1.029,0.186c-0.652,0-1.119-0.233-1.25-0.895c-0.641,0.627-1.678,0.895-2.547,0.895
				c-1.324,0-2.518-0.713-2.518-2.147c0-1.835,1.463-2.136,2.826-2.292c1.168-0.215,2.207-0.084,2.207-1.036
				c0-0.844-0.863-0.996-1.52-0.996c-0.91,0-1.551,0.369-1.625,1.166h-1.621c0.115-1.892,1.723-2.45,3.344-2.45
				c1.438,0,2.945,0.584,2.945,2.135V201.148z M143.276,199.103c-0.496,0.324-1.275,0.311-1.988,0.438
				c-0.697,0.115-1.326,0.375-1.326,1.226c0,0.728,0.93,0.942,1.498,0.942c0.711,0,1.816-0.375,1.816-1.396V199.103z"/>
		</g>
		<g>
			<path fill="#E43022" d="M145.921,195.43h1.221v-2.208h1.619v2.208h1.467v1.212h-1.467v3.926c0,0.666,0.061,1.01,0.789,1.01
				c0.219,0,0.455,0,0.678-0.057v1.25c-0.354,0.029-0.695,0.089-1.049,0.089c-1.697,0-2.012-0.654-2.037-1.879v-4.339h-1.221V195.43
				z"/>
		</g>
		<g>
			<path fill="#E43022" d="M155.36,195.43h1.537v1.024h0.039c0.482-0.725,1.1-1.225,2.262-1.225c0.9,0,1.734,0.388,2.066,1.225
				c0.537-0.755,1.238-1.225,2.303-1.225c1.557,0,2.465,0.685,2.465,2.478v5.08h-1.621v-4.298c0-1.166-0.076-1.976-1.342-1.976
				c-1.094,0-1.566,0.728-1.566,1.962v4.312h-1.623v-4.725c0-1.013-0.312-1.549-1.289-1.549c-0.848,0-1.611,0.68-1.611,1.904v4.369
				h-1.619V195.43z"/>
		</g>
		<g>
			<path fill="#E43022" d="M173.905,201.148c0,0.396,0.088,0.56,0.385,0.56c0.104,0,0.229,0,0.398-0.034v1.126
				c-0.242,0.085-0.752,0.186-1.021,0.186c-0.656,0-1.125-0.233-1.256-0.895c-0.641,0.627-1.68,0.895-2.543,0.895
				c-1.328,0-2.523-0.713-2.523-2.147c0-1.835,1.469-2.136,2.836-2.292c1.164-0.215,2.203-0.084,2.203-1.036
				c0-0.844-0.869-0.996-1.523-0.996c-0.91,0-1.549,0.369-1.621,1.166h-1.623c0.115-1.892,1.725-2.45,3.344-2.45
				c1.439,0,2.945,0.584,2.945,2.135V201.148z M172.286,199.103c-0.496,0.324-1.283,0.311-1.996,0.438
				c-0.693,0.115-1.32,0.375-1.32,1.226c0,0.728,0.924,0.942,1.492,0.942c0.711,0,1.824-0.375,1.824-1.396V199.103z"/>
		</g>
		<g>
			<path fill="#E43022" d="M175.702,192.624h1.625v5.78l2.934-2.975h1.992l-2.82,2.706l3.086,4.651h-1.973l-2.252-3.573l-0.967,0.94
				v2.633h-1.625V192.624z"/>
		</g>
		<g>
			<path fill="#E43022" d="M184.575,199.529c0,1.152,0.625,2.179,1.979,2.179c0.938,0,1.506-0.415,1.791-1.228h1.535
				c-0.355,1.61-1.717,2.505-3.326,2.505c-2.309,0-3.6-1.606-3.6-3.869c0-2.094,1.367-3.887,3.555-3.887
				c2.32,0,3.744,2.094,3.471,4.3H184.575z M188.36,198.462c-0.055-1.024-0.758-1.948-1.852-1.948c-1.123,0-1.895,0.851-1.934,1.948
				H188.36z"/>
		</g>
		<g>
			<path fill="#E43022" d="M192.448,200.426c0.086,0.939,0.793,1.282,1.668,1.282c0.607,0,1.676-0.131,1.635-0.973
				c-0.045-0.854-1.229-0.951-2.408-1.222c-1.193-0.256-2.357-0.683-2.357-2.179c0-1.605,1.734-2.105,3.072-2.105
				c1.508,0,2.871,0.627,3.066,2.265h-1.689c-0.143-0.769-0.783-0.98-1.492-0.98c-0.471,0-1.338,0.111-1.338,0.75
				c0,0.799,1.191,0.913,2.387,1.187c1.184,0.27,2.379,0.693,2.379,2.145c0,1.751-1.764,2.391-3.287,2.391
				c-1.852,0-3.23-0.826-3.258-2.56H192.448z"/>
		</g>
		<g>
			<path fill="#E43022" d="M209.503,202.787h-1.537v-0.998h-0.027c-0.43,0.843-1.35,1.196-2.279,1.196
				c-2.32,0-3.441-1.72-3.441-3.926c0-2.662,1.576-3.83,3.186-3.83c0.922,0,1.953,0.345,2.449,1.154h0.029v-3.76h1.621V202.787z
				 M205.87,201.708c1.455,0,2.068-1.326,2.068-2.605c0-1.626-0.785-2.589-2.035-2.589c-1.525,0-2.064,1.348-2.064,2.671
				C203.839,200.45,204.464,201.708,205.87,201.708z"/>
		</g>
		<g>
			<path fill="#E43022" d="M211.317,192.624h1.623v1.538h-1.623V192.624z M211.317,195.43h1.623v7.357h-1.623V195.43z"/>
		</g>
		<g>
			<path fill="#E43022" d="M213.979,195.43h1.205v-0.613c0-1.877,0.982-2.192,2.043-2.192c0.514,0,0.877,0.033,1.131,0.101v1.269
				c-0.209-0.055-0.424-0.087-0.75-0.087c-0.439,0-0.797,0.16-0.797,0.771v0.752h1.381v1.212h-1.381v6.146h-1.627v-6.146h-1.205
				V195.43z"/>
		</g>
		<g>
			<path fill="#E43022" d="M218.208,195.43h1.209v-0.613c0-1.877,0.982-2.192,2.035-2.192c0.512,0,0.879,0.033,1.139,0.101v1.269
				c-0.213-0.055-0.432-0.087-0.756-0.087c-0.439,0-0.795,0.16-0.795,0.771v0.752h1.377v1.212h-1.377v6.146h-1.623v-6.146h-1.209
				V195.43z"/>
		</g>
		<g>
			<path fill="#E43022" d="M224.687,199.529c0,1.152,0.623,2.179,1.975,2.179c0.939,0,1.508-0.415,1.793-1.228h1.537
				c-0.359,1.61-1.721,2.505-3.33,2.505c-2.305,0-3.602-1.606-3.602-3.869c0-2.094,1.369-3.887,3.559-3.887
				c2.318,0,3.74,2.094,3.469,4.3H224.687z M228.466,198.462c-0.057-1.024-0.748-1.948-1.848-1.948
				c-1.127,0-1.891,0.851-1.932,1.948H228.466z"/>
		</g>
		<g>
			<path fill="#E43022" d="M231.333,195.43h1.52v1.424h0.037c0.182-0.78,1.145-1.624,2.141-1.624c0.375,0,0.471,0.027,0.617,0.043
				v1.562c-0.23-0.022-0.471-0.07-0.699-0.07c-1.107,0-1.99,0.899-1.99,2.524v3.498h-1.625V195.43z"/>
		</g>
		<g>
			<path fill="#E43022" d="M237.354,199.529c0,1.152,0.629,2.179,1.979,2.179c0.939,0,1.508-0.415,1.793-1.228h1.535
				c-0.355,1.61-1.719,2.505-3.328,2.505c-2.307,0-3.602-1.606-3.602-3.869c0-2.094,1.369-3.887,3.559-3.887
				c2.318,0,3.742,2.094,3.477,4.3H237.354z M241.136,198.462c-0.051-1.024-0.748-1.948-1.846-1.948
				c-1.123,0-1.891,0.851-1.936,1.948H241.136z"/>
		</g>
		<g>
			<path fill="#E43022" d="M244.005,195.43h1.537v1.084l0.029,0.025c0.484-0.81,1.324-1.31,2.289-1.31
				c1.596,0,2.602,0.853,2.602,2.509v5.049h-1.617v-4.622c-0.031-1.156-0.49-1.651-1.439-1.651c-1.082,0-1.779,0.851-1.779,1.937
				v4.337h-1.621V195.43z"/>
		</g>
		<g>
			<path fill="#E43022" d="M257.144,197.892c-0.127-0.895-0.781-1.378-1.684-1.378c-0.836,0-2.016,0.438-2.016,2.671
				c0,1.223,0.541,2.523,1.947,2.523c0.939,0,1.594-0.63,1.752-1.679h1.623c-0.299,1.906-1.482,2.956-3.375,2.956
				c-2.301,0-3.57-1.634-3.57-3.801c0-2.218,1.213-3.955,3.627-3.955c1.709,0,3.162,0.853,3.318,2.662H257.144z"/>
		</g>
		<g>
			<path fill="#E43022" d="M261.358,199.529c0,1.152,0.623,2.179,1.98,2.179c0.941,0,1.506-0.415,1.791-1.228h1.535
				c-0.352,1.61-1.713,2.505-3.326,2.505c-2.307,0-3.602-1.606-3.602-3.869c0-2.094,1.369-3.887,3.561-3.887
				c2.318,0,3.738,2.094,3.469,4.3H261.358z M265.146,198.462c-0.055-1.024-0.754-1.948-1.848-1.948
				c-1.125,0-1.898,0.851-1.939,1.948H265.146z"/>
		</g>
		<path fill="#E43022" d="M58.599,192.624c0.529-1.932,1.52-4.416,2.162-5.474l1.289-0.139c-0.506,1.357-1.104,3.727-1.357,5.383
			L58.599,192.624z M62.026,192.624c0.506-1.932,1.518-4.416,2.141-5.474l1.287-0.139c-0.506,1.357-1.104,3.727-1.357,5.383
			L62.026,192.624z"/>
		<path fill="#E43022" d="M272.405,187.012c-0.529,1.933-1.518,4.394-2.139,5.451l-1.289,0.161c0.482-1.356,1.104-3.749,1.357-5.405
			L272.405,187.012z M275.81,187.012c-0.529,1.933-1.518,4.394-2.139,5.451l-1.289,0.161c0.506-1.356,1.104-3.749,1.357-5.405
			L275.81,187.012z"/>
	</g>
</g>
</svg>
