<?xml version="1.0" encoding="utf-8"?>
<!-- Generator: Adobe Illustrator 16.0.4, SVG Export Plug-In . SVG Version: 6.00 Build 0)  -->
<svg version="1.2" baseProfile="tiny" id="Capa_1" xmlns="http://www.w3.org/2000/svg" xmlns:xlink="http://www.w3.org/1999/xlink"
	 x="0px" y="0px" width="300px" height="300px" viewBox="0 0 300 300" xml:space="preserve">
<g>
	<path fill="#754B27" d="M98.034,182.119l-0.398-8.035l-0.336-8.036l-0.016-0.366l0.377-0.079l14.846-3.11
		c4.951-1.025,9.923-1.944,14.888-2.904c4.963-0.969,9.954-1.8,14.932-2.695c4.989-0.843,9.986-1.654,14.989-2.436l7.541-1.009
		l3.771-0.505c1.264-0.143,2.543-0.232,3.814-0.351l3.821-0.334c1.282-0.114,2.522-0.243,3.867-0.229
		c2.651-0.004,5.5,0.324,8.109,1.682c1.313,0.638,2.466,1.622,3.441,2.708l0.685,0.857c0.227,0.287,0.388,0.61,0.583,0.915
		c0.404,0.608,0.672,1.263,0.957,1.913c0.539,1.306,0.882,2.651,1.116,3.99l0.098,0.503l0.063,0.504l0.116,0.94l0.232,1.88
		l1.822,15.048l1.558,15.1l0.384,3.837c0.016,0.334,0.058,0.587,0.054,0.988c-0.007,0.377,0.016,0.775-0.028,1.136
		c-0.058,0.729-0.163,1.472-0.391,2.197c-0.414,1.458-1.229,2.839-2.29,3.898c-1.05,1.076-2.284,1.872-3.541,2.469
		c-2.526,1.192-5.135,1.756-7.702,2.169c-2.573,0.402-5.13,0.608-7.668,0.779l-1.901,0.119l-0.979,0.055l-0.947,0.023l-3.789,0.09
		l-7.578,0.18c-2.527,0.052-5.05,0.136-7.58,0.162l-7.595-0.014l-15.182-0.064l-15.163-0.271c-5.054-0.069-10.107-0.218-15.16-0.383
		l30.308-0.916l15.131-0.488l7.561-0.227c2.522-0.089,5.046-0.234,7.569-0.349l7.57-0.366l3.785-0.183l0.946-0.046l0.911-0.069
		l1.879-0.146c2.499-0.205,4.98-0.445,7.395-0.86c2.405-0.417,4.778-0.997,6.815-2.003c2.04-1,3.593-2.496,4.093-4.457
		c0.146-0.482,0.214-1,0.255-1.527c0.036-0.268,0.007-0.504,0.02-0.757c0.013-0.23-0.038-0.606-0.054-0.902l-0.39-3.702
		l-1.626-15.049l-1.823-15.048l-0.223-1.882l-0.112-0.94l-0.051-0.437l-0.084-0.427c-0.194-1.149-0.478-2.265-0.898-3.296
		c-0.832-2.066-2.202-3.769-4.114-4.742c-1.892-1.011-4.214-1.337-6.587-1.35c-1.184-0.034-2.463,0.076-3.698,0.17l-3.734,0.271
		c-1.246,0.098-2.489,0.165-3.737,0.287l-3.748,0.445l-7.497,0.891l-14.987,2.089l-14.973,2.276l-14.966,2.369l-14.963,2.407
		l0.361-0.445l-0.047,8.043L98.034,182.119z"/>
	<path fill="#754B27" d="M92.517,153.68c0,0-0.754-0.892-2.028-2.48c-1.255-1.6-3.047-3.883-5.198-6.624
		c-1.066-1.373-2.219-2.859-3.398-4.458c-0.595-0.795-1.206-1.612-1.83-2.447c-0.309-0.42-0.621-0.844-0.937-1.271l-0.469-0.649
		c-0.243-0.357-0.307-0.421-0.517-0.782c-0.207-0.348-0.36-0.709-0.487-1.078c-0.054-0.203-0.102-0.41-0.145-0.617
		c-0.022-0.225-0.046-0.449-0.044-0.68c0.009-0.951,0.47-1.895,1.025-2.499c1.135-1.222,2.386-1.7,3.582-2.127
		c2.407-0.783,4.795-1.095,7.197-1.293c2.279-0.15,4.608-0.385,6.874-0.569c2.271-0.216,4.513-0.328,6.679-0.49
		c2.165-0.141,4.257-0.275,6.242-0.404c1.98-0.143,3.858-0.236,5.592-0.317c3.467-0.179,6.369-0.247,8.404-0.278
		c2.035-0.032,3.204-0.011,3.204-0.011s-1.134,0.273-3.13,0.683c-1.996,0.409-4.853,0.971-8.296,1.548
		c-1.721,0.296-3.586,0.612-5.565,0.902c-1.978,0.312-4.062,0.619-6.22,0.859c-2.16,0.249-4.386,0.562-6.657,0.777
		c-2.277,0.224-4.556,0.501-6.898,0.688c-2.212,0.137-4.458,0.416-6.405,1.019c-0.943,0.303-1.863,0.723-2.276,1.143
		c-0.203,0.211-0.257,0.326-0.287,0.484c-0.041,0.14,0.057,0.506,0.184,0.754c1.131,1.812,2.224,3.564,3.26,5.227
		c1.067,1.69,2.038,3.313,2.932,4.811c1.817,2.978,3.201,5.531,4.147,7.335C92,152.633,92.517,153.68,92.517,153.68z"/>
	<path fill="#754B27" d="M160.685,121.781c0,0,0.389,0.194,1.019,0.581c0.634,0.385,1.507,0.963,2.511,1.7
		c2.006,1.476,4.467,3.646,6.725,6.011c2.258,2.364,4.312,4.924,5.69,6.998c0.688,1.038,1.224,1.938,1.577,2.591
		c0.356,0.648,0.531,1.046,0.531,1.046s-0.389-0.193-1.02-0.58c-0.634-0.384-1.509-0.961-2.513-1.698
		c-2.007-1.474-4.467-3.646-6.722-6.014c-2.255-2.367-4.307-4.928-5.687-7.002c-0.688-1.037-1.226-1.937-1.579-2.588
		C160.86,122.179,160.685,121.781,160.685,121.781z"/>
	<path fill="#754B27" d="M196.089,146.039c0,0-0.077-0.149-0.222-0.43c-0.146-0.274-0.328-0.713-0.617-1.205
		c-0.145-0.238-0.305-0.504-0.479-0.792c-0.181-0.278-0.411-0.563-0.629-0.872c-0.462-0.604-1.077-1.178-1.761-1.709
		c-0.728-0.486-1.567-0.864-2.496-1.104c-0.947-0.203-1.982-0.249-3.068-0.16c-1.087,0.082-2.222,0.368-3.362,0.699
		c-1.142,0.338-2.286,0.818-3.412,1.33c-1.131,0.514-2.229,1.118-3.305,1.732c-1.061,0.639-2.106,1.281-3.081,1.966
		c-0.987,0.667-1.907,1.366-2.776,2.039c-0.863,0.68-1.667,1.345-2.396,1.98c-0.71,0.653-1.363,1.257-1.932,1.812
		c-0.54,0.575-1.044,1.062-1.417,1.499c-0.391,0.426-0.684,0.775-0.883,1.018c-0.207,0.238-0.317,0.366-0.317,0.366
		s0.051-0.16,0.146-0.46c0.106-0.297,0.231-0.753,0.484-1.286c0.227-0.551,0.546-1.196,0.952-1.922
		c0.214-0.355,0.442-0.734,0.683-1.134c0.254-0.39,0.546-0.781,0.839-1.203c0.313-0.405,0.639-0.827,0.977-1.264
		c0.357-0.419,0.729-0.854,1.129-1.285c0.807-0.852,1.688-1.729,2.677-2.55c1.954-1.671,4.267-3.204,6.795-4.391
		c1.28-0.561,2.583-1.095,3.956-1.417c1.364-0.334,2.752-0.566,4.144-0.532c1.385,0.021,2.749,0.266,3.968,0.743
		c1.218,0.512,2.225,1.27,2.995,2.079c0.347,0.437,0.709,0.827,0.951,1.262c0.226,0.443,0.496,0.825,0.628,1.239
		c0.148,0.407,0.32,0.764,0.406,1.126c0.082,0.358,0.157,0.688,0.225,0.985c0.137,0.58,0.118,1.043,0.164,1.355
		C196.077,145.871,196.089,146.039,196.089,146.039z"/>
	<path fill="#754B27" d="M205.638,150.708c0,0,0.605-0.282,1.678-0.709c1.074-0.425,2.621-0.992,4.499-1.589
		c1.873-0.619,4.098-1.2,6.488-1.79c1.206-0.276,2.499-0.488,3.796-0.712l0.98-0.163l0.493-0.081l0.124-0.02l0.031-0.005
		l0.114-0.009l0.061-0.002l0.243-0.012l0.486-0.022c0.173-0.005,0.426,0.013,0.636,0.023c0.45,0.01,0.86,0.099,1.279,0.179
		c0.84,0.216,1.706,0.609,2.422,1.23c0.724,0.611,1.229,1.424,1.537,2.219c0.312,0.801,0.443,1.598,0.471,2.368
		c0.012,0.192,0.004,0.386,0.004,0.576l0.018,0.394c0.009,0.311,0.019,0.617,0.028,0.923c0.072,2.439,0.074,4.722,0.008,6.677
		c-0.013,1.938-0.105,3.569-0.186,4.717c-0.08,1.147-0.165,1.812-0.165,1.812s-0.21-0.633-0.508-1.754
		c-0.299-1.121-0.702-2.731-1.089-4.682c-0.389-1.938-0.747-4.201-1.069-6.63c-0.04-0.304-0.08-0.609-0.12-0.918l-0.028-0.232
		l-0.014-0.115l-0.007-0.059l-0.003-0.029l-0.002-0.015l-0.003-0.087c-0.012-0.12-0.013-0.241-0.033-0.361
		c-0.062-0.482-0.179-0.948-0.351-1.336c-0.365-0.781-0.869-1.18-1.714-1.399c-0.222-0.038-0.447-0.101-0.651-0.102
		c-0.115-0.006-0.185-0.029-0.337-0.028l-0.486,0.015l-0.243,0.008l-0.061,0.002c-0.08,0.005,0.091-0.007,0.068-0.005l-0.015,0.002
		l-0.029,0.005l-0.117,0.016l-0.467,0.057l-0.93,0.112c-1.243,0.137-2.467,0.271-3.651,0.401c-1.202,0.167-2.37,0.307-3.479,0.429
		c-1.115,0.108-2.168,0.211-3.141,0.306c-1.946,0.203-3.589,0.289-4.744,0.344C206.306,150.713,205.638,150.708,205.638,150.708z"/>
	<path fill="#754B27" d="M224.942,188.093c0,0-0.333,0.368-0.95,0.953c-0.615,0.589-1.516,1.394-2.628,2.306
		c-2.226,1.822-5.343,3.998-8.604,5.933c-3.261,1.935-6.666,3.626-9.334,4.701c-1.334,0.537-2.473,0.94-3.286,1.195
		c-0.81,0.26-1.293,0.374-1.293,0.374s0.332-0.369,0.949-0.955c0.614-0.59,1.515-1.396,2.626-2.308
		c2.225-1.823,5.344-3.997,8.607-5.929c3.263-1.932,6.669-3.62,9.336-4.697c1.334-0.537,2.472-0.941,3.284-1.197
		C224.459,188.208,224.942,188.093,224.942,188.093z"/>
	<path fill="#754B27" d="M131.567,156.526c0,0-0.079-0.3-0.226-0.861c-0.142-0.562-0.378-1.383-0.623-2.436
		c-0.495-2.106-1.222-5.114-1.923-8.755c-0.355-1.819-0.741-3.792-1.1-5.886c-0.374-2.091-0.682-4.333-0.989-6.643
		c-0.077-0.578-0.155-1.161-0.234-1.749c-0.07-0.574-0.141-1.152-0.212-1.734c-0.07-0.588-0.132-1.205-0.241-1.708l-0.132-0.798
		c-0.047-0.262-0.134-0.452-0.191-0.684c-0.046-0.238-0.149-0.421-0.251-0.598l-0.146-0.283l-0.238-0.338L124,122.537l-1.021-1.668
		c-0.319-0.562-0.597-1.133-0.896-1.699l-0.43-0.857l-0.178-0.34l-0.219-0.407l-0.875-1.622c-0.56-1.114-1.208-2.089-1.837-3.075
		c-0.314-0.494-0.626-0.987-0.938-1.477c-0.293-0.497-0.609-0.989-0.946-1.478c-0.656-0.979-1.305-1.944-1.942-2.895
		c-1.308-1.887-2.572-3.71-3.771-5.439c-1.239-1.702-2.402-3.322-3.461-4.832c-1.11-1.466-2.104-2.832-2.985-4.049
		c-0.914-1.187-1.711-2.221-2.368-3.072c-0.666-0.844-1.235-1.461-1.607-1.911c-0.379-0.442-0.582-0.679-0.582-0.679
		s0.245,0.188,0.703,0.54c0.444,0.366,1.175,0.847,1.975,1.583c0.793,0.738,1.775,1.625,2.859,2.686
		c1.054,1.081,2.246,2.303,3.514,3.668c1.236,1.387,2.587,2.884,3.958,4.517c1.337,1.659,2.811,3.361,4.19,5.241
		c1.38,1.879,2.872,3.758,4.211,5.91c0.691,1.049,1.405,2.106,1.966,3.18l0.901,1.609l0.226,0.402l0.113,0.202l0.142,0.274
		l0.409,0.789c0.268,0.526,0.521,1.069,0.8,1.582l0.879,1.492l1.02,1.51l0.281,0.417c0.094,0.161,0.186,0.351,0.276,0.526
		c0.19,0.358,0.357,0.719,0.438,1.08c0.096,0.354,0.224,0.735,0.279,1.068l0.143,0.988c0.103,0.682,0.129,1.259,0.171,1.854
		c0.044,0.602,0.087,1.199,0.131,1.793c0.049,0.578,0.098,1.153,0.146,1.723c0.224,2.279,0.314,4.488,0.524,6.593
		c0.214,2.103,0.372,4.097,0.518,5.939c0.303,3.684,0.543,6.761,0.664,8.923C131.517,155.287,131.567,156.526,131.567,156.526z"/>
	<path fill="#754B27" d="M104.614,83.642c0,0,0.469,0.223,1.24,0.669c0.774,0.444,1.85,1.113,3.094,1.973
		c2.486,1.719,5.586,4.263,8.423,7.097c2.836,2.831,5.412,5.959,6.999,8.603c0.793,1.318,1.351,2.502,1.626,3.382
		c0.145,0.436,0.215,0.794,0.239,1.04c0.018,0.242,0.027,0.371,0.027,0.371s-0.073-0.105-0.21-0.303
		c-0.121-0.197-0.363-0.453-0.643-0.774c-0.584-0.635-1.476-1.48-2.567-2.476c-2.178-1.991-5.078-4.649-7.87-7.441
		c-2.791-2.793-5.472-5.72-7.357-8.062c-0.942-1.173-1.7-2.183-2.213-2.911C104.886,84.083,104.614,83.642,104.614,83.642z"/>
	<path fill="#754B27" d="M129.87,112.293c0,0,0.632,0.646,1.681,1.814c1.049,1.169,2.528,2.854,4.224,4.928
		c0.213,0.258,0.43,0.522,0.651,0.792c0.097,0.112,0.254,0.319,0.303,0.358l0.357,0.4c0.083,0.037,0.153,0.069,0.209,0.124
		l0.257,0.113c0.167,0.026,0.314,0.067,0.459,0.005c0.292-0.053,0.566-0.359,0.683-0.689c0.082-0.352,0.074-0.733-0.163-1.177
		c-0.591-1.114-1.844-2.292-2.998-3.72c-0.581-0.717-1.169-1.481-1.68-2.339c-0.505-0.866-1.046-1.814-1.354-2.822
		c-0.266-1.021-0.499-2.083-0.499-3.129v-0.196l0.12-0.165l0.063-0.083l0.058-0.33c0.024-0.229,0.048-0.422,0.089-0.678
		c0.099-0.52,0.182-1.077,0.331-1.539c0.504-1.934,1.485-3.679,2.74-5.105c1.23-1.45,2.855-2.511,4.564-3.035
		c0.849-0.274,1.726-0.384,2.56-0.383c0.208,0.017,0.415,0.033,0.619,0.051l0.304,0.026l0.075,0.007l0.019,0.002
		c0.197,0.025,0.064,0.01,0.112,0.016l0.032,0.009l0.127,0.032c0.337,0.084,0.669,0.168,0.993,0.25
		c0.163,0.041,0.323,0.081,0.482,0.121c0.16,0.041,0.349,0.14,0.517,0.207c0.344,0.149,0.678,0.295,0.991,0.45
		c0.325,0.139,0.557,0.381,0.823,0.558c0.248,0.2,0.516,0.354,0.716,0.575c0.845,0.839,1.396,1.692,1.722,2.434
		c0.371,0.72,0.515,1.335,0.653,1.731c0.114,0.407,0.174,0.624,0.174,0.624s-0.122-0.188-0.352-0.542
		c-0.234-0.348-0.559-0.873-1.048-1.454c-0.458-0.606-1.143-1.214-1.956-1.772c-0.196-0.15-0.452-0.228-0.68-0.35
		c-0.24-0.095-0.463-0.264-0.724-0.307c-0.256-0.058-0.507-0.131-0.762-0.205c-0.134-0.031-0.237-0.088-0.398-0.104
		c-0.163-0.015-0.328-0.03-0.495-0.046c-0.333-0.03-0.674-0.062-1.021-0.094l-0.13-0.012l-0.033,0.17
		c0.038,0.006-0.106,0.186,0.08,0.186h-0.014l-0.056-0.168l-0.225-0.069l-0.451-0.011c-0.599,0.098-1.208,0.2-1.79,0.475
		c-1.172,0.514-2.25,1.402-3.121,2.546c-0.891,1.133-1.496,2.538-1.847,4.003c-0.11,0.379-0.124,0.698-0.193,1.044
		c-0.028,0.18-0.031,0.429-0.052,0.64l-0.026,0.33l-0.006,0.082l0.205,0.041c0.008-0.144,0.212-0.029,0.212-0.058v0.017
		l-0.203,0.137c-0.016,0.729,0.001,1.44,0.182,2.142c0.397,1.401,1.17,2.728,2.183,4.048c0.536,0.688,1.042,1.372,1.567,2.047
		c0.516,0.688,1.137,1.564,1.524,2.468c0.479,1.061,0.555,2.456-0.016,3.581c-0.567,1.102-1.652,1.947-2.903,2.04
		c-0.617,0.082-1.231-0.085-1.751-0.314c-0.252-0.128-0.475-0.288-0.697-0.443c-0.213-0.193-0.412-0.404-0.593-0.611L135,121.513
		c-0.165-0.243-0.2-0.329-0.305-0.499c-0.177-0.299-0.351-0.593-0.521-0.881c-1.367-2.301-2.44-4.262-3.178-5.645
		S129.87,112.293,129.87,112.293z"/>
	<path fill="#754B27" d="M152.579,109.335c0,0,0.14,0.193,0.316,0.529c0.182,0.34,0.41,0.791,0.536,1.452
		c0.071,0.324,0.125,0.682,0.124,1.053c0.01,0.375,0.007,0.775-0.085,1.194c-0.056,0.419-0.194,0.853-0.381,1.283
		c-0.176,0.433-0.448,0.856-0.752,1.248c-0.168,0.188-0.334,0.378-0.515,0.552c-0.189,0.169-0.396,0.316-0.593,0.466
		c-0.416,0.271-0.856,0.489-1.295,0.615c-0.433,0.149-0.866,0.196-1.259,0.218c-0.398,0.016-0.763-0.02-1.09-0.082
		c-0.655-0.131-1.155-0.359-1.492-0.552c-0.336-0.196-0.516-0.349-0.516-0.349s0.196-0.145,0.518-0.327
		c0.295-0.175,0.717-0.424,1.224-0.723c0.232-0.136,0.467-0.282,0.693-0.438c0.224-0.154,0.451-0.304,0.645-0.476
		c0.209-0.153,0.377-0.342,0.563-0.498c0.163-0.184,0.339-0.349,0.486-0.553c0.095-0.078,0.156-0.201,0.234-0.303
		c0.071-0.108,0.173-0.195,0.234-0.322c0.068-0.119,0.148-0.232,0.233-0.345c0.078-0.117,0.135-0.253,0.218-0.374
		c0.161-0.24,0.298-0.507,0.44-0.766c0.159-0.255,0.291-0.502,0.42-0.739c0.127-0.242,0.296-0.45,0.408-0.682
		c0.106-0.226,0.235-0.42,0.332-0.581C152.425,109.518,152.579,109.335,152.579,109.335z"/>
	<path fill="#754B27" d="M150.882,120.358c0,0,0.339-0.236,0.974-0.679c0.628-0.451,1.55-1.112,2.723-1.954
		c2.319-1.703,5.673-4.122,9.319-7.345c0.899-0.81,1.824-1.675,2.658-2.627c0.441-0.467,0.82-0.961,1.195-1.463
		c0.215-0.246,0.314-0.508,0.473-0.76l0.21-0.357l0.211-0.486c0.465-1.143,0.795-2.49,0.983-3.869
		c0.097-0.694,0.161-1.409,0.226-2.145c0.069-0.748,0.091-1.467,0.213-2.381c0.042-0.242,0.067-0.485,0.232-0.912
		c0.077-0.154,0.101-0.235,0.247-0.437c0.175-0.207,0.313-0.401,0.783-0.597c0.212-0.084,0.406-0.115,0.597-0.11
		c0.185-0.002,0.423,0.04,0.545,0.083c0.186,0.062,0.453,0.205,0.538,0.275c0.098,0.074,0.2,0.156,0.285,0.235l0.176,0.183
		c0.125,0.133,0.181,0.217,0.273,0.329l0.214,0.294l0.19,0.283c0.207,0.298,0.457,0.715,0.684,1.123
		c0.214,0.41,0.417,0.835,0.58,1.308c0.325,0.934,0.506,2.059,0.271,3.221c-0.08,0.28-0.17,0.562-0.269,0.839l-0.037,0.104
		l-0.019,0.052c0.095-0.23,0.019-0.044,0.037-0.086l-0.052,0.142c-0.042,0.105,0.03-0.043,0.04-0.124
		c0.014-0.089,0.017-0.178,0.01-0.314c-0.016-0.122-0.049-0.235-0.118-0.399c-0.083-0.154-0.174-0.263-0.253-0.344
		c-0.042-0.042-0.104-0.085-0.14-0.108c-0.023-0.02-0.048-0.037-0.075-0.052s-0.054-0.026-0.083-0.036l-0.019-0.011
		c-0.071-0.018,0.072,0.014,0.211,0.021l1.19,0.068c0.469,0.041,0.985,0.084,1.618,0.301c0.609,0.195,1.44,0.711,1.862,1.549
		c0.407,0.82,0.397,1.583,0.33,2.15c-0.151,1.178-0.535,2.02-0.91,2.861l-0.298,0.609l-0.019,0.037
		c-0.242,0.395-0.081,0.127-0.141,0.223l-0.047,0.062l-0.094,0.122l-0.188,0.245c-0.292,0.354-0.724,0.775-1.097,1.144
		c-2.598,2.286-5.193,4.243-7.753,6.262c-2.543,2.012-5.1,3.909-7.477,5.838c-1.197,0.954-2.344,1.924-3.439,2.869
		c-1.078,0.927-2.18,1.955-2.811,2.82l-0.224,0.304c0.081-0.209,0.016-0.04,0.031-0.079l-0.011,0.031l-0.022,0.062l-0.045,0.123
		l-0.089,0.247c-0.125,0.331-0.251,0.666-0.268,0.908c-0.04,0.276-0.118,0.505-0.144,0.817c-0.028,0.312-0.057,0.62-0.084,0.927
		c-0.069,1.251-0.038,2.505,0.044,3.72c0.168,2.431,0.397,4.701,0.497,6.729c0.122,2.024,0.096,3.819-0.119,5.282
		c-0.059,0.732-0.267,1.374-0.392,1.926c-0.193,0.542-0.382,0.991-0.536,1.348c-0.419,0.658-0.642,1.01-0.642,1.01
		s0.164-0.376,0.472-1.081c0.095-0.371,0.208-0.83,0.31-1.365c0.03-0.557,0.146-1.171,0.114-1.886
		c0.025-1.414-0.187-3.132-0.5-5.098c-0.314-1.968-0.782-4.177-1.144-6.662c-0.188-1.24-0.337-2.56-0.377-3.974
		c0.006-0.359,0.013-0.721,0.019-1.086c0.008-0.364,0.094-0.804,0.149-1.208c0.052-0.447,0.158-0.767,0.258-1.097l0.075-0.252
		l0.038-0.126l0.019-0.062l0.009-0.032c0.022-0.06-0.037,0.088,0.053-0.141l0.338-0.593c0.95-1.483,1.989-2.475,3.082-3.566
		c1.083-1.079,2.246-2.085,3.422-3.109c2.366-2.033,4.816-4.102,7.361-6.115c2.512-2.025,5.148-4.088,7.48-6.18
		c0.205-0.218,0.401-0.337,0.646-0.605l0.191-0.243l0.096-0.121l0.047-0.061c-0.044,0.075,0.133-0.212-0.093,0.161l0.016-0.031
		l0.251-0.497c0.312-0.646,0.583-1.343,0.636-1.8c0.043-0.239-0.013-0.336,0.027-0.254c0.042,0.101,0.15,0.124-0.006,0.054
		c-0.139-0.058-0.442-0.108-0.782-0.137l-1.243-0.088c-0.263-0.032-0.526-0.046-0.98-0.199l-0.163-0.06l-0.216-0.108l-0.208-0.123
		c-0.077-0.052-0.173-0.134-0.253-0.208c-0.318-0.252-0.622-0.875-0.631-1.271c-0.031-0.237-0.013-0.426,0.021-0.614
		c0.027-0.18,0.105-0.431,0.106-0.418l0.054-0.142l0.062-0.156l0.005-0.021l0.011-0.039c0.029-0.105,0.065-0.207,0.113-0.307
		c0.096-0.42,0.07-0.928-0.103-1.5c-0.084-0.284-0.211-0.578-0.351-0.876c-0.15-0.286-0.287-0.556-0.513-0.912l-0.13-0.21
		l-0.124-0.186c-0.031-0.039-0.083-0.119-0.094-0.126l-0.023-0.032c0.013,0.015,0.038,0.037,0.062,0.048
		c0.011,0.007,0.182,0.12,0.284,0.134c0.077,0.027,0.265,0.073,0.401,0.064c0.142-0.007,0.289-0.027,0.458-0.085
		c0.146-0.042,0.339-0.195,0.38-0.227c0.068-0.054,0.13-0.12,0.181-0.191c0.085-0.126,0.078-0.112,0.106-0.183
		c0.022-0.065-0.027,0.073-0.049,0.211c-0.109,0.615-0.176,1.428-0.271,2.188c-0.089,0.774-0.207,1.553-0.364,2.323
		c-0.314,1.55-0.753,3.032-1.446,4.477l-0.24,0.472l-0.341,0.538c-0.226,0.329-0.429,0.702-0.683,0.964
		c-0.483,0.574-0.964,1.128-1.484,1.587c-1.009,0.973-2.044,1.788-3.048,2.552c-2.005,1.525-3.937,2.753-5.66,3.812
		c-1.724,1.059-3.266,1.909-4.537,2.604C152.384,119.665,150.882,120.358,150.882,120.358z"/>
	<path fill="#754B27" d="M99.944,79.114c0,0,0.232,0.102,0.581,0.31c0.171,0.105,0.388,0.227,0.603,0.385
		c0.11,0.075,0.228,0.155,0.352,0.239l0.181,0.126l0.087,0.059c0.015,0.01,0.023,0.01,0.036,0.016
		c0.01,0.008-0.007-0.021-0.011-0.03l-0.005-0.011c-0.071-0.023-0.099-0.276-0.754-0.339c-0.824,0.085-0.934,0.746-0.937,0.798
		c-0.044,0.291,0,0.419,0.078,0.605c-0.044,0.038-0.208-0.142-0.325-0.217c-0.126-0.104-0.257-0.212-0.392-0.322
		c-0.264-0.225-0.539-0.463-0.809-0.717c-0.544-0.504-1.087-1.055-1.606-1.604c-1.035-1.109-1.94-2.207-2.678-2.915
		c-0.37-0.359-0.742-0.619-1.084-0.747c-0.337-0.129-0.6-0.162-0.6-0.162s0.03-0.054,0.102-0.146
		c0.073-0.088,0.187-0.234,0.375-0.355c0.361-0.278,1.054-0.5,1.852-0.449c0.795,0.049,1.648,0.341,2.421,0.781
		c0.776,0.44,1.484,1.027,2.095,1.676c0.604,0.656,1.115,1.374,1.509,2.096c0.199,0.36,0.366,0.724,0.508,1.078
		c0.067,0.18,0.138,0.352,0.192,0.527c0.066,0.202,0.083,0.291,0.191,0.597c0.081,0.194,0.132,0.334,0.087,0.63
		c-0.004,0.05-0.117,0.709-0.942,0.793c-0.657-0.064-0.687-0.318-0.76-0.344l-0.014-0.021c-0.015-0.024-0.044-0.068-0.045-0.076
		l-0.03-0.078l-0.038-0.128c-0.023-0.082-0.043-0.157-0.056-0.237c-0.027-0.152-0.052-0.299-0.076-0.436
		c-0.052-0.268-0.063-0.519-0.08-0.721C99.923,79.365,99.944,79.114,99.944,79.114z"/>
	<path fill="#754B27" d="M90.679,77.61c0,0,0.453-0.074,1.231-0.144c0.194-0.018,0.408-0.037,0.642-0.058
		c0.113-0.011,0.23-0.021,0.353-0.032l0.034-0.189L92.947,77h0.003c0.006,0,0.015,0.182-0.075,0.183c-0.133,0-0.313,0.179-0.4,0.29
		c-0.043,0.059-0.07,0.134-0.117,0.251c-0.044,0.102-0.056,0.368,0.074,0.542c0.125,0.17,0.26,0.22,0.329,0.24
		c0.033,0.008,0.007,0.008,0.014,0.01l-0.006,0.005l-0.013,0.003l-0.042,0.003l-0.189,0.009c-0.53,0.027-1.128,0.059-1.781,0.092
		c-1.281,0.041-2.776,0.088-4.377,0.139c-0.777,0.033-1.583,0.073-2.303,0.164c-0.35,0.039-0.705,0.129-0.837,0.18
		c-0.054-0.002-0.013,0.094,0.298-0.289c0.148-0.201,0.239-0.558,0.204-0.794c-0.011-0.111-0.024-0.181-0.056-0.258
		c-0.008-0.038-0.028-0.079-0.046-0.106c-0.041-0.062,0.026,0.033,0.102,0.11l0.158,0.144l0.095,0.078l0.047,0.039l0.023,0.02
		l0.006,0.005c0.015,0.011-0.109-0.079-0.053-0.038l0.017,0.012c0.355,0.248,0.695,0.514,1.039,0.769s0.68,0.514,1.008,0.776
		c0.315,0.204,0.63,0.403,0.931,0.617c0.592,0.441,1.227,0.797,1.831,1.153c0.295,0.2,0.598,0.345,0.892,0.483
		c0.296,0.15,0.581,0.296,0.855,0.436c0.567,0.201,1.086,0.492,1.579,0.625c0.486,0.161,0.926,0.312,1.298,0.405
		c0.745,0.212,1.186,0.346,1.186,0.346s-0.428,0.162-1.203,0.329c-0.389,0.092-0.87,0.182-1.435,0.21
		c-0.569,0.077-1.204,0.017-1.918-0.01c-0.678-0.127-1.471-0.195-2.225-0.458c-0.767-0.237-1.583-0.498-2.378-0.919
		c-0.406-0.188-0.812-0.399-1.226-0.61c-0.359-0.217-0.719-0.443-1.076-0.679c-0.358-0.234-0.725-0.462-1.08-0.709l-0.375-0.288
		l-0.33-0.287c-0.229-0.23-0.467-0.451-0.726-0.891c-0.066-0.124-0.13-0.266-0.184-0.402c-0.058-0.181-0.107-0.355-0.129-0.574
		c-0.053-0.452,0.087-1.03,0.358-1.412c0.56-0.746,1.021-0.839,1.365-0.995c0.687-0.232,1.194-0.254,1.694-0.293
		c0.985-0.054,1.868,0.017,2.717,0.112c1.69,0.199,3.206,0.547,4.493,0.918c0.644,0.183,1.224,0.386,1.743,0.576l0.196,0.072
		l0.052,0.019l0.034,0.012l0.017,0.005l0.025,0.008c0.072,0.021,0.211,0.061,0.34,0.231c0.133,0.175,0.125,0.42,0.085,0.522
		c-0.041,0.119-0.068,0.148-0.118,0.206c-0.094,0.112-0.283,0.198-0.424,0.197c-0.094,0.001-0.089-0.004-0.087-0.003l-0.008-0.002
		l-0.016-0.004l-0.058-0.017c-0.131-0.04-0.243-0.085-0.355-0.13c-0.22-0.09-0.421-0.172-0.603-0.247
		C91.083,77.826,90.679,77.61,90.679,77.61z"/>
	<path fill="#754B27" d="M196.089,165.777c0,0,1.361,1.088,3.743,2.99c1.187,0.953,2.627,2.11,4.28,3.438
		c1.659,1.312,3.529,2.794,5.57,4.41c2.043,1.606,4.29,3.304,6.671,5.037c0.604,0.416,1.215,0.837,1.833,1.264
		c0.304,0.203,0.63,0.451,0.921,0.621c0.331,0.204,0.663,0.408,0.997,0.614c1.3,0.75,2.624,1.487,4.04,2.051
		c1.408,0.55,2.871,0.93,4.355,1.03c1.484,0.102,2.985-0.074,4.48-0.475c1.494-0.408,2.975-1.039,4.419-1.812l1.074-0.613
		l0.491-0.286l0.545-0.355c0.298-0.218,0.516-0.386,0.73-0.599c0.118-0.103,0.142-0.18,0.227-0.258
		c0.004-0.043,0.061-0.106,0.023-0.053c-0.046,0.084,0.062,0.348,0.02,0.236c-0.03-0.076-0.295-0.275-0.54-0.442
		c-0.562-0.351-1.297-0.675-2.05-0.964c-1.521-0.582-3.167-1.064-4.804-1.574c-1.648-0.51-3.299-1.018-4.965-1.771
		c-0.417-0.188-0.836-0.396-1.261-0.645l-1.092-0.649c-0.718-0.44-1.424-0.886-2.117-1.334c-2.785-1.776-5.361-3.657-7.739-5.523
		c-2.383-1.86-4.558-3.72-6.457-5.555c-1.933-1.796-3.572-3.587-4.955-5.225c-0.716-0.795-1.307-1.613-1.867-2.351
		c-0.573-0.728-1.044-1.438-1.454-2.09c-0.412-0.648-0.808-1.205-1.087-1.734c-0.275-0.527-0.509-0.977-0.699-1.342
		c-0.376-0.725-0.578-1.11-0.578-1.11s0.256,0.354,0.735,1.016c0.239,0.329,0.533,0.734,0.878,1.212
		c0.353,0.47,0.815,0.971,1.291,1.556c0.477,0.585,1.019,1.22,1.667,1.862c0.643,0.646,1.277,1.392,2.062,2.095
		c0.768,0.717,1.552,1.507,2.463,2.257c0.887,0.773,1.81,1.593,2.828,2.389c1.995,1.633,4.26,3.278,6.674,4.979
		c2.425,1.689,5.059,3.364,7.813,5.024c0.69,0.414,1.389,0.821,2.096,1.223l1.071,0.587c0.3,0.162,0.637,0.315,0.989,0.46
		c1.418,0.574,3.028,1.04,4.651,1.531c1.635,0.49,3.311,0.955,5.033,1.59c0.864,0.326,1.736,0.676,2.658,1.232
		c0.468,0.32,0.946,0.607,1.436,1.237c0.231,0.315,0.475,0.687,0.592,1.194c0.075,0.238,0.099,0.49,0.09,0.752
		c0.006,0.268-0.028,0.51-0.099,0.725c-0.117,0.487-0.319,0.784-0.52,1.124c-0.2,0.249-0.417,0.54-0.626,0.726
		c-0.403,0.401-0.882,0.754-1.293,1.036l-0.549,0.35c-0.281,0.175-0.419,0.24-0.636,0.366l-1.192,0.66
		c-1.617,0.843-3.333,1.562-5.147,2.035c-1.809,0.48-3.735,0.649-5.592,0.447c-1.86-0.191-3.623-0.727-5.225-1.418
		c-1.59-0.705-3.06-1.559-4.417-2.472c-0.322-0.225-0.642-0.448-0.96-0.67c-0.363-0.245-0.638-0.485-0.958-0.726
		c-0.617-0.479-1.227-0.953-1.829-1.421c-2.361-1.899-4.482-3.791-6.405-5.571c-1.945-1.755-3.65-3.442-5.173-4.925
		c-1.518-1.487-2.815-2.81-3.875-3.906c-1.071-1.085-1.875-1.977-2.438-2.569C196.385,166.097,196.089,165.777,196.089,165.777z"/>
	<path fill="#754B27" d="M245.114,178.936c0,0,0.3,0.066,0.864,0.091c0.562,0.027,1.392-0.013,2.396-0.222
		c1.002-0.214,2.168-0.661,3.33-1.423c1.161-0.767,2.283-1.879,3.287-3.261c0.232-0.351,0.47-0.708,0.711-1.072
		c0.118-0.205,0.238-0.412,0.358-0.621l0.289-0.572c0.157-0.378,0.344-0.799,0.362-1.063c0.006-0.064-0.008-0.096,0.002-0.143
		c-0.021,0-0.01-0.024-0.014,0.015c0.023,0.064,0.072,0.16,0.059,0.135c-0.102-0.035-0.532-0.104-0.973-0.087
		c-0.449,0.004-0.958,0.058-1.472,0.115c-1.072,0.139-2.168,0.28-3.282,0.424c-2.271,0.265-4.778,0.57-7.396,0.129
		c-2.34-0.371-4.779-0.702-7.211-1.265l-1.815-0.457c-0.606-0.145-1.208-0.304-1.791-0.521c-1.175-0.399-2.345-0.797-3.506-1.191
		c-1.144-0.43-2.233-0.958-3.323-1.448c-1.076-0.515-2.188-0.934-3.177-1.527c-2.019-1.116-3.976-2.189-5.762-3.301
		c-1.757-1.158-3.392-2.289-4.896-3.333c-1.535-0.999-2.823-2.079-3.978-3.015c-1.161-0.926-2.151-1.76-2.97-2.44
		c-1.631-1.369-2.54-2.174-2.54-2.174s1.08,0.575,2.93,1.622c0.922,0.527,2.045,1.159,3.308,1.916
		c1.27,0.746,2.683,1.616,4.292,2.441c1.596,0.849,3.317,1.77,5.112,2.781c1.831,0.94,3.818,1.801,5.81,2.811
		c0.987,0.531,2.067,0.872,3.12,1.314c1.068,0.403,2.126,0.875,3.213,1.277c1.102,0.354,2.211,0.711,3.326,1.068
		c0.552,0.197,1.121,0.337,1.693,0.463l1.711,0.404c2.276,0.568,4.639,0.93,6.998,1.343c2.096,0.375,4.324,0.311,6.556,0.134
		c1.116-0.078,2.229-0.2,3.372-0.234c0.575-0.018,1.146-0.033,1.765,0.01c0.619,0.061,1.269,0.09,2.103,0.527
		c0.417,0.248,0.892,0.697,1.053,1.272c0.098,0.273,0.1,0.517,0.118,0.765c-0.017,0.205-0.035,0.43-0.075,0.613
		c-0.167,0.736-0.458,1.207-0.734,1.701c-0.151,0.229-0.301,0.456-0.45,0.682c-0.143,0.193-0.285,0.386-0.426,0.576
		c-0.326,0.39-0.646,0.772-0.96,1.146c-1.285,1.438-2.747,2.511-4.168,3.171c-1.417,0.679-2.781,0.917-3.875,0.959
		c-1.101,0.05-1.948-0.128-2.504-0.265C245.392,179.063,245.114,178.936,245.114,178.936z"/>
	<g>
		<path fill="#754B27" d="M82.851,245.707c-0.732,0.447-1.552,0.951-2.465,1.511c-0.375,0.29-0.702,0.337-0.981,0.136
			c-0.22-0.111-0.513-0.383-0.869-0.807c-0.602-0.719-0.739-1.156-0.425-1.303c0.165-0.088,0.562-0.295,1.18-0.639
			c0.286-0.173,0.504-0.312,0.656-0.408c0.153-0.1,0.259-0.159,0.322-0.181c0.492-0.263,0.643-0.533,0.455-0.816
			c-0.478-0.77-0.85-1.285-1.142-1.553c-0.295-0.271-0.821-0.202-1.597,0.183c-4.824,2.396-9.072,3.4-12.579,3.067
			c-4.284-0.349-8.177-2.56-11.271-6.567c-0.78-1.013-1.371-1.979-1.773-2.874c-1.746-3.792-1.666-6.294-0.023-7.362
			c1.091-0.714,2.104-0.641,3.055,0.195c0.108,0.11,0.196,0.199,0.263,0.271c0.068,0.071,0.121,0.139,0.163,0.197
			c0.194,0.283,0.144,0.644-0.148,1.084c-1.188,1.374-0.729,3.548,1.488,6.289c1.669,2.021,4.04,3.242,6.98,3.566
			c2.038,0.219,4.38-0.054,6.984-0.838c0.588-0.22,1.169-0.439,1.741-0.658c0.57-0.225,1.147-0.449,1.726-0.683
			c0.601-0.255,0.737-0.571,0.409-0.954c-0.886-1.051-2.114-2.159-3.69-3.395c-0.246-0.236-0.323-0.458-0.235-0.668
			c0.087-0.208,0.383-0.465,0.886-0.769c0.919-0.579,1.69-0.589,2.317-0.058c1.936,1.484,3.31,2.57,4.097,3.372
			c0.365,0.369,0.715,0.494,1.052,0.382c1.969-0.941,3.675-1.783,5.138-2.487c1.46-0.708,2.678-1.305,3.664-1.775
			c0.501-0.207,0.705-0.473,0.615-0.793c-0.07-0.346-0.525-1.154-1.317-2.466c-0.426-0.704-0.794-1.306-1.115-1.805
			c-0.323-0.503-0.609-0.909-0.858-1.217c-0.523-0.646-1.149-1.128-1.894-1.467c-0.748-0.34-1.401-0.442-1.967-0.302
			c-0.228,0.045-0.445,0.147-0.642,0.318c-0.088,0.076-0.181,0.179-0.284,0.304c-0.102,0.129-0.175,0.209-0.218,0.246
			c-0.241,0.208-0.528,0.141-0.859-0.205c-0.374-0.351-0.53-0.812-0.464-1.373c0.033-0.644,0.341-1.188,0.923-1.619
			c1.68-1.247,3.408-1.298,5.202-0.285c1.117,0.581,2.437,1.79,4.054,3.561c1.125,1.23,2.224,2.779,3.363,4.648
			c0.433,0.698,0.8,1.323,1.088,1.87c0.288,0.551,0.515,1.022,0.685,1.427c0.144,0.341-0.047,0.709-0.577,1.099
			c-1.57,1-3.24,2.035-5.026,3.085c-1.786,1.047-3.712,2.133-5.79,3.228c-0.409,0.217-0.427,0.553-0.052,1.001
			c0.889,1.019,1.591,1.967,2.091,2.871c0.258,0.438,0.15,0.85-0.333,1.244C84.249,244.868,83.583,245.262,82.851,245.707z"/>
		<path fill="#754B27" d="M102.28,266.181c-1.812,0.499-3.68,0.408-5.534-0.267c-0.427-0.156-0.847-0.322-1.255-0.493
			c-0.402-0.167-0.821-0.372-1.252-0.61c-2.022-1.124-3.337-2.276-3.936-3.357c-0.387-0.715-0.328-1.452,0.15-2.212
			c0.247-0.392,0.689-0.904,1.318-1.535c0.089-0.079,0.166-0.17,0.228-0.27c0.045-0.073,0.026-0.103-0.062-0.09
			c-0.044,0.009-0.109,0.018-0.195,0.032c-0.091,0.012-0.192,0.052-0.314,0.111c-3.958,1.349-7.239,1.084-9.533-0.61
			c-0.58-0.429-1.08-0.912-1.516-1.468c-0.991-1.346-0.975-2.645,0.003-3.866c0.09-0.112,0.201-0.237,0.331-0.375
			c0.129-0.137,0.282-0.285,0.455-0.443c0.94-0.998,4.832-3.341,11.105-7.652c0.547-0.388,1.12-0.362,1.731,0.073
			c0.416,0.297,0.833,0.713,1.264,1.253c0.792,0.962,1.043,1.677,0.726,2.163c-0.096,0.147-0.301,0.323-0.619,0.531
			c-0.375,0.237-0.917,0.59-1.624,1.06c-0.712,0.467-1.617,1.061-2.73,1.771c-2.618,1.646-4.227,2.645-4.724,3.109
			c-0.257,0.247-0.481,0.448-0.666,0.619c-0.186,0.169-0.32,0.315-0.404,0.433c-0.375,0.518-0.186,1.051,0.577,1.589
			c0.426,0.301,1.248,0.396,2.448,0.261c1.421-0.161,3.74-1.134,6.812-3.051c1.173-0.738,2.151-1.41,2.941-2.001
			c0.787-0.594,1.433-1.107,1.939-1.554c0.865-0.804,1.898-0.763,3.153,0.094c1.151,0.801,1.622,1.412,1.378,1.877
			c-0.135,0.258-0.385,0.502-0.745,0.739c-0.364,0.231-1.625,1.373-3.872,3.347c-2.349,2.018-3.803,3.221-4.263,3.691
			c-0.897,0.955-1.264,1.681-1.085,2.188c0.293,0.802,1.19,1.631,2.705,2.434c0.572,0.303,1.446,0.464,2.59,0.456
			c0.646-0.001,1.256-0.046,1.827-0.141c0.566-0.095,1.09-0.257,1.566-0.483c0.222-0.087,0.325,0.01,0.305,0.287
			c0,0.545-0.16,1.096-0.489,1.645C102.738,265.882,102.497,266.12,102.28,266.181z"/>
		<path fill="#754B27" d="M122.076,273.263c-1.758,0.865-3.588,1.132-5.427,0.786c-3.131-0.498-5.323-1.362-6.529-2.426
			c-1.203-1.064-1.571-2.153-1.143-3.228c0.106-0.271,0.282-0.574,0.524-0.916c0.403-0.56,0.851-1.13,1.341-1.719
			c0.491-0.589,1.052-1.211,1.683-1.872c0.942-1.039,1.587-1.7,1.949-1.969c0.327-0.252,0.459-0.619,0.404-1.104
			c-0.065-0.455-0.485-1.101-1.238-1.946c-0.178-0.226-0.408-0.171-0.703,0.148c-1.37,1.395-2.447,2.418-3.178,3.106
			c-0.734,0.686-1.135,1.044-1.188,1.085c-2.187,1.694-4.598,2.782-7.199,3.215c-1.587,0.209-3.124,0.046-4.581-0.485
			c-0.211-0.048-0.31-0.194-0.293-0.449c-0.01-0.497,0.106-0.979,0.352-1.439c0.122-0.229,0.254-0.323,0.385-0.287
			c1.204,0.374,2.243,0.512,3.12,0.428c0.641-0.072,1.613-0.322,2.895-0.774c0.91-0.373,2.191-1.156,3.791-2.381
			c1.757-1.348,3.235-2.801,4.469-4.328c0.069-0.097,0.123-0.163,0.154-0.195c0.029-0.035,0.052-0.065,0.064-0.092
			c0.038-0.173,0.043-0.454,0.007-0.845c-0.03-0.389,0.03-0.755,0.178-1.104c0.045-0.106,0.106-0.224,0.174-0.351
			c0.069-0.131,0.145-0.256,0.229-0.375c0.947-1.396,2.007-1.83,3.218-1.325c1.028,0.434,1.357,1.306,0.984,2.651
			c-0.064,0.255-0.263,0.585-0.603,0.983c-0.114,0.143-0.161,0.264-0.137,0.366c0.028,0.104,0.119,0.239,0.278,0.405
			c0.162,0.167,0.384,0.388,0.667,0.655c0.279,0.271,0.63,0.631,1.047,1.08c0.835,0.894,1.396,1.53,1.652,1.916
			c0.427,0.653,0.481,1.319,0.137,2.003c-0.229,0.415-1.14,1.562-2.827,3.39c-0.834,0.883-1.5,1.602-1.987,2.157
			c-0.486,0.552-0.805,0.941-0.957,1.165c-0.465,0.729-0.269,1.338,0.61,1.814c0.356,0.209,1.124,0.479,2.303,0.783
			c0.624,0.162,1.497,0.154,2.6-0.045c1.32-0.225,2.387-0.65,3.188-1.252c0.206-0.125,0.318-0.051,0.348,0.225
			c0.101,0.535,0.044,1.104-0.176,1.706C122.47,272.885,122.279,273.164,122.076,273.263z"/>
		<path fill="#754B27" d="M146.558,276.764c-1.454,1.166-3.167,1.823-5.105,1.935c-2.838,0.215-5.203-0.139-7.018-0.975
			c-1.749-0.86-2.484-1.987-2.26-3.328c0.126-0.773,0.757-2.106,1.833-4.023c0.488-0.833,0.932-1.567,1.34-2.195
			c0.406-0.632,0.763-1.172,1.077-1.629c0.451-0.581,0.701-1.076,0.754-1.479c0.038-0.288-0.073-0.488-0.332-0.612
			c-0.578-0.253-1.554,0.124-3,1.095c-1.449,0.973-3.233,2.716-5.464,5.189c-0.952,1.049-1.733,1.92-2.333,2.618
			c-0.607,0.696-1.043,1.252-1.311,1.665c-0.238,0.423-0.587,0.698-1.041,0.83c-1.123,0.272-2.151,0.15-3.05-0.358
			c-0.464-0.27-0.617-0.629-0.459-1.067c0.125-0.356,1.633-2.794,4.25-7.429c1.304-2.303,2.263-4.082,2.94-5.307
			c0.673-1.226,1.049-1.938,1.153-2.122c0.36-0.511,0.839-0.805,1.451-0.883c0.303-0.055,0.823,0.014,1.557,0.186
			c0.758,0.178,1.216,0.379,1.38,0.613c0.164,0.236,0.143,0.599-0.062,1.093c-0.384,0.785-1.136,2.194-2.309,4.212
			c-0.221,0.312-0.236,0.484-0.055,0.52c0.181,0.034,0.349-0.036,0.509-0.211c3.848-3.14,6.606-4.684,8.772-4.448
			c0.458,0.049,0.884,0.181,1.274,0.392c1.077,0.597,1.587,1.446,1.499,2.572c-0.046,0.578-0.199,1.219-0.471,1.925
			c-0.358,0.987-1.083,2.585-2.258,4.771c-0.636,1.191-1.122,2.084-1.454,2.689c-0.333,0.604-0.52,0.935-0.555,0.986
			c-0.135,0.306-0.212,0.544-0.232,0.719c-0.05,0.43,0.157,0.807,0.626,1.119c0.472,0.311,1.414,0.545,2.821,0.66
			c0.635,0.051,1.477-0.147,2.51-0.604c0.583-0.253,1.116-0.54,1.593-0.849c0.48-0.311,0.889-0.664,1.232-1.059
			c0.17-0.167,0.301-0.119,0.39,0.145c0.214,0.5,0.276,1.067,0.191,1.702C146.859,276.309,146.728,276.625,146.558,276.764z"/>
		<path fill="#754B27" d="M160.298,276.409c-1.302,1.332-2.93,2.188-4.834,2.53c-0.406,0.077-0.823,0.134-1.252,0.178
			c-0.426,0.04-0.884,0.067-1.363,0.078c-2.197,0.044-3.723-0.228-4.565-0.735c-0.503-0.327-0.903-0.635-1.198-0.92
			c-0.294-0.282-0.53-0.582-0.705-0.893c-0.175-0.312-0.275-0.655-0.311-1.033c-0.035-0.376-0.04-0.827-0.019-1.348
			c0.047-0.317,0.224-0.972,0.535-1.96c0.311-0.989,0.765-2.301,1.332-3.938c0.334-0.918,0.651-1.84,0.953-2.764
			c0.299-0.922,0.603-1.845,0.904-2.771c0.181-0.723,0.518-1.152,1.009-1.302c1.104-0.322,2.125-0.371,3.092-0.144
			c0.259,0.05,0.48,0.229,0.653,0.54c0.174,0.311,0.238,0.645,0.196,0.992c-0.489,1.645-1.019,3.358-1.595,5.141
			c-0.573,1.779-1.224,3.646-1.96,5.594c-0.259,0.783-0.392,1.332-0.391,1.651c0.001,0.378,0.116,0.654,0.351,0.824
			c0.67,0.489,1.89,0.726,3.631,0.661c0.643-0.026,1.454-0.32,2.421-0.899c0.55-0.321,1.045-0.667,1.482-1.033
			c0.439-0.366,0.802-0.766,1.092-1.198c0.152-0.185,0.287-0.155,0.408,0.098c0.267,0.472,0.403,1.026,0.396,1.667
			C160.537,275.923,160.45,276.248,160.298,276.409z M154.94,255.475c-0.328,0.016-0.616-0.029-0.864-0.137
			c-0.889-0.371-1.335-1.015-1.356-1.912c-0.016-0.608,0.155-1.294,0.498-2.059c0.313-0.791,0.975-1.205,2.004-1.259
			c0.253-0.014,0.499,0.017,0.739,0.088c0.844,0.353,1.314,1.011,1.391,1.994c0.042,0.546-0.022,1.036-0.208,1.453
			C156.586,254.816,155.838,255.432,154.94,255.475z"/>
		<path fill="#754B27" d="M174.214,274.35c-1.131,1.483-2.642,2.532-4.499,3.105c-0.918,0.299-1.773,0.506-2.556,0.615
			c-2.009,0.288-3.6,0.175-4.741-0.291c-1.764-0.752-2.607-2.133-2.607-4.076c-0.024-0.666,0.277-2.263,0.826-4.787
			c0.256-1.245,0.435-2.194,0.556-2.849c0.113-0.653,0.178-1.01,0.204-1.07c0.01-0.204-0.143-0.333-0.452-0.39
			c-0.237,0.024-0.501,0.043-0.79,0.056c-0.283,0.015-0.607,0.02-0.973,0.022c-0.274-0.037-0.348-0.23-0.23-0.591
			c0.048-0.18,0.099-0.386,0.149-0.624c0.056-0.237,0.128-0.517,0.218-0.848c0.181-0.303,0.47-0.478,0.881-0.518
			c0.234-0.023,0.467-0.047,0.701-0.071c0.208,0.01,0.354,0.006,0.441-0.004c0.118-0.011,0.205-0.022,0.267-0.029
			c0.144-0.016,0.302-0.178,0.472-0.491c0.203-1.277,0.415-2.607,0.63-3.994c0.218-1.389,0.433-2.854,0.641-4.405
			c0.066-0.303,0.312-0.56,0.741-0.769c0.929-0.434,1.909-0.597,2.96-0.498c0.416,0.07,0.646,0.47,0.676,1.2
			c-0.141,1.264-0.291,2.553-0.457,3.861c-0.164,1.31-0.34,2.655-0.527,4.037c-0.013,0.267,0.133,0.419,0.438,0.456
			c0.347-0.059,0.742-0.117,1.178-0.185c0.441-0.064,0.906-0.13,1.406-0.196c0.178-0.008,0.333,0.155,0.458,0.483
			c0.139,0.388,0.135,0.889-0.017,1.511c-0.043,0.244-0.213,0.412-0.506,0.495c0.114-0.057-0.896,0.143-3.039,0.486
			c-0.241,0.036-0.399,0.194-0.48,0.472c-0.15,1.195-0.339,2.482-0.569,3.86c-0.228,1.38-0.5,2.85-0.821,4.411
			c-0.198,0.986,0.001,1.695,0.628,2.108c0.888,0.585,2.01,0.778,3.339,0.564c0.627-0.101,1.4-0.496,2.296-1.19
			c0.501-0.385,0.948-0.789,1.34-1.205c0.389-0.416,0.701-0.861,0.944-1.324c0.123-0.202,0.261-0.186,0.409,0.047
			c0.33,0.434,0.534,0.968,0.601,1.605C174.394,273.838,174.345,274.174,174.214,274.35z"/>
		<path fill="#754B27" d="M185.661,266.762c-0.729,2.908-1.713,4.992-2.84,6.228c-1.464,1.638-3.077,2.662-4.752,3.069
			c-0.606,0.147-1.196,0.196-1.771,0.147c-2.156-0.139-3.493-1.307-4.044-3.409c-0.25-0.924-0.346-2.044-0.298-3.353
			c0.042-1.31,0.206-2.835,0.457-4.577c0.426-2.697,0.809-4.542,1.229-5.537c0.23-0.561,0.592-0.904,1.1-1.031
			c0.312-0.08,0.76-0.137,1.358-0.175c1.089-0.083,1.762,0.263,1.997,1.07c0.097,0.335,0.095,0.761-0.012,1.269
			c-1.208,5.785-1.893,9.664-1.401,11.638c0.236,0.983,0.866,1.361,1.88,1.104c0.654-0.168,1.288-0.655,1.875-1.461
			c0.593-0.811,1.156-2.137,1.652-3.979c0.258-0.927,0.427-1.737,0.51-2.432c0.081-0.691,0.106-1.292,0.07-1.799
			c-0.048-0.471-0.129-0.765-0.236-0.883c-0.25-0.119-0.498-0.238-0.746-0.357c-0.706-0.388-1.154-0.966-1.353-1.72
			c-0.248-0.896-0.165-1.732,0.226-2.507c0.387-0.776,1.007-1.303,1.869-1.597c1.578-0.542,2.669,0.112,3.288,2.017
			C186.438,260.691,186.495,263.451,185.661,266.762z"/>
		<path fill="#754B27" d="M214.825,256.904c-0.511,1.833-1.544,3.414-3.08,4.682c-0.358,0.291-0.71,0.568-1.065,0.837
			c-0.355,0.266-0.745,0.524-1.167,0.776c-1.999,1.184-3.645,1.729-4.882,1.699c-0.804-0.032-1.412-0.455-1.828-1.25
			c-0.215-0.41-0.434-1.05-0.661-1.912c-0.023-0.119-0.064-0.229-0.118-0.331c-0.04-0.075-0.073-0.076-0.108,0.008
			c-0.012,0.04-0.042,0.105-0.072,0.186c-0.03,0.082-0.053,0.189-0.057,0.323c-0.815,4.088-2.657,6.765-5.211,7.865
			c-0.639,0.275-1.298,0.459-1.974,0.548c-1.621,0.162-2.713-0.51-3.279-1.971c-0.052-0.133-0.102-0.293-0.154-0.476
			c-0.052-0.182-0.106-0.387-0.158-0.615c-0.399-1.311-0.52-5.835-1.151-13.395c-0.064-0.666,0.234-1.144,0.906-1.445
			c0.454-0.205,1.018-0.353,1.688-0.444c1.214-0.19,1.957-0.045,2.215,0.474c0.078,0.156,0.128,0.422,0.145,0.803
			c0.018,0.441,0.059,1.084,0.107,1.931c0.053,0.844,0.116,1.922,0.178,3.238c0.12,3.083,0.188,4.967,0.347,5.627
			c0.079,0.347,0.146,0.642,0.201,0.886c0.055,0.246,0.11,0.436,0.169,0.568c0.259,0.583,0.811,0.691,1.642,0.312
			c0.459-0.21,0.943-0.864,1.421-1.964c0.564-1.301,0.87-3.783,0.759-7.396c-0.05-1.381-0.14-2.564-0.258-3.539
			c-0.11-0.98-0.237-1.796-0.364-2.457c-0.26-1.152,0.297-2.021,1.676-2.675c1.277-0.593,2.046-0.69,2.326-0.247
			c0.154,0.246,0.243,0.581,0.261,1.017c0.014,0.433,0.359,2.101,0.932,5.033c0.554,3.045,0.857,4.909,1.034,5.542
			c0.369,1.26,0.811,1.943,1.345,2.039c0.833,0.154,2.001-0.201,3.477-1.111c0.555-0.342,1.136-1.017,1.717-2.015
			c0.334-0.562,0.604-1.117,0.817-1.659c0.213-0.546,0.339-1.079,0.389-1.606c0.045-0.24,0.182-0.28,0.413-0.126
			c0.475,0.273,0.87,0.686,1.177,1.25C214.801,256.357,214.882,256.688,214.825,256.904z"/>
		<path fill="#754B27" d="M231.521,242.742c-0.189,2.028-0.945,3.824-2.237,5.316c-2.116,2.582-4.032,4.102-5.601,4.648
			c-1.571,0.545-2.712,0.33-3.428-0.581c-0.18-0.229-0.354-0.533-0.525-0.916c-0.28-0.629-0.543-1.31-0.799-2.034
			c-0.253-0.729-0.502-1.531-0.752-2.414c-0.408-1.354-0.647-2.248-0.688-2.706c-0.048-0.415-0.3-0.714-0.752-0.902
			c-0.433-0.167-1.22-0.11-2.359,0.139c-0.291,0.046-0.371,0.279-0.24,0.695c0.493,1.903,0.827,3.356,1.045,4.343
			c0.214,0.986,0.318,1.516,0.325,1.584c0.331,2.768,0.023,5.424-0.946,7.908c-0.633,1.484-1.565,2.74-2.771,3.734
			c-0.15,0.162-0.331,0.172-0.542,0.03c-0.439-0.239-0.792-0.587-1.066-1.03c-0.136-0.222-0.155-0.379-0.052-0.478
			c0.934-0.853,1.589-1.689,1.965-2.491c0.265-0.592,0.551-1.562,0.822-2.91c0.146-0.979,0.125-2.484-0.112-4.497
			c-0.255-2.213-0.751-4.233-1.444-6.075c-0.044-0.111-0.073-0.191-0.088-0.234c-0.013-0.044-0.03-0.074-0.049-0.1
			c-0.127-0.122-0.374-0.262-0.729-0.429c-0.356-0.169-0.646-0.403-0.873-0.705c-0.069-0.091-0.143-0.198-0.214-0.327
			c-0.077-0.125-0.145-0.254-0.208-0.388c-0.727-1.522-0.549-2.671,0.532-3.493c0.917-0.693,1.856-0.554,2.838,0.438
			c0.191,0.181,0.373,0.521,0.543,1.019c0.061,0.176,0.144,0.277,0.249,0.302c0.102,0.029,0.268,0.014,0.5-0.046
			c0.229-0.061,0.54-0.147,0.929-0.271c0.387-0.119,0.888-0.249,1.501-0.401c1.228-0.304,2.084-0.499,2.565-0.544
			c0.801-0.064,1.412,0.217,1.831,0.856c0.24,0.405,0.754,1.794,1.463,4.198c0.328,1.188,0.601,2.136,0.828,2.842
			c0.226,0.708,0.397,1.183,0.517,1.424c0.39,0.771,1.028,0.896,1.911,0.349c0.378-0.22,1.021-0.771,1.923-1.689
			c0.476-0.479,0.933-1.271,1.355-2.369c0.514-1.31,0.714-2.484,0.622-3.513c-0.002-0.244,0.126-0.316,0.386-0.209
			c0.525,0.166,0.995,0.494,1.4,0.991C231.402,242.197,231.54,242.514,231.521,242.742z"/>
		<path fill="#754B27" d="M244.849,226.133c0.138,1.995-0.307,3.974-1.331,5.865c-0.779,1.506-1.812,3.081-3.115,4.695
			c-2.725,3.369-5.185,5.199-7.152,5.685c-2.296,0.53-4.24-0.082-5.854-1.702c-1.415-1.417-2.435-3.423-3.183-5.953
			c-0.536-1.832-0.553-3.61-0.064-5.385c0.383-1.484,1.024-2.775,1.942-3.905c0.52-0.64,1.002-1.09,1.455-1.343
			c1.706-1.015,3.395-0.96,5.077,0.277c0.374,0.275,0.738,0.612,1.096,1.004c0.955,1.043,1.592,3.057,1.748,6.083
			c0.061,0.952,0.062,1.858,0.006,2.723c-0.053,0.863-0.15,1.687-0.287,2.474c-0.009,0.234,0,0.355,0.021,0.374
			c0.088,0.077,0.338,0.007,0.751-0.21c1.582-0.746,3.409-2.57,5.308-5.568c1.236-1.96,1.603-4.127,1.08-6.374
			c-0.042-0.246,0.075-0.346,0.353-0.295c0.553,0.058,1.078,0.288,1.57,0.698C244.637,225.611,244.832,225.896,244.849,226.133z
			 M228.158,229.517c-0.109,0.962,0.005,1.903,0.348,2.832c0.75,2.091,1.572,3.595,2.539,4.473c0.685,0.624,1.117,0.536,1.282-0.263
			c0.653-2.575,0.643-4.904,0.038-6.93c-0.367-1.258-0.835-2.095-1.38-2.525c-0.775-0.61-1.455-0.534-2.052,0.207
			C228.521,227.82,228.268,228.553,228.158,229.517z"/>
	</g>
	<g>
		<path fill="#754B27" d="M55.382,68.731c-0.01,2.188-0.289,3.626-0.84,4.317c-0.518,0.589-1.223,0.829-2.111,0.722
			c-0.594-0.057-0.998-0.164-1.217-0.325c-0.408-0.302-0.484-0.801-0.227-1.495c0.918-2.739,0.775-5.207-0.434-7.403
			c-0.684-1.306-1.449-2.269-2.295-2.894c-1.205-0.886-2.189-0.81-2.955,0.23c-1.188,1.613-1.018,5.194,0.504,10.743
			c0.736,2.607,1.553,4.992,2.451,7.15c0.898,2.159,1.896,4.126,2.99,5.903c0.932,1.485,1.709,2.723,2.332,3.708
			c0.623,0.986,1.117,1.719,1.482,2.196c1.568,2.167,3.156,3.844,4.771,5.032c1.805,1.328,3.449,1.698,4.941,1.107
			c0.391-0.132,0.74-0.404,1.041-0.813c0.846-1.149,1.201-3.122,1.068-5.92c-0.119-2.531-0.514-4.572-1.184-6.121
			c-0.535-1.278-0.684-2.083-0.441-2.411s0.674-0.484,1.297-0.469c0.619,0.015,1.111,0.152,1.465,0.414
			c0.408,0.302,0.689,0.722,0.846,1.255c2.547,7.823,2.504,13.525-0.133,17.106c-0.846,1.149-1.986,2.038-3.422,2.67
			c-2.785,1.15-5.85,0.499-9.186-1.956c-3.227-2.377-6.111-5.872-8.658-10.488c-4.213-7.739-6.562-14.888-7.047-21.444
			c-0.299-4.351,0.471-7.771,2.301-10.26c1.027-1.395,2.289-2.131,3.781-2.214c1.494-0.079,2.951,0.403,4.373,1.449
			c1.287,0.947,2.309,2.164,3.068,3.651C54.935,64.039,55.411,66.227,55.382,68.731z"/>
		<path fill="#754B27" d="M74.825,56.562c1.631,1.82,2.887,4.319,3.77,7.492c1.326,4.787,0.498,8.518-2.486,11.19
			c-0.863,0.771-1.818,1.356-2.875,1.755c-2.451,0.827-4.604,0.205-6.465-1.869c-1.018-1.139-1.998-2.767-2.941-4.888
			c-1.088-2.535-1.361-5.184-0.824-7.944c0.467-2.427,1.326-4.243,2.568-5.45c0.635-0.566,1.152-0.802,1.557-0.708
			c0.547,0.104,0.705,0.484,0.477,1.145c-0.199,0.542-0.238,1.718-0.123,3.528c0.09,2.338,0.412,4.376,0.967,6.111
			c0.842,2.62,1.727,4.449,2.656,5.485c0.68,0.76,1.361,1.062,2.041,0.905c0.488-0.116,0.91-0.335,1.264-0.651
			c1.035-0.929,1.439-2.361,1.211-4.298c-0.113-1.041-0.574-2.473-1.389-4.298c-0.617-1.501-1.082-2.428-1.4-2.782
			c-0.291-0.328-0.67-0.468-1.131-0.423c-0.918,0.095-1.764-0.288-2.533-1.147c-1.449-1.618-1.479-3.051-0.09-4.298
			c0.455-0.408,1.061-0.699,1.818-0.875C72.085,54.295,73.396,54.968,74.825,56.562z"/>
		<path fill="#754B27" d="M115.573,46.314c-0.605,1.923-1.684,3.458-3.229,4.607c-0.869,0.682-1.758,1.257-2.66,1.728
			c-1.326,0.69-2.543,1.111-3.648,1.266c-1.986,0.229-3.35-0.365-4.086-1.781c-0.438-0.844-0.812-2.485-1.123-4.926
			c-0.123-1.047-0.219-2.002-0.285-2.867c-0.066-0.864-0.107-1.638-0.117-2.321c0-0.957-0.086-1.602-0.258-1.934
			c-0.236-0.451-0.578-0.561-1.031-0.324c-0.422,0.219-0.773,1.053-1.051,2.5c-0.184,0.975-0.355,2.098-0.518,3.367
			c-0.162,1.272-0.322,2.715-0.479,4.326c-0.199,1.979-0.318,3.628-0.354,4.949c-0.043,1.322-0.004,2.316,0.111,2.981
			c0.119,0.819-0.557,1.612-2.035,2.38c-1.654,0.862-2.543,0.884-2.664,0.064c-0.262-2.197-0.516-4.525-0.758-6.982
			c-0.246-2.455-0.525-5.056-0.844-7.801c-0.135-1-0.514-1.396-1.133-1.189c-0.68,0.239-1.225,1.288-1.635,3.147
			c-0.342,1.402-0.559,4.193-0.645,8.371c-0.109,3.693-0.125,6.092-0.047,7.2c0.074,0.728-0.613,1.467-2.059,2.22
			c-1.445,0.751-2.281,0.727-2.508-0.074c-0.609-2.937-1.252-5.999-1.932-9.187c-0.684-3.185-1.4-6.534-2.152-10.046
			c-0.264-1.014,0.242-1.851,1.508-2.507c0.604-0.313,1.184-0.482,1.748-0.506c0.803-0.075,1.322,0.114,1.555,0.566
			c0.109,0.211,0.16,0.455,0.15,0.727c-0.004,0.729,0.09,1.791,0.277,3.186c0.24,1.713,0.438,2.721,0.594,3.021
			c0.236,0.453,0.404,0.154,0.512-0.896c0.566-5.384,2.025-8.688,4.377-9.911c0.119-0.062,0.246-0.117,0.371-0.165
			c0.129-0.047,0.279-0.095,0.445-0.145c1.645-0.511,2.838-0.06,3.574,1.356c0.484,0.935,0.77,2.184,0.855,3.745
			c0.027,0.639,0.113,0.919,0.266,0.839c0.029-0.015,0.199-0.83,0.508-2.445c0.363-1.95,0.801-3.535,1.312-4.759
			c0.822-1.882,1.805-3.119,2.951-3.716c0.631-0.328,1.312-0.49,2.043-0.487c1.197-0.048,2.102,0.514,2.713,1.689
			c0.268,0.513,0.475,1.131,0.623,1.857c0.275,1.197,0.58,3.22,0.916,6.068c0.191,1.547,0.338,2.714,0.441,3.502
			c0.105,0.789,0.154,1.221,0.158,1.297c0.082,0.378,0.17,0.658,0.262,0.839c0.236,0.451,0.627,0.688,1.174,0.71
			c0.76,0.064,1.715-0.239,2.855-0.911c0.557-0.326,1.154-0.981,1.795-1.965c0.77-1.165,1.23-2.305,1.379-3.417
			c0.057-0.259,0.203-0.275,0.432-0.052c0.477,0.403,0.857,0.952,1.143,1.646C115.581,45.699,115.647,46.085,115.573,46.314z"/>
		<path fill="#754B27" d="M133.796,43.26c-0.377,0.612-0.793,1.147-1.242,1.602c-0.916,0.986-1.924,1.678-3.016,2.076
			c-1.525,0.639-2.771,0.97-3.744,0.99c-0.377,0.02-0.551,0.182-0.514,0.487c0.076,0.61,0.119,1.236,0.133,1.88
			c0.014,0.642-0.023,1.305-0.105,1.988c-0.504,5.248-2.508,8.287-6.01,9.116c-0.627,0.147-1.221,0.219-1.781,0.212
			c-1.736,0.027-2.91-1.248-3.521-3.825c-0.205-0.86-0.348-1.906-0.432-3.144c-0.082-1.236-0.129-2.691-0.143-4.364
			c0.008-0.559,0.047-1.614,0.117-3.167c0.068-1.552,0.143-3.628,0.225-6.229c0.26-5.539,0.656-10.05,1.197-13.526
			c1.367-8.522,3.768-13.192,7.207-14.006c0.396-0.095,0.836-0.146,1.322-0.156c2.521,0.031,4.104,1.403,4.742,4.112
			c0.445,1.884,0.414,4.7-0.092,8.449c-0.369,2.879-1.383,5.963-3.049,9.253c-1.35,2.692-2.609,4.666-3.779,5.919
			c-0.275,0.311-0.389,0.563-0.342,0.763c0.062,0.264,0.381,0.503,0.955,0.717c0.695,0.288,1.309,0.894,1.84,1.813
			c0.275,0.425,0.574,0.65,0.896,0.679c1.174,0.105,2.406,0.006,3.697-0.299c0.627-0.149,1.365-0.639,2.215-1.468
			c0.484-0.462,0.912-0.939,1.287-1.429c0.371-0.489,0.67-1.005,0.889-1.546c0.119-0.237,0.262-0.219,0.434,0.055
			c0.361,0.508,0.598,1.133,0.703,1.876C133.952,42.665,133.923,43.056,133.796,43.26z M121.171,48.078
			c-0.334-0.095-0.908-0.376-1.717-0.849c-0.123-0.076-0.236-0.102-0.336-0.078c-0.195,0.047-0.311,0.302-0.34,0.761
			c-0.064,0.33-0.133,1.725-0.213,4.188c-0.094,2.707-0.113,4.178-0.057,4.408c0.148,0.629,0.465,0.938,0.951,0.927
			c1.021,0.038,1.748-1.688,2.18-5.173c0.182-1.441,0.162-2.623-0.057-3.547C121.497,48.352,121.36,48.14,121.171,48.078z
			 M120.618,23.399c-0.232,1.975-0.469,4.072-0.711,6.292c-0.24,2.222-0.51,4.623-0.805,7.205c-0.084,0.542-0.1,0.913-0.053,1.11
			c0.023,0.1,0.068,0.142,0.135,0.126c0.1-0.023,0.283-0.276,0.555-0.759c1.605-3.24,2.957-7.26,4.055-12.057
			c0.707-3.203,0.912-5.432,0.617-6.688c-0.211-0.893-0.676-1.307-1.393-1.24C121.862,17.522,121.062,19.525,120.618,23.399z"/>
		<path fill="#754B27" d="M149.979,30.811c0.133,2.442-0.451,5.177-1.748,8.206c-1.963,4.563-4.943,6.951-8.947,7.168
			c-1.15,0.063-2.264-0.081-3.34-0.431c-2.426-0.889-3.717-2.723-3.865-5.504c-0.084-1.525,0.168-3.408,0.762-5.652
			c0.74-2.657,2.182-4.896,4.328-6.713c1.887-1.599,3.693-2.479,5.418-2.641c0.846-0.046,1.4,0.095,1.656,0.42
			c0.361,0.423,0.248,0.82-0.342,1.192c-0.494,0.3-1.264,1.19-2.305,2.676c-1.396,1.879-2.422,3.668-3.074,5.369
			c-0.986,2.57-1.439,4.55-1.363,5.941c0.057,1.016,0.398,1.679,1.025,1.984c0.453,0.214,0.918,0.307,1.393,0.282
			c1.393-0.076,2.604-0.94,3.635-2.596c0.562-0.88,1.1-2.286,1.607-4.22c0.457-1.555,0.676-2.569,0.65-3.044
			c-0.023-0.441-0.229-0.786-0.617-1.038c-0.775-0.502-1.193-1.33-1.256-2.482c-0.117-2.17,0.756-3.306,2.619-3.407
			c0.609-0.033,1.266,0.119,1.963,0.454C149.263,27.33,149.864,28.675,149.979,30.811z"/>
		<path fill="#754B27" d="M173.657,44.918c-1.674,1.29-3.436,1.937-5.283,1.937c-3.131,0.109-5.385-0.267-6.762-1.131
			c-1.379-0.862-1.979-1.967-1.807-3.314c0.043-0.337,0.146-0.732,0.309-1.192c0.268-0.753,0.584-1.533,0.945-2.343
			c0.361-0.809,0.789-1.678,1.285-2.608c0.734-1.445,1.264-2.369,1.59-2.773c0.287-0.373,0.348-0.827,0.178-1.363
			c-0.176-0.502-0.779-1.127-1.812-1.877c-0.25-0.204-0.488-0.079-0.717,0.37c-1.111,1.979-1.953,3.47-2.527,4.475
			c-0.576,1.005-0.885,1.539-0.928,1.601c-1.775,2.613-3.838,4.659-6.186,6.135c-1.441,0.843-2.922,1.285-4.434,1.328
			c-0.209,0.041-0.348-0.078-0.414-0.361c-0.17-0.535-0.217-1.106-0.139-1.713c0.039-0.304,0.129-0.463,0.268-0.479
			c1.246-0.112,2.275-0.39,3.088-0.834c0.59-0.335,1.445-0.995,2.566-1.979c0.779-0.755,1.811-2.094,3.084-4.018
			c1.402-2.112,2.551-4.225,3.439-6.336c0.049-0.131,0.086-0.221,0.111-0.269c0.023-0.048,0.037-0.089,0.041-0.122
			c-0.008-0.208-0.086-0.526-0.236-0.955c-0.148-0.432-0.195-0.864-0.139-1.304c0.016-0.133,0.043-0.283,0.082-0.451
			c0.041-0.166,0.088-0.33,0.143-0.495c0.617-1.871,1.699-2.689,3.244-2.456c1.311,0.202,1.926,1.121,1.854,2.756
			c-0.006,0.307-0.146,0.734-0.424,1.28c-0.094,0.193-0.113,0.345-0.057,0.454c0.053,0.109,0.189,0.238,0.41,0.388
			c0.219,0.147,0.521,0.342,0.902,0.579c0.379,0.237,0.854,0.563,1.414,0.978c1.127,0.831,1.869,1.439,2.229,1.829
			c0.6,0.66,0.775,1.418,0.529,2.276c-0.172,0.526-0.965,2.033-2.381,4.521c-0.707,1.21-1.254,2.193-1.641,2.946
			c-0.389,0.755-0.635,1.28-0.74,1.573c-0.328,0.952-0.02,1.591,0.932,1.919c0.391,0.152,1.197,0.275,2.418,0.363
			c0.643,0.05,1.508-0.146,2.594-0.589c1.299-0.518,2.328-1.188,3.084-2.017c0.195-0.181,0.324-0.112,0.385,0.204
			c0.162,0.604,0.162,1.271,0,2.003C174.013,44.416,173.847,44.771,173.657,44.918z"/>
		<path fill="#754B27" d="M186.388,49.004c-1.771,0.97-3.611,1.334-5.521,1.094c-0.959-0.103-1.814-0.264-2.562-0.482
			c-1.924-0.562-3.312-1.321-4.166-2.278c-1.293-1.509-1.539-3.331-0.736-5.468c0.25-0.74,1.188-2.377,2.812-4.91
			c0.789-1.255,1.389-2.212,1.795-2.872c0.404-0.659,0.633-1.018,0.682-1.074c0.1-0.217,0-0.425-0.295-0.616
			c-0.262-0.077-0.543-0.168-0.848-0.274c-0.307-0.107-0.65-0.233-1.031-0.381c-0.273-0.151-0.273-0.398,0.006-0.741
			c0.123-0.176,0.262-0.383,0.418-0.62c0.158-0.237,0.355-0.516,0.59-0.836c0.322-0.26,0.713-0.323,1.17-0.188l0.779,0.227
			c0.221,0.1,0.379,0.164,0.479,0.192c0.129,0.038,0.225,0.066,0.291,0.086c0.164,0.047,0.406-0.06,0.73-0.318
			c0.799-1.286,1.648-2.623,2.551-4.004c0.898-1.383,1.854-2.846,2.871-4.389c0.225-0.287,0.641-0.432,1.24-0.433
			c1.301,0.026,2.523,0.383,3.668,1.07c0.441,0.306,0.477,0.848,0.109,1.624c-0.855,1.235-1.719,2.495-2.59,3.78
			c-0.869,1.285-1.752,2.611-2.646,3.976c-0.152,0.275-0.076,0.51,0.219,0.702c0.391,0.114,0.828,0.25,1.312,0.409
			s0.998,0.337,1.547,0.53c0.186,0.09,0.252,0.34,0.205,0.75c-0.07,0.476-0.346,0.996-0.83,1.563
			c-0.172,0.231-0.428,0.316-0.762,0.254c0.139,0.006-0.965-0.335-3.312-1.021c-0.26-0.076-0.498,0.014-0.713,0.269
			c-0.74,1.199-1.549,2.486-2.428,3.855c-0.879,1.371-1.824,2.829-2.842,4.371c-0.641,0.979-0.764,1.829-0.373,2.545
			c0.555,1.01,1.482,1.706,2.789,2.088c0.617,0.181,1.504,0.119,2.65-0.181c0.65-0.165,1.258-0.368,1.824-0.609
			s1.078-0.543,1.539-0.905c0.219-0.147,0.334-0.061,0.348,0.263c0.066,0.62-0.039,1.279-0.312,1.978
			C186.815,48.564,186.597,48.889,186.388,49.004z"/>
		<path fill="#754B27" d="M208.769,59.677c-1.912,0.644-3.789,0.678-5.627,0.106c-0.395-0.12-0.799-0.264-1.211-0.43
			c-0.408-0.166-0.826-0.355-1.254-0.565c-2.129-1.058-3.441-2.06-3.936-3.008c-0.498-0.947-0.518-1.877-0.066-2.789
			c0.213-0.426,0.666-1.036,1.363-1.827c0.09-0.106,0.135-0.197,0.135-0.273c-0.045-0.06-0.145-0.071-0.297-0.033
			c-0.15,0.038-0.289,0.103-0.408,0.193c-0.908,0.687-2.223,1.269-3.938,1.743c-2.457,0.677-4.463,0.628-6.016-0.143
			c-1.488-0.739-2.393-1.815-2.719-3.227c-0.381-1.364-0.195-2.809,0.557-4.329c0.982-1.977,2.656-3.819,5.021-5.526
			c2.377-1.739,4.965-2.673,7.76-2.803c2.096-0.096,3.986,0.256,5.674,1.055c1.264,0.59,2.275,1.414,3.037,2.476
			c0.35,0.514,0.701,0.651,1.049,0.406c0.379-0.229,0.684-0.382,0.912-0.458c0.361-0.122,0.689-0.169,0.979-0.139
			c0.348,0.06,0.904,0.391,1.664,0.996c0.775,0.575,1.225,1.007,1.348,1.295c0.139,0.486-0.045,0.965-0.541,1.438
			c-0.879,0.7-2.666,2.164-5.365,4.39c-1.045,0.884-1.941,1.68-2.693,2.388c-0.75,0.708-1.391,1.328-1.918,1.861
			c-0.529,0.532-0.9,1.014-1.113,1.438c-0.195,0.396-0.242,0.753-0.133,1.071c0.246,0.729,1.145,1.478,2.693,2.249
			c0.576,0.286,1.459,0.383,2.643,0.288c0.67-0.048,1.303-0.141,1.904-0.278c0.596-0.14,1.156-0.345,1.67-0.62
			c0.242-0.108,0.342-0.002,0.299,0.318c-0.047,0.621-0.266,1.253-0.656,1.892C209.267,59.318,208.995,59.601,208.769,59.677z
			 M204.554,43.424c0.256-0.518-0.125-1.048-1.145-1.592c-0.881-0.514-2.182-0.685-3.896-0.512c-1.654,0.2-3.15,0.691-4.482,1.469
			c-2.441,1.48-4.033,2.966-4.771,4.457c-0.711,1.429-0.518,2.416,0.576,2.96c0.576,0.285,1.459,0.23,2.643-0.168
			c0.227-0.076,0.594-0.226,1.105-0.447c0.506-0.221,1.17-0.508,1.988-0.859c2.246-1.01,4.846-2.694,7.801-5.057
			C204.431,43.63,204.491,43.545,204.554,43.424z"/>
		<path fill="#754B27" d="M217.153,66.566c-2.865,0.307-5.277-0.304-7.23-1.827c-0.484-0.377-0.908-0.771-1.273-1.186
			c-1.816-1.977-1.701-4.278,0.346-6.901c1.418-1.822,5.256-4.946,11.506-9.371c4.57-3.156,7.82-5.143,9.75-5.961
			c2.576-1.093,4.486-0.979,5.74,0.343c0.945,0.995,0.908,2.15-0.115,3.462c-0.564,0.723-1.293,1.382-2.186,1.977
			c-1.854,1.269-4.135,2.265-6.855,2.988c-0.676,0.205-1.627,0.625-2.855,1.26c-0.404,0.244-1.043,0.662-1.912,1.254
			c-0.873,0.592-1.984,1.395-3.334,2.407c-3.01,2.26-4.947,3.915-5.809,4.965c-0.863,1.051-0.822,1.941,0.111,2.673
			c0.428,0.333,0.896,0.48,1.4,0.444c3.572-0.057,6.652-1.466,9.238-4.229c0.152-0.141,0.137-0.421-0.049-0.848
			c-0.186-0.424-0.379-0.842-0.574-1.253c-0.334-0.95-0.17-1.854,0.5-2.711c0.545-0.696,1.268-1.143,2.176-1.34
			c0.906-0.197,1.695-0.035,2.365,0.487c0.428,0.335,0.75,0.779,0.961,1.333c0.822,1.932,0.479,3.86-1.023,5.788
			c-1.086,1.394-2.777,2.788-5.07,4.184C221.185,65.621,219.249,66.308,217.153,66.566z"/>
		<path fill="#754B27" d="M231.909,80.983c-2.016-0.045-3.793-0.65-5.326-1.814c-0.898-0.645-1.678-1.312-2.334-1.998
			c-1.055-1.105-1.762-2.19-2.123-3.255c-0.396-1.498,0.055-2.868,1.354-4.111c0.172-0.164,0.375-0.347,0.607-0.546
			c0.234-0.199,0.51-0.426,0.828-0.683c2.152-1.68,5.754-3.857,10.811-6.528c4.061-2.141,7.459-3.769,10.201-4.883
			c3.004-1.277,5.174-1.097,6.506,0.544c0.445,0.563,0.611,1.215,0.498,1.956c-0.113,0.743-0.5,1.43-1.164,2.062
			c-0.418,0.399-0.932,0.748-1.539,1.047c-2.012,0.939-4.369,1.569-7.066,1.894c-0.338,0.039-1.102,0.274-2.285,0.704
			c-5.438,2.565-9.633,4.741-12.578,6.523c-0.852,0.483-1.412,0.855-1.684,1.114c-0.318,0.305-0.482,0.625-0.488,0.961
			c-0.016,0.672,0.609,1.672,1.877,2.997c0.445,0.466,1.24,0.856,2.389,1.172c0.643,0.183,1.27,0.31,1.879,0.385
			c0.611,0.074,1.207,0.069,1.785-0.014c0.266-0.018,0.32,0.114,0.172,0.399c-0.256,0.571-0.676,1.09-1.26,1.558
			C232.499,80.817,232.147,80.99,231.909,80.983z"/>
		<path fill="#754B27" d="M242.938,96.218c-1.988-0.333-3.674-1.177-5.053-2.528c-1.115-1.04-2.215-2.32-3.297-3.842
			c-2.268-3.181-3.34-5.795-3.213-7.843c0.182-2.381,1.365-4.35,3.551-5.906c1.908-1.358,4.348-2.264,7.322-2.713
			c2.146-0.321,4.119-0.038,5.92,0.848c1.508,0.716,2.719,1.711,3.625,2.984c0.514,0.718,0.818,1.354,0.922,1.907
			c0.451,2.097-0.318,3.854-2.312,5.272c-0.441,0.316-0.941,0.608-1.498,0.88c-1.486,0.725-3.814,0.881-6.98,0.472
			c-1.006-0.121-1.939-0.277-2.807-0.472c-0.867-0.195-1.684-0.417-2.447-0.666c-0.234-0.04-0.367-0.05-0.395-0.031
			c-0.111,0.079-0.133,0.343-0.059,0.794c0.172,1.709,1.322,3.789,3.441,6.239c1.387,1.597,3.307,2.419,5.758,2.466
			c0.266,0.02,0.301,0.159,0.111,0.419c-0.33,0.529-0.822,0.983-1.469,1.361C243.55,96.139,243.179,96.258,242.938,96.218z
			 M246.683,78.513c-0.994-0.313-2.045-0.368-3.15-0.164c-2.482,0.435-4.348,1.096-5.594,1.983c-0.885,0.63-0.936,1.084-0.156,1.361
			c2.484,1.024,4.898,1.431,7.25,1.217c1.455-0.119,2.516-0.416,3.18-0.889c0.939-0.67,1.125-1.406,0.555-2.209
			C248.372,79.259,247.675,78.826,246.683,78.513z"/>
	</g>
	<path fill="none" stroke="#754B27" stroke-width="1.6979" stroke-miterlimit="10" d="M50.431,110.137
		c-1.592,3.776-2.977,7.662-4.143,11.641c-2.842,9.717-4.363,19.993-4.363,30.627c0,23.495,7.441,45.251,20.1,63.039"/>
	<path fill="none" stroke="#754B27" stroke-width="1.6979" stroke-miterlimit="10" d="M239.54,215.441
		c7.674-10.782,13.428-23.022,16.773-36.224c2.172-8.578,3.326-17.562,3.326-26.813c0-17.047-3.92-33.179-10.904-47.544"/>
</g>
</svg>
