<?xml version="1.0" encoding="utf-8"?>
<!-- Generator: Adobe Illustrator 16.0.4, SVG Export Plug-In . SVG Version: 6.00 Build 0)  -->
<svg version="1.2" baseProfile="tiny" id="Capa_1" xmlns="http://www.w3.org/2000/svg" xmlns:xlink="http://www.w3.org/1999/xlink"
	 x="0px" y="0px" width="300px" height="300px" viewBox="0 0 300 300" xml:space="preserve">
<g>
	<g>
		<path fill="none" stroke="#999999" stroke-width="0.75" stroke-miterlimit="10" d="M79.135,127.134
			c1.496,2.799,2.99,5.751,4.455,8.762c5.637-2.281,11.965-4.82,17.545-6.999c-1.748-2.744-3.66-5.396-5.754-7.881
			C90.658,122.669,85.074,124.728,79.135,127.134z"/>
		<path fill="none" stroke="#999999" stroke-width="0.75" stroke-miterlimit="10" d="M87.271,113.14
			c-4.283,1.399-9.016,3.123-13.375,4.864c1.549,2.468,3.135,5.224,4.723,8.163c4.99-2.009,10.643-4.209,15.947-6.101
			C92.338,117.529,89.912,115.187,87.271,113.14z"/>
		<path fill="none" stroke="#999999" stroke-width="0.75" stroke-miterlimit="10" d="M96,119.561
			c3.697-1.294,7.174-2.412,10.074-3.175c-2.518-2.194-5.402-4.233-8.705-6.031c-2.23,0.418-5.291,1.259-8.721,2.343
			C91.318,114.715,93.76,117.026,96,119.561z"/>
		<path fill="none" stroke="#999999" stroke-width="0.75" stroke-miterlimit="10" d="M103.188,129.375
			c1.707,2.774,3.268,5.661,4.709,8.586c4.592-1.961,8.551-3.672,10.809-4.689c-1.277-2.647-2.818-5.37-4.699-8.051
			C111.58,126.146,107.693,127.633,103.188,129.375z"/>
		<path fill="#999999" d="M123.291,146.063c-0.123-0.712-0.162-1.135-0.332-1.875c-0.979,0.443-1.209,0.546-3.041,1.373
			L123.291,146.063z"/>
		<path fill="#999999" d="M125.514,147.348"/>
		<path fill="#999999" d="M65.238,150.724"/>
		<path fill="#999999" d="M72.611,153.845c2.324-0.877,3.451-1.372,6.762-2.677c0,0,9.99,5.947,10.764,6.271
			c-2.955,1.27-4.33,1.869-6.752,2.882L72.611,153.845z"/>
		<path fill="none" stroke="#999999" stroke-width="0.75" stroke-miterlimit="10" d="M64.744,149.425
			c-6.174-19.003,0.219-32.338,7.676-37.078c21.965-13.973,40.146,1.116,48.787,19.029c2.32,4.81,3.721,9.418,4.287,15.044
			c0,0-0.824-0.118-1.479-0.241c-0.08-1.09-0.283-2.28-0.283-2.28l0.574-0.321l-0.207-1.409c-0.18,0.123-0.324,0.211-0.709,0.419
			c-0.848-3.206-1.855-6.046-3.021-8.814c0.41-0.179,0.635-0.277,0.635-0.277l-0.303-1.188c-0.062,0.054-0.342,0.197-0.789,0.409
			c-1.295-2.885-2.822-5.552-4.568-8.005c0.84-0.322,1.312-0.501,1.312-0.501l-0.59-0.647c-0.236,0.014-0.691,0.125-1.326,0.315
			c-1.945-2.604-4.152-4.954-6.598-7.062c0.93-0.284,1.438-0.435,1.438-0.435l-0.883-0.624c-0.453,0.096-0.932,0.205-1.428,0.324
			c-2.742-2.247-5.773-4.201-9.074-5.871c0.631-0.098,1.174-0.148,1.617-0.155c-0.918-0.371-1.678-0.585-1.678-0.585
			c-0.348,0.054-0.707,0.114-1.076,0.184c-1.188-0.566-2.404-1.102-3.658-1.598c-0.461,0.137-0.109-0.021-0.461,0.137
			c1.176,0.506,2.297,1.045,3.381,1.604c-2.527,0.517-5.488,1.344-8.502,2.293c-1.49-1.071-3.043-2.056-4.678-2.929
			c-0.459,0.138-0.842,0.274-1.193,0.434c1.568,0.878,3.068,1.863,4.51,2.931c-4.867,1.582-9.736,3.41-13.051,4.702
			c-0.307-0.476-1.283-2.178-1.586-2.629c-0.436,0.241-0.857,0.645-1.289,1.227c0.158,0.281,0.986,1.801,1.145,2.083
			c-1.535,0.607-3.816,1.619-3.816,1.619l-0.605,1.287c1.354-0.604,3.354-1.469,4.875-2.094c1.514,2.734,2.99,5.499,4.43,8.281
			c-7.273,2.958-12.688,5.314-12.688,5.314l-0.191,1.588c4.488-2.136,9.014-4.12,13.383-5.926c1.504,2.932,2.961,5.872,4.367,8.794
			c-1.178,0.479-1.396,0.569-2.602,1.048l-10.664-2.218l-4.51,6.317l1.996,1.271c-0.619,0.235-0.967,0.319-0.967,0.319l0.268,1.371
			c0.518-0.195,1.527-0.568,2.213-0.842l10.895,6.415c-3.473,1.368-4.719,1.903-6.838,2.722L64.744,149.425z"/>
		<path fill="#999999" d="M95.73,170.307c0,0,3.01,7.804,4.279,11.58c0.365-1,0.439-2.381,0.686-3.833
			c-0.562-1.735-2.906-8.594-2.906-8.594s5.043-2.542,7.383-3.634c6.295,3.595,12.301,6.174,12.301,6.174
			c0.248,0.98,0.521,1.596,0.658,2.06c0.186-0.599,0.291-1.217,0.383-1.838l2.914,1.06c-1.545,3.223-3.006,5.197-5.512,6.978
			c-12.115,8.608-26.479,2.395-38.383-10.154l10.129,1.978c-2.205,1.211-3.732,1.977-3.732,1.977l1.715,1.333L95.73,170.307z"/>
		<path fill="#999999" d="M91.072,164.557l-6.055-3.51c1.402-0.6,4.533-1.966,6.094-2.65c1.275,3.062,2.881,7.178,3.975,9.974
			c-3.146,1.533-4.922,2.422-4.922,2.422L91.072,164.557z"/>
		<path fill="#999999" d="M93.793,159.532c1.32,3.16,3.27,8.111,3.27,8.111s1.574-0.645,6.094-2.904
			C100.555,163.347,93.793,159.532,93.793,159.532z"/>
		<path fill="#999999" d="M82.348,138.693c-0.219-0.467-0.219-0.467-0.443-0.931c-0.697,0.279-0.701,0.283-1.393,0.564
			L82.348,138.693z"/>
		<path fill="none" stroke="#999999" stroke-width="0.75" stroke-miterlimit="10" d="M98.99,141.748
			c2.893-1.224,4.773-2.023,7.52-3.194c-1.416-2.898-2.988-5.804-4.732-8.633c-5.633,2.182-12.047,4.69-17.711,6.967
			c0.453,0.942,0.596,1.234,1.043,2.183L98.99,141.748z"/>
		<path fill="#999999" d="M108.846,143.635c-0.67-1.577-1.08-2.46-1.846-4.065c-2.254,0.975-3.68,1.596-6.057,2.617L108.846,143.635
			z"/>
		<path fill="#999999" d="M118.004,145.195c2.477-1.13,3.244-1.508,4.574-2.184c-0.873-2.643-1.961-5.618-3.395-8.723
			c-2.191,0.956-6.166,2.683-10.797,4.684c0.916,1.899,1.449,3.043,2.273,4.951L118.004,145.195z"/>
		<path fill="none" stroke="#999999" stroke-width="0.75" stroke-miterlimit="10" d="M106.959,117.18
			c-2.227,0.691-5.756,1.821-10.133,3.334c2.07,2.448,3.969,5.08,5.715,7.833c4.467-1.735,8.34-3.192,10.82-4.026
			C111.551,121.86,109.436,119.449,106.959,117.18z"/>
		<path fill="none" stroke="#999999" stroke-width="0.75" stroke-miterlimit="10" d="M145.436,144.921
			c-5.959-5.743-22.012-10.405-22.012-10.405l0.246,0.705c0,0,13.092,4.204,18.15,8.799c5.498,4.989-0.576,4.876-6.934,4.921
			c-9.137,0.062-66.432-11.961-66.432-11.961l-3.227,4.682c0,0,43.01,25.967,52.469,29.658c10.197,3.978,16.797,4.531,18.98,1.742
			c10.027-12.809,10.982-24.281,10.982-24.281C147.652,147.562,147.416,146.829,145.436,144.921z"/>
		<path fill="none" stroke="#999999" stroke-width="0.75" stroke-miterlimit="10" d="M89.805,165.555
			c0,0-50.941-28.938-57.17-33.748c-5.035-3.885-9.291-8.842-1.879-8.417c4.922,0.282,7.209,1.193,7.209,1.193l0.451-0.633
			c0,0-4.281-1.774-11.174-1.774c-3.053,0-3.564,0.636-4.26,1.046c0,0-8.979,7.878-9.719,24.126
			c-0.162,3.539,5.205,7.418,15.531,11.047c9.578,3.364,60.32,13.122,60.32,13.122L89.805,165.555z"/>
		<g>
			<path fill="none" stroke="#999999" stroke-width="0.75" stroke-miterlimit="10" d="M62.162,148.115
				c-5.73-17.994,0.43-32.914,8.189-37.865c18.432-11.763,35.262-4.177,45.098,9.245c-11.326-21.003-35.484-22.412-56.953-12.639
				c-11.756,5.352-19.646,14.213-23.529,24.797C40.027,135.006,51.07,141.603,62.162,148.115z"/>
			<path fill="none" stroke="#999999" stroke-width="0.75" stroke-miterlimit="10" d="M116.301,181.112
				c-10.4,7.915-25.814,5.496-41.551-11.532c-13.645-2.609-30.02-6.294-40.883-9.374c0.777,3.527,1.408,5.127,2.971,8.562
				c10.74,23.599,43.088,32.82,65.74,21.607C108.359,187.51,114.916,182.295,116.301,181.112z"/>
		</g>
		<g>
			<path fill="#999999" d="M22.68,151.506c-6.344-3.417-5.752-7.025-6.004-10.693c-0.629,1.965-1.205,4.73-1.156,6.539
				c0.07,2.657,1.902,4.437,6.588,6.443c7.52,3.223,17.33,5.3,17.33,5.3S31.059,156.015,22.68,151.506z"/>
			<path fill="#999999" d="M126.068,170.274c7.957,1.738,10.977-1.039,13.814-3.952c-1.691,2.538-2.68,3.988-3.973,5.521
				c-1.582,1.874-4.975,1.949-10.545,0.431c-10.686-2.917-18.383-8.859-18.383-8.859S115.018,167.859,126.068,170.274z"/>
			<path fill="#999999" d="M79.107,102.602c-5.002,1.614-10.812,2.421-17.396,10.119c-1.84-6.095-14.074,2.954-14.074,2.954
				c2.904-3.552,11.426-8.071,15.332-9.523C66.848,104.71,73.906,102.612,79.107,102.602z"/>
			<path fill="#999999" d="M108.562,185.721c-3.633,1.21-5.648,1.854-13.637,2.662c-6.377,4.438-18.158,5.407-18.158,5.407
				c3.24,0.83,11.875-0.156,16.865-1.454C99.848,190.724,105.504,187.958,108.562,185.721z"/>
		</g>
		<path fill="#999999" d="M122.812,135.059"/>
		<path fill="#999999" d="M126.223,146.792c0,0,9.264,2.521,16.576,0.556c0,0,1.445-2.045-9.045-7.271l-9.805-3.954
			C123.949,136.123,125.844,140.239,126.223,146.792z"/>
	</g>
	<g>
		<path fill-rule="evenodd" fill="#999999" d="M156.602,130.192c0-11.558,0-23.114,0-34.672c0-0.786,0-0.795,0.773-0.815
			c0.928-0.024,1.854-0.03,2.781-0.041c2.197-0.025,4.395-0.055,6.592-0.075c0.76-0.006,0.705-0.078,0.705,0.687
			c0,8.625-0.002,17.252,0,25.875c0.002,0.963-0.117,0.829,0.812,0.829c10.977,0.002,21.953,0.002,32.926,0.002
			c0.086,0,0.174,0,0.258,0c0.553-0.007,0.559-0.007,0.559-0.569c0-4.378,0-8.756,0-13.133c0-4.227,0-8.451,0-12.679
			c0-0.086,0-0.172,0-0.259c0-0.687-0.033-0.63,0.627-0.63c3.215,0,6.426,0,9.643,0c0.082,0,0.17,0.007,0.254,0
			c0.238-0.018,0.375,0.061,0.357,0.323c-0.012,0.128-0.002,0.258-0.002,0.387c0,23.201,0,46.404,0,69.604c0,0.022,0,0.043,0,0.065
			c-0.004,0.688,0.053,0.627-0.627,0.627c-3.213,0-6.424,0-9.637,0c-0.109,0-0.217-0.007-0.324,0
			c-0.23,0.015-0.299-0.11-0.291-0.316c0.006-0.173,0-0.346,0-0.519c0-10.953,0.002-21.905,0-32.86c0-0.892,0.129-0.8-0.783-0.8
			c-10.951-0.002-21.906-0.002-32.859,0c-0.893,0-0.785-0.112-0.785,0.795c-0.002,10.976,0,21.953-0.002,32.926
			c0,0.867,0.104,0.771-0.742,0.772c-3.17,0.004-6.34,0.001-9.51,0.001c-0.129,0-0.258-0.009-0.389,0.001
			c-0.246,0.02-0.354-0.088-0.336-0.338c0.012-0.172,0-0.344,0-0.517C156.602,153.307,156.602,141.75,156.602,130.192z"/>
		<path fill-rule="evenodd" fill="#999999" d="M178.301,183.069c-0.26,0.3-0.289,0.558-0.367,0.79
			c-2.234,6.68-4.463,13.359-6.693,20.039c-0.012,0.042-0.021,0.084-0.035,0.124c-0.229,0.673-0.229,0.674-0.934,0.674
			c-0.754,0.001-1.508-0.021-2.264,0.009c-0.369,0.015-0.52-0.126-0.633-0.468c-1.213-3.66-2.441-7.313-3.668-10.968
			c-1.061-3.165-2.125-6.329-3.186-9.494c-0.055-0.16-0.08-0.332-0.293-0.561c0,0.306,0,0.521,0,0.738c0,6.596,0,13.192,0,19.789
			c0,0.13,0,0.26,0,0.388c-0.008,0.559-0.008,0.562-0.57,0.565c-0.82,0.004-1.639-0.011-2.459,0.006
			c-0.34,0.007-0.475-0.118-0.438-0.45c0.012-0.107,0.002-0.217,0.002-0.324c0-8.148,0-16.299,0-24.446
			c0-0.885-0.059-0.793,0.805-0.795c1.229-0.003,2.459-0.005,3.686,0.002c0.568,0.002,0.559-0.143,0.803,0.582
			c1.492,4.451,2.99,8.901,4.484,13.352c0.85,2.531,1.699,5.063,2.549,7.595c0.039,0.118,0.092,0.233,0.148,0.38
			c0.23-0.15,0.225-0.389,0.287-0.579c2.287-6.842,4.564-13.687,6.852-20.528c0.307-0.922,0.082-0.797,1.09-0.801
			c1.23-0.008,2.459-0.006,3.688-0.002c0.553,0.002,0.559,0.009,0.561,0.578c0.002,2.177,0.002,4.354,0.002,6.532
			c0,6.059,0,12.116-0.002,18.173c0,0.782,0.084,0.727-0.732,0.728c-0.754,0.002-1.508-0.008-2.264,0.005
			c-0.295,0.005-0.451-0.08-0.42-0.401c0.016-0.148,0.002-0.302,0.002-0.451c0-6.684,0-13.366,0-20.05
			C178.301,183.596,178.301,183.393,178.301,183.069z"/>
		<path fill-rule="evenodd" fill="#999999" d="M185.594,191.647c0-4.055,0-8.107,0-12.161c0-0.151,0.006-0.301-0.002-0.453
			c-0.014-0.243,0.086-0.361,0.338-0.35c0.15,0.008,0.301,0.002,0.453,0.002c5.799,0,11.598,0,17.396,0c0.045,0,0.088,0,0.133,0
			c0.74,0.002,0.701-0.072,0.701,0.693c0,0.668-0.014,1.336,0.004,2.004c0.01,0.318-0.113,0.429-0.414,0.4
			c-0.148-0.015-0.301-0.003-0.453-0.003c-4.637,0-9.271,0-13.908,0.002c-0.662,0-0.719-0.141-0.717,0.686
			c0.002,2.199,0,4.399,0,6.599c0,0.127,0.006,0.257,0.006,0.387c-0.004,0.205,0.076,0.325,0.301,0.318
			c0.176-0.004,0.348,0.002,0.518,0.002c4.184,0,8.367,0,12.551,0c0.15,0,0.301,0.008,0.451,0c0.242-0.013,0.354,0.081,0.35,0.334
			c-0.008,0.821-0.006,1.64-0.002,2.459c0,0.218-0.094,0.316-0.311,0.309c-0.174-0.006-0.346,0.001-0.518,0.001
			c-4.184,0-8.363,0-12.549,0c-0.15,0-0.301,0.007-0.451-0.003c-0.248-0.013-0.361,0.092-0.346,0.342c0.008,0.107,0,0.216,0,0.324
			c0,2.457,0,4.915,0,7.373c0,0.13,0.006,0.26,0.002,0.389c-0.002,0.215,0.1,0.316,0.314,0.312c0.172-0.003,0.346,0.001,0.518,0.001
			c4.701,0,9.4,0,14.1,0c0.891,0,0.773-0.016,0.777,0.76c0.004,0.646-0.006,1.294,0.004,1.94c0.006,0.272-0.092,0.402-0.373,0.384
			c-0.129-0.009-0.258-0.001-0.387-0.001c-5.91,0-11.816,0-17.723,0c-0.045,0-0.086,0.001-0.131,0
			c-0.631-0.004-0.633-0.004-0.633-0.631C185.594,199.927,185.594,195.786,185.594,191.647z"/>
		<path fill-rule="evenodd" fill="#999999" d="M260.1,195.093c-0.156,1.315-0.457,2.524-0.959,3.669
			c-1.713,3.912-4.686,6.123-8.947,6.569c-2.275,0.237-4.486-0.003-6.562-0.994c-2.773-1.321-4.555-3.553-5.623-6.385
			c-0.645-1.709-0.906-3.493-0.98-5.315c-0.086-2.104,0.082-4.178,0.699-6.197c0.936-3.05,2.691-5.468,5.52-7.039
			c1.418-0.787,2.953-1.189,4.557-1.329c1.906-0.168,3.795-0.066,5.619,0.563c3.553,1.226,5.658,3.713,6.381,7.388
			c0.1,0.504,0.08,0.527-0.406,0.532c-0.842,0.006-1.684-0.005-2.523,0.006c-0.27,0.003-0.43-0.055-0.502-0.357
			c-0.748-3.034-2.789-4.6-5.797-4.995c-2.6-0.344-4.982,0.154-6.932,2.048c-1.156,1.125-1.945,2.481-2.369,4.021
			c-0.91,3.303-0.855,6.607,0.209,9.87c0.455,1.399,1.262,2.584,2.4,3.539c2.314,1.947,7.145,2.372,9.867,0.001
			c1.328-1.158,2.135-2.628,2.621-4.295c0.096-0.33,0.174-0.668,0.252-1.002c0.037-0.159,0.086-0.295,0.279-0.298
			C257.953,195.093,259.006,195.093,260.1,195.093z"/>
		<path fill-rule="evenodd" fill="#999999" d="M205.656,204.696c0.031-0.308,0.189-0.436,0.299-0.589
			c2.795-3.935,5.594-7.867,8.391-11.801c0.012-0.019,0.027-0.034,0.039-0.052c0.375-0.531,0.377-0.533,0.029-1.055
			c-1.311-1.975-2.625-3.947-3.938-5.921c-1.336-2.01-2.672-4.02-4.006-6.03c-0.104-0.155-0.234-0.301-0.283-0.565
			c0.662,0,1.279,0,1.896,0c0.625,0.002,1.25,0.023,1.877-0.008c0.395-0.02,0.619,0.13,0.824,0.46
			c1.791,2.871,3.594,5.731,5.396,8.595c0.205,0.329,0.416,0.652,0.625,0.985c0.271-0.045,0.326-0.281,0.438-0.446
			c2.01-2.959,4.027-5.913,5.998-8.897c0.357-0.541,0.734-0.731,1.361-0.7c1.07,0.049,2.146,0.014,3.215,0.014
			c0.1,0.268-0.096,0.388-0.199,0.533c-2.75,3.863-5.502,7.722-8.254,11.582c-0.051,0.071-0.098,0.144-0.146,0.214
			c-0.334,0.479-0.336,0.481-0.012,0.937c0.84,1.175,1.682,2.347,2.523,3.521c2.086,2.906,4.172,5.812,6.256,8.719
			c0.094,0.132,0.244,0.245,0.219,0.506c-0.51,0-1.021,0-1.531,0c-0.711,0-1.422-0.028-2.131,0.012
			c-0.43,0.024-0.658-0.147-0.887-0.484c-2.113-3.124-4.244-6.235-6.373-9.347c-0.117-0.171-0.184-0.395-0.414-0.485
			c-0.174,0.137-0.27,0.329-0.387,0.503c-2.1,3.105-4.209,6.206-6.289,9.325c-0.252,0.375-0.518,0.495-0.947,0.485
			C208.062,204.68,206.877,204.696,205.656,204.696z"/>
		<path fill-rule="evenodd" fill="#999999" d="M230.436,191.73c0-4.029,0-8.059,0-12.088c0-0.107,0-0.215,0-0.323
			c0.004-0.63,0.004-0.632,0.637-0.634c0.818-0.003,1.639,0.01,2.455-0.006c0.328-0.007,0.488,0.094,0.449,0.438
			c-0.012,0.128-0.002,0.258-0.002,0.387c0,8.123,0,16.246,0,24.368c0,0.087,0.002,0.172,0,0.26
			c-0.008,0.556-0.008,0.56-0.566,0.562c-0.865,0.004-1.727-0.005-2.588,0.004c-0.268,0.002-0.408-0.076-0.387-0.366
			c0.012-0.171,0.002-0.344,0.002-0.516C230.436,199.788,230.436,195.759,230.436,191.73z"/>
		<path fill-rule="evenodd" fill="#999999" d="M193.779,176.188c0.578-0.913,1.072-1.692,1.564-2.472
			c0.482-0.764,0.973-1.523,1.451-2.29c0.133-0.213,0.273-0.365,0.555-0.36c1.119,0.013,2.236,0.009,3.357,0.016
			c0.031,0,0.064,0.042,0.1,0.067c0.021,0.181-0.135,0.254-0.229,0.357c-1.309,1.429-2.629,2.847-3.922,4.286
			c-0.273,0.304-0.551,0.424-0.949,0.402C195.111,176.166,194.514,176.188,193.779,176.188z"/>
		<path fill-rule="evenodd" fill="#999999" d="M285.451,119.209c-1.963-7.512-6.143-13.456-12.627-17.75
			c-3.701-2.451-7.754-4.106-12.041-5.208c-3.963-1.018-7.984-1.56-12.084-1.547c-6.986,0.024-13.971,0.007-20.957,0.009
			c-0.881,0-0.807-0.122-0.807,0.779c-0.002,11.578-0.002,23.157-0.002,34.734c0,11.601,0,23.201,0,34.8
			c0,0.79-0.035,0.683,0.697,0.69c0.086,0,0.172,0,0.258,0c7.01,0,14.016-0.024,21.023,0.012c3.357,0.017,6.668-0.337,9.939-1.054
			c4.277-0.94,8.357-2.413,12.141-4.643c7.059-4.158,11.787-10.143,14.115-18.012c0.928-3.138,1.406-6.344,1.566-9.607
			C286.895,127.952,286.58,123.542,285.451,119.209z M275.238,138.771c-1.068,4.693-3.199,8.809-6.762,12.111
			c-2.805,2.598-6.102,4.321-9.744,5.408c-2.848,0.848-5.756,1.262-8.732,1.242c-4.008-0.026-8.018-0.007-12.025-0.007
			c-0.152,0-0.305-0.009-0.455,0.002c-0.244,0.016-0.361-0.08-0.346-0.335c0.01-0.149,0.002-0.302,0.002-0.453
			c0-8.772,0-17.544,0-26.318c0-8.794,0-17.589,0.002-26.384c0-0.904-0.094-0.779,0.799-0.78c3.902-0.005,7.803-0.002,11.705-0.002
			c4.578,0.001,8.934,1.007,13.043,3.009c4.027,1.963,7.27,4.824,9.59,8.681c1.715,2.842,2.764,5.93,3.295,9.188
			C276.404,129.033,276.342,133.92,275.238,138.771z"/>
		<path fill-rule="evenodd" fill="#999999" d="M285.975,187.15c-1.068-3.752-3.264-6.575-6.889-8.152
			c-2.227-0.97-4.58-1.17-6.973-0.886c-4.76,0.563-8.068,3.124-9.844,7.52c-1.553,3.839-1.539,7.812-0.182,11.704
			c1.227,3.521,3.615,6.033,7.166,7.326c1.977,0.721,4.027,0.871,6.117,0.668c4.197-0.407,7.33-2.463,9.408-6.109
			c1.326-2.326,1.758-4.884,1.756-8.289C286.539,190.153,286.395,188.632,285.975,187.15z M282.223,196.073
			c-0.719,2.204-2.016,3.997-4.062,5.161c-3.23,1.837-9.047,1.793-11.902-3.379c-1.062-1.918-1.445-3.99-1.41-6.201
			c-0.031-1.633,0.186-3.271,0.818-4.83c1.066-2.631,2.816-4.604,5.633-5.359c2.85-0.764,5.568-0.428,7.949,1.461
			c1.68,1.333,2.703,3.118,3.205,5.181C283.105,190.774,283.08,193.449,282.223,196.073z"/>
	</g>
</g>
</svg>
