<?xml version="1.0" encoding="utf-8"?>
<!-- Generator: Adobe Illustrator 16.0.4, SVG Export Plug-In . SVG Version: 6.00 Build 0)  -->
<svg version="1.2" baseProfile="tiny" id="Capa_1" xmlns="http://www.w3.org/2000/svg" xmlns:xlink="http://www.w3.org/1999/xlink"
	 x="0px" y="0px" width="300px" height="300px" viewBox="0 0 300 300" xml:space="preserve">
<g>
	<g>
		<path fill="#EF4136" d="M51.459,112.809c0.218,0,0.395-0.016,0.531-0.051h0.102c0.303-0.1,0.531-0.186,0.682-0.252
			c0.152-0.066,0.262-0.135,0.328-0.203l0.66-0.658c0.032-0.033,0.05-0.066,0.05-0.1l0.203-0.406l2.093-4.949l-4.7,6.617
			C51.427,112.807,51.439,112.809,51.459,112.809z"/>
		<polygon fill="#8E002F" points="45.254,102.441 45.456,102.921 45.923,102.652 		"/>
		<path fill="#EE1B39" d="M45.456,102.921l3.448,8.218c0.065,0.068,0.124,0.16,0.175,0.279c0.051,0.117,0.094,0.193,0.127,0.227
			c0.033,0.035,0.084,0.094,0.152,0.178c0.066,0.084,0.119,0.16,0.151,0.229c0.202,0.135,0.321,0.219,0.354,0.252h0.051
			c0.202,0.203,0.355,0.305,0.455,0.305h0.051l0.051,0.051c0.135,0,0.271,0.033,0.406,0.1h0.1c0.092,0.032,0.24,0.046,0.431,0.049
			l4.7-6.617l0.122-0.287l-10.307-3.25L45.456,102.921z"/>
		<path fill="#ED4456" d="M64.996,77.986c-0.676-0.301-1.375-0.311-2.099-0.023c-0.727,0.287-1.241,0.785-1.544,1.492l-2.125,5.047
			l4.652,3.313l2.637-6.233c0.269-0.676,0.261-1.375-0.026-2.102C66.203,78.756,65.705,78.258,64.996,77.986z"/>
		<polygon fill="#D61E42" points="51.484,102.889 50.32,100.125 45.923,102.652 56.229,105.902 61.357,93.78 53.392,98.358 		"/>
		<polygon fill="#EE1748" points="57.821,87.843 63.273,89.251 63.88,87.815 59.228,84.502 		"/>
		<path fill="#EE1748" d="M41.613,79.455c-0.302-0.707-0.809-1.205-1.518-1.492s-1.4-0.277-2.076,0.023
			c-0.741,0.271-1.256,0.77-1.543,1.494c-0.287,0.727-0.277,1.426,0.026,2.102l0.354,0.845l6.741,1.741L41.613,79.455z"/>
		<polygon fill="#E91B3B" points="53.392,98.358 61.357,93.78 63.273,89.251 57.821,87.843 		"/>
		<polygon fill="#E91B3B" points="50.32,100.125 43.599,84.168 36.857,82.427 45.254,102.441 45.923,102.652 		"/>
	</g>
	<g>
		<path fill="none" d="M79.472,97.676h14.325c-0.052-0.2-0.139-0.398-0.221-0.598c-0.398-0.97-1.129-1.92-2.235-2.846
			c-1.332-1.111-3.011-1.752-5.034-1.92c-1.885,0.096-3.4,0.674-4.564,1.709c-0.045,0.041-0.1,0.069-0.144,0.111
			C80.416,95.246,79.709,96.428,79.472,97.676z"/>
		<path fill="#EE1C36" d="M73.956,100.156c0.033,3.477,1.241,6.445,3.619,8.908s5.331,3.703,8.857,3.719
			c3.29,0.017,6.097-0.958,8.433-2.896l-4.221-3.007c-1.309,0.66-2.795,0.895-4.464,0.69c-2.076-0.252-3.653-1.004-4.732-2.252
			c-0.844-0.775-1.419-1.889-1.723-3.34h4.039l-8.971-6.391C74.257,97.002,73.972,98.522,73.956,100.156z"/>
		<path fill="#EE5A2F" d="M95.365,109.469c0.944-1.146,0.944-2.244,0-3.291c-0.338-0.438-0.93-0.656-1.771-0.656
			c-0.845,0-1.519,0.27-2.025,0.809c-0.296,0.211-0.607,0.39-0.924,0.55l4.221,3.007C95.032,109.748,95.203,109.617,95.365,109.469z
			"/>
		<path fill="#EE5A2F" d="M93.797,97.676H79.472c0.237-1.248,0.944-2.43,2.127-3.543c0.044-0.042,0.099-0.07,0.144-0.111
			l-5.343-1.38c-0.675,0.923-1.214,1.903-1.608,2.946l8.971,6.391H95.82c0.811,0,1.459-0.229,1.949-0.684
			c0.488-0.455,0.732-1.055,0.732-1.797v-0.252c-0.019-0.313-0.056-0.616-0.092-0.919l-4.834-1.249
			C93.658,97.277,93.745,97.476,93.797,97.676z"/>
		<path fill="#ED1A43" d="M86.205,87.504c-3.375,0-6.252,1.24-8.63,3.719c-0.436,0.454-0.818,0.932-1.175,1.419l5.343,1.38
			c1.164-1.035,2.679-1.613,4.564-1.709c2.023,0.168,3.702,0.809,5.034,1.92c1.106,0.926,1.837,1.876,2.235,2.846l4.834,1.249
			c-0.359-2.996-1.579-5.501-3.678-7.509C92.422,88.607,89.578,87.504,86.205,87.504z"/>
	</g>
	<g>
		<path fill="#EE5A2F" d="M106.551,110.127c0,0.742,0.261,1.375,0.785,1.898c0.521,0.523,1.162,0.783,1.922,0.783
			s1.408-0.26,1.949-0.783s0.811-1.156,0.811-1.898v-8.285l-5.467-1.412V110.127z"/>
		<path fill="#ED1A43" d="M112.018,90.539v-0.354c0-0.742-0.27-1.367-0.811-1.873s-1.189-0.76-1.949-0.76s-1.4,0.254-1.922,0.76
			c-0.524,0.506-0.785,1.131-0.785,1.873v10.244l5.467,1.412v-1.332c1.156-3.231,2.577-5.436,4.263-6.617l-3.353-4.218
			C112.594,89.944,112.283,90.228,112.018,90.539z"/>
		<path fill="#08ACB7" d="M118.9,87.527c-1.113-0.016-2.346,0.254-3.695,0.811c-0.887,0.366-1.638,0.817-2.278,1.337l3.353,4.218
			c0.971-0.681,2.029-1.025,3.177-1.025c0.741,0,1.375-0.27,1.898-0.809c0.521-0.539,0.784-1.174,0.784-1.898
			c0-0.727-0.263-1.342-0.784-1.848C120.832,87.807,120.014,87.545,118.9,87.527z"/>
	</g>
	<g>
		<path fill="none" d="M142.891,95.045c-1.284-1.418-2.879-2.127-4.783-2.127c-0.903,0-1.729,0.163-2.485,0.477
			c-0.84,0.35-1.59,0.887-2.248,1.623c-0.719,0.807-1.224,1.723-1.529,2.742c-0.225,0.751-0.344,1.556-0.344,2.422
			c0,1.292,0.248,2.451,0.741,3.48c0.286,0.596,0.653,1.148,1.105,1.656c1.231,1.385,2.817,2.076,4.759,2.076
			c1.939,0,3.543-0.691,4.809-2.076c1.156-1.265,1.777-2.801,1.876-4.603c0.009-0.169,0.021-0.336,0.021-0.509
			C144.812,98.182,144.173,96.461,142.891,95.045z"/>
		<path fill="#F37326" d="M138.315,112.802c2.357-0.036,4.542-0.755,6.548-2.169c0.17,0.643,0.489,1.164,0.961,1.568
			c0.473,0.406,1.055,0.607,1.747,0.607c0.69,0,1.298-0.26,1.823-0.783c0.137-0.137,0.253-0.282,0.354-0.435l-6.067-1.567
			L138.315,112.802z"/>
		<path fill="#DA3420" d="M127.288,105.787c0.561,1.195,1.308,2.308,2.265,3.326c2.312,2.465,5.172,3.695,8.58,3.695
			c0.062,0,0.121-0.006,0.182-0.007l5.367-2.778L127.288,105.787z"/>
		<path fill="#F7991E" d="M143.682,110.023l6.067,1.567c0.284-0.429,0.429-0.916,0.429-1.464v-3.469L143.682,110.023z"/>
		<path fill="#039BB1" d="M133.375,95.018c0.657-0.736,1.408-1.273,2.248-1.623l4.873-5.632c-0.771-0.168-1.558-0.259-2.363-0.259
			c-1.814,0-3.468,0.362-4.971,1.064l-6.781,14.482c0.056,0.272,0.111,0.546,0.185,0.811l5.28-6.102
			C132.151,96.74,132.656,95.824,133.375,95.018z"/>
		<path fill="#08ACB7" d="M129.553,91.223c-2.312,2.48-3.467,5.467-3.467,8.959c0,1,0.106,1.953,0.295,2.869l6.781-14.482
			C131.841,89.186,130.634,90.063,129.553,91.223z"/>
		<path fill="#01B7D4" d="M131.502,100.182c0-0.866,0.119-1.671,0.344-2.422l-5.28,6.102c0.099,0.358,0.216,0.708,0.346,1.052
			l5.331-1.251C131.75,102.633,131.502,101.474,131.502,100.182z"/>
		<path fill="#01B7D4" d="M138.107,92.918c1.904,0,3.499,0.709,4.783,2.127c1.282,1.416,1.922,3.137,1.922,5.162
			c0,0.173-0.011,0.34-0.021,0.509l5.386-1.265v-9.215c0-0.742-0.262-1.385-0.783-1.924c-0.525-0.539-1.133-0.809-1.823-0.809
			c-0.692,0-1.274,0.209-1.747,0.633c-0.472,0.422-0.791,0.953-0.961,1.594c-1.389-0.986-2.846-1.637-4.368-1.968l-4.873,5.632
			C136.378,93.081,137.204,92.918,138.107,92.918z"/>
		<path fill="#01AAB5" d="M150.178,106.658v-7.207l-5.386,1.265c-0.099,1.802-0.72,3.338-1.876,4.603
			c-1.266,1.385-2.869,2.076-4.809,2.076c-1.941,0-3.527-0.691-4.759-2.076c-0.452-0.508-0.819-1.061-1.105-1.656l-5.331,1.251
			c0.112,0.298,0.241,0.587,0.376,0.874l16.394,4.236L150.178,106.658z"/>
	</g>
	<g>
		<path fill="#F7991E" d="M162.122,109.088c2.531,2.48,5.55,3.721,9.061,3.721c2.866,0,5.55-0.893,8.048-2.682
			c0.572-0.506,0.912-1.121,1.014-1.848c0.101-0.725-0.077-1.375-0.532-1.949c-0.457-0.572-1.057-0.91-1.798-1.012
			c-0.742-0.102-1.384,0.068-1.922,0.506c-1.487,1.08-3.174,1.621-5.062,1.621c-1.891,0-3.568-0.717-5.037-2.152
			c-1.467-1.434-2.2-3.129-2.2-5.086c0-0.19,0.013-0.377,0.027-0.562l-5.204,2.695C158.945,104.894,160.14,107.146,162.122,109.088z
			"/>
		<path fill="#F7991E" d="M174.891,93.86c0.377,0.196,0.746,0.419,1.101,0.677c0.011,0.009,0.022,0.014,0.033,0.022l-0.397-1.081
			L174.891,93.86z"/>
		<path fill="#00A8CB" d="M179.983,91.224c-0.174-0.364-0.419-0.681-0.752-0.937c-1.772-1.354-3.681-2.207-5.722-2.573l2.12,5.765
			L179.983,91.224z"/>
		<path fill="#058EA4" d="M175.628,93.479l0.397,1.081c0.564,0.453,1.201,0.634,1.914,0.536c0.726-0.102,1.315-0.439,1.772-1.014
			c0.007-0.009,0.011-0.019,0.018-0.027L175.628,93.479z"/>
		<path fill="#01B7D4" d="M179.729,94.055c0.44-0.566,0.614-1.225,0.515-1.971c-0.042-0.317-0.136-0.6-0.261-0.86l-4.355,2.255
			L179.729,94.055z"/>
		<path fill="#01B7D4" d="M173.508,87.714c-0.757-0.136-1.532-0.21-2.326-0.21c-3.511,0.033-6.529,1.281-9.061,3.744
			c-1.852,1.803-3.02,3.881-3.516,6.227l6.571-1.543c0.224-0.286,0.465-0.567,0.741-0.836c1.486-1.451,3.164-2.178,5.037-2.178
			c1.307,0,2.512,0.28,3.63,0.806l1.043-0.245L173.508,87.714z"/>
		<path fill="#01AAB5" d="M174.585,93.724c0.102,0.048,0.207,0.085,0.306,0.137l0.737-0.382L174.585,93.724z"/>
		<path fill="#01AAB5" d="M158.326,100.156c0,0.753,0.071,1.478,0.189,2.184l5.204-2.695c0.104-1.368,0.591-2.605,1.458-3.713
			l-6.571,1.543C158.424,98.333,158.326,99.225,158.326,100.156z"/>
	</g>
	<g>
		<path fill="#058EA4" d="M188.998,110.127c0,0.742,0.26,1.375,0.785,1.898c0.522,0.523,1.162,0.783,1.922,0.783
			s1.408-0.26,1.949-0.783c0.539-0.523,0.811-1.156,0.811-1.898v-9.617c0.584-1.633,1.236-3.001,1.955-4.11l-7.422-1.043V110.127z"
			/>
		<path fill="#01B7D4" d="M201.349,87.527c-1.114-0.016-2.347,0.254-3.694,0.811c-1.35,0.557-2.414,1.291-3.189,2.201v-0.354
			c0-0.742-0.271-1.367-0.811-1.873c-0.541-0.506-1.189-0.76-1.949-0.76s-1.399,0.254-1.922,0.76
			c-0.525,0.506-0.785,1.131-0.785,1.873v5.171l7.422,1.043c1.524-2.353,3.352-3.532,5.485-3.532c0.741,0,1.374-0.27,1.896-0.809
			s0.785-1.174,0.785-1.898c0-0.727-0.263-1.342-0.785-1.848S202.461,87.545,201.349,87.527z"/>
	</g>
	<g>
		<path fill="#59CAEA" d="M228.754,109.695c2.109-2.074,3.163-4.545,3.163-7.414v-7.489l-5.364,3.027v4.462
			c-0.034,1.451-0.564,2.674-1.595,3.67c-0.133,0.128-0.278,0.225-0.418,0.337l1.688,5.299
			C227.124,111.102,227.966,110.471,228.754,109.695z"/>
		<path fill="#01AAB5" d="M224.54,106.288c-0.943,0.755-2.038,1.157-3.302,1.157c-1.451,0-2.674-0.5-3.67-1.494
			c-0.667-0.668-1.091-1.448-1.311-2.321l-4.768,2.691c0.519,1.239,1.296,2.373,2.332,3.401c2.078,2.059,4.557,3.086,7.441,3.086
			c1.807,0,3.461-0.407,4.964-1.222L224.54,106.288z"/>
		<path fill="#00A8CB" d="M231.917,90.186c0-0.709-0.276-1.334-0.833-1.873c-0.559-0.539-1.201-0.809-1.924-0.809
			c-0.729,0-1.342,0.27-1.847,0.809c-0.507,0.539-0.761,1.164-0.761,1.873v7.634l5.364-3.027V90.186z"/>
		<path fill="#058EA4" d="M216.076,102.281v-3.12l-5.365-0.754v3.874c0,1.452,0.26,2.799,0.779,4.04l4.768-2.691
			C216.15,103.202,216.076,102.759,216.076,102.281z"/>
		<path fill="#01B7D4" d="M216.076,90.186c0-0.709-0.262-1.334-0.784-1.873c-0.524-0.539-1.156-0.809-1.899-0.809
			c-0.742,0-1.375,0.27-1.897,0.809s-0.784,1.164-0.784,1.873v8.222l5.365,0.754V90.186z"/>
	</g>
	<g>
		<path fill="#B02C9F" d="M259.604,88.16c0-0.066-0.035-0.1-0.102-0.1l-0.354-0.203c-0.034,0-0.085-0.051-0.151-0.152
			c-0.135-0.033-0.229-0.066-0.278-0.102c-0.052-0.033-0.128-0.051-0.229-0.051h-0.253l-0.305-0.049h-14.627
			c-0.707,0-1.332,0.26-1.871,0.785c-0.542,0.521-0.811,1.154-0.811,1.896s0.269,1.375,0.811,1.898
			c0.539,0.523,1.164,0.783,1.871,0.783h7.543l8.771-4.691L259.604,88.16z"/>
		<polygon fill="#8E1D83" points="257.878,94.746 251.875,93.826 248.317,98.743 255.223,98.388 		"/>
		<path fill="#C2349B" d="M260.059,91.754v-0.049l0.254-0.256v-0.15c0.102-0.033,0.152-0.117,0.152-0.254
			c0.065-0.133,0.102-0.318,0.102-0.557l0.049-0.252v-0.051l-0.049-0.203V89.68c-0.069-0.068-0.102-0.145-0.102-0.229
			s-0.051-0.277-0.152-0.582c-0.068,0-0.145-0.076-0.229-0.227c-0.084-0.152-0.161-0.229-0.229-0.229l-0.235-0.237l-8.769,4.69
			h1.717l-0.693,0.959l6.003,0.92L260.059,91.754z"/>
		<path fill="#C2349B" d="M241.787,112.252c0,0.035,0.051,0.102,0.152,0.203l0.403,0.203c0.069,0,0.169,0.033,0.304,0.1h0.152
			c0.135,0.035,0.303,0.051,0.506,0.051h14.627c0.71,0,1.332-0.26,1.875-0.783c0.539-0.523,0.809-1.156,0.809-1.898
			s-0.27-1.375-0.809-1.898c-0.021-0.02-0.043-0.033-0.064-0.053l-18.276,3.885C241.586,112.174,241.697,112.252,241.787,112.252z"
			/>
		<path fill="#B02C9F" d="M241.466,112.061l18.276-3.885c-0.528-0.482-1.127-0.73-1.811-0.73h-6.259l-10.35,4.471
			C241.374,111.976,241.419,112.018,241.466,112.061z"/>
		<path fill="#D950B5" d="M255.223,98.388l-6.905,0.355l-7.138,9.866h-0.05c-0.102,0.1-0.152,0.186-0.152,0.252
			c-0.136,0.137-0.202,0.262-0.202,0.379c0,0.119-0.035,0.213-0.102,0.279v0.203l-0.051,0.354v0.051
			c0,0.068,0.016,0.119,0.051,0.152v0.354l0.152,0.455c0,0.135,0.049,0.221,0.151,0.254c0,0.102,0.101,0.277,0.304,0.531
			c0.015,0.019,0.027,0.025,0.042,0.043l10.35-4.471h-3.053L255.223,98.388z"/>
	</g>
	<g>
		<path fill="none" d="M138.715,148.877c-1.334-1.115-3.012-1.756-5.037-1.924c-1.957,0.1-3.525,0.707-4.707,1.822
			c-1.18,1.111-1.891,2.293-2.125,3.543h14.323C140.865,151.137,140.047,149.988,138.715,148.877z"/>
		<path fill="#F37029" d="M133.805,167.426c3.525,0.018,6.504-1.088,8.934-3.316c0.943-1.145,0.943-2.242,0-3.289
			c-0.338-0.438-0.93-0.658-1.771-0.658c-0.844,0-1.518,0.271-2.024,0.809c-0.978,0.697-2.073,1.111-3.282,1.254l-7.917,3.66
			C129.53,166.897,131.549,167.414,133.805,167.426z"/>
		<path fill="#F8931D" d="M133.551,162.211c-2.074-0.252-3.651-1.002-4.732-2.25c-0.844-0.777-1.416-1.889-1.72-3.34h16.097
			c0.808,0,1.457-0.229,1.947-0.684c0.488-0.457,0.734-1.055,0.734-1.799v-0.252c-0.203-3.406-1.461-6.217-3.771-8.428
			c-2.312-2.211-5.155-3.314-8.529-3.314s-6.251,1.24-8.63,3.721s-3.586,5.457-3.619,8.932c0.033,3.477,1.24,6.445,3.619,8.908
			c0.857,0.888,1.791,1.61,2.797,2.18l7.917-3.66C134.992,162.303,134.29,162.301,133.551,162.211z M128.971,148.775
			c1.182-1.115,2.75-1.723,4.707-1.822c2.025,0.168,3.703,0.809,5.037,1.924c1.332,1.111,2.15,2.26,2.454,3.441h-14.323
			C127.08,151.068,127.791,149.887,128.971,148.775z"/>
	</g>
	<g>
		<path fill="#F37029" d="M153.922,164.768c0,0.744,0.262,1.377,0.786,1.898c0.522,0.523,1.146,0.785,1.872,0.785
			s1.374-0.262,1.947-0.785c0.576-0.521,0.862-1.154,0.862-1.898v-12.096c0-0.544,0.095-1.047,0.239-1.528l-5.707,2.639V164.768z"/>
		<path fill="#F37029" d="M175.029,164.768v-12.096c0-2.809-0.993-5.232-2.965-7.279l-5.544,2.564
			c0.598,0.248,1.149,0.61,1.651,1.096c1.028,0.996,1.543,2.201,1.543,3.619v12.096c0,0.744,0.271,1.377,0.81,1.898
			c0.54,0.523,1.174,0.785,1.9,0.785c0.725,0,1.34-0.262,1.846-0.785C174.777,166.145,175.029,165.512,175.029,164.768z"/>
		<path fill="#F8931D" d="M171.941,145.258c-2.059-2.076-4.556-3.113-7.49-3.113c-1.924,0-3.712,0.521-5.365,1.568
			c-0.506-1.047-1.334-1.568-2.48-1.568c-0.742,0-1.375,0.262-1.897,0.785c-0.524,0.523-0.786,1.154-0.786,1.898v8.954l5.707-2.639
			c0.231-0.773,0.626-1.477,1.229-2.091c0.979-0.996,2.184-1.492,3.619-1.492c0.735,0,1.415,0.135,2.043,0.396l5.544-2.564
			C172.021,145.349,171.985,145.302,171.941,145.258z"/>
	</g>
	<g>
		<path fill="#EE1B39" d="M12.688,187.828c-0.505-0.775-1.249-1.164-2.227-1.164h-0.151c-0.777,0-1.436,0.27-1.976,0.809
			c-0.538,0.539-0.81,1.199-0.81,1.977v5.121l6.042-5.523L12.688,187.828z"/>
		<polygon fill="#EF474A" points="13.567,189.047 7.525,194.57 7.525,217.814 13.144,208.756 13.144,198 16.716,202.996 
			19.912,197.844 		"/>
		<path fill="#F58120" d="M35.16,186.664h-0.051c-0.944,0-1.705,0.389-2.277,1.164l-10.07,13.969l-2.85-3.953l-3.196,5.152
			l3.666,5.127c0.573,0.775,1.35,1.164,2.327,1.164h0.104c0.943,0,1.702-0.389,2.277-1.164L32.377,198v21.309
			c0,0.777,0.271,1.436,0.811,1.975s1.197,0.811,1.973,0.811c0.777,0,1.443-0.279,2-0.836s0.836-1.205,0.836-1.949v-29.859
			c0-0.742-0.279-1.385-0.836-1.926C36.604,186.984,35.938,186.697,35.16,186.664z"/>
		<path fill="#F58120" d="M7.525,219.309c0,0.777,0.271,1.436,0.81,1.975c0.54,0.539,1.198,0.811,1.976,0.811
			c0.775,0,1.442-0.271,1.999-0.811c0.556-0.539,0.834-1.197,0.834-1.975v-10.553l-5.618,9.059V219.309z"/>
	</g>
	<g>
		<path fill="none" d="M65.377,204.229c-1.451-1.285-3.037-1.926-4.757-1.926c-1.722,0-3.309,0.641-4.758,1.926
			c-1.215,1.414-1.823,3.17-1.823,5.262s0.608,3.881,1.823,5.365c1.313,1.248,2.902,1.873,4.758,1.873
			c1.715,0,3.199-0.542,4.453-1.609c0.102-0.087,0.206-0.17,0.304-0.264c0.137-0.154,0.262-0.313,0.384-0.475
			c1.057-1.387,1.59-3.016,1.59-4.891C67.352,207.398,66.692,205.643,65.377,204.229z"/>
		<path fill="#FAA21C" d="M72.497,207.159l-6.736,7.222c-0.123,0.161-0.248,0.32-0.384,0.475c-0.099,0.094-0.202,0.177-0.304,0.264
			l-6.474,6.941c0.685,0.116,1.389,0.186,2.122,0.186c3.407,0,6.227-1.281,8.453-3.848c2.361-2.295,3.542-5.195,3.542-8.705
			C72.716,208.818,72.643,207.975,72.497,207.159z"/>
		<path fill="#F89B1D" d="M60.62,216.729c-1.855,0-3.444-0.625-4.758-1.873c-1.215-1.484-1.823-3.273-1.823-5.365
			s0.608-3.848,1.823-5.262c1.449-1.285,3.036-1.926,4.758-1.926c1.72,0,3.306,0.641,4.757,1.926
			c1.315,1.414,1.975,3.17,1.975,5.262c0,1.875-0.534,3.504-1.59,4.891l6.736-7.222c-0.439-2.454-1.539-4.638-3.299-6.55
			c-2.346-2.549-5.188-3.822-8.527-3.822c-3.342,0-6.201,1.258-8.579,3.771c-2.381,2.512-3.568,5.508-3.568,8.982
			c0,3.477,1.18,6.463,3.543,8.959c1.853,1.959,4.033,3.139,6.532,3.561l6.474-6.941C63.819,216.187,62.335,216.729,60.62,216.729z"
			/>
	</g>
	<g>
		<path fill="#F37029" d="M96.453,198.861l-1.618,3.795h5.708l0.77-1.82c0.305-0.676,0.312-1.342,0.025-2s-0.776-1.139-1.469-1.443
			c-0.172-0.075-0.344-0.132-0.514-0.17l-2.705,1.251C96.578,198.597,96.509,198.723,96.453,198.861z"/>
		<path fill="#F7991E" d="M85.705,201.094l-0.944-2.232c-0.302-0.674-0.792-1.164-1.468-1.469c-0.544-0.244-1.065-0.281-1.565-0.131
			l-0.294,0.314L85.705,201.094z"/>
		<path fill="#F7991E" d="M97.846,197.393c-0.522,0.242-0.918,0.605-1.196,1.081l2.705-1.251
			C98.842,197.109,98.338,197.165,97.846,197.393z"/>
		<path fill="#F36F26" d="M90.583,212.627l-3.305-7.813l-1.512,10.063l2.336,5.596c0.067,0.238,0.151,0.373,0.253,0.406
			c0.033,0.035,0.094,0.145,0.178,0.328c0.083,0.186,0.412,0.412,0.986,0.684h0.102v0.051c0.066,0,0.203,0.033,0.405,0.102h0.102
			c0.134,0.033,0.294,0.051,0.479,0.051c0.186,0,0.347-0.018,0.481-0.051h0.102c0.135-0.068,0.271-0.102,0.406-0.102v-0.051h0.101
			c0.1-0.033,0.185-0.094,0.253-0.178c0.067-0.082,0.177-0.193,0.328-0.328c0.152-0.135,0.262-0.244,0.33-0.33
			c0.066-0.084,0.134-0.16,0.202-0.227c0.065-0.066,0.134-0.186,0.202-0.355l7.531-17.816h-5.708L90.583,212.627z"/>
		<path fill="#FCB315" d="M81.728,197.262c-0.12,0.035-0.239,0.072-0.356,0.131c-0.035,0.016-0.063,0.036-0.098,0.052l0.16,0.132
			L81.728,197.262z"/>
		<path fill="#FAA21C" d="M85.705,201.094l-4.271-3.518l-1.726,1.851c-0.078,0.466-0.02,0.935,0.194,1.409l5.864,14.041
			l1.512-10.063L85.705,201.094z"/>
		<path fill="#F89B1D" d="M81.273,197.444c-0.654,0.306-1.124,0.767-1.396,1.392c-0.085,0.196-0.136,0.393-0.169,0.591l1.726-1.851
			L81.273,197.444z"/>
	</g>
	<g>
		<path fill="#F37029" d="M116.293,199.621c0-0.811-0.262-1.477-0.784-2c-0.524-0.521-1.174-0.783-1.949-0.783
			c-0.776,0-1.425,0.262-1.948,0.783c-0.524,0.523-0.785,1.189-0.785,2v3.035h5.467V199.621z"/>
		<path fill="#F37029" d="M113.586,193.242c0.759,0,1.398-0.268,1.923-0.809c0.522-0.539,0.784-1.197,0.784-1.975v-1.061
			c0-0.003-0.001-0.006-0.001-0.008l-5.139,2.377c0.126,0.236,0.279,0.463,0.482,0.666
			C112.176,192.975,112.825,193.242,113.586,193.242z"/>
		<path fill="#F7991E" d="M115.509,187.449c-0.524-0.523-1.164-0.785-1.923-0.785c-0.761,0-1.41,0.27-1.95,0.809
			c-0.539,0.539-0.81,1.182-0.81,1.926v1.061c0,0.484,0.118,0.916,0.327,1.309l5.139-2.377
			C116.291,188.617,116.029,187.969,115.509,187.449z"/>
		<path fill="#F36F26" d="M116.293,202.656h-5.467v8.158c2.008-1.258,3.845-2.409,5.467-3.427V202.656z"/>
		<path fill="#F5821F" d="M116.293,207.388c-1.622,1.018-3.458,2.169-5.467,3.427v8.545c0,0.742,0.271,1.385,0.81,1.924
			c0.54,0.539,1.189,0.811,1.95,0.811c0.759,0,1.398-0.262,1.923-0.785c0.522-0.523,0.784-1.172,0.784-1.949V207.388z"/>
	</g>
	<g>
		<path fill="#F37029" d="M151.113,196.787c-3.104,0-5.649,1.164-7.641,3.492c-2.059-2.328-4.708-3.492-7.946-3.492
			c-1.892,0-3.694,0.504-5.417,1.518c-0.438-1.014-1.248-1.518-2.428-1.518c-0.745,0-1.375,0.262-1.898,0.783
			c-0.525,0.523-0.787,1.174-0.787,1.949v2.998l32.411-3.837C155.625,197.424,153.53,196.787,151.113,196.787z"/>
		<path fill="#F8931D" d="M161.945,207.416c0-2.938-1.029-5.441-3.088-7.518c-0.457-0.46-0.942-0.86-1.45-1.218l-32.411,3.837v0.396
			l6.437,1.408c0.154-0.205,0.309-0.411,0.499-0.601c1.012-1.014,2.22-1.52,3.619-1.52c1.4,0,2.607,0.498,3.619,1.494
			c0.776,0.765,1.26,1.646,1.46,2.638l5.524,1.209v-0.278c0.067-1.418,0.607-2.615,1.619-3.594s2.219-1.469,3.619-1.469
			s2.607,0.506,3.619,1.52c1.012,1.012,1.518,2.244,1.518,3.695v2.396l5.416,1.185V207.416z"/>
		<path fill="#F5821F" d="M124.996,219.41c0,0.643,0.203,1.199,0.608,1.672c0.296,0.344,0.677,0.579,1.099,0.763l-1.707-11.37
			V219.41z"/>
		<path fill="#F9A01C" d="M140.738,207.264v12.146c0,0.709,0.279,1.334,0.836,1.873s1.197,0.811,1.924,0.811
			c0.725,0,1.348-0.262,1.871-0.785s0.785-1.154,0.785-1.898v-11.868l-5.524-1.209C140.69,206.634,140.73,206.942,140.738,207.264z"
			/>
		<path fill="#F9A01C" d="M161.945,219.41v-8.414l-5.416-1.185v9.599c0,0.744,0.27,1.375,0.811,1.898s1.181,0.785,1.922,0.785
			c0.743,0,1.376-0.262,1.9-0.785C161.684,220.785,161.945,220.154,161.945,219.41z"/>
		<path fill="#F9A01C" d="M124.996,210.475l1.707,11.37c0.156,0.067,0.298,0.152,0.472,0.198l0.507,0.051
			c1.146,0,1.99-0.541,2.529-1.621v-0.254l0.152-0.303v-0.152l0.051-0.354v-11.994c0-1.179,0.352-2.205,1.019-3.095l-6.437-1.408
			V210.475z"/>
	</g>
	<g>
		<path fill="#F37029" d="M173.182,190.459c0,0.777,0.269,1.436,0.809,1.975c0.541,0.541,1.189,0.809,1.947,0.809
			c0.762,0,1.402-0.268,1.925-0.809c0.522-0.539,0.786-1.197,0.786-1.975v-1.061c0-0.777-0.264-1.428-0.786-1.949
			c-0.522-0.523-1.163-0.785-1.925-0.785c-0.758,0-1.406,0.27-1.947,0.809c-0.54,0.539-0.809,1.182-0.809,1.926V190.459z"/>
		<path fill="#F8931D" d="M178.648,199.621c0-0.811-0.264-1.477-0.786-2c-0.522-0.521-1.172-0.783-1.948-0.783
			c-0.777,0-1.426,0.262-1.948,0.783c-0.524,0.523-0.784,1.189-0.784,2v13.832l5.467,1.197V199.621z"/>
		<path fill="#F9A01C" d="M173.182,213.453v5.906c0,0.742,0.269,1.385,0.809,1.924c0.541,0.539,1.189,0.811,1.947,0.811
			c0.762,0,1.402-0.262,1.925-0.785s0.786-1.172,0.786-1.949v-4.709L173.182,213.453z"/>
	</g>
	<g>
		<path fill="none" d="M202.967,203.518c-1.334-1.113-3.012-1.754-5.037-1.924c-1.957,0.102-3.525,0.709-4.707,1.822
			c-1.181,1.113-1.889,2.295-2.125,3.545h14.324C205.117,205.779,204.3,204.631,202.967,203.518z"/>
		<path fill="#F8931D" d="M210.055,207.795c-0.332-3.076-1.557-5.645-3.698-7.693c-2.312-2.209-5.156-3.314-8.528-3.314
			c-3.374,0-6.25,1.24-8.63,3.721c-2.379,2.479-3.586,5.457-3.619,8.932c0.026,2.717,0.779,5.119,2.238,7.217l6.322,1.383
			l2.262-1.456c-1.396-0.373-2.51-1.03-3.332-1.979c-0.842-0.777-1.416-1.891-1.72-3.342h13.318L210.055,207.795z M193.223,203.416
			c1.182-1.113,2.75-1.721,4.707-1.822c2.025,0.17,3.703,0.811,5.037,1.924c1.333,1.113,2.15,2.262,2.455,3.443h-14.324
			C191.334,205.711,192.042,204.529,193.223,203.416z"/>
		<path fill="#FFC20E" d="M207.446,211.262c0.809,0,1.46-0.227,1.948-0.684c0.488-0.455,0.734-1.053,0.734-1.797v-0.254
			c-0.015-0.25-0.047-0.489-0.074-0.732l-5.386,3.467H207.446z"/>
		<path fill="#FFC20E" d="M204.784,220.367c0.778-0.451,1.517-0.982,2.206-1.613c0.943-1.148,0.943-2.244,0-3.291
			c-0.338-0.438-0.928-0.658-1.771-0.658s-1.518,0.271-2.024,0.809c-1.519,1.08-3.313,1.494-5.392,1.24
			c-0.497-0.061-0.961-0.153-1.401-0.271l-2.262,1.456L204.784,220.367z"/>
		<path fill="#F5821F" d="M191.119,219.983c1.993,1.376,4.305,2.071,6.938,2.085c2.525,0.013,4.764-0.562,6.728-1.701l-10.645-2.328
			L191.119,219.983z"/>
		<path fill="#F9A01C" d="M187.818,216.656c0.408,0.586,0.861,1.153,1.381,1.691c0.603,0.625,1.243,1.169,1.92,1.636l3.021-1.944
			L187.818,216.656z"/>
	</g>
	<g>
		<path fill="#F8931D" d="M223.338,198.355c-0.506-1.045-1.334-1.568-2.48-1.568c-0.742,0-1.374,0.262-1.898,0.783
			c-0.523,0.523-0.785,1.156-0.785,1.898v3.101l8.69-5.593C225.629,197.207,224.45,197.652,223.338,198.355z"/>
		<path fill="#FFC20E" d="M228.703,196.787c-0.629,0-1.239,0.077-1.839,0.189l-8.69,5.593v16.841c0,0.744,0.262,1.375,0.785,1.898
			c0.524,0.523,1.146,0.785,1.874,0.785c0.726,0,1.373-0.262,1.948-0.785c0.574-0.523,0.859-1.154,0.859-1.898v-12.096
			c0-1.418,0.49-2.623,1.47-3.619c0.978-0.996,2.183-1.494,3.618-1.494c1.434,0,2.664,0.498,3.694,1.494s1.544,2.201,1.544,3.619
			v12.096c0,0.744,0.27,1.375,0.809,1.898c0.541,0.523,1.174,0.785,1.899,0.785s1.341-0.262,1.847-0.785s0.76-1.154,0.76-1.898
			v-12.096c0-2.867-1.031-5.34-3.086-7.416C234.135,197.824,231.639,196.787,228.703,196.787z"/>
	</g>
	<g>
		<path fill="#01B7D4" d="M256.49,189.449c0-0.777-0.271-1.438-0.812-1.977c-0.539-0.539-1.196-0.809-1.974-0.809
			c-0.775,0-1.443,0.27-1.999,0.809c-0.557,0.539-0.835,1.199-0.835,1.977v1.414l5.619,0.909V189.449z"/>
		<path fill="#FFC20E" d="M248.341,196.985c-0.334,0.135-0.639,0.337-0.913,0.61c-0.54,0.541-0.81,1.197-0.81,1.975
			s0.27,1.434,0.81,1.975c0.539,0.539,1.198,0.809,1.976,0.809h1.467v14.121c0,1.553,0.549,2.877,1.645,3.973
			c1.097,1.098,2.422,1.646,3.975,1.646c0.773,0,1.433-0.271,1.974-0.811c0.538-0.539,0.81-1.197,0.81-1.975
			c0-0.775-0.271-1.441-0.81-2c-0.541-0.557-1.2-0.834-1.974-0.834v-12.301L248.341,196.985z"/>
		<path fill="#FD9F13" d="M256.49,202.354h1.266c0.774,0,1.44-0.279,1.998-0.836c0.557-0.557,0.835-1.213,0.835-1.973
			s-0.278-1.408-0.835-1.949c-0.558-0.539-1.224-0.809-1.998-0.809h-1.266v-5.015l-5.619-0.909v5.924h-1.467
			c-0.383,0-0.737,0.066-1.063,0.198l8.149,7.188V202.354z"/>
	</g>
	<g>
		<path fill="none" d="M280.379,202.303c-1.722,0-3.309,0.641-4.758,1.926c-1.215,1.414-1.822,3.17-1.822,5.262
			s0.607,3.881,1.822,5.365c1.314,1.248,2.902,1.873,4.758,1.873c1.854,0,3.441-0.625,4.757-1.873
			c1.317-1.484,1.976-3.273,1.976-5.365s-0.658-3.848-1.976-5.262C283.685,202.943,282.1,202.303,280.379,202.303z"/>
		<path fill="#FFC20E" d="M271.824,218.5c1.251,1.322,2.653,2.284,4.199,2.906l-5.986-5.281
			C270.531,216.959,271.119,217.754,271.824,218.5z"/>
		<path fill="#FD9F13" d="M288.957,200.609c-2.346-2.549-5.188-3.822-8.527-3.822c-3.342,0-6.201,1.258-8.579,3.771
			c-2.38,2.512-3.568,5.508-3.568,8.982c0,2.438,0.594,4.629,1.754,6.584l5.986,5.281c1.371,0.553,2.854,0.84,4.458,0.84
			c3.406,0,6.225-1.281,8.451-3.848c2.363-2.295,3.543-5.195,3.543-8.705C292.475,206.186,291.301,203.156,288.957,200.609z
			 M285.136,214.855c-1.315,1.248-2.902,1.873-4.757,1.873c-1.855,0-3.443-0.625-4.758-1.873c-1.215-1.484-1.822-3.273-1.822-5.365
			s0.607-3.848,1.822-5.262c1.449-1.285,3.036-1.926,4.758-1.926c1.721,0,3.306,0.641,4.757,1.926
			c1.317,1.414,1.976,3.17,1.976,5.262S286.453,213.371,285.136,214.855z"/>
	</g>
</g>
</svg>
