<?xml version="1.0" encoding="utf-8"?>
<!-- Generator: Adobe Illustrator 16.0.4, SVG Export Plug-In . SVG Version: 6.00 Build 0)  -->
<svg version="1.2" baseProfile="tiny" id="Capa_1" xmlns="http://www.w3.org/2000/svg" xmlns:xlink="http://www.w3.org/1999/xlink"
	 x="0px" y="0px" width="300px" height="300px" viewBox="0 0 300 300" xml:space="preserve">
<g>
	<g>
		<path fill="#086E41" d="M179.914,46.23c0,0,16.179,45.615,31.591,79.916c0,0,30.05,63.784-41.605,78.155
			c0,0,28.51-15.127,12.326-49.158C182.225,155.144,150.629,99.927,179.914,46.23z"/>
		<path fill="#086E41" d="M119.792,46.23c0,0-16.183,45.615-31.596,79.916c0,0-30.046,63.784,41.609,78.155
			c0,0-28.509-15.127-12.33-49.158C117.475,155.144,149.071,99.927,119.792,46.23z"/>
		<path fill="#88CF42" d="M174.164,175.405c0,12.621-10.421,22.851-23.278,22.851c-12.854,0-23.275-10.229-23.275-22.851
			c0-12.629,10.421-22.854,23.275-22.854C163.743,152.551,174.164,162.776,174.164,175.405z"/>
		<path fill="#88CF42" d="M165.605,127.423c0,7.792-6.438,14.105-14.378,14.105c-7.939,0-14.373-6.313-14.373-14.105
			c0-7.795,6.434-14.113,14.373-14.113C159.167,113.31,165.605,119.628,165.605,127.423z"/>
		<path fill="#88CF42" d="M162.821,91.343c0,6.416-5.295,11.611-11.823,11.611c-6.537,0-11.831-5.195-11.831-11.611
			c0-6.403,5.294-11.607,11.831-11.607C157.526,79.735,162.821,84.939,162.821,91.343z"/>
		<path fill="#88CF42" d="M160.894,54.853c0,5.263-4.351,9.531-9.71,9.531s-9.707-4.269-9.707-9.531
			c0-5.258,4.348-9.529,9.707-9.529S160.894,49.595,160.894,54.853z"/>
	</g>
	<g>
		<path fill="#086E41" d="M26.521,228.593c0-3.087-0.056-5.575-0.224-7.865h4.422l0.279,4.134h0.112
			c1.96-2.989,5.205-4.681,9.571-4.681c6.604,0,11.53,4.929,11.53,12.246c0,8.66-5.989,12.941-12.313,12.941
			c-3.639,0-6.717-1.394-8.34-3.784h-0.112v13.093h-4.926V228.593z M31.447,235.014c0,0.599,0.056,1.245,0.224,1.792
			c0.84,3.036,3.862,5.128,7.333,5.128c5.205,0,8.228-3.783,8.228-9.308c0-4.83-2.799-8.961-8.004-8.961
			c-3.359,0-6.549,2.09-7.501,5.376c-0.111,0.599-0.279,1.243-0.279,1.792V235.014z"/>
		<path fill="#086E41" d="M81.037,238.249c0,2.488,0.057,4.68,0.224,6.57h-4.366l-0.279-3.932h-0.111
			c-1.232,1.94-4.142,4.48-8.956,4.48c-4.254,0-9.348-2.142-9.348-10.554v-14.087h4.927v13.291c0,4.58,1.622,7.716,6.044,7.716
			c3.303,0,5.598-2.041,6.493-4.032c0.28-0.599,0.447-1.394,0.447-2.24v-14.734h4.926V238.249z"/>
		<path fill="#086E41" d="M89.208,227.249c0-2.538-0.056-4.529-0.224-6.521h4.366l0.279,3.934h0.112
			c1.344-2.24,4.478-4.48,8.956-4.48c3.749,0,9.57,1.992,9.57,10.254v14.385h-4.925v-13.888c0-3.882-1.623-7.166-6.27-7.166
			c-3.19,0-5.709,2.041-6.604,4.479c-0.225,0.549-0.337,1.344-0.337,2.04v14.535h-4.926V227.249z"/>
		<path fill="#086E41" d="M125.986,214.955v5.772h7.054v3.336h-7.054v12.991c0,2.986,0.952,4.68,3.695,4.68
			c1.343,0,2.126-0.101,2.854-0.3l0.224,3.336c-0.952,0.298-2.463,0.598-4.365,0.598c-2.295,0-4.144-0.697-5.318-1.842
			c-1.343-1.344-1.903-3.485-1.903-6.321v-13.142h-4.197v-3.336h4.197v-4.429L125.986,214.955z"/>
		<path fill="#086E41" d="M149.278,245.368c-7.275,0-12.985-4.778-12.985-12.396c0-8.062,5.989-12.792,13.434-12.792
			c7.779,0,13.042,5.027,13.042,12.344c0,8.961-6.998,12.844-13.435,12.844H149.278z M149.447,242.082
			c4.701,0,8.228-3.932,8.228-9.407c0-4.082-2.295-9.209-8.116-9.209c-5.765,0-8.284,4.778-8.284,9.359
			c0,5.275,3.358,9.257,8.117,9.257H149.447z"/>
		<path fill="#086E41" stroke="#086E41" stroke-width="2.5541" stroke-miterlimit="10" d="M168.308,240.391
			c1.512,0.795,4.086,1.691,6.549,1.691c3.527,0,5.205-1.544,5.205-3.585c0-2.09-1.398-3.234-4.98-4.429
			c-4.926-1.593-7.221-3.932-7.221-6.819c0-3.882,3.583-7.068,9.348-7.068c2.742,0,5.148,0.647,6.604,1.495l-1.176,3.134
			c-1.063-0.547-3.021-1.394-5.541-1.394c-2.911,0-4.478,1.494-4.478,3.286c0,2.041,1.566,2.938,5.093,4.131
			c4.646,1.544,7.109,3.634,7.109,7.268c0,4.281-3.751,7.268-10.076,7.268c-2.966,0-5.709-0.697-7.611-1.693L168.308,240.391z"/>
		<path fill="#086E41" stroke="#086E41" stroke-width="2.5541" stroke-miterlimit="10" d="M210.232,239.046
			c0,2.091,0.111,4.131,0.391,5.773h-4.421l-0.448-3.035h-0.169c-1.454,1.891-4.421,3.584-8.283,3.584
			c-5.484,0-8.283-3.435-8.283-6.92c0-5.822,5.82-9.008,16.287-8.959v-0.497c0-1.992-0.615-5.625-6.157-5.576
			c-2.574,0-5.205,0.647-7.108,1.792l-1.119-2.937c2.239-1.243,5.542-2.091,8.956-2.091c8.34,0,10.355,5.027,10.355,9.855V239.046z
			 M205.417,232.524c-5.373-0.098-11.475,0.746-11.475,5.426c0,2.889,2.127,4.181,4.59,4.181c3.582,0,5.877-1.989,6.661-4.03
			c0.168-0.448,0.224-0.945,0.224-1.394V232.524z"/>
		<path fill="#086E41" stroke="#086E41" stroke-width="2.5541" stroke-miterlimit="10" d="M218.123,227.249
			c0-2.538-0.056-4.529-0.224-6.521h4.365l0.28,3.934h0.112c1.343-2.24,4.478-4.48,8.955-4.48c3.75,0,9.571,1.992,9.571,10.254
			v14.385h-4.926v-13.888c0-3.882-1.622-7.166-6.269-7.166c-3.19,0-5.709,2.041-6.604,4.479c-0.224,0.549-0.336,1.344-0.336,2.04
			v14.535h-4.926V227.249z"/>
		<path fill="#086E41" stroke="#086E41" stroke-width="2.5541" stroke-miterlimit="10" d="M260.213,245.368
			c-7.276,0-12.986-4.778-12.986-12.396c0-8.062,5.99-12.792,13.434-12.792c7.78,0,13.042,5.027,13.042,12.344
			c0,8.961-6.997,12.844-13.434,12.844H260.213z M260.381,242.082c4.701,0,8.228-3.932,8.228-9.407c0-4.082-2.295-9.209-8.116-9.209
			c-5.765,0-8.283,4.778-8.283,9.359c0,5.275,3.358,9.257,8.116,9.257H260.381z"/>
	</g>
</g>
</svg>
