<?xml version="1.0" encoding="utf-8"?>
<!-- Generator: Adobe Illustrator 16.0.4, SVG Export Plug-In . SVG Version: 6.00 Build 0)  -->
<svg version="1.2" baseProfile="tiny" id="Capa_1" xmlns="http://www.w3.org/2000/svg" xmlns:xlink="http://www.w3.org/1999/xlink"
	 x="0px" y="0px" width="300px" height="300px" viewBox="0 0 300 300" xml:space="preserve">
<g>
	<g>
		<path fill="#999999" d="M179.914,46.23c0,0,16.178,45.615,31.59,79.916c0,0,30.051,63.784-41.605,78.155
			c0,0,28.51-15.127,12.326-49.158C182.225,155.144,150.629,99.927,179.914,46.23z"/>
		<path fill="#999999" d="M119.791,46.23c0,0-16.182,45.615-31.596,79.916c0,0-30.045,63.784,41.609,78.155
			c0,0-28.508-15.127-12.33-49.158C117.475,155.144,149.07,99.927,119.791,46.23z"/>
		<path fill="#999999" d="M174.164,175.405c0,12.621-10.422,22.851-23.279,22.851c-12.854,0-23.275-10.229-23.275-22.851
			c0-12.629,10.422-22.854,23.275-22.854C163.742,152.551,174.164,162.776,174.164,175.405z"/>
		<path fill="#999999" d="M165.605,127.423c0,7.792-6.438,14.105-14.379,14.105c-7.939,0-14.373-6.313-14.373-14.105
			c0-7.795,6.434-14.113,14.373-14.113C159.168,113.31,165.605,119.628,165.605,127.423z"/>
		<path fill="#999999" d="M162.82,91.343c0,6.416-5.295,11.611-11.822,11.611c-6.537,0-11.832-5.195-11.832-11.611
			c0-6.403,5.295-11.607,11.832-11.607C157.525,79.735,162.82,84.939,162.82,91.343z"/>
		<path fill="#999999" d="M160.895,54.853c0,5.263-4.352,9.531-9.711,9.531s-9.707-4.269-9.707-9.531
			c0-5.258,4.348-9.529,9.707-9.529S160.895,49.595,160.895,54.853z"/>
	</g>
	<g>
		<path fill="#999999" d="M26.521,228.593c0-3.087-0.057-5.575-0.225-7.865h4.422l0.279,4.134h0.113
			c1.959-2.989,5.205-4.681,9.57-4.681c6.605,0,11.531,4.929,11.531,12.246c0,8.66-5.99,12.941-12.314,12.941
			c-3.639,0-6.717-1.394-8.34-3.784h-0.111v13.093h-4.926V228.593z M31.447,235.014c0,0.599,0.055,1.245,0.223,1.792
			c0.84,3.036,3.863,5.128,7.334,5.128c5.205,0,8.227-3.783,8.227-9.308c0-4.83-2.799-8.961-8.004-8.961
			c-3.359,0-6.549,2.09-7.5,5.376c-0.111,0.599-0.279,1.243-0.279,1.792V235.014z"/>
		<path fill="#999999" d="M81.037,238.249c0,2.488,0.057,4.68,0.223,6.57h-4.365l-0.279-3.932h-0.111
			c-1.232,1.94-4.143,4.48-8.957,4.48c-4.254,0-9.348-2.142-9.348-10.554v-14.087h4.928v13.291c0,4.58,1.621,7.716,6.043,7.716
			c3.303,0,5.598-2.041,6.494-4.032c0.279-0.599,0.447-1.394,0.447-2.24v-14.734h4.926V238.249z"/>
		<path fill="#999999" d="M89.207,227.249c0-2.538-0.055-4.529-0.223-6.521h4.365l0.279,3.934h0.113
			c1.344-2.24,4.477-4.48,8.955-4.48c3.75,0,9.57,1.992,9.57,10.254v14.385h-4.924v-13.888c0-3.882-1.623-7.166-6.27-7.166
			c-3.191,0-5.709,2.041-6.604,4.479c-0.225,0.549-0.338,1.344-0.338,2.04v14.535h-4.926V227.249z"/>
		<path fill="#999999" d="M125.986,214.955v5.772h7.053v3.336h-7.053v12.991c0,2.986,0.951,4.68,3.695,4.68
			c1.342,0,2.125-0.101,2.854-0.3l0.225,3.336c-0.953,0.298-2.463,0.598-4.365,0.598c-2.295,0-4.145-0.697-5.318-1.842
			c-1.344-1.344-1.904-3.485-1.904-6.321v-13.142h-4.197v-3.336h4.197v-4.429L125.986,214.955z"/>
		<path fill="#999999" d="M149.277,245.368c-7.275,0-12.984-4.778-12.984-12.396c0-8.062,5.988-12.792,13.434-12.792
			c7.779,0,13.041,5.027,13.041,12.344c0,8.961-6.998,12.844-13.434,12.844H149.277z M149.447,242.082
			c4.701,0,8.227-3.932,8.227-9.407c0-4.082-2.295-9.209-8.115-9.209c-5.766,0-8.285,4.778-8.285,9.359
			c0,5.275,3.359,9.257,8.117,9.257H149.447z"/>
		<path fill="#999999" d="M168.309,240.391c1.512,0.795,4.086,1.691,6.549,1.691c3.527,0,5.205-1.544,5.205-3.585
			c0-2.09-1.398-3.234-4.98-4.429c-4.926-1.593-7.221-3.932-7.221-6.819c0-3.882,3.582-7.068,9.348-7.068
			c2.742,0,5.148,0.647,6.604,1.495l-1.176,3.134c-1.062-0.547-3.021-1.394-5.541-1.394c-2.91,0-4.477,1.494-4.477,3.286
			c0,2.041,1.566,2.938,5.092,4.131c4.646,1.544,7.109,3.634,7.109,7.268c0,4.281-3.75,7.268-10.076,7.268
			c-2.965,0-5.709-0.697-7.611-1.693L168.309,240.391z"/>
		<path fill="#999999" d="M210.232,239.046c0,2.091,0.111,4.131,0.391,5.773h-4.422l-0.447-3.035h-0.17
			c-1.453,1.891-4.42,3.584-8.283,3.584c-5.484,0-8.283-3.435-8.283-6.92c0-5.822,5.82-9.008,16.287-8.959v-0.497
			c0-1.992-0.615-5.625-6.156-5.576c-2.574,0-5.205,0.647-7.109,1.792l-1.119-2.937c2.24-1.243,5.543-2.091,8.957-2.091
			c8.34,0,10.355,5.027,10.355,9.855V239.046z M205.418,232.524c-5.373-0.098-11.475,0.746-11.475,5.426
			c0,2.889,2.127,4.181,4.59,4.181c3.582,0,5.877-1.989,6.66-4.03c0.168-0.448,0.225-0.945,0.225-1.394V232.524z"/>
		<path fill="#999999" d="M218.123,227.249c0-2.538-0.057-4.529-0.225-6.521h4.365l0.281,3.934h0.111
			c1.344-2.24,4.479-4.48,8.955-4.48c3.75,0,9.572,1.992,9.572,10.254v14.385h-4.926v-13.888c0-3.882-1.623-7.166-6.27-7.166
			c-3.189,0-5.709,2.041-6.604,4.479c-0.225,0.549-0.336,1.344-0.336,2.04v14.535h-4.926V227.249z"/>
		<path fill="#999999" d="M260.213,245.368c-7.275,0-12.986-4.778-12.986-12.396c0-8.062,5.99-12.792,13.434-12.792
			c7.781,0,13.043,5.027,13.043,12.344c0,8.961-6.998,12.844-13.434,12.844H260.213z M260.381,242.082
			c4.701,0,8.229-3.932,8.229-9.407c0-4.082-2.295-9.209-8.117-9.209c-5.764,0-8.283,4.778-8.283,9.359
			c0,5.275,3.359,9.257,8.117,9.257H260.381z"/>
	</g>
</g>
</svg>
