<?xml version="1.0" encoding="utf-8"?>
<!-- Generator: Adobe Illustrator 16.0.4, SVG Export Plug-In . SVG Version: 6.00 Build 0)  -->
<svg version="1.2" baseProfile="tiny" id="Capa_1" xmlns="http://www.w3.org/2000/svg" xmlns:xlink="http://www.w3.org/1999/xlink"
	 x="0px" y="0px" width="300px" height="300px" viewBox="0 0 300 300" xml:space="preserve">
<path fill-rule="evenodd" fill="#010101" d="M277.991,228.323c-11.063-3.756-22.089-7.621-33.165-11.333
	c-1.505-0.504-1.899-1.157-1.88-2.65c0.082-6.262,0.104-12.526-0.007-18.787c-0.031-1.744,0.313-2.492,2.175-2.122
	c1.732,0.344,1.981-0.265,1.296-1.886c-3.534-8.348-6.998-16.726-10.383-25.135c-0.481-1.197-1.057-1.521-2.247-1.504
	c-4.201,0.061-8.403,0.034-12.604,0.013c-0.633-0.003-1.723,0.303-1.519-0.844c0.477-2.68-1.154-2.493-2.908-2.414
	c-1.741,0.078-3.492,0.092-5.23-0.01c-1.166-0.068-1.619,0.298-1.42,1.451c0.244,1.408-0.229,2.145-1.768,1.826
	c-1.416-0.292-2.1,0.527-2.77,1.614c-3.852,6.249-7.757,12.464-11.639,18.693c-1.649,2.646-3.287,5.297-5.095,8.212
	c7.872,0,15.328-0.306,22.743,0.114c4.454,0.253,6.967-1.167,9.104-5.074c3.579-6.541,7.8-12.732,11.914-19.333
	c3.197,7.76,6.263,15.2,9.531,23.133c-2.887-1.188-2.593,0.618-2.596,2.049c-0.017,6.421-0.023,12.843,0.032,19.264
	c0.01,1.154-0.095,1.635-1.402,1.118c-1.832-0.725-3.697-1.42-5.609-1.869c-1.622-0.381-2.104-1.115-2.05-2.778
	c0.134-4.122,0.038-4.125,3.51-5.568c-1.595-0.138-3.204-0.055-4.8-0.164c-1.197-0.082-1.488,0.339-1.426,1.473
	c0.098,1.761,0.026,3.53,0.026,5.451c-1.839-0.6-3.311-1.161-4.827-1.55c-1.438-0.369-1.896-1.093-1.86-2.625
	c0.12-5.201,0.046-10.407,0.046-16.207c-0.504,0.74-0.764,1.01-0.894,1.332c-0.813,2.013-2.205,2.617-4.412,2.545
	c-5.702-0.188-11.414-0.062-17.122-0.062c-4.679,0.001-4.677,0-4.807,4.781c-0.006,0.215-0.105,0.428-0.194,0.77
	c-5.987-1.868-11.924-3.723-17.861-5.572c-0.609-0.19-1.145-0.305-1.136-1.207c0.048-4.936,0.022-9.872,0.022-14.808
	c0.27-0.208,0.538-0.415,0.808-0.623c0.887,4.085,3.823,2.759,6.147,3.065c0.304,0.04,0.585,0.236,0.883,0.342
	c0.426,0.151,0.885,0.078,0.932-0.391c0.204-2.055,1.594-1.357,2.523-0.951c1.521,0.665,2.734,0.577,3.823-0.701
	c0.769-0.901,1.927-1.022,2.937-1.439c0.505-0.209,1.239-0.279,1.474-0.657c1.392-2.252,3.053-4.254,5.513-6.158
	c-2.902,0.419-5.355,0.639-7.739,1.167c-1.459,0.324-0.51-1.777-1.789-1.509c-0.087,0.019,0.372-0.892,0.713-0.884
	c3.293,0.072,4.761-2.534,6.822-4.536c-4.271-0.04-8.002,2.192-12.428,2.43c2.124-1.647,2.763-4.199,1.75-6.022
	c0.564-0.316,0.957,0.671,1.222,0.374c0.964-1.08,2.015-1.439,3.38-0.917c0.125,0.048,0.382-0.179,0.546-0.315
	c1.655-1.374,3.322-2.735,4.95-4.142c1.647-1.424,3.255-2.896,4.88-4.346c-2.897,0.881-5.806,0.205-8.593,0.69
	c0.006,0.018,0.004,0.03,0.01,0.048l0.001,0.001h-0.001l0,0l0,0c-0.014-0.003-0.024-0.001-0.037-0.004
	c0.119,0.44,0.203,0.92-0.314,1.123c-0.262,0.102-0.634-0.166-0.619-0.512c0.025-0.588,0.43-0.71,0.934-0.611
	c-0.004-0.014-0.007-0.026-0.011-0.04c0.013-0.002,0.025-0.003,0.038-0.005c-0.538-1.836,0.944-2.407,2.354-3.177
	c-1.408-0.75-2.797-0.602-3.366,0.254c-1.299,1.952-3.37,2.692-5.117,3.938c-0.218,0.595-0.751,0.651-1.485,0.993
	c0.391-0.867,0.304-1.589,0.954-2.002c1.278-0.448,1.735-1.449,1.897-2.832c-2.021-0.202-3.319,1.367-5.421,2.049
	c0.71-1.018,0.92-1.794,0.364-2.736c-1.316,1.414-2.969,1.459-4.681,1.401c0.688-0.05,1.111-0.488,1.607-0.855
	c1.285-0.951,2.649-2.611,3.941-2.573c3.003,0.086,3.987-2.931,6.435-3.415c-0.235-1.877,2.35-1.13,2.478-2.659
	c0.145-1.713,1.386-2.608,2.771-3.591c-0.471-0.05-0.837-0.208-1.075-0.096c-3.06,1.443-6.26,2.682-9.082,4.502
	c-1.383,0.894-2.49,1.737-4.106,1.258c-0.751-0.224-0.729,0.979-1.684,0.555c1.64-2.408,3.055-4.817,5.762-6.111
	c1.468-0.702,2.929-1.492,2.446-3.585c-0.17-0.739,0.55-0.896,0.963-1.163c0.829-0.534,1.729-0.959,2.729-1.499
	c-0.544-0.482-1.328-0.926-1.271-1.171c0.327-1.397-0.799-1.654-1.493-1.593c-1.111,0.099-0.625,1.221-0.711,1.941
	c-0.06,0.495,0.215,1.28-0.763,0.967c-0.315-0.102-0.017-1.137-0.757-0.74c-0.3,0.161-0.297,0.838-0.494,1.249
	c-0.205,0.424-0.396,0.937-0.749,1.192c-2.264,1.633-4.293,3.625-7.112,4.729c0.125-0.552-0.354-1.12,0.456-1.435
	c0.395-0.153,0.668-0.372,0.269-0.848c-0.236-0.28-1.439,0.223-0.729-0.589c0.389-0.445,0.101-1.578,1.426-1.452
	c1.568,0.15,3.463-2.015,3.177-3.743c-0.183-1.102-1.657-1.237-2.744-1.411c-0.27-0.043-0.543-0.052-1.082-0.101
	c1.174-1.7,3.086-0.717,4.563-2.039c1.711-1.532,3.898-2.78,5.555-4.611c0.5-0.552,0.774-1.054,0.336-1.642
	c-0.444-0.597-1.018-0.341-1.39,0.141c-1.896,2.456-4.755,2.546-7.438,3.073c-0.881,0.623-1.885,0.189-2.916,0.556
	c0.265-0.997,1.505-0.031,1.495-1.092c-0.011-1.197,1.176-1.62,1.607-2.495c0.356-0.723,2.729-2.782-0.844-1.77
	c-0.191,0.055-0.625-0.067-0.626-0.115c-0.06-2.629-1.783-0.559-2.625-0.938c-0.223,0.306-0.396,0.668-0.679,0.9
	c-0.34,0.28-0.758,0.598-1.237,0.298c-0.153-0.096-0.321-0.407-0.272-0.547c0.187-0.527,0.685-0.507,1.152-0.568
	c0.368-0.049,0.718-0.231,1.075-0.354c1.332-1.337,2.856-2.361,4.658-2.979c0.306-0.104,1.436-0.316,0.166-0.848
	c-0.729,0.293-1.458,0.586-2.623,1.055c0.527-1.322,1.279-1.476,2.074-1.571c1.074-0.669,2.148-1.338,3.223-2.007
	c-0.452-0.774-1.271-0.166-1.843-0.487c-0.695,0.428-1.915-0.026-2.109,0.253c-1.56,2.234-3.929,1.365-5.95,1.766
	c-0.487,0.509-1.22,0.325-1.222-0.131c-0.003-0.739,0.784-0.288,1.232-0.36c0.388-0.462,0.748-1.292,1.168-1.323
	c1.854-0.142,2.746-1.509,3.92-2.596c0.493-0.457,1.127-0.764,0.753-1.463c-0.393-0.733-0.962,0.025-1.457,0.039
	c-0.636,0.018-1.141,0.984-1.443,0.693c-0.622-1.585,1.046-1.835,0.889-3.023c-0.779,0-1.566,0.202-2.167-0.046
	c-0.974-0.404-2.663-0.585-2.305-2.033c0.343-1.387-0.163-1.792-1.301-1.974c0.458-0.914,1.72-0.47,1.768-1.529
	c-0.753-0.541-1.543,0.478-2.513,0.022c0.602-0.773,1.072-1.38,1.569-2.02c-0.536-0.605-1.839,0.289-1.948-1.17
	c-0.025-0.343-1.423-0.621-1.892,0.292c-0.765,1.493-2.102,2.283-3.488,2.992c-2.737,1.398-5.522,2.704-8.261,4.102
	c-0.511,0.26-1.374,0.323-1.321,1.155c0.082,1.301-0.92,0.807-1.51,1.129c-1.938,1.062-4.812-1.242-6.298,1.793
	c0.804-1.77,1.257-3.481,2.487-5.067c0.952-1.225,3.365-1.348,2.983-3.624c-0.027-0.162,0.175-0.447,0.345-0.542
	c0.949-0.532,2.939,0.562,2.729-1.771c1.413,0.849,1.647-0.874,2.501-1.133c1.729-0.525,1.908-2.167,1.489-3.089
	c-0.58-1.281,0.05-1.486,0.763-1.921c1.503-0.916,3.019-1.811,4.527-2.713c-0.672-1.02-1.943-1.239-2.052-2.618
	c0.777-0.107,1.532-0.212,2.535-0.351c-1.172-1.277-2.393-0.023-3.358-0.687c-2.16-1.48-2.304,0.062-2.372,1.645
	c-0.023,0.554,0,1.109-0.011,1.664c-0.008,0.398-0.022,0.813-0.576,0.833c-0.402,0.015-0.781,0.002-0.889-0.529
	c-0.078-0.391,0.188-1.061-0.985-0.886c0.632,4.125-3.768,4.539-5.638,7.038c-1.763,2.356-5.365,3.338-8.159,4.924
	c-0.147-0.224-0.294-0.448-0.441-0.673c2.033-0.226,1.42-2.8,3.394-3.022c-0.859-1.12-2.241-0.266-2.99-1.416
	c1.843-0.016,2.376-1.088,2.03-2.954c2.202,1.501,3.743,0.927,4.711-1.016c0.657-1.319,0.938-2.811,1.698-4.115
	c0.234-0.402,0.268-1.393-0.51-1.233c-1.873,0.385-3.058-1.767-5.455-0.658c1.06-1.626,1.439-2.879,3.134-1.733
	c0.534,0.361,1.883,0.371,1.981-0.094c0.512-2.401,3.251-1.826,4.267-3.432c0.681-1.077,2.171-0.588,2.953-1.645
	c0.993-1.343,1.614-3.02,3.154-3.913c1.169-0.678,1.319-1.558,0.47-2.522c-1.005-1.143-1.721-0.159-2.285,0.539
	c-0.855,1.057-1.695,2.053-3.045,2.516c-2.693,0.923-5.406,1.745-8.25,2.057c-0.939,0.667-2.116,0.437-3.137,0.827
	c-0.4,0.153-1.108,0.283-1.177-0.295c-0.112-0.948,0.722-0.487,1.172-0.546c0.383-0.05,0.776-0.019,1.165-0.023
	c0.535-0.635-1.018-1.049-0.123-1.827c1.68-1.461,2.868-3.227,2.683-5.655c-3.761,1.059-5.285,5.741-9.632,5.843
	c2.304-0.876,2.9-3.633,5.293-4.54c0.97-0.367,2.473-1.543,1.659-2.932c-0.598-1.021-1.983-0.258-3.021-0.006
	c-0.165,0.04-0.375-0.105-0.79-0.236c2.241-2.436,4.836-3.935,7.74-4.967c0.502,0.022,0.868-0.164,1.165-0.952
	c-1.245,0.075-2.362,0.143-3.479,0.21c-0.039,0-0.072,0.046-0.101,0.138c-0.026,0.085,0.027,0.155,0.161,0.213
	c-0.447,0.606-1.041,0.553-1.778,0.412c0.25-0.951,1.073-1.01,1.693-1.319c2.54-0.917,4.709-2.411,7.044-4.688
	c-3.048,1.104-6.462-0.832-8.297,2.717c-0.058,0.111-0.442,0.055-0.674,0.076c-1.562,0.146-3.123,0.292-4.685,0.438
	c-1.555,0.691-3.113,0.466-5.094,0.279c0.855-1.014,1.567-0.725,2.201-0.728c1.727-1.92,4.121-2.737,6.335-3.857
	c0.268-0.135,0.611-0.396,0.657-0.646c0.195-1.059,0.543-1.736,1.822-1.876c0.742-0.082,0.917-1.071,0.75-1.789
	c-0.222-0.957-1.03-0.504-1.538-0.383c-0.912,0.218-1.782,0.614-2.669,0.937c-0.701,0.693-1.555,1.11-2.49,1.38
	c-0.042,0.066-0.068,0.162-0.129,0.195c-0.812,0.444-1.578,1.008-2.546,1.045c-0.064,0.002-0.261-0.454-0.196-0.621
	c0.428-1.125,1.622-0.576,2.368-1.036c0.77-0.35,1.539-0.699,2.31-1.049c-0.201-1.415,0.699-2.32,1.513-3.266
	c0.254-0.271,0.473-0.589,0.769-0.8c0.497-0.354,0.547-0.76,0.053-1.034c-0.508-0.281-0.814,0.074-0.904,0.601
	c-0.792,0.387-1.652,0.555-2.493,0.382c-0.711-0.146-2.08,0.188-2.042-0.433c0.139-2.217-1.346-0.88-2.072-1.139
	c-0.175,0.148-0.327,0.359-0.529,0.434c-0.725,0.266-1.851,1.276-2.128,0.522c-0.521-1.417,1.015-0.776,1.675-1.031
	c1.19-0.459,0.188-1.763,0.916-2.403c0.823-1.105,0.932-1.855-0.833-1.732c-0.48,0.033-0.969-0.021-0.991-0.696
	c-0.021-0.633,0.337-0.798,0.895-0.772c1.01,0.044,1.333-0.721,1.863-1.399c-1.487-0.481-2.68,0.667-4.135,0.291
	c0.242-0.4,0.443-0.647,0.554-0.929c0.373-0.955,2.195-1.586,1.394-2.561c-0.78-0.948-1.945,0.399-2.938,0.759
	c-0.088,0.032-0.237-0.105-0.303-0.137c0.028-0.892,1.75-1.331,0.734-2.327c-0.417-0.409-1.513-0.234-2.28-0.15
	c-0.953,0.104-0.497,0.975-0.66,1.515c-0.121,0.403,0.499,1.222-0.619,1.095c-0.564-0.064-1.366-0.553-1.614,0.297
	c-0.231,0.793,0.691,1.133,1.09,1.685c0.317,0.44,1.312,0.685,0.634,1.471c-0.582,0.676-1.159,0.206-1.595-0.28
	c-1.559-1.737-2.751-0.336-4.047,0.213c2.873,0.998,4.457,3.453,4.001,6.388c-0.155,1-1.022,0.629-1.591,0.834
	c0.031-2.298-2.918-0.669-3.414-2.614c-0.172-0.676-1.533-0.082-1.993,0.467c-0.873,1.043,0.692,0.953,0.727,1.147
	c0.235,1.365,2.658,1.34,1.963,3.25c-0.211,0.58,0.557,0.868,0.973,1.199c0.886,0.707,1.569,1.55,1.903,2.65
	c0.244,0.805,0.824,1.705-0.015,2.384c-0.745,0.603-1.568,0.71-2.582,0.07c-2.304-1.451-4.612-3.005-7.597-3.229
	c0.603,1.312,1.356,2.371,2.562,3.028c1.397,0.762,2.627,1.631,2.76,3.404c0.51-0.018,1.051,0.295,0.812,0.701
	c-0.32,0.547-0.911,0.181-1.339-0.149c-0.156,0.149-0.312,0.299-0.468,0.448c1.66,1.352,1.774,3.854,3.811,4.998
	c0.582,0.327,1.918,1.066,1.258,1.864c-0.746,0.902-1.441-0.331-2.059-0.853c-0.3-0.254-0.582-0.535-0.834-0.837
	c-1.262-1.509-2.442-3.125-4.669-3.242c-0.319-0.018-0.71-0.066-0.729-0.43c-0.119-2.341-2.629-1.915-3.686-3.195
	c-0.468-0.566-1.484-0.614-1.893-0.036c-0.471,0.667-0.179,1.545,0.595,2.029c0.526,0.329,1.111,0.75,1.688,0.779
	c2.164,0.11,2.433,2.484,2.139,3.104c-1.439,3.038,1.055,1.565,1.927,1.911c-0.953,1.806-0.953,1.806-0.588,4.723
	c2.51-1.173,5.385,0.106,5.201,2.244c-1.008-0.349-2.328-1.964-2.661-1.47c-1.215,1.806-2.637,0.456-3.895,0.657
	c-0.783,0.126-1.384,0.109-1.321,1.145c0.033,0.557,0.273,1.47-0.787,1.274c-1.161-0.215-0.208-0.914-0.227-1.41
	c-0.023-0.628,0.53-2.263-0.522-1.639c-1.901,1.127-1.928-0.646-2.304-1.188c-1.197-1.726-3.69-1.578-4.691-3.51
	c-0.26-0.503-0.876-1.199-1.522-0.825c-0.824,0.479-0.176,1.254,0.017,1.877c0.137,0.444,0.281,0.997,0.613,1.251
	c1.561,1.193,1.473,2.842,1.397,4.509c0.825,0.227,1.66,0.396,2.427-0.137c0.372-0.259,0.798-0.381,0.841,0.133
	c0.062,0.741-0.709,0.244-1.022,0.494c0.216,0.652-0.022,1.356,1.204,1.57c2.055,0.358,3.688,1.48,3.448,4.05
	c-0.11,1.185,0.898,1.515,2.171,1.729c-0.99,0.699-2.26,1.116-2.309,0.663c-0.282-2.605-2.016-1.589-3.631-1.759
	c1.051,1.954,3.038,3.106,2.893,5.376c-0.027,0.441,0.269,0.972,0.864,0.955c3.332-0.097,1.146,1.489,0.72,2.452
	c-0.25,0.564-0.711,1.035-1.085,1.543c-0.347,0.472,0.237,1.792-0.989,1.383c-0.824-0.275-0.085-1.051,0.017-1.598
	c0.099-0.526,0.444-1.199-0.182-1.48c-0.547-0.245-1.214-0.155-1.717,0.43c-0.322,0.375-0.322,1.142-1.187,1.04
	c-0.014-0.293,0.053-0.622-0.057-0.876c-0.318-0.741,1.182-2.786-1.485-1.915c-1.315,0.43-0.635-2.399-2.429-1.967
	c-0.531,0.128-0.742,0.514-1.114,0.747c-0.444,0.278-1.079,0.522-1.354-0.271c-0.522-1.511-2.338-2.432-1.804-4.354
	c-1.42,0.048-2.482,0.739-3.598,1.148c-0.709-1.762,1.335-2.235,1.472-3.562c-1.803,0.176-1.686-0.28-4.305-0.949
	c-1.88-0.479-1.373-1.15-1.051-2.118c0.153-0.459,0.554-0.799-0.207-1.022c-0.461-0.135-1.244,0.261-1.26-0.643
	c-0.016-0.9,0.915-0.331,1.25-0.721c0.271-0.314,0.915-0.46,0.509-1.11c-0.882,0.098-1.713,0.616-2.645,0.343
	c0.081-1.095,1.663-1.379,1.281-2.63c-1.464,0.801-1.496-1.143-2.376-1.239c-0.549-0.06-1.851-0.449-1.715,0.475
	c0.257,1.743-1.183,1.095-1.758,1.471c-0.032,0.68,0.439,0.913,0.69,1.284c0.27,0.397,1.205,0.59,0.657,1.244
	c-0.53,0.634-0.965-0.083-1.349-0.414c-1.251-1.082-2.071-0.135-3.16,0.539c2.477,0.642,3.469,2.069,3.183,4.355
	c-0.116,0.931-0.395,0.847-1.262,0.508c-1.31-0.511-2.396-2.565-4.41-0.864c2.563,1.084,2.835,3.841,4.521,5.525
	c0.535,0.535,0.739,1.448,0.057,2.141c-0.703,0.713-1.457,0.359-2.119-0.112c-1.596-1.138-3.247-2.12-5.393-2.215
	c0.529,1.163,1.332,1.959,2.361,2.553c0.696,0.401,1.657,0.931,1.313,1.732c-0.684,1.598,0.734,2.423,0.986,3.645
	c0.754,1.055,2.505,1.257,2.699,3.129c-1.801-0.548-2.659-1.934-3.709-3.047c-0.204-0.134-0.393-0.289-0.528-0.515
	c-2.016-0.188-2.848-2.208-4.535-2.938c-0.706-0.306-1.484-1.161-2.019-0.241c-0.593,1.02,0.571,1.39,1.242,1.912
	c0.564,0.439,1.36,0.064,1.907,1.045c0.52,0.934-1.096,3.188,1.559,2.866c-0.049,0.207-0.031,0.478-0.157,0.61
	c-0.842,0.879,0.022,1.902-0.663,3.183c2.159-1.281,3.312-0.306,4.452,0.874c-1.854-1.36-3.751,0.658-5.556-0.129
	c-0.14,0.269-0.344,0.522-0.403,0.808c-0.104,0.493,0.073,1.307-0.782,0.998c-0.647-0.234-0.004-0.76,0.054-1.16
	c0.054-0.379,0.038-0.769,0.054-1.153c-0.833,0.019-1.515,0.245-2.284-0.709c-1.204-1.492-3.222-2.117-4.711-3.482
	c0.968,3.049,1.425,6.538,4.847,7.678c1.654,0.552,1.766,1.324,1.783,2.581c0.387,0.688,0.873,1.271,1.749,1.294
	c-0.388,1.005-1.241,0.609-1.651,1.07c0.316-0.797,0.128-1.4-0.676-1.769c-0.608-0.067-1.382-0.273-1.573,0.509
	c-0.287,1.171,0.968,1.354,1.525,1.987c-0.15,0.954-0.227,2.227,0.881,2.297c2.03,0.129,0.979,0.952,0.577,1.684
	c-0.296,0.539-0.652,1.046-0.982,1.567c0.113,0.511-0.105,1.149-0.567,0.875c-0.896-0.531-0.278-1.258,0.132-1.867
	c-0.652-0.849-1.271-0.6-1.876,0.058c0.021,0.355-0.134,0.634-0.488,0.645c-0.386,0.012-0.473-0.284-0.441-0.633
	c0.054-0.61,0.234-1.232-0.124-1.815c-0.481,0.01-1.127,0.945-1.396-0.258c-0.173-0.776-1.125-1.203-1.381-0.837
	c-1.774,2.535-1.624-0.271-2.288-0.756c-0.306-0.224-0.651-0.646-0.932-0.61c-2.177,0.278-3.682-0.753-4.816-2.427
	c-0.38-0.561-0.751-0.476-1.177-0.298c-0.419,0.174-1.053,0.436-0.792,0.976c0.752,1.555,2.029,3.028,3.068,4.092
	c1.282,1.312,2.185,4.414,5.222,3.371c0.03-0.01,0.144,0.089,0.142,0.132c-0.124,2.481,2.623,2.479,3.54,4.083
	c0.486,0.852,1.228,0.777,1.882,0.065c-0.023-0.382,0.005-0.836,0.502-0.729c0.521,0.112,0.404,0.683,0.48,1.09
	c1.082,0.093,0.867,2.017,2.293,1.625c1.013,0.203,2.068,0.241,2.99,0.79c0.457,0.148,1.135-0.282,1.348,0.48
	c0.056,0.2,0.011,0.608-0.088,0.645c-0.745,0.268-1.2-0.421-1.814-0.62c-0.962,0.025-1.828-0.674-2.827-0.379
	c-0.009,0.45-0.019,0.9-0.027,1.351c0.38,0.428,1.679,0.245,1.267,0.962c-0.56,0.976-1.218-0.067-1.778-0.452
	c-0.922-0.299-2.262,0.268-2.511-1.423c-0.08-0.548-0.83-1.063-1.236-0.017c-0.191,0.492-0.805,0.594-0.817,0.345
	c-0.133-2.477-2.542-1.526-3.653-2.503c-1.272-1.119-2.963-1.373-4.522-1.993c0.69,1.146,2.135,2.122,2.162,3.138
	c0.061,2.188,1.856,2.137,2.797,2.212c1.36,0.109,1.699-0.114,0.533,1.05c-0.325,0.325,0.055,0.937,0.357,0.932
	c1.483-0.028,2.244,1.4,3.56,1.653c0.6-0.132,1.383-0.275,1.583,0.36c0.147,0.47-0.655,0.393-1.047,0.538
	c-0.364,0.569,0.577,1.618-0.341,1.773c-0.971,0.165-0.514-0.834-0.567-1.37c-3.677-1.408-6.52-4.255-10.101-5.93
	c0.862,1.464,1.004,3.349,2.887,3.997c0.435,0.149,0.48,0.559,0.062,0.903c-1.403,1.154,0.156,1.985,0.601,1.955
	c1.566-0.106,1.772,1.03,2.287,1.949c-0.042,0.426-0.887,0.56-0.486,1.094c0.503,0.671,0.902-0.127,1.359-0.202
	c1.398,1.062,1.552-1.312,2.644-0.994c0.492,0.99-1.812,2.521,0.666,3.076c-0.134-0.038-0.077-0.031,0.006-0.029
	c0.149-0.45-0.259-1.331,0.373-1.268c1.043,0.105-0.084,0.762,0.077,1.146c0.139,0.332,0.354,0.631,0.536,0.945l-0.053,0.09
	c0.981,1.113,2.863,1.138,3.389,2.803c2.031,0.224,3.151,1.924,4.713,2.91c0.077-0.001,0.157-0.017,0.23-0.001
	c0.929,0.192,2.006-0.451,2.789,0.492c0.063,0.076,0.007,0.388-0.06,0.412c-1.046,0.389-2.035,0.115-3.006-0.305
	c-1.607-0.132-2.622-2.021-4.641-1.312c-0.878,0.309-0.31-1.081-0.572-1.639c-1.861,0.67-1.547-1.792-2.824-1.963
	c-0.779,0.502,0.542,1.734-0.279,1.707c-0.769-0.024-2.144,0.642-2.553-0.911c-0.236-0.895-0.846-0.762-1.443-0.289
	c-0.499,0.067-0.953-0.971-1.372-0.225c-0.307,0.544,0.402,0.902,0.835,1.219c1.098,0.933,0.962,2.395,1.498,3.573
	c0.464,1.019,0.908,1.921,2.173,1.568c1.904-0.531,2.544,2.016,4.326,1.663c-0.365,2.012,1.65,2.964,2.209,4.795
	c-0.657-0.162-1.328-0.121-1.617-0.435c-1.109-1.197-2.159-2.346-4.024-1.64c-0.124,0.047-0.359,0.011-0.444-0.079
	c-1.806-1.914-4.485-1.798-6.674-2.832c-0.797-0.377-1.693-0.181-2.119-1.373c-0.479-1.344-2.157-1.601-2.991-1.021
	c-1.01,0.702-0.239,2.083,0.461,2.878c0.814,0.924,0.584,3.235,2.877,2.388c0.007,0.152,0.054,0.316,0.013,0.455
	c-0.349,1.204,0.696,1.472,1.351,1.924c2.474,1.713,4.615,3.915,7.673,4.789c0.634,0.181,2.216,0.139,2.09,1.674
	c0.463,0.467,0.619,1.035,1.495,0.101c0.916-0.976,2.387-1.042,2.727,0.942c0.381,0.006,0.871,0.17,1.124-0.007
	c1.91-1.338,1.394,0.453,1.598,1.521c-1.144-0.297-2.287-0.594-3.431-0.89c-1.606-0.13-3.2-0.323-4.698-0.977
	c-0.86-0.128-1.722-0.249-2.58-0.385c-2.583-0.407-5.17-0.812-7.792-0.791c-0.592,0.005-1.984-0.124-0.998,1.108
	c0.997,1.248,0.409,1.273-0.645,1.298c-1.561,0.037-1.293,0.856-0.608,1.645c0.929,1.068,2.635,1.889,2.987,2.895
	c0.625,1.786,0.892,1.718,2.266,0.787c0.764-0.518,1.919-0.076,2.647,0.62c0.231,0.222,0.091,0.834,0.12,1.267
	c-1.215-0.401-1.441,1.322-2.757,1.168c-1.216-0.142-2.599,0.234-3.611,1.161c0.157,0.605,0.603,0.548,0.971,0.618
	c1.311,0.249,2.888,0.126,3.867,0.833c1.204,0.868,1.877,1.622,2.933-0.02c0.421-0.654,0.623-0.292,1.079,0.275
	c0.814,1.014,2.276,1.277,3.452,0.948c3.71-1.042,7.383-1.679,11.245-0.856c1.56,0.332,2.084,1.136,2.142,2.57
	c0.108,2.687,0.102,5.394,0.455,8.05c0.225,1.68-0.187,1.993-1.782,1.961c-13.964-0.279-27.853,0.665-41.649,2.848
	c-8.755,1.385-17.396,3.278-25.894,5.833c-1.368,0.412-1.864,1.023-1.841,2.476c0.059,3.479-0.129,6.962-0.125,10.444
	c0.004,3.26-0.578,6.521-0.17,9.841c0.389-0.047,0.637-0.028,0.845-0.109c25.132-9.799,51.328-13.967,78.16-14.491
	c19.465-0.38,38.69,1.876,57.686,6.121c32.303,7.219,64.54,14.713,96.581,23.032c8.525,2.214,17.054,4.419,25.598,6.632
	C279.92,229.484,279.393,228.8,277.991,228.323z M183.506,155.14c0.263-0.115,1.141,0.378,1.137,0.58
	c-0.022,1.266-1.428,1.32-2.083,2.11C182.648,156.777,182.415,155.616,183.506,155.14z M178.992,177.558
	c-0.649,0.436-1.249,1.241-2.246,0.391C177.379,177.078,178.229,177.511,178.992,177.558z M177.183,114.671
	c0.36-0.036,0.747-0.128,1.053,0.397c-0.218,0.158-0.432,0.425-0.674,0.455c-0.26,0.032-0.673-0.079-0.795-0.271
	C176.574,114.947,176.83,114.707,177.183,114.671z M176.937,107.976c-0.538,0.535-1.004,1.264-2.025,0.772
	C175.319,107.609,176.198,107.978,176.937,107.976z M84.877,106.437c-0.962-0.221-0.666-0.998-0.944-1.952
	c1.117,0.427,1.622,0.873,1.643,1.633C85.586,106.504,85.159,106.501,84.877,106.437z M86.496,98.585
	c1.177-0.699,1.864-0.754,3.035-0.231C88.418,99.013,87.723,98.908,86.496,98.585z M89.371,163.961
	c-1.108,0.307-2.03-0.193-3.154-0.653c0.298-0.14,0.366-0.197,0.438-0.202c0.984-0.059,1.997-0.359,2.9,0.279
	C89.61,163.423,89.484,163.93,89.371,163.961z M129.902,73.161c0.439,0.317,1.12,0.849,0.747,1.225
	c-0.559,0.561-0.946-0.295-1.36-0.645c-0.78-0.198-1.678,0.292-2.577-0.523C127.868,72.571,128.874,72.674,129.902,73.161z
	 M130.717,160.117c-0.078,0.688-0.554,0.679-1.029,0.509c-1.225-0.435-2.672-0.159-4.005-1.356c1.58,0,2.877-0.018,4.173,0.009
	C130.36,159.288,130.79,159.48,130.717,160.117z M127.414,125.669c-0.088,0.74-0.619,0.543-1.064,0.486
	c-1.312-0.165-2.669-0.173-3.799-1.019c-1.884-0.44-3.361-2.506-5.654-1.389c-0.273,0.134-0.551-0.249-0.488-0.607
	c0.089-0.504-0.298-1.312,0.357-1.451c0.962-0.204,2.118-1.358,2.96,0.186c0.763,1.399,2.95,0.953,3.411,2.702
	c1.105,0.038,2.211,0.095,3.316,0.106C127.135,124.69,127.5,124.945,127.414,125.669z M106.583,129.979
	c-0.853,1.266-1.324-0.185-2.06-0.185c0.919-0.381,1.572-0.974,2.188-1.695c0.711-0.835,1.511-0.883,2.819-0.69
	c1.997,0.295,3.735,0.646,5.314,1.915c0.594,0.477,2.021-0.413,2.095,0.896c0.065,1.154-0.815,2.071-1.843,2.546
	c-1.034,0.478-2.186,0.702-3.453,1.088c0.581-1.185,1.371-2.02,1.451-3.319c-1.336-0.299-2.345,0.479-3.452,0.939
	c-0.926,0.385-2.076,0.987-1.982-0.956C107.702,129.654,106.874,129.546,106.583,129.979z M101.714,117.005
	c-0.377,0.546-0.89,0.776-1.227,0.09c-0.231-0.471,0.288-0.59,0.705-0.575c0.528-0.68,0.692-1.619,1.633-1.913
	c-0.548-0.853-1.532-0.128-1.954-0.974c1.359-0.391,1.625-2.763,3.672-1.89c0.366,0.156,1.21-0.105,0.893,0.626
	c-1.121,2.584,1.263,0.307,1.496,1.456C105.348,114.922,103.232,115.532,101.714,117.005z M102.195,161.704
	c-0.822,1.203-1.703,1.403-3.108,0.578C100.186,161.573,101.065,161.469,102.195,161.704z M98.425,98.301
	c0.061-1.066,1.202-0.917,1.369-1.669c0.071-0.323-0.103-0.904,0.536-0.735c0.25,0.065,0.442,0.412,0.621,0.659
	c0.29,0.4,0.207,0.737-0.259,0.934C100.002,97.781,99.444,98.431,98.425,98.301z M107.507,117.59
	c-0.149-0.417-0.704-0.928-0.218-1.246c0.479-0.314,0.519,0.325,0.611,0.672c1.759-0.337,3.873-1.771,5.066,0.389
	c0.594,1.076,0.888,1.033,1.948,0.754c-1.767,0.991-3.287,1.93-4.784,2.907c-0.434,0.283-0.753-0.128-0.894-0.48
	c-0.629-1.575-1.688-1.706-3.59-0.337C106.435,118.808,107.868,118.78,107.507,117.59z M104.354,121.761
	c0.411-0.422-0.076-1.506,0.91-1.377c0.912,0.118,1.464,0.998,1.811,1.669c0.525,1.02-0.816,1.271-1.122,1.045
	c-1.042-0.77-1.527-0.022-2.271,0.848C103.578,122.722,103.941,122.184,104.354,121.761z M111.608,144.139
	c0.322-0.278,1.048,0.019,1.697-0.218c0.727-0.265,2.211-0.666,2.188,1.254c-0.018,1.515,1.065,0.915,1.865,0.683
	c-0.351-0.8-0.123-1.212,0.783-1.187c0.996,0.027,2.194-0.294,2.498,1.129c0.203,0.954,0.674,1.668,1.545,0.98
	c2.446-1.932,2.23,0.09,2.483,1.649c-2.759-0.516-5.477-1.024-8.195-1.533c-1.077-0.183-2.15-0.398-3.233-0.54
	C112.033,146.199,111.459,145.518,111.608,144.139z M117.473,134.409c0.088-0.278,0.273-0.526,0.336-0.641
	c0.703,0.211,0.635,0.529,0.631,0.812c-0.005,0.349-0.143,0.58-0.54,0.484C117.562,134.984,117.365,134.753,117.473,134.409z
	 M125.825,83.862c-3.268,0.592-1.968-2.832-3.476-3.396C124.008,80.875,124.653,82.318,125.825,83.862z M114.382,97.76
	c0.751-0.271-0.14-1.257,0.855-1.57c0.128,2.361,2.286,1.63,3.574,2.341c1.064,0.191,2.124,0.499,3.195,0.546
	c1.374,0.062,1.862,0.615,1.438,2.1c-1.812-1.02-3.766-1.608-5.729-2.167c-1.339,0.388-0.491,1.515-0.765,2.263
	c0.2,0.123,0.398,0.349,0.6,0.35c0.74,0.004,1.435,0.268,1.094,1.044c-0.334,0.76-0.923,0.001-1.366-0.188
	c-0.351-0.149-0.655-0.406-0.98-0.615c-1.019-0.435-2.623,0.304-3.081-0.965C112.833,99.828,112.768,98.343,114.382,97.76z
	 M112.189,107.965c-0.117,0.498,0.914,1.139,0.171,1.354c-1.025,0.296-0.518-0.831-0.751-1.301
	c-1.981-0.916-4.062-1.637-5.907-2.958c1.996-1.046,2.679-1.025,4.184,0.371c0.648,0.602,1.422,0.635,2.161,0.839
	C113.705,106.729,112.864,107.341,112.189,107.965z M102.773,81.863c0.373,0.048,0.48,0.357,0.483,0.655
	c0.003,0.271-0.008,0.691-0.475,0.503c-0.248-0.1-0.432-0.357-0.596-0.501C102.245,82.059,102.386,81.814,102.773,81.863z
	 M106.086,89.731c-0.254,1.759,4.188,6.19,6.619,6.442c-0.514,1.595-2.122,2.693-3.109,2.142c-1.263-0.704-2.518-0.098-3.521-0.695
	c-1.086-0.646-2.06-1.581-1.199-3.437c-1.19,0.591-1.918,0.952-3.205,1.591c0.959-1.807,2.245-3.602-0.894-3.029
	c-0.684,0.51-1.349,1.047-2.057,1.52c-0.416,0.277-0.963,0.381-1.2-0.187c-0.242-0.581,0.147-0.938,0.716-0.83
	c0.926,0.175,1.402-0.551,2.073-0.886C101.949,90.844,103.618,89.392,106.086,89.731z M98.508,90.224
	c0.39-0.688,1.009-0.726,1.779-0.738c-0.172,1.159-0.925,1.061-1.565,1.103C98.654,90.592,98.471,90.29,98.508,90.224z
	 M95.984,87.41c-0.285-0.068-0.592-0.351-0.29-0.651c0.164-0.163,0.55-0.104,0.835-0.145c0.789,0.028,1.237-0.626,1.862-0.917
	c1.054-0.49,1.551,0.161,2.037,1.184c-0.923,0.098-1.681,0.178-2.438,0.259C97.367,87.558,96.674,87.577,95.984,87.41z
	 M132.154,182.751c-10.966-2.101-22.013-3.605-33.184-4.017c-1.619-0.061-2.07-0.614-2.023-2.233
	c0.126-4.402,0.043-8.812,0.043-13.174c1.148-0.137,1.704,0.463,1.754,0.762c0.435,2.562,2.362,1.788,3.923,1.888
	c1.072,0.068,2.174-0.242,3.207,0.445c0.464,0.31,1.321,0.126,1.303-0.538c-0.07-2.513,2.018-1.419,2.503-1.119
	c2.286,1.414,4.033,0.122,5.91-0.751c0.43-0.199,0.842-0.576,1.277-0.601c3.933-0.227,7.753-2.071,11.79-0.816
	c0.751,0.233,1.531,0.4,2.31,0.512c1.6,0.229,2.085,1.044,2.201,2.706c0.364,5.212,0.582,10.418,0.537,15.642
	C133.694,182.688,133.566,183.021,132.154,182.751z M165.872,106.557c0.908-0.355,1.347,0.858,1.728,1.609
	c0.279,0.552,0.505,1.168-0.092,1.714c-0.815,0.746-1.548,0.133-2.107-0.288c-1.075-0.81-2.239-1.375-4.108-1.76
	C163.075,106.796,164.556,107.072,165.872,106.557z M167.238,178.559c0.091,0.082,0.037,0.529-0.071,0.59
	c-0.562,0.312-1.038,0.112-1.59-0.588C166.207,178.423,166.748,178.114,167.238,178.559z M165.538,116.233
	c-0.163-0.261-0.017-0.575,0.441-0.624c0.428,0.066,0.798,0.331,0.903,0.799c0.068,0.301-0.134,0.658-0.504,0.516
	C166.052,116.798,165.722,116.528,165.538,116.233z M160.934,109.026c1.138-0.468,3.568,2.043,3.083,3.206
	c-0.574,1.374,1.621,1.229,0.994,2.524c0.113,0.479-0.459,0.354-0.605,0.255c-1.635-1.099-3.443-2.057-4.752-3.471
	C159.019,110.855,159.924,109.44,160.934,109.026z M159.854,140.732c0.201,0,0.401,0.124,0.648,0.207
	c-0.344,0.457-0.919,0.724-1.183,0.415C158.711,140.643,159.452,140.732,159.854,140.732z M159.811,120.267
	c0.864-0.352,0.377-2.096,1.691-1.668c0.18,0.058,1.261,0.939,1.119,1.205C162.024,120.926,160.829,120.064,159.811,120.267z
	 M159.746,162.233c0.938-0.167,1.339,0.393,1.714,1.342c-0.968-0.082-1.725-0.078-2.104-0.912
	C159.322,162.588,159.586,162.262,159.746,162.233z M160.236,138.974c0.721-0.172,1.354-0.102,1.916,0.366
	c0.508,0.05,1.107-0.188,1.449,0.383c0.084,0.14,0.025,0.546-0.063,0.58c-0.753,0.288-1.215-0.458-1.865-0.579
	C161.071,139.742,160.503,139.693,160.236,138.974z M147.24,116.759c2.394-1.102,4.684-2.333,6.473-4.362
	c0.752-0.853,1.846-1.171,3.067-1.106c0.347,0.125,1.08-0.328,1.141,0.328c0.123,1.355,1.068,1.604,2.083,1.846
	c0.903,0.215,0.805,1.112,1.009,1.687c0.227,0.643-0.547,0.775-1.06,0.962c-0.664,0.241-1.329,0.497-1.957,0.817
	c-1.609,0.82-3.397,2.364-3.444-1.258c-0.013-0.968-1.141-0.802-1.343-0.363c-1.183,2.572-4.154,1.055-5.736,2.627
	c-0.195,0.194-0.622,0.161-0.74-0.261C146.602,117.215,146.838,116.943,147.24,116.759z M156.377,124.475
	c-1.33,1.049-2.6,2.048-4.211,3.317C152.799,123.225,152.799,123.225,156.377,124.475z M145.508,157.812
	c0.221,0.209,0.48,0.888,0.135,1c-0.835,0.269-1.733,0.239-2.816-0.732C144,158.097,144.583,156.941,145.508,157.812z
	 M143.968,61.748c0.495-0.156,0.989-0.312,1.484-0.469c0.41-0.337,0.915-0.707,1.205,0.002c0.184,0.445-0.345,0.516-0.714,0.535
	c-0.334,0.127-0.667,0.254-1.001,0.381c-0.29,0.124-0.571,0.281-0.872,0.364c-0.465,0.128-1.153,0.776-1.363-0.014
	C142.443,61.549,143.378,61.773,143.968,61.748z M141.151,67.177c0.43-1.147,1.416-0.331,2.349-0.706
	c-0.418,1.199-1.022,1.69-2.009,1.431C141.317,67.855,141.082,67.36,141.151,67.177z M169.276,192.658
	c-9.216-2.751-18.357-5.764-27.747-7.9c-0.704-0.161-1.286-0.332-1.259-1.343c0.213-7.825,0.36-15.651,0.555-23.478
	c0.007-0.273,0.291-0.541,0.466-0.846c0.865,1.15,2.398,1.712,2.279,3.562c-0.051,0.794,1.056,0.482,1.583,0.422
	c3.048-0.354,5.32,0.807,7.55,2.892c1.479,1.383,3.712,1.96,5.606,2.898c0.502,0.106,0.28,1.794,1.503,0.526
	c0.953-0.989,1.913-0.429,2.316,0.871c0.478,0.171,0.918,0.066,1.308-0.222c0.393-0.288,0.739-0.265,0.898,0.19
	c0.118,0.341,0.183,0.773,0.075,1.102c-0.13,0.396-0.528,0.147-0.786,0.062c-0.721-0.241-1.568,0.033-2.203-0.544
	c-1.582-0.151-3.165-0.298-4.626-1.005c-2.664-0.308-5.326-0.634-7.994-0.908c-0.597-0.062-1.382-0.167-1.619,0.581
	c-0.2,0.633,1,0.438,0.896,1.157c-2.713,0.848-2.669,0.805-0.556,2.976c0.658,0.677,1.894,0.945,1.813,2.27
	c-0.022,0.367,0.356,0.479,0.701,0.341c0.217-0.087,0.443-0.193,0.611-0.351c0.833-0.775,1.645-0.164,2.413,0.089
	c0.233,0.076,0.302,0.655,0.445,1.005c-0.92,0.085-1.154,1.299-2.145,1.287c-0.869-0.012-1.73,0.029-2.529,0.468
	c-0.329,0.182-0.788,0.148-0.968,0.794c1.678,0.934,4.038,0.176,5.417,1.935c0.049,0.062,0.39,0.022,0.432-0.057
	c0.905-1.699,1.749-0.436,2.702-0.025c2.125,0.916,4.181-0.271,6.174-0.637c2.323-0.426,4.392-0.081,6.549,0.421
	c0.775,0.181,0.941,0.795,0.974,1.446c0.149,3.069,0.256,6.142,0.42,9.21C170.59,192.957,170.177,192.928,169.276,192.658z
	 M131.879,254.92c-1.019,0-2.433,0-4.171,0c1.148-0.9,1.282-1.873,1.268-3.023c-0.072-5.469-0.032-10.938-0.038-16.408
	c-0.001-1.033,0.393-2.178-0.77-3.008c1.791,0,3.583,0,5.489,0c-0.264,0.758-0.663,1.305-0.216,2.154
	c2.558,4.865,4.997,9.793,7.508,14.76c3.321-4.541,8.131-15.381,7.364-16.857c1.919,0,3.762,0,5.63,0
	c-1.161,2.016-1.146,20.295,0.049,22.369c-1.532,0-3.013,0-4.934,0c1.621-0.865,1.471-2.092,1.461-3.34
	c-0.04-4.895-0.017-9.787-0.017-15.463c-3.36,6.645-6.411,12.678-9.597,18.977c-3.117-6.221-6.147-12.27-9.178-18.318
	C131.842,242.836,130.777,248.879,131.879,254.92z M21.113,252.422c0.89-1.488,1.565-2.617,2.304-3.85
	c0.572,0.625,0.219,1.41,0.952,1.852c4.358,2.633,8.896,3.645,13.777,1.68c1.81-0.727,3.114-1.994,2.792-4.152
	c-0.336-2.244-2.121-2.783-4.012-2.947c-2.598-0.225-5.207-0.301-7.808-0.496c-0.858-0.064-1.722-0.236-2.554-0.465
	c-2.299-0.637-3.96-1.959-4.295-4.465c-0.355-2.658,0.748-4.689,3.074-5.893c4.815-2.49,9.76-2.18,14.695-0.33
	c1.052,0.395,2.027,1.078,3.328,0.477c-0.737,1.346-1.475,2.693-2.475,4.521c-0.215-1.164-0.125-1.977-0.985-2.365
	c-3.976-1.795-8.022-2.33-12.184-0.775c-1.651,0.617-3.028,1.822-2.892,3.646c0.141,1.879,1.702,2.777,3.512,2.939
	c3.068,0.277,6.15,0.41,9.217,0.697c3.582,0.336,5.627,1.932,6.092,4.602c0.531,3.039-1.156,6.008-4.437,7.277
	c-4.654,1.801-9.292,1.406-13.833-0.564C24.096,253.252,22.928,252.363,21.113,252.422z M79.889,239.83
	c0.038,5.068-0.741,10.049,0.037,15.043c-0.697,0-1.911,0-3.115,0c1.029-1.926,0.942-16.566-0.206-18.361c1.981,0,3.884,0,6.123,0
	c-1.263,0.998-1.01,1.797-0.128,2.756c3.423,3.727,6.764,7.525,10.154,11.32c0.837-2.842,0.501-12.584-0.494-13.988
	c0.901-0.439,1.837-0.107,2.737-0.137c0.413-0.014,0.959,0.236,0.653,0.852c-1.054,2.117-0.276,4.348-0.398,6.518
	c-0.157,2.762-0.01,5.537-0.057,8.307c-0.018,1.055-0.031,2.045,1.621,2.795c-2.169,0-3.663,0-5.439,0
	c1.147-0.953,0.65-1.682-0.057-2.459C87.497,248.273,83.698,244.047,79.889,239.83z M244.426,238.238
	c-4.366,0.334-8.33-0.453-12.307,0.562c0-0.824,0-1.963,0-2.561c5.281,0.416,10.643,0.045,16.501,0.24
	c-4.253,5.6-8.304,10.934-12.621,16.619c4.29-0.02,8.182,0.199,12.076-0.381c0.643,0.688,0.149,1.914,0.276,3.219
	c-0.897-0.965-1.929-0.963-3.015-0.953c-4.409,0.035-8.818,0.016-13.816,0.016C235.937,249.266,240.033,243.943,244.426,238.238z
	 M109.717,254.941c-1.483,0-2.741,0-4.002,0c-0.222-0.779,0.728-0.914,0.721-1.611c-0.046-4.674-0.028-9.348-0.027-14.021
	c0-0.396,0.002-0.955-0.473-0.906c-2.419,0.254-5.018-0.863-7.378,1.012c0-1.297,0-2.498,0-3.684
	c2.229,1.105,16.281,1.027,18.185-0.146c0,1.205,0,2.385,0,3.623c-2.322-1.486-4.846-0.617-7.251-0.822
	c-0.681-0.059-0.611,0.572-0.611,1.037c-0.002,4.594,0.028,9.189-0.026,13.785C108.845,253.979,109.566,254.203,109.717,254.941z
	 M223.918,254.918c-1.511,0-2.923,0-4.67,0c1.167-0.846,1.235-1.812,1.209-2.947c-0.093-4.041-0.076-8.084,0.006-12.125
	c0.021-1.104-0.14-1.662-1.371-1.49c-2.125,0.297-4.412-0.662-6.479,0.945c0-1.266,0-2.42-0.001-3.574
	c2.221,1.162,16.476,1.018,18.057-0.277c0,1.303,0,2.514,0,3.783c-2.285-1.611-4.767-0.635-7.114-0.805
	c-0.783-0.055-0.593,0.775-0.594,1.291c-0.007,4.359,0.041,8.719-0.034,13.076C222.912,253.705,223.513,254.164,223.918,254.918z
	 M73.085,254.928c-2.131,0-3.529,0-4.954,0c1.241-1.963,1.17-16.631-0.07-18.295c0.107-0.076,0.213-0.215,0.321-0.217
	c3.148-0.076,3.133-0.074,3.123,2.93c-0.014,4.277,0.021,8.555-0.016,12.832C71.481,253.193,71.457,254.15,73.085,254.928z
	 M210.387,254.949c-1.728,0-2.985,0-4.27,0c1.105-2.143,0.97-16.619-0.146-18.357c0.128-0.064,0.257-0.182,0.386-0.182
	c1.831-0.006,3.639-0.744,3.078,2.766c-0.678,4.248-0.116,8.689-0.173,13.045C209.25,253.219,209.409,254.061,210.387,254.949z
	 M188.264,254.936c-1.286,0-2.62,0-3.994,0c1.162-1.873,1.08-16.59-0.169-18.508c4.021,0,7.938-0.027,11.855,0.008
	c3.661,0.033,5.816,1.562,6.149,4.273c0.401,3.258-0.807,4.732-5.075,5.895c1.935,2.762,3.212,5.832,5.667,8.229
	c-0.129,0.045-0.319,0.172-0.504,0.164c-1.69-0.072-3.621,0.723-4.125-2.168c-0.261-1.502-1.278-2.768-2.189-4.172
	c-0.965-1.488-1.594-2.094-3.719-2.125c-1.439-0.021-4.027-0.574-4.302,0.693C187.345,249.596,187.182,252.279,188.264,254.936z
	 M196.367,244.686c1.921-0.062,3.423-0.756,3.577-2.938c0.129-1.836-1.392-3.244-3.77-3.379c-2.199-0.127-4.42,0.068-6.612-0.105
	c-1.717-0.137-2.035,0.445-1.97,2.068c0.179,4.449,0.093,4.453,4.523,4.363C193.533,244.695,194.951,244.734,196.367,244.686z
	 M169.356,255.473c-5.146-0.01-9.187-2.445-10.605-6.393c-2.522-7.021,3.003-13.539,11.136-13.131
	c7.543,0.377,12.041,5.695,10.376,12.268C179.118,252.732,174.985,255.482,169.356,255.473z M160.727,245.898
	c0.055,4.324,3.748,7.541,8.64,7.529c5.019-0.014,8.743-3.344,8.683-7.762c-0.062-4.428-3.655-7.617-8.526-7.566
	C164.17,238.158,160.668,241.262,160.727,245.898z M49.533,254.939c-1.418,0-2.821,0-4.279,0c2.757-3.078,8.55-16.795,7.788-18.486
	c1.67,0,3.315,0,4.959,0c-0.652,1.734,5.381,15.768,7.996,18.424c-1.565,0-3.02,0-4.445,0c0.842-2.361-0.952-5.092-3.44-5.1
	c-1.818-0.006-3.637,0-5.456,0C49.946,249.777,48.309,252.459,49.533,254.939z M51.458,247.764c2.789,0,5.26,0,7.863,0
	c-1.253-2.838-2.422-5.492-3.605-8.139c-0.057-0.127-0.234-0.197-0.449-0.369C53.997,242.092,52.742,244.895,51.458,247.764z
	 M129.412,261.447h0.9l1.811,4.25l1.776-4.25h0.904v6.52h-0.956v-4.064h-0.021l-1.322,3.131h-0.797l-1.322-3.131h-0.017v4.064
	h-0.956V261.447z M140.166,264.707c0-0.758,0.021-1.266,0.064-1.523c0.047-0.256,0.117-0.465,0.213-0.623
	c0.152-0.299,0.397-0.566,0.735-0.801c0.332-0.238,0.746-0.359,1.242-0.365c0.503,0.006,0.921,0.129,1.256,0.367
	c0.332,0.234,0.571,0.504,0.719,0.805c0.106,0.158,0.18,0.365,0.221,0.621c0.037,0.256,0.056,0.764,0.056,1.52
	c0,0.746-0.019,1.25-0.056,1.512c-0.041,0.262-0.114,0.473-0.221,0.631c-0.147,0.301-0.387,0.566-0.719,0.795
	c-0.335,0.24-0.753,0.365-1.256,0.377c-0.496-0.012-0.91-0.137-1.242-0.377c-0.338-0.229-0.583-0.494-0.735-0.795
	c-0.047-0.098-0.089-0.193-0.126-0.281c-0.034-0.094-0.063-0.209-0.087-0.35C140.187,265.957,140.166,265.453,140.166,264.707z
	 M141.122,264.707c0,0.643,0.023,1.078,0.069,1.305c0.04,0.227,0.123,0.41,0.247,0.551c0.102,0.135,0.234,0.244,0.399,0.328
	c0.162,0.098,0.355,0.146,0.581,0.146c0.229,0,0.427-0.049,0.595-0.146c0.159-0.084,0.286-0.193,0.382-0.328
	c0.124-0.141,0.209-0.324,0.256-0.551c0.043-0.227,0.064-0.662,0.064-1.305c0-0.641-0.021-1.08-0.064-1.312
	c-0.047-0.221-0.132-0.402-0.256-0.541c-0.096-0.135-0.223-0.248-0.382-0.338c-0.168-0.086-0.366-0.133-0.595-0.139
	c-0.226,0.006-0.419,0.053-0.581,0.139c-0.165,0.09-0.298,0.203-0.399,0.338c-0.124,0.139-0.207,0.32-0.247,0.541
	C141.145,263.627,141.122,264.066,141.122,264.707z M149.995,261.447h2.467c0.526,0,0.955,0.145,1.288,0.43
	c0.399,0.326,0.608,0.789,0.626,1.391c-0.012,0.885-0.418,1.488-1.22,1.807l1.462,2.893h-1.136l-1.308-2.785h-1.224v2.785h-0.956
	V261.447z M150.951,264.305h1.45c0.358-0.006,0.628-0.113,0.808-0.322c0.176-0.193,0.265-0.434,0.265-0.717
	c-0.006-0.34-0.111-0.588-0.317-0.74c-0.162-0.135-0.396-0.201-0.703-0.201h-1.502V264.305z M159.609,261.447h4.033v0.93h-3.077
	v1.865h2.627v0.877h-2.627v1.918h3.077v0.93h-4.033V261.447z M168.731,261.447h0.956v5.59h3.077v0.93h-4.033V261.447z
	 M177.638,264.707c0-0.758,0.021-1.266,0.064-1.523c0.047-0.256,0.117-0.465,0.213-0.623c0.152-0.299,0.397-0.566,0.735-0.801
	c0.332-0.238,0.746-0.359,1.242-0.365c0.503,0.006,0.921,0.129,1.256,0.367c0.332,0.234,0.571,0.504,0.719,0.805
	c0.106,0.158,0.18,0.365,0.221,0.621c0.037,0.256,0.056,0.764,0.056,1.52c0,0.746-0.019,1.25-0.056,1.512
	c-0.041,0.262-0.114,0.473-0.221,0.631c-0.147,0.301-0.387,0.566-0.719,0.795c-0.335,0.24-0.753,0.365-1.256,0.377
	c-0.496-0.012-0.91-0.137-1.242-0.377c-0.338-0.229-0.583-0.494-0.735-0.795c-0.047-0.098-0.089-0.193-0.126-0.281
	c-0.034-0.094-0.063-0.209-0.087-0.35C177.66,265.957,177.638,265.453,177.638,264.707z M178.594,264.707
	c0,0.643,0.023,1.078,0.069,1.305c0.04,0.227,0.123,0.41,0.247,0.551c0.102,0.135,0.234,0.244,0.399,0.328
	c0.162,0.098,0.355,0.146,0.581,0.146c0.229,0,0.427-0.049,0.595-0.146c0.159-0.084,0.286-0.193,0.382-0.328
	c0.124-0.141,0.209-0.324,0.256-0.551c0.043-0.227,0.064-0.662,0.064-1.305c0-0.641-0.021-1.08-0.064-1.312
	c-0.047-0.221-0.132-0.402-0.256-0.541c-0.096-0.135-0.223-0.248-0.382-0.338c-0.168-0.086-0.366-0.133-0.595-0.139
	c-0.226,0.006-0.419,0.053-0.581,0.139c-0.165,0.09-0.298,0.203-0.399,0.338c-0.124,0.139-0.207,0.32-0.247,0.541
	C178.618,263.627,178.594,264.066,178.594,264.707z M187.544,266.389c0.503,0.426,1.101,0.643,1.794,0.648
	c0.821-0.012,1.237-0.314,1.249-0.908c0.006-0.486-0.269-0.779-0.823-0.877c-0.255-0.035-0.533-0.076-0.836-0.121
	c-0.543-0.092-0.956-0.299-1.239-0.621c-0.292-0.332-0.438-0.734-0.438-1.209c0-0.57,0.183-1.029,0.55-1.379
	c0.354-0.346,0.857-0.521,1.51-0.527c0.785,0.018,1.467,0.242,2.047,0.674l-0.533,0.811c-0.474-0.322-0.995-0.488-1.564-0.502
	c-0.295,0-0.54,0.076-0.736,0.229c-0.205,0.158-0.311,0.395-0.316,0.707c0,0.188,0.07,0.359,0.212,0.51
	c0.142,0.156,0.368,0.264,0.681,0.322c0.173,0.031,0.41,0.064,0.71,0.104c0.592,0.084,1.029,0.303,1.312,0.658
	c0.28,0.35,0.421,0.754,0.421,1.217c-0.032,1.248-0.771,1.881-2.216,1.898c-0.936,0-1.738-0.297-2.411-0.891L187.544,266.389z
	 M202.974,261.447h0.9l1.811,4.25l1.776-4.25h0.904v6.52h-0.956v-4.064h-0.021l-1.322,3.131h-0.797l-1.322-3.131h-0.017v4.064
	h-0.956V261.447z M213.944,261.447h4.033v0.93H214.9v1.865h2.627v0.877H214.9v1.918h3.077v0.93h-4.033V261.447z M216.232,259.793
	h1.189l-1.259,1.332h-0.743L216.232,259.793z M224.773,265.541l-1.385,2.426h-1.078l1.931-3.34l-1.81-3.18h1.082l1.26,2.262
	l1.26-2.262h1.078l-1.864,3.18l1.99,3.34h-1.083L224.773,265.541z M232.004,261.447h0.956v6.52h-0.956V261.447z M242.653,266.146
	c-0.139,0.604-0.403,1.068-0.793,1.393c-0.401,0.32-0.876,0.482-1.425,0.482c-0.497-0.012-0.911-0.137-1.243-0.377
	c-0.338-0.229-0.583-0.494-0.735-0.795c-0.047-0.098-0.089-0.193-0.126-0.281c-0.034-0.094-0.063-0.209-0.087-0.35
	c-0.043-0.262-0.064-0.766-0.064-1.512c0-0.756,0.021-1.264,0.064-1.52c0.047-0.256,0.117-0.463,0.213-0.621
	c0.152-0.301,0.398-0.57,0.736-0.805c0.332-0.238,0.746-0.361,1.242-0.367c0.609,0.006,1.106,0.191,1.49,0.559
	c0.384,0.369,0.627,0.826,0.728,1.369h-1.015c-0.078-0.262-0.22-0.486-0.426-0.672c-0.214-0.176-0.474-0.268-0.78-0.273
	c-0.226,0.006-0.419,0.053-0.581,0.139c-0.165,0.09-0.298,0.203-0.399,0.338c-0.124,0.139-0.207,0.32-0.247,0.541
	c-0.046,0.232-0.069,0.672-0.069,1.312c0,0.643,0.023,1.078,0.069,1.305c0.04,0.227,0.123,0.41,0.247,0.551
	c0.102,0.135,0.234,0.244,0.399,0.328c0.162,0.098,0.355,0.146,0.582,0.146c0.538,0,0.939-0.297,1.206-0.891H242.653z
	 M247.302,264.707c0-0.758,0.021-1.266,0.064-1.523c0.047-0.256,0.117-0.465,0.213-0.623c0.152-0.299,0.397-0.566,0.735-0.801
	c0.332-0.238,0.746-0.359,1.242-0.365c0.503,0.006,0.921,0.129,1.256,0.367c0.332,0.234,0.571,0.504,0.719,0.805
	c0.106,0.158,0.18,0.365,0.221,0.621c0.037,0.256,0.056,0.764,0.056,1.52c0,0.746-0.019,1.25-0.056,1.512
	c-0.041,0.262-0.114,0.473-0.221,0.631c-0.147,0.301-0.387,0.566-0.719,0.795c-0.335,0.24-0.753,0.365-1.256,0.377
	c-0.496-0.012-0.91-0.137-1.242-0.377c-0.338-0.229-0.583-0.494-0.735-0.795c-0.047-0.098-0.089-0.193-0.126-0.281
	c-0.034-0.094-0.063-0.209-0.087-0.35C247.324,265.957,247.302,265.453,247.302,264.707z M248.258,264.707
	c0,0.643,0.023,1.078,0.069,1.305c0.04,0.227,0.123,0.41,0.247,0.551c0.102,0.135,0.234,0.244,0.399,0.328
	c0.162,0.098,0.355,0.146,0.581,0.146c0.229,0,0.427-0.049,0.595-0.146c0.159-0.084,0.286-0.193,0.382-0.328
	c0.124-0.141,0.209-0.324,0.256-0.551c0.043-0.227,0.064-0.662,0.064-1.305c0-0.641-0.021-1.08-0.064-1.312
	c-0.047-0.221-0.132-0.402-0.256-0.541c-0.096-0.135-0.223-0.248-0.382-0.338c-0.168-0.086-0.366-0.133-0.595-0.139
	c-0.226,0.006-0.419,0.053-0.581,0.139c-0.165,0.09-0.298,0.203-0.399,0.338c-0.124,0.139-0.207,0.32-0.247,0.541
	C248.282,263.627,248.258,264.066,248.258,264.707z"/>
</svg>
