<?xml version="1.0" encoding="utf-8"?>
<!-- Generator: Adobe Illustrator 16.0.4, SVG Export Plug-In . SVG Version: 6.00 Build 0)  -->
<svg version="1.2" baseProfile="tiny" id="Capa_1" xmlns="http://www.w3.org/2000/svg" xmlns:xlink="http://www.w3.org/1999/xlink"
	 x="0px" y="0px" width="300px" height="300px" viewBox="0 0 300 300" xml:space="preserve">
<g>
	<path fill-rule="evenodd" fill="#E3690C" d="M287.509,150.015c-0.008,16.534-13.43,29.938-29.965,29.921
		c-16.535-0.016-29.934-13.446-29.906-29.979c0.025-16.535,13.467-29.93,29.994-29.893
		C274.148,120.103,287.517,133.504,287.509,150.015z"/>
	<path fill-rule="evenodd" fill="#E3690C" d="M42.218,135.664c-0.242-0.162-0.484-0.324-0.727-0.486
		c-0.135-0.117-0.318-0.148-0.465-0.251c-1.617-0.953-3.381-1.479-5.221-1.766c-3.273-0.509-6.443-0.281-9.286,1.591
		c-2.069,1.361-3.519,3.246-4.376,5.605c-0.998,2.744-1.362,5.57-1.338,8.467c0.014,1.771-0.18,3.568,0.12,5.311
		c0.517,2.995,1.188,5.977,3.124,8.451c1.645,2.104,3.768,3.451,6.434,3.921c4.988,0.88,9.436-0.434,13.502-3.29
		c0.639-0.449,1.211-1,1.791-1.528c0.297-0.272,0.494-0.263,0.723,0.071c0.648,0.947,1.309,1.885,1.969,2.821
		c0.217,0.307,0.129,0.528-0.104,0.796c-1.691,1.943-3.82,3.223-6.17,4.203c-1.582,0.66-3.16,1.371-4.867,1.547
		c-2.588,0.265-5.211,0.299-7.787,0.041c-3.223-0.322-6.27-1.404-8.938-3.305c-2.343-1.67-4.195-3.785-5.488-6.391
		c-1.358-2.735-2.132-5.608-2.416-8.646c-0.181-1.93-0.285-3.849-0.139-5.782c0.244-3.201,0.941-6.275,2.523-9.102
		c1.871-3.34,4.579-5.743,8.055-7.358c1.828-0.85,3.707-1.502,5.691-1.705c2.424-0.249,4.863-0.232,7.295,0.079
		c2.924,0.375,5.596,1.437,8.098,2.942c1.227,0.737,2.334,1.644,3.336,2.673c0.293,0.302,0.318,0.533,0.059,0.877
		c-0.666,0.883-1.275,1.807-1.998,2.646c-0.557,0.303-0.701-0.26-1.008-0.482c-0.518-0.446-1.035-0.893-1.551-1.338
		C42.787,136.064,42.552,135.797,42.218,135.664z"/>
	<path fill-rule="evenodd" fill="#0B2B7A" d="M107.052,173.158c-0.49-0.261-0.604-0.68-0.604-1.211
		c0.014-6.228,0.004-12.454,0.012-18.682c0.002-1.146-0.207-2.232-0.688-3.275c-0.73-1.586-2.059-2.33-3.699-2.384
		c-2.637-0.087-5.279-0.007-7.918-0.027c-0.545-0.005-0.691,0.172-0.688,0.712c0.043,6.81,0.062,13.619,0.088,20.43
		c0.004,1.079,0.002,1.079-1.082,1.079c-1.975,0-3.951-0.01-5.926,0.008c-0.408,0.003-0.557-0.099-0.557-0.535
		c0.012-8.263,0.012-16.524,0.002-24.787c0-0.397,0.115-0.497,0.512-0.511c3.305-0.117,6.607-0.006,9.912-0.023
		c2.137-0.012,4.271,0.006,6.408-0.022c2.088-0.028,4.076,0.374,5.945,1.313c2.982,1.498,4.717,3.903,5.193,7.211
		c0.064,0.217,0.033,0.439,0.033,0.659c0.002,6.114-0.039,12.228,0.037,18.34c0.016,1.169-0.514,1.821-1.297,2.44
		c-0.203,0.161-0.412,0.314-0.602,0.495c-0.367,0.442-0.789,0.83-1.248,1.171c-0.293,0.217-0.619,0.381-0.945,0.033
		c-0.395-0.33-0.711-0.751-1.182-0.991c-0.094-0.068-0.189-0.137-0.283-0.204C108.068,173.908,107.554,173.539,107.052,173.158z"/>
	<path fill-rule="evenodd" fill="#0B2B7A" d="M218.078,147.525c-2.93-1.336-6.02-1.721-9.197-1.477
		c-0.791,0.061-1.588,0.107-2.32,0.561c-1.809,1.115-1.934,3.439-0.197,4.655c1.771,1.24,3.812,1.773,5.893,2.181
		c1.932,0.38,3.916,0.531,5.773,1.229c2.273,0.854,4.506,1.809,6.004,3.857c1.324,1.809,1.566,3.785,0.734,5.879
		c-0.795,2.005-2.215,3.301-4.148,4.312c-2.447,1.283-4.984,1.605-7.645,1.559c-2.033-0.037-4.084,0.189-6.1-0.131
		c-2.205-0.351-4.379-0.908-6.467-1.707c-1.25-0.479-2.381-1.25-3.633-1.753c-0.248-0.101-0.246-0.24-0.104-0.412
		c0.787-0.945,1.299-2.085,2.119-3.007c0.166-0.188,0.311-0.295,0.561-0.133c1.562,1.016,3.295,1.641,5.039,2.263
		c3.143,1.122,6.365,1.073,9.604,0.716c1.102-0.121,2.164-0.473,2.744-1.609c0.447-0.881,0.295-2.97-0.979-3.643
		c-1.887-0.996-3.898-1.6-5.959-2.091c-2.074-0.494-4.18-0.866-6.201-1.563c-0.818-0.281-1.615-0.605-2.393-0.997
		c-2.797-1.41-4.189-4.465-3.744-7.384c0.375-2.459,2.01-4.055,4.402-4.914c1.734-0.623,3.49-1.063,5.312-1.279
		c1.625-0.193,3.258-0.135,4.887-0.104c2.682,0.049,5.277,0.586,7.793,1.488c1.135,0.408,2.234,0.916,3.352,1.372
		c0.266,0.108,0.318,0.231,0.17,0.501c-0.592,1.075-1.387,2.029-1.871,3.17c-0.154,0.363-0.396,0.178-0.586,0.035
		c-0.727-0.549-1.559-0.913-2.354-1.34C218.429,147.629,218.242,147.6,218.078,147.525z"/>
	<path fill-rule="evenodd" fill="#0B2B7A" d="M159.244,152.17c0,5.561-0.008,11.121,0.012,16.682
		c0.004,0.553-0.139,0.705-0.693,0.695c-1.934-0.036-3.869-0.033-5.803-0.002c-0.51,0.008-0.623-0.139-0.623-0.635
		c0.021-10.678,0.023-21.355,0.029-32.033c0-0.041-0.004-0.08,0-0.121c0.039-0.637-0.281-1.486,0.121-1.852
		c0.348-0.315,1.184-0.104,1.805-0.106c1.512-0.007,3.023,0.021,4.533-0.015c0.516-0.012,0.631,0.151,0.629,0.645
		C159.238,141.008,159.244,146.589,159.244,152.17z"/>
	<path fill-rule="evenodd" fill="#566CA2" d="M112.136,174.388c0.016-0.286,0.248-0.372,0.441-0.513
		c0.781-0.575,1.402-1.145,1.391-2.316c-0.066-6.228-0.033-12.457-0.031-18.686c0-0.141,0.018-0.28,0.027-0.42
		c0.164,0.26,0.09,0.549,0.09,0.824c0.006,6.305,0.004,12.607,0.016,18.912c0,0.37-0.109,0.641-0.359,0.913
		C113.246,173.61,112.73,174.043,112.136,174.388z"/>
	<path fill-rule="evenodd" fill="#6479AB" d="M107.052,173.158c0.609,0.258,1.148,0.597,1.426,1.238
		C107.97,174.021,107.443,173.668,107.052,173.158z"/>
	<path fill-rule="evenodd" fill="#49629C" d="M169.08,145.68c-0.355,0.5-0.803,0.902-1.312,1.237
		C168.052,146.344,168.552,145.996,169.08,145.68z"/>
	<path fill-rule="evenodd" fill="#6A7EAE" d="M108.761,174.601c0.582,0.107,0.889,0.54,1.182,0.991
		C109.474,175.35,109.119,174.976,108.761,174.601z"/>
	<path fill-rule="evenodd" fill="#EA8F4B" d="M44.611,137.615c0.354,0.126,0.537,0.603,1.008,0.482
		c-0.094,0.311-0.299,0.275-0.492,0.129C44.916,138.063,44.693,137.895,44.611,137.615z"/>
	<path fill-rule="evenodd" fill="#EB9556" d="M42.218,135.664c0.436-0.009,0.633,0.309,0.842,0.613
		C42.718,136.156,42.46,135.922,42.218,135.664z"/>
	<path fill-rule="evenodd" fill="#6177A9" d="M56.845,148.979c0.188-0.127,0.361-0.285,0.615-0.244
		C57.285,148.889,57.167,149.195,56.845,148.979z"/>
	<path fill-rule="evenodd" fill="#5F76A8" d="M68.822,147.039c0.281-0.002,0.514,0.072,0.592,0.383
		C69.185,147.343,68.943,147.283,68.822,147.039z"/>
	<path fill-rule="evenodd" fill="#4B649D" d="M189.41,163.128c-0.127,0.075-0.254,0.149-0.381,0.224
		C189.093,163.17,189.14,162.958,189.41,163.128z"/>
	<path fill-rule="evenodd" fill="#EC9B5F" d="M41.027,134.927c0.193,0.016,0.387,0.026,0.465,0.251
		C41.306,135.15,41.134,135.099,41.027,134.927z"/>
	<path fill-rule="evenodd" fill="#7084B1" d="M218.078,147.525c0.197,0.006,0.406-0.012,0.49,0.234
		C218.376,147.738,218.185,147.719,218.078,147.525z"/>
	<path fill-rule="evenodd" fill="#0B2B7A" d="M237.558,140.432c-0.582-0.01-1.166-0.033-1.748-0.021
		c-0.316,0.006-0.416-0.107-0.414-0.42c0.014-1.389,0.02-2.777-0.002-4.166c-0.006-0.396,0.193-0.402,0.486-0.402
		c1.689,0,3.381-0.01,5.07-0.018c0.248-0.127,0.51-0.189,0.791-0.155c3.873-0.042,7.748-0.016,11.621-0.017
		c0.881,0.066,1.762-0.027,2.643,0.004c0.404,0.037,0.811,0.018,1.215,0.016c0.111-0.015,0.221-0.014,0.332-0.002
		c0.404,0.009,0.811,0.02,1.217-0.012c0.92-0.026,1.84,0.049,2.762-0.004c1.947-0.013,3.895-0.012,5.842-0.002
		c0.838,0.004,0.971,0.144,0.979,0.994c0.01,1.004,0.01,2.008,0,3.012c-0.051,0.271,0.027,0.551-0.033,0.822
		c-0.043,0.342-0.271,0.467-0.582,0.498c-0.24,0.023-0.482,0.02-0.723,0.02c-3.234,0-6.469,0-9.703,0
		c-0.199,0-0.4,0.008-0.602,0.005c-0.408-0.007-0.578,0.196-0.572,0.593c0.004,0.24,0.012,0.482-0.018,0.723
		c0.008,0.191,0.01,0.384-0.002,0.576c0.023,1.305,0.027,2.609,0,3.914c0.018,0.23,0,0.461,0.002,0.692
		c0.025,1.942,0.027,3.884,0,5.825c-0.004,0.231,0.018,0.463-0.002,0.693c0.023,1.305,0.027,2.609,0,3.914
		c0.01,0.192,0.01,0.385,0,0.578c0.029,2.145,0.029,4.289,0.002,6.434c-0.014,0.197,0.033,0.395,0,0.592
		c0.037,0.904,0.033,1.811,0.01,2.715c-0.018,0.636-0.166,0.795-0.799,0.801c-2.334,0.023-4.668,0.023-7.002,0
		c-0.645-0.006-0.799-0.172-0.803-0.86c-0.01-2.052-0.031-4.104,0.01-6.155c0.018-0.236-0.035-0.473,0-0.709
		c-0.035-6.281-0.006-12.562-0.016-18.844c0-0.08,0-0.161,0-0.242c0.008-1.402-0.023-1.212-1.199-1.246
		c-0.232-0.041-0.469,0.026-0.701-0.012c-2.461,0.028-4.924,0.016-7.387,0.01C238.005,140.539,237.761,140.585,237.558,140.432z"/>
	<path fill-rule="evenodd" fill="#0B2B7A" d="M277.716,158.541c-0.01,3.062-0.031,6.125-0.016,9.188
		c0.002,0.533-0.107,0.721-0.686,0.709c-1.832-0.041-3.668-0.049-5.5,0.002c-0.646,0.019-0.936-0.131-0.838-0.796
		c-0.188-0.194-0.135-0.448-0.168-0.682c-0.01-3.118-0.025-6.237,0.008-9.355c-0.049-0.391,0.049-0.782-0.012-1.173
		c-0.008-4.285-0.012-8.569-0.002-12.854c0.064-0.391-0.031-0.783,0.014-1.174c-0.031-2.03-0.016-4.061-0.014-6.092
		c0-0.962,0.117-1.074,1.072-1.084c0.521-0.006,1.045-0.01,1.566,0.02c0.277-0.03,0.541,0.014,0.783,0.156
		c1.045,0.006,2.092,0.039,3.135,0.008c0.488-0.016,0.648,0.103,0.643,0.619c-0.025,1.809,0.004,3.617,0.014,5.425
		c0.154,0.489,0.215,0.989,0.176,1.501c0.025,4.692,0.031,9.385,0,14.076C277.933,157.549,277.869,158.051,277.716,158.541z"/>
	<path fill-rule="evenodd" fill="#FEFDFD" d="M270.677,166.993c0,0.217,0,0.434,0,0.65c-2.928,2.128-6.146,3.567-9.742,4.101
		c-6.451,0.957-12.283-0.537-17.361-4.632c-4.684-3.774-7.352-8.728-8.045-14.7c-0.484-4.177,0.246-8.176,2.031-11.98
		c0.197,0,0.395,0,0.59,0c0.064,0.41-0.172,0.74-0.322,1.081c-0.928,2.106-1.488,4.314-1.654,6.597
		c-0.26,3.586,0.156,7.086,1.678,10.393c3.029,6.589,8.053,10.786,15.145,12.348c5.605,1.235,10.887,0.223,15.793-2.747
		c0.432-0.261,0.82-0.585,1.238-0.868C270.222,167.102,270.4,166.914,270.677,166.993z"/>
	<path fill-rule="evenodd" fill="#FEFDFD" d="M273.925,135.406c-0.232,0-0.467,0-0.699,0c-0.768-0.397-1.264-1.109-1.91-1.649
		c-3.254-2.718-6.953-4.44-11.164-4.926c-6.16-0.71-11.68,0.872-16.479,4.851c-0.467,0.387-0.902,0.803-1.326,1.232
		c-0.199,0.203-0.408,0.389-0.68,0.491c-0.238,0-0.477,0-0.717-0.001c3.068-3.504,6.877-5.852,11.41-6.828
		c8.295-1.787,15.434,0.438,21.346,6.545C273.789,135.207,273.853,135.311,273.925,135.406z"/>
	<path fill-rule="evenodd" fill="#FEFDFC" d="M277.714,142.902c0-0.481,0-0.963,0.002-1.443c0.826,1.673,1.262,3.467,1.527,5.297
		c0.57,3.92,0.131,7.735-1.324,11.427c-0.049,0.127-0.135,0.239-0.203,0.358c-0.002-0.479-0.002-0.959-0.002-1.439
		c0.328-1.652,0.812-3.271,0.951-4.963c0.209-2.568,0.076-5.104-0.596-7.595C277.921,144,277.865,143.441,277.714,142.902z"/>
	<path fill-rule="evenodd" fill="#0B2B7A" d="M79.701,153c0.014-1.86-0.598-3.518-1.584-4.98c-1.379-2.047-3.383-3.402-5.666-4.335
		c-2.158-0.882-4.418-1.01-6.707-0.896c-0.881,0.043-1.764-0.039-2.648,0.115c-1.41,0.246-2.775,0.629-4.135,1.066
		c-1.363,0.438-2.643,1.065-3.939,1.656c-0.326,0.148-0.432,0.4-0.205,0.674c0.715,0.863,1.229,1.879,2.029,2.678
		c0.242,0.015,0.406-0.173,0.615-0.244c0.596-0.497,1.33-0.75,2.021-1.041c2.432-1.023,4.984-1.343,7.604-1.118
		c0.6,0.052,1.186,0.208,1.736,0.464c0.199,0.123,0.445,0.178,0.592,0.383c1.826,1.318,2.572,3.209,2.83,5.355
		c0.053,0.447-0.09,0.62-0.59,0.616c-3.246-0.024-6.49,0.015-9.734-0.021c-2.557-0.029-4.938,0.48-7.035,2.005
		c-1.457,1.059-2.586,2.412-2.994,4.171c-0.438,1.878-0.492,3.783,0.541,5.562c0.629,1.083,1.234,2.138,2.359,2.835
		c1.709,1.061,3.535,1.611,5.537,1.611c6.248,0.002,12.496-0.006,18.744,0.015c0.541,0.002,0.664-0.142,0.66-0.67
		C79.701,163.602,79.666,158.301,79.701,153z M72.111,165.018c0.004,0.863-0.02,0.954-0.871,0.961
		c-2.842,0.025-5.684,0.095-8.521,0.025c-1.299-0.032-2.729-1.045-3.105-2.392c-0.059-0.21-0.131-0.417-0.197-0.624
		c-0.168-1.435-0.277-2.858,0.705-4.095c1.066-1.228,2.443-1.667,4.029-1.657c2.479,0.018,4.957,0.004,7.434-0.02
		c0.471-0.004,0.609,0.207,0.582,0.617C72.001,160.228,72.103,162.623,72.111,165.018z"/>
	<path fill-rule="evenodd" fill="#586EA4" d="M60.121,158.894c-0.832,1.262-0.816,2.67-0.705,4.095
		c-0.266-1.241-0.336-2.471,0.32-3.623C59.832,159.199,59.804,158.893,60.121,158.894z"/>
	<path fill-rule="evenodd" fill="#0B2B7A" d="M145.931,153.936c0.047-2.764-1.023-5.033-2.742-7.006
		c-2.182-2.505-5.076-3.809-8.354-4.093c-2.77-0.241-5.553-0.202-8.246,0.696c-1.869,0.624-3.713,1.309-5.453,2.246
		c-0.295,0.158-0.305,0.301-0.115,0.554c0.363,0.481,0.738,0.96,1.043,1.478c0.723,1.229,0.709,1.24,1.967,0.551
		c1.367-0.752,2.824-1.262,4.348-1.57c1.412-0.287,2.852-0.217,4.273-0.159c1.832,0.073,3.502,0.597,4.463,2.366
		c0.561,1.029,0.971,2.115,1.186,3.271c0.199,1.073,0.199,1.072-0.85,1.083c-3.264,0.035-6.527,0.098-9.789,0.097
		c-2.496-0.001-4.764,0.651-6.773,2.137c-0.986,0.728-1.818,1.636-2.314,2.746c-0.75,1.678-0.818,3.472-0.51,5.27
		c0.121,0.711,0.262,1.45,0.654,2.06c1.541,2.395,3.777,3.688,6.605,3.859c3.318,0.202,6.645,0.002,9.969,0.038
		c3.344,0,6.689-0.011,10.035,0.013c0.514,0.003,0.631-0.154,0.629-0.647C145.925,163.927,145.849,158.93,145.931,153.936z
		 M137.431,165c-1.35,0-2.699,0-4.049,0c-1.568,0-3.145,0.664-4.707,0.447c-1.719-0.238-2.787-1.021-3.197-2.723
		c-0.551-2.279,0.32-4.108,2.389-5.195c0.521-0.274,1.086-0.352,1.682-0.351c2.68,0.003,5.359,0.041,8.039,0.025
		c0.457-0.003,0.631,0.123,0.629,0.626c-0.016,2.437,0.012,4.384,0.023,6.822C138.244,165.432,138.187,165,137.431,165z"/>
	<path fill-rule="evenodd" fill="#0B2B7A" d="M193.294,156.786c-0.045-1.386,0.129-2.78-0.143-4.159
		c-0.482-2.434-1.547-4.581-3.314-6.317c-2.037-2.001-4.635-2.911-7.363-3.509c-1.834-0.401-3.695-0.275-5.543-0.232
		c-2.988,0.068-5.617,1.107-7.852,3.111c-0.426,0.425-0.938,0.758-1.312,1.237c-0.057,0.056-0.119,0.108-0.17,0.17
		c-1.725,2.046-2.67,4.46-3.057,7.054c-0.283,1.905-0.35,3.856,0.188,5.759c0.654,2.326,1.877,4.351,3.367,6.226
		c0.322,0.407,0.691,0.792,1.145,1.066c1.123,0.678,2.305,1.242,3.531,1.701c2.334,0.873,4.705,1.463,7.24,1.412
		c2.535-0.049,4.947-0.623,7.328-1.38c1.488-0.472,2.826-1.267,4.051-2.239c0.139-0.108,0.396-0.205,0.207-0.473
		c-0.729-1.028-1.457-2.057-2.188-3.085c-0.221-0.086-0.244,0.166-0.381,0.224c-0.629,0.818-1.471,1.367-2.375,1.822
		c-1.74,0.879-3.617,1.148-5.543,1.271c-4.084,0.262-7.77-2.461-8.576-6.721c-0.084-0.446,0.006-0.562,0.447-0.558
		c1.914,0.017,3.83,0.007,5.744,0.007c4.656,0,9.312-0.006,13.971,0.01c0.449,0.001,0.65-0.08,0.611-0.584
		C193.261,157.998,193.314,157.391,193.294,156.786z M185.341,154.678c-1.852,0.023-3.705-0.678-5.557-0.678
		c-0.121,0-0.242,0-0.361,0c0,0-0.002,0.7-0.002,0.688c-2.152,0-4.305,0.356-6.455,0.371c-0.402,0.002-0.49,0.043-0.492-0.342
		c-0.012-1.637,0.125-3.151,0.65-4.721c0.633-1.896,2.053-2.901,3.818-3.517c2.848-0.992,6.191,0.221,7.658,2.384
		c0.551,0.813,0.803,1.728,0.912,2.667c0.135,1.174,0.158,2.002,0.254,3.182C185.798,155.091,185.537,154.675,185.341,154.678z"/>
	<path fill-rule="evenodd" fill="#E3690C" d="M270.677,166.993c-2.346,1.75-4.902,3.078-7.746,3.813
		c-12.27,3.174-24.205-4.654-26.588-16.562c-0.959-4.798-0.332-9.409,1.807-13.812c2.484-0.001,4.967-0.002,7.451-0.004
		c0.098,0.266-0.115,0.41-0.238,0.578c-1.643,2.225-2.65,4.719-2.883,7.461c-0.381,4.491,0.859,8.48,3.998,11.807
		c0.41,0.436,0.932,0.773,1.199,1.338c0.006,2.074,0.021,4.148,0.01,6.224c-0.002,0.415,0.055,0.604,0.547,0.6
		c2.398-0.027,4.795-0.022,7.193-0.003c0.42,0.003,0.553-0.115,0.543-0.541c-0.023-0.925,0.006-1.852,0.014-2.777
		c0.506-0.199,1.033-0.08,1.549-0.085c2.1-0.021,4.111-0.429,6.027-1.292c2.654-1.193,4.793-2.99,6.408-5.414
		c0.191-0.285,0.285-0.684,0.709-0.762C270.677,160.705,270.677,163.85,270.677,166.993z"/>
	<path fill-rule="evenodd" fill="#E3690C" d="M270.677,143.559c0,4.295,0,8.591,0.002,12.887c-0.178,0.787-0.625,1.438-1.084,2.072
		c-2.445,3.373-5.719,5.443-9.834,6.139c-1.01,0.172-2.039,0.247-3.068,0.197c-0.264-0.014-0.531-0.008-0.707-0.26
		c0.002-2.184,0.002-4.365,0.002-6.547c0.197-0.182,0.422-0.07,0.635-0.057c3.02,0.185,5.498-0.846,7.311-3.303
		c2.744-3.719,1.664-9.098-2.285-11.508c-1.57-0.957-3.268-1.327-5.092-1.142c-0.197,0.021-0.4,0.091-0.568-0.085
		c-0.113-1.549-0.113-1.549,1.41-1.549c3.396,0,6.793-0.001,10.189,0.001c0.281,0,0.586,0.054,0.572-0.382
		c0.105-0.049,0.205-0.016,0.271,0.059C269.365,141.121,270.238,142.2,270.677,143.559z"/>
	<path fill-rule="evenodd" fill="#E3690C" d="M241.667,135.405c2.961-3.255,6.596-5.427,10.877-6.341
		c7.982-1.703,14.875,0.427,20.617,6.242c0.027,0.027,0.043,0.066,0.064,0.1c-0.662,0.006-1.328,0.049-1.986,0.008
		c-0.477-0.03-0.557,0.145-0.553,0.576c0.016,2.148-0.004,4.299-0.01,6.448c-0.203,0.021-0.279-0.14-0.363-0.268
		c-0.574-0.899-1.191-1.764-1.941-2.527c-0.102-0.103-0.131-0.248-0.211-0.363c-0.01-1.044-0.055-2.09-0.016-3.132
		c0.021-0.562-0.1-0.752-0.709-0.74c-1.967,0.039-3.938,0.006-5.906-0.001c-2.715-0.499-5.432-0.557-8.148-0.001
		C249.478,135.406,245.574,135.405,241.667,135.405z"/>
	<path fill-rule="evenodd" fill="#E3690C" d="M255.986,146.46c0-1.333,0-2.667,0-4.001c0.547-0.313,1.15-0.328,1.748-0.291
		c3.5,0.221,6.213,2.375,7.227,5.721c1.34,4.416-1.805,9.249-6.389,9.84c-0.725,0.094-1.439,0.168-2.158,0
		c-0.156-0.037-0.324-0.038-0.428-0.188c0-1.333,0.002-2.666,0.002-3.999c0.215-0.142,0.43-0.041,0.643,0.004
		c1.531,0.324,2.996-0.253,3.855-1.521c0.82-1.214,0.82-2.836-0.002-4.048c-0.859-1.269-2.324-1.845-3.855-1.521
		C256.416,146.5,256.201,146.602,255.986,146.46z"/>
	<path fill-rule="evenodd" fill="#E3690C" d="M246.275,140.43c1.422-0.099,1.422-0.099,1.422,1.303c0,6.16,0,12.318-0.002,18.478
		c0,0.241-0.018,0.481-0.027,0.723c-0.307,0.023-0.463-0.214-0.643-0.393c-2.426-2.39-3.867-5.272-4.301-8.649
		c-0.512-3.989,0.494-7.585,2.859-10.814C245.769,140.822,245.931,140.524,246.275,140.43z"/>
	<path fill-rule="evenodd" fill="#E3690C" d="M255.986,152.957c0-1.971,0.002-3.941,0.002-5.912c0.391-0.477,0.967-0.49,1.49-0.496
		c1.529-0.015,3.035,1.171,3.287,2.61c0.318,1.831-0.307,3.253-1.943,3.979c-0.713,0.316-1.467,0.41-2.234,0.182
		C256.355,153.251,256.119,153.189,255.986,152.957z"/>
	<path fill-rule="evenodd" fill="#FEFDFD" d="M255.986,157.54c2.352,0.372,4.471-0.144,6.332-1.651
		c2.314-1.874,3.312-5.055,2.492-7.941c-0.844-2.974-3.354-5.138-6.359-5.535c-0.832-0.109-1.645-0.043-2.465,0.047
		c0.002-0.168,0.002-0.336,0.002-0.506c4.508-0.776,8.434,2.107,9.387,6.074c1.4,5.816-3.436,10.967-9.387,10.02
		C255.988,157.877,255.986,157.709,255.986,157.54z"/>
	<path fill-rule="evenodd" fill="#FEFDFD" d="M246.275,140.43c-1.371,1.693-2.471,3.544-2.99,5.672
		c-1.41,5.781,0.035,10.74,4.383,14.831c0.004,0.226,0.006,0.452,0.01,0.679c-2.146-1.721-3.672-3.898-4.545-6.487
		c-1.791-5.321-0.924-10.229,2.469-14.696C245.826,140.43,246.05,140.43,246.275,140.43z"/>
	<path fill-rule="evenodd" fill="#FDFDFC" d="M255.986,164.594c5.4,0.609,11.293-2.051,14.328-7.531
		c0.115-0.209,0.242-0.412,0.365-0.617c-0.002,0.371-0.002,0.743-0.002,1.115c-1.396,2.252-3.154,4.146-5.455,5.5
		c-2.859,1.682-5.938,2.367-9.238,2.053C255.984,164.939,255.986,164.767,255.986,164.594z"/>
	<path fill-rule="evenodd" fill="#FDFCFB" d="M255.986,152.957c2.498,1.165,5.113-0.932,4.688-3.528
		c-0.291-1.775-2.367-3.437-4.686-2.384c0-0.195-0.002-0.391-0.002-0.585c2.555-0.913,4.58,0.7,5.094,2.412
		c0.84,2.8-1.6,5.47-4.453,4.837c-0.215-0.048-0.426-0.111-0.639-0.168C255.988,153.346,255.988,153.151,255.986,152.957z"/>
	<path fill-rule="evenodd" fill="#FDFCFB" d="M253.382,135.406c1.773-0.631,3.607-0.676,5.451-0.533
		c0.914,0.07,1.834,0.177,2.697,0.534c-0.928-0.001-1.854-0.001-2.781-0.003c-0.412-0.066-0.824-0.068-1.234,0
		c-0.082,0-0.162,0-0.244,0c-0.4-0.066-0.801-0.068-1.201,0.002C255.173,135.406,254.279,135.406,253.382,135.406z"/>
	<path fill-rule="evenodd" fill="#FDFBFA" d="M268.162,139.28c1.053,0.882,1.754,2.044,2.516,3.158c0,0.374,0,0.747,0,1.12
		c-0.633-1.084-1.254-2.176-2.102-3.114c-0.133-0.146-0.277-0.281-0.416-0.421C268.16,139.775,268.16,139.527,268.162,139.28z"/>
	<path fill-rule="evenodd" fill="#EA8F47" d="M257.515,135.404c0.41-0.191,0.822-0.116,1.232,0
		C258.337,135.404,257.925,135.404,257.515,135.404z"/>
	<path fill-rule="evenodd" fill="#EC914B" d="M256.07,135.406c0.4-0.119,0.801-0.191,1.201-0.002
		C256.871,135.405,256.47,135.406,256.07,135.406z"/>
	<path fill-rule="evenodd" fill="#E3680C" d="M277.714,142.902c0.771,1.92,1.109,3.93,1.211,5.984
		c0.133,2.715-0.189,5.372-1.082,7.949c-0.033,0.092-0.086,0.177-0.129,0.266c-0.01-2.316-0.023-4.633-0.023-6.949
		C277.691,147.736,277.705,145.318,277.714,142.902z"/>
</g>
</svg>
