<?xml version="1.0" encoding="utf-8"?>
<!-- Generator: Adobe Illustrator 16.0.4, SVG Export Plug-In . SVG Version: 6.00 Build 0)  -->
<svg version="1.2" baseProfile="tiny" id="Capa_1" xmlns="http://www.w3.org/2000/svg" xmlns:xlink="http://www.w3.org/1999/xlink"
	 x="0px" y="0px" width="300px" height="300px" viewBox="0 0 300 300" xml:space="preserve">
<g>
	<path fill="#999999" d="M58.48,166.991c2.492-0.87,4.812-1.869,6.953-2.963c-0.195,3.985-1.492,7.229-3.895,9.654
		c-2.625,2.678-7.658,3.981-15.076,3.981l0.369,5.294c6.627,0,11.516-0.79,14.707-2.35c1.717-0.875,3.225-1.793,4.537-2.683
		c1.285-0.895,2.33-2.103,3.072-3.572c0.738-1.465,1.346-2.739,1.842-3.848c0.475-1.099,0.799-2.583,0.979-4.466
		c0.176-1.95,0.268-3.962,0.324-5.983c3.096-2.035,6.383-4.528,8.299-6.449v17.308c0,7.319-2.701,12.794-8.08,16.447
		c-5.398,3.633-13.104,5.445-23.111,5.445c-10.02,0-17.697-1.812-23.023-5.445c-5.322-3.653-7.99-9.128-7.99-16.447v-41.85
		c0-7.314,2.668-12.808,7.99-16.465c5.326-3.639,13.004-5.471,23.023-5.471c10.008,0,17.713,1.832,23.111,5.471
		c2.516,1.745,4.451,3.848,5.793,6.358l5.664-3.634c-1.68-2.554-3.947-4.689-6.801-6.459c-6.92-4.229-16.195-6.35-27.768-6.35
		c-11.58,0-20.816,2.121-27.686,6.35c-6.895,4.285-10.348,11.001-10.348,20.199v41.85c0,9.217,3.453,15.904,10.348,20.186
		c6.869,4.228,16.105,6.383,27.686,6.383c11.572,0,20.848-2.155,27.768-6.383c6.982-4.281,10.453-10.969,10.453-20.186v-19.852
		l-4.746-4.747c-3.539,2.53-7.914,5.679-8.752,6.235c-0.438,0.271-1.051,0.656-1.793,1.107v-26.4v-6.716
		c-8.498-0.842-15.309-1.261-20.342-1.261c-17.916,0-26.881,7.311-26.881,21.982v10.141c0,8.1,2.83,13.564,8.447,16.323
		c2.947,1.394,5.869,2.093,8.73,2.093C48.482,169.821,53.857,168.889,58.48,166.991 M65.473,157.664
		c-6.811,3.287-13.736,5.198-20.855,5.803c-0.51,0.066-0.977,0.086-1.475,0.086c-3.125,0-5.756-0.938-7.953-2.873
		c-2.217-1.926-3.318-5.122-3.318-9.631v-10.668c0-6.782,2.943-11.206,8.816-13.228c3.42-1.25,7.307-1.84,11.658-1.84
		c4.309,0,8.713,0.271,13.127,0.865V157.664z"/>
	<path fill="#999999" d="M113.557,166.354c3.9,0,8.043-1.166,12.381-3.496l1.854,3.643c-4.336,2.649-8.879,4.005-13.641,4.005
		c-9.826,0-14.705-4.118-14.705-12.38v-17.374c0-4.562,1.408-8.124,4.262-10.663c2.84-2.526,6.611-3.834,11.311-3.834
		c4.674,0,8.328,1.289,10.953,3.781c2.639,2.497,3.951,6.031,3.951,10.492v10.991l-25.754,1.437v5.17
		c0,3.062,1.104,5.265,3.297,6.605C109.166,165.793,111.184,166.354,113.557,166.354 M125.176,147.282V139.9
		c0-2.407-0.656-4.419-1.955-5.955c-1.289-1.536-2.645-2.549-4.061-2.963c-1.395-0.414-2.83-0.656-4.248-0.656
		c-3.072,0-5.654,0.86-7.672,2.55c-2.059,1.721-3.072,4.385-3.072,7.99v7.452L125.176,147.282z"/>
	<path fill="#999999" d="M136.271,158.72h4.48c0.338,2.55,1.623,4.447,3.824,5.718c2.207,1.288,4.629,1.917,7.23,1.917
		c2.639,0,4.988-0.6,7.08-1.741c2.107-1.146,3.131-2.915,3.131-5.236c0-2.374-0.795-4.186-2.416-5.484
		c-1.604-1.303-3.562-2.297-5.885-3.034c-2.311-0.728-4.65-1.521-7.029-2.359c-2.367-0.822-4.461-2.025-6.268-3.672
		c-2.137-1.936-3.215-4.285-3.215-7.152c0-2.863,1.137-5.522,3.434-7.962c2.283-2.45,5.998-3.682,11.143-3.682
		c1.812,0,3.506,0.195,5.086,0.608c1.574,0.434,2.695,0.856,3.4,1.256l0.994,0.576l-1.607,3.928
		c-2.031-1.469-4.572-2.211-7.635-2.211c-3.035,0-5.484,0.637-7.305,1.926c-1.836,1.309-2.77,3.035-2.77,5.241
		c0,2.164,0.947,3.848,2.807,5.075c1.865,1.184,3.977,2.188,6.393,2.882c2.387,0.704,4.775,1.508,7.148,2.383
		c2.373,0.928,4.391,2.288,6.025,4.162c1.633,1.864,2.445,4.342,2.445,7.467c0,3.087-1.266,5.77-3.758,8.028
		c-2.525,2.283-6.197,3.396-11.02,3.396c-4.828,0-8.627-1.161-11.391-3.486C137.822,164.97,136.4,162.097,136.271,158.72"/>
	<path fill="#999999" d="M183.785,166.935l-1.34,3.647c-3.164-0.885-5.471-2.325-6.854-4.328c-1.432-1.974-2.141-4.608-2.141-7.947
		v-48.113h4.752v16.832h10.168l-2.035,4.499h-8.133v26.782C178.203,162.811,180.062,165.702,183.785,166.935"/>
	<path fill="#999999" d="M202.605,112.167c0,0.747-0.295,1.441-0.852,1.993c-0.574,0.57-1.221,0.87-1.986,0.87
		c-0.771,0-1.428-0.313-1.988-0.932c-0.566-0.557-0.867-1.228-0.867-1.965c0-0.732,0.301-1.408,0.867-1.94
		c0.561-0.6,1.24-0.875,2.029-0.875c0.775,0,1.457,0.275,1.988,0.875C202.34,110.726,202.605,111.411,202.605,112.167
		 M202.092,169.47h-4.746v-42.444h4.746V169.47z"/>
	<path fill="#999999" d="M247.57,142.726v11.167c0,4.771-1.293,8.671-3.9,11.796c-2.596,3.072-6.506,4.637-11.762,4.637
		s-9.213-1.579-11.908-4.685c-2.674-3.163-4.016-7.054-4.016-11.748v-11.167c0-5.398,1.381-9.488,4.115-12.352
		c2.725-2.83,6.611-4.248,11.643-4.248s8.922,1.484,11.686,4.442C246.201,133.536,247.57,137.589,247.57,142.726 M242.848,154.729
		v-12.004c0-8.199-3.648-12.3-10.939-12.3c-7.467,0-11.186,4.101-11.186,12.3v12.004c0,3.396,1.008,6.154,3.006,8.215
		c2.002,2.097,4.746,3.148,8.232,3.148c3.473,0,6.141-1.047,8.033-3.087C241.893,160.932,242.848,158.202,242.848,154.729
		 M233.346,123.92h-3.734l4.328-9.983c0.627-1.346,1.537-1.983,2.717-1.983c1.516,0,2.492,0.638,2.881,1.983
		c0.053,0.328,0.072,0.689,0.072,1.094c0,0.395-0.125,0.771-0.41,1.099L233.346,123.92z"/>
	<path fill="#999999" d="M260.207,129.917c2.863-2.421,6.906-3.662,12.096-3.662c2.943,0,5.469,0.575,7.547,1.641
		c4.801,2.193,7.207,6.297,7.207,12.3v29.274h-4.652v-29.041c0-2.936-0.795-5.242-2.383-6.863c-1.922-1.97-4.789-2.954-8.6-2.954
		c-3.805,0-7.447,0.937-10.881,2.882v35.977h-4.729v-42.444h4.729L260.207,129.917z"/>
	<g>
		<path fill="#999999" d="M204.176,196.037c-0.178,0.187-0.398,0.28-0.66,0.28s-0.48-0.094-0.658-0.28s-0.266-0.401-0.266-0.645
			s0.088-0.458,0.266-0.646c0.178-0.187,0.396-0.28,0.658-0.28s0.482,0.094,0.66,0.28c0.178,0.188,0.266,0.402,0.266,0.646
			S204.354,195.851,204.176,196.037z"/>
		<path fill="#999999" d="M218.992,196.317h-1.148l-0.393-1.149c-0.973,0.953-2.305,1.43-3.996,1.43s-3.111-0.467-4.262-1.401
			c-1.148-0.935-1.725-2.327-1.725-4.178v-8.804c0-2.393,0.814-4.084,2.439-5.074c0.842-0.468,1.842-0.701,3-0.701
			c1.439,0,2.766,0.309,3.98,0.925l-0.447,1.065c-1.066-0.393-2.074-0.589-3.027-0.589c-2.916,0-4.375,1.374-4.375,4.122v9.111
			c0,1.253,0.406,2.234,1.221,2.944c0.812,0.71,1.85,1.065,3.111,1.065s2.266-0.364,3.014-1.094
			c0.748-0.729,1.121-1.691,1.121-2.888v-1.654h-1.85l-0.533-1.542h3.869V196.317z"/>
		<path fill="#999999" d="M233.01,196.317h-10.121v-19.626h1.57v18.225h8.551V196.317z"/>
		<path fill="#999999" d="M246.58,182.131v9c0,1.888-0.576,3.275-1.725,4.163c-1.15,0.888-2.529,1.332-4.137,1.332
			s-2.994-0.444-4.162-1.332s-1.752-2.275-1.752-4.163v-9.028c0-1.925,0.527-3.383,1.584-4.374c1.055-0.99,2.508-1.485,4.359-1.485
			c1.85,0,3.285,0.523,4.303,1.57C246.07,178.86,246.58,180.299,246.58,182.131z M245.037,191.074v-9.224
			c0-1.364-0.396-2.393-1.191-3.084s-1.846-1.038-3.154-1.038s-2.355,0.347-3.141,1.038s-1.178,1.72-1.178,3.084v9.252
			c0,1.327,0.408,2.332,1.221,3.014c0.812,0.683,1.85,1.023,3.111,1.023s2.299-0.331,3.113-0.995
			C244.631,193.481,245.037,192.458,245.037,191.074z"/>
		<path fill="#999999" d="M257.066,196.317h-6.449v-19.626h6.195c1.533,0,2.738,0.393,3.617,1.178s1.318,2.005,1.318,3.659
			c0,1.653-0.617,2.901-1.852,3.742c-0.018,0.02-0.027,0.038-0.027,0.057v0.027c0.822,0.375,1.51,0.981,2.061,1.823
			c0.551,0.841,0.828,1.935,0.828,3.28c0,1.495-0.385,2.794-1.15,3.896c-0.393,0.599-0.977,1.075-1.752,1.431
			C259.08,196.14,258.148,196.317,257.066,196.317z M252.188,184.738h4.57c1.045,0,1.867-0.28,2.467-0.841
			c0.598-0.562,0.896-1.374,0.896-2.439c0-2.188-1.178-3.28-3.533-3.28h-4.4V184.738z M252.188,194.831h4.822
			c2.709,0,4.064-1.495,4.064-4.485c0-1.309-0.355-2.313-1.064-3.014c-0.711-0.701-1.553-1.052-2.523-1.052h-5.299V194.831z"/>
		<path fill="#999999" d="M276.045,196.317h-1.682l-2.244-6.869h-6.391l-2.188,6.869h-1.654l6.279-19.626h1.486L276.045,196.317z
			 M271.699,187.906l-2.803-8.775l-2.721,8.775H271.699z"/>
		<path fill="#999999" d="M288.633,196.317h-10.121v-19.626h1.57v18.225h8.551V196.317z"/>
	</g>
</g>
</svg>
