<?xml version="1.0" encoding="utf-8"?>
<!-- Generator: Adobe Illustrator 16.0.4, SVG Export Plug-In . SVG Version: 6.00 Build 0)  -->
<svg version="1.2" baseProfile="tiny" xmlns="http://www.w3.org/2000/svg" xmlns:xlink="http://www.w3.org/1999/xlink" x="0px"
	 y="0px" width="50px" height="50px" viewBox="0 0 50 50" xml:space="preserve">
<g id="Redes_sociales">
</g>
<g id="web">
</g>
<g id="publi_digital">
</g>
<g id="dis_digital">
	<path fill="#FFFFFF" d="M42.939,35.375c0.076,0.584-0.105,1.092-0.533,1.52l-5.057,5.021c-0.227,0.256-0.526,0.469-0.892,0.647
		c-0.368,0.179-0.728,0.293-1.083,0.341c-0.026,0-0.102,0.007-0.229,0.021c-0.127,0.012-0.292,0.02-0.491,0.02
		c-0.484,0-1.266-0.082-2.343-0.246c-1.076-0.168-2.395-0.573-3.953-1.221c-1.56-0.64-3.325-1.614-5.303-2.908
		c-1.977-1.29-4.082-3.065-6.315-5.317c-1.774-1.75-3.243-3.425-4.408-5.022c-1.165-1.596-2.103-3.071-2.809-4.429
		c-0.716-1.353-1.243-2.585-1.6-3.687c-0.352-1.104-0.595-2.057-0.721-2.851c-0.125-0.8-0.182-1.427-0.153-1.882
		c0.028-0.46,0.038-0.713,0.038-0.763c0.049-0.354,0.163-0.714,0.344-1.083c0.175-0.365,0.39-0.663,0.643-0.895l5.058-5.058
		c0.357-0.349,0.761-0.526,1.217-0.526c0.328,0,0.617,0.088,0.87,0.285c0.255,0.188,0.473,0.417,0.652,0.702l4.066,7.714
		c0.229,0.41,0.291,0.851,0.193,1.333c-0.102,0.483-0.318,0.886-0.651,1.217l-1.859,1.862c-0.05,0.051-0.096,0.133-0.131,0.246
		c-0.042,0.115-0.064,0.211-0.064,0.285c0.108,0.535,0.332,1.142,0.689,1.825c0.303,0.606,0.772,1.351,1.406,2.224
		c0.635,0.875,1.529,1.883,2.698,3.021c1.143,1.17,2.151,2.074,3.04,2.717c0.888,0.648,1.63,1.122,2.228,1.431
		c0.593,0.303,1.051,0.489,1.364,0.55l0.477,0.094c0.052,0,0.134-0.02,0.249-0.057c0.111-0.037,0.196-0.08,0.245-0.131l2.168-2.206
		c0.455-0.405,0.988-0.609,1.596-0.609c0.435,0,0.773,0.079,1.027,0.229h0.042l7.336,4.334
		C42.521,34.449,42.834,34.872,42.939,35.375L42.939,35.375z M42.939,35.375"/>
</g>
</svg>
