<?xml version="1.0" encoding="utf-8"?>
<!-- Generator: Adobe Illustrator 16.0.4, SVG Export Plug-In . SVG Version: 6.00 Build 0)  -->
<svg version="1.2" baseProfile="tiny" xmlns="http://www.w3.org/2000/svg" xmlns:xlink="http://www.w3.org/1999/xlink" x="0px"
	 y="0px" width="300px" height="300px" viewBox="0 0 300 300" xml:space="preserve">
<g id="Redes_sociales">
</g>
<g id="web">
	<g>
		<path fill="#FFFFFF" d="M208.154,222.659h-23.672c-0.854,0-1.552-0.701-1.552-1.553v-5.761c0-0.856-0.7-1.555-1.554-1.555h-33.124
			c-0.853,0-1.554,0.698-1.554,1.555v5.761c0,0.852-0.698,1.553-1.551,1.553h-17.796c-0.856,0-1.554,0.698-1.554,1.552v6.666
			c0,0.854,0.698,1.553,1.554,1.553h80.802c0.853,0,1.551-0.699,1.551-1.553v-6.666
			C209.707,223.357,209.007,222.659,208.154,222.659L208.154,222.659z M208.154,222.659"/>
		<path fill="#FFFFFF" d="M247.925,66.811H79.006c-5.878,0-10.658,4.782-10.658,10.66v27.804c0,3.675-0.272,4.194,2.193,4.194h4.229
			c2.067,0,1.645-0.52,1.645-4.264V77.471c0-1.403,1.187-2.593,2.591-2.593h168.918c1.405,0,2.592,1.189,2.592,2.593V181.54H130.089
			c0,0-4.245-0.009-4.245,5.48v13.016c0,5.479,4.381,5.479,4.381,5.479h117.7c5.879,0,10.661-4.781,10.661-10.657V77.471
			C258.586,71.593,253.804,66.811,247.925,66.811L247.925,66.811z M163.466,196.313c-2.653,0-4.804-2.149-4.804-4.804
			c0-2.65,2.15-4.801,4.804-4.801c2.65,0,4.804,2.15,4.804,4.801C168.27,194.164,166.116,196.313,163.466,196.313L163.466,196.313z
			 M163.466,196.313"/>
		<path fill="#FFFFFF" d="M109.402,118.989H48.293c-3.795,0-6.879,3.086-6.879,6.882v100.437c0,3.794,3.083,6.882,6.879,6.882
			h61.109c3.792,0,6.878-3.088,6.878-6.882V125.871C116.28,122.075,113.194,118.989,109.402,118.989L109.402,118.989z
			 M71.309,126.008h15.076c0.719,0,1.302,0.582,1.302,1.302s-0.583,1.306-1.302,1.306H71.309c-0.719,0-1.302-0.586-1.302-1.306
			S70.59,126.008,71.309,126.008L71.309,126.008z M78.755,228.356c-1.966,0-3.56-1.593-3.56-3.562c0-1.966,1.594-3.561,3.56-3.561
			s3.56,1.595,3.56,3.561C82.315,226.764,80.721,228.356,78.755,228.356L78.755,228.356z M110.37,217.892
			c0,0.917-0.735,1.669-1.631,1.669H48.959c-0.899,0-1.632-0.752-1.632-1.669v-83.46c0-0.917,0.732-1.669,1.632-1.669h59.779
			c0.896,0,1.631,0.752,1.631,1.669V217.892z M110.37,217.892"/>
		<path fill="#FFFFFF" d="M149.09,113.589c-1.26-1.049-3.131-0.876-4.179,0.384l-9.893,11.896c-0.917,1.102-0.915,2.7,0.004,3.8
			l9.893,11.846c0.587,0.703,1.431,1.065,2.28,1.065c0.671,0,1.345-0.226,1.9-0.689c1.258-1.051,1.426-2.923,0.376-4.181
			l-8.308-9.947l8.312-9.995C150.523,116.506,150.351,114.636,149.09,113.589L149.09,113.589z M149.09,113.589 M169.093,113.011
			c-1.581-0.438-3.216,0.485-3.654,2.064l-6.596,23.743c-0.438,1.578,0.486,3.215,2.066,3.653c0.266,0.074,0.532,0.108,0.795,0.108
			c1.3,0,2.493-0.859,2.858-2.173l6.595-23.743C171.596,115.085,170.671,113.449,169.093,113.011L169.093,113.011z M169.093,113.011
			 M194.978,125.812l-9.893-11.845c-1.052-1.258-2.923-1.426-4.181-0.376c-1.258,1.052-1.425,2.923-0.376,4.181l8.308,9.948
			l-8.311,9.995c-1.049,1.26-0.877,3.13,0.384,4.179c0.555,0.461,1.227,0.686,1.896,0.686c0.852,0,1.696-0.363,2.283-1.071
			l9.893-11.896C195.897,128.511,195.896,126.914,194.978,125.812L194.978,125.812z M194.978,125.812"/>
		<path fill="#FFFFFF" d="M71.084,172.453c-0.615-0.512-1.528-0.427-2.04,0.188l-4.827,5.805c-0.447,0.538-0.446,1.318,0.002,1.854
			l4.827,5.78c0.287,0.343,0.698,0.52,1.112,0.52c0.328,0,0.656-0.109,0.928-0.336c0.614-0.513,0.696-1.427,0.183-2.04l-4.054-4.854
			l4.056-4.878C71.784,173.877,71.7,172.964,71.084,172.453L71.084,172.453z M71.084,172.453 M80.845,172.172
			c-0.771-0.215-1.569,0.236-1.783,1.007l-3.218,11.586c-0.214,0.77,0.237,1.568,1.008,1.782c0.129,0.036,0.26,0.053,0.388,0.053
			c0.634,0,1.217-0.419,1.395-1.06l3.218-11.586C82.066,173.184,81.615,172.386,80.845,172.172L80.845,172.172z M80.845,172.172
			 M93.476,178.418l-4.827-5.779c-0.514-0.614-1.426-0.696-2.04-0.184s-0.695,1.426-0.184,2.04l4.054,4.854l-4.055,4.877
			c-0.512,0.614-0.428,1.527,0.187,2.039c0.271,0.225,0.599,0.334,0.926,0.334c0.416,0,0.828-0.177,1.114-0.522l4.827-5.805
			C93.924,179.734,93.924,178.955,93.476,178.418L93.476,178.418z M93.476,178.418"/>
	</g>
</g>
<g id="publi_digital">
</g>
<g id="dis_digital">
</g>
</svg>
