<?xml version="1.0" encoding="utf-8"?>
<!-- Generator: Adobe Illustrator 16.0.4, SVG Export Plug-In . SVG Version: 6.00 Build 0)  -->
<svg version="1.2" baseProfile="tiny" xmlns="http://www.w3.org/2000/svg" xmlns:xlink="http://www.w3.org/1999/xlink" x="0px"
	 y="0px" width="50px" height="50px" viewBox="0 0 50 50" xml:space="preserve">
<g id="Redes_sociales">
</g>
<g id="web">
</g>
<g id="publi_digital">
</g>
<g id="dis_digital">
	<g>
		<path fill="#FFFFFF" d="M11.467,19.957c0.426,0.299,1.702,1.185,3.832,2.662c2.132,1.475,3.767,2.611,4.897,3.409
			c0.123,0.091,0.392,0.278,0.797,0.57c0.404,0.293,0.737,0.53,1.01,0.712c0.264,0.181,0.588,0.383,0.969,0.61
			c0.38,0.22,0.739,0.389,1.076,0.502c0.333,0.112,0.648,0.166,0.935,0.166h0.035c0.286,0,0.602-0.054,0.935-0.166
			c0.337-0.113,0.696-0.282,1.076-0.502c0.379-0.228,0.707-0.43,0.974-0.61c0.268-0.182,0.601-0.419,1.007-0.712
			c0.406-0.292,0.672-0.479,0.795-0.57c1.148-0.798,4.062-2.826,8.747-6.074c0.912-0.636,1.669-1.401,2.281-2.3
			c0.611-0.896,0.918-1.835,0.918-2.82c0-0.82-0.297-1.526-0.89-2.112c-0.592-0.588-1.293-0.881-2.104-0.881H11.243
			c-0.961,0-1.699,0.322-2.217,0.972c-0.517,0.65-0.776,1.461-0.776,2.432c0,0.786,0.346,1.636,1.031,2.556
			C9.965,18.714,10.695,19.433,11.467,19.957L11.467,19.957z M11.467,19.957"/>
		<path fill="#FFFFFF" d="M39.877,21.956c-4.084,2.766-7.188,4.918-9.307,6.448c-0.71,0.521-1.284,0.93-1.729,1.225
			c-0.439,0.294-1.028,0.588-1.765,0.896c-0.738,0.305-1.422,0.459-2.059,0.459h-0.035c-0.637,0-1.324-0.154-2.059-0.459
			c-0.734-0.309-1.322-0.603-1.765-0.896c-0.445-0.295-1.02-0.703-1.729-1.225c-1.682-1.237-4.777-3.385-9.289-6.448
			c-0.71-0.473-1.34-1.017-1.891-1.627v14.843c0,0.818,0.297,1.521,0.879,2.105c0.592,0.588,1.293,0.881,2.114,0.881h27.514
			c0.823,0,1.528-0.293,2.114-0.881c0.582-0.584,0.879-1.287,0.879-2.105V20.329C41.213,20.926,40.588,21.47,39.877,21.956
			L39.877,21.956z M39.877,21.956"/>
	</g>
</g>
</svg>
