<?xml version="1.0" encoding="utf-8"?>
<!-- Generator: Adobe Illustrator 16.0.4, SVG Export Plug-In . SVG Version: 6.00 Build 0)  -->
<svg version="1.2" baseProfile="tiny" xmlns="http://www.w3.org/2000/svg" xmlns:xlink="http://www.w3.org/1999/xlink" x="0px"
	 y="0px" width="300px" height="300px" viewBox="0 0 300 300" xml:space="preserve">
<g id="Redes_sociales">
	<g>
		<path fill="#FFFFFF" d="M188.706,115.368l10.702-10.702c6.299,5.036,13.86,8.192,22.037,8.192
			c19.511,0,35.249-15.739,35.249-35.25c0-19.511-15.738-35.249-35.249-35.249c-19.512,0-35.249,15.737-35.249,35.249
			c0,8.808,3.142,16.37,8.177,22.036l-10.702,10.702C185.564,112.227,187.444,114.121,188.706,115.368L188.706,115.368z
			 M211.375,78.239 M207.1,55.639h30.502c2.898,0,5.268,2.144,5.268,5.266V91.41c0,3.122-2.369,5.266-5.268,5.266H207.1
			c-2.899,0-5.268-2.144-5.268-5.266V60.905C201.832,57.782,204.2,55.639,207.1,55.639L207.1,55.639z M231.726,60.198
			c-1.018,0-1.848,0.831-1.848,1.846v4.425c0,1.017,0.83,1.847,1.848,1.847h4.64c1.015,0,1.846-0.831,1.846-1.847v-4.425
			c0-1.016-0.831-1.846-1.846-1.846H231.726z M238.231,72.992h-3.611c0.341,1.117,0.525,2.299,0.525,3.523
			c0,6.825-5.711,12.358-12.754,12.358c-7.047,0-12.758-5.534-12.758-12.358c0-1.224,0.185-2.406,0.526-3.523h-3.769v17.337
			c0,0.897,0.734,1.631,1.634,1.631H236.6c0.899,0,1.632-0.734,1.632-1.631V72.992z M222.392,68.082
			c-4.552,0-8.243,3.576-8.243,7.987c0,4.411,3.691,7.987,8.243,7.987c4.55,0,8.239-3.576,8.239-7.987
			C230.631,71.658,226.943,68.082,222.392,68.082L222.392,68.082z M222.392,68.082"/>
		<path fill="#FFFFFF" d="M221.445,187.129c-8.195,0-16.369,3.141-22.037,8.178l-10.702-10.69c-1.262,1.882-3.153,3.147-4.403,4.405
			l10.702,10.688c-5.035,6.299-8.177,13.859-8.177,22.036c0,19.511,15.735,35.251,35.249,35.251
			c19.511,0,35.248-15.74,35.248-35.251C256.694,202.235,240.956,187.129,221.445,187.129L221.445,187.129z M211.375,238.116h-6.929
			V216.08h6.929V238.116z M208.218,212.938L208.218,212.938c-2.511,0-4.403-1.88-4.403-3.773s1.893-3.785,4.403-3.785
			c2.524,0,4.405,1.892,4.405,3.785C211.993,211.677,210.742,212.938,208.218,212.938L208.218,212.938z M239.694,238.116h-8.177
			v-11.32c0-3.157-1.264-5.036-3.789-5.036c-1.893,0-3.142,1.249-3.773,2.511v13.859h-7.559v-22.036h7.559v3.142
			c0.632-1.249,3.144-3.773,6.931-3.773c5.021,0,8.809,3.143,8.809,10.071V238.116z M239.694,238.116"/>
		<path fill="#FFFFFF" d="M110.663,184.616L99.959,195.32c-6.297-5.035-13.858-8.179-22.036-8.179
			c-19.51,0-35.249,15.739-35.249,35.251c0,19.514,15.739,35.248,35.249,35.248c19.513,0,35.25-15.734,35.25-35.248
			c0-8.191-3.141-16.37-8.179-22.036l10.704-10.698C113.805,187.764,111.911,185.867,110.663,184.616L110.663,184.616z
			 M93.03,216.711c0,10.705-8.177,22.667-22.652,22.667c-4.404,0-8.823-1.262-11.964-3.787h1.893c3.772,0,6.915-1.248,10.071-3.142
			c-3.156,0-6.298-2.524-7.561-5.667h3.156c-3.788-0.631-6.298-3.773-6.298-7.547c1.261,0.618,2.51,1.249,3.772,1.249
			c-1.893-1.249-3.772-3.773-3.772-6.299c0-1.248,0.631-2.509,1.261-3.773c3.773,5.035,9.441,8.179,16.356,8.179v-1.88
			c0-4.404,3.786-8.19,8.191-8.19c2.51,0,4.406,1.262,5.667,2.523c1.878-0.632,3.772-1.262,5.035-1.892
			c-0.631,1.892-1.893,3.139-3.787,4.403c1.894,0,3.156-0.629,4.405-1.265c-1.249,1.895-2.511,3.156-3.774,3.789
			C93.03,216.08,93.03,216.08,93.03,216.711L93.03,216.711z M93.03,216.711"/>
		<path fill="#FFFFFF" d="M77.923,112.857c8.193,0,16.37-3.143,22.036-8.178l10.703,10.703c1.248-1.893,3.143-3.156,4.404-4.405
			l-10.704-10.702c5.038-6.297,8.179-13.859,8.179-22.036c0-19.511-15.738-35.25-35.25-35.25c-19.51,0-34.618,15.739-34.618,35.25
			C42.675,97.119,58.414,112.857,77.923,112.857L77.923,112.857z M69.747,71.941h3.772v-3.773c0-5.037,1.894-8.193,8.179-8.193
			h5.035v6.3h-3.142c-2.525,0-2.525,0.631-2.525,2.523v3.144h5.667l-0.631,6.297h-5.667v17.618h-7.547V78.239h-3.773v-6.297H69.747z
			 M69.747,71.941"/>
		<path fill="#FFFFFF" d="M181.792,167.617c-0.633-1.248-1.893-1.894-2.524-1.894c-5.667-1.879-10.704-3.138-16.355-5.022
			c-0.632,0-1.896-1.263-1.896-3.785c0-1.264,0-1.895-1.26-1.895c-0.633,0,0,0-0.633-0.617c-0.632-2.524-0.632-3.788-0.632-4.419
			c0-0.616,0.632-0.631,0.632-1.249c1.893-2.524,2.524-6.297,2.524-7.56c0,0,0.632,0,0.632-0.631
			c0.632-1.263,0.632-1.263,0.632-3.142c0.63-1.263,0.63-3.144-0.632-3.144c-0.632,0.619-0.632,0-0.632-1.262v-7.561
			c0-2.51-1.892-4.403-3.156-5.022c-1.879-1.261-2.509-1.892-3.139-1.892c-0.633-0.631-0.633-1.262,0-1.894
			c0.63-0.631,1.26-0.631,1.26-1.262h-0.63c-0.646,0-4.406,0.645-6.298,1.262c-3.144,0.632-6.3,1.894-8.81,3.786
			c-1.893,1.25-3.155,3.144-3.155,5.668v7.546c0,0.631,0,1.262-0.631,0.631c-1.88,0-0.632,2.524-0.632,3.144
			c0,1.262,0.632,1.893,1.263,3.155c0,0.631,0.631,0.631,0.631,0.631c0.631,1.893,1.262,5.667,2.524,7.561
			c0,0,0.632,0.631,0.632,1.248c0,1.262,0,3.155-0.632,4.404c0,0,0,0.631-0.631,0.631c-1.262,0-1.262,0.632-1.262,1.894
			c0,1.894-1.262,3.772-1.893,3.772c-3.143,1.263-12.583,4.406-15.737,5.037c-1.882,0.631-2.513,1.263-3.144,1.894l-3.142,7.546
			c12.582,0,18.88,7.561,32.093,10.069h6.298c13.211-1.875,22.652-10.069,31.475-10.069L181.792,167.617z M181.792,167.617"/>
	</g>
</g>
<g id="web">
</g>
<g id="publi_digital">
</g>
<g id="dis_digital">
</g>
</svg>
