<?xml version="1.0" encoding="utf-8"?>
<!-- Generator: Adobe Illustrator 16.0.4, SVG Export Plug-In . SVG Version: 6.00 Build 0)  -->
<svg version="1.2" baseProfile="tiny" xmlns="http://www.w3.org/2000/svg" xmlns:xlink="http://www.w3.org/1999/xlink" x="0px"
	 y="0px" width="300px" height="300px" viewBox="0 0 300 300" xml:space="preserve">
<g id="Redes_sociales">
</g>
<g id="web">
</g>
<g id="publi_digital">
</g>
<g id="dis_digital">
	<g>
		<path fill="#FFFFFF" d="M178.58,248.913c-3.832-2.819-4.242-7.051-4.242-7.051l-1.436-9.188H127.1l-1.447,9.177
			c0,0-0.4,4.243-4.234,7.062c-3.832,2.818-6.855,5.235-3.832,5.646c2.916,0.388,30.385,0.032,32.414,0
			c2.031,0.032,29.498,0.388,32.402,0C185.426,254.148,182.402,251.731,178.58,248.913L178.58,248.913z M178.58,248.913"/>
		<path fill="#FFFFFF" d="M98.398,175.511c12.244-0.097,13.768-3.044,17.752-15.321c7.352-19.392,40.488,5.075,19.953,13.562
			C115.578,182.249,86.166,175.609,98.398,175.511L98.398,175.511z M98.398,175.511"/>
		<path fill="#FFFFFF" d="M223.875,47.734c-5.938-4.783-15.773-2.419-21.973,5.27l-62.775,89.198
			c-6.197,7.688-6.166,6.219-0.238,11.002c5.939,4.783,4.514,5.128,10.711-2.57l73.812-80.3
			C229.598,62.635,229.814,52.518,223.875,47.734L223.875,47.734z M207.734,58.413c0,0-0.918-1.069-3.975-3.509
			c4.59-7.494,13.596-6.122,13.596-6.122C208.812,53.836,207.734,58.413,207.734,58.413L207.734,58.413z M207.734,58.413"/>
		<path fill="#FFFFFF" d="M251.723,77.881h-27.611l-12.188,13.271h35.371V197.29H52.705V91.151h113.199l9.34-13.271H48.275
			c-4.879,0-8.842,3.963-8.842,8.844v128.252c0,4.891,3.963,8.854,8.842,8.854h203.447c4.881,0,8.844-3.963,8.844-8.854V86.725
			C260.566,81.844,256.604,77.881,251.723,77.881L251.723,77.881z M251.723,77.881"/>
	</g>
</g>
</svg>
