<?xml version="1.0" encoding="utf-8"?>
<!-- Generator: Adobe Illustrator 16.0.4, SVG Export Plug-In . SVG Version: 6.00 Build 0)  -->
<svg version="1.2" baseProfile="tiny" xmlns="http://www.w3.org/2000/svg" xmlns:xlink="http://www.w3.org/1999/xlink" x="0px"
	 y="0px" width="50px" height="50px" viewBox="0 0 50 50" xml:space="preserve">
<g id="Redes_sociales">
</g>
<g id="web">
</g>
<g id="publi_digital">
</g>
<g id="dis_digital">
	<path fill="#FFFFFF" d="M25,2.825c-8.084,0-14.668,6.582-14.668,14.675c0,3.253,2.078,8.564,6.362,16.231
		c3.025,5.427,6.004,9.946,6.128,10.142L25,47.175l2.18-3.302c0.131-0.195,3.104-4.715,6.132-10.142
		C37.59,26.064,39.67,20.753,39.67,17.5C39.67,9.407,33.095,2.825,25,2.825L25,2.825z M25,24.998c-4.196,0-7.601-3.402-7.601-7.603
		s3.404-7.6,7.601-7.6c4.202,0,7.604,3.399,7.604,7.6S29.202,24.998,25,24.998L25,24.998z M25,24.998"/>
</g>
</svg>
