<?xml version="1.0" encoding="utf-8"?>
<!-- Generator: Adobe Illustrator 16.0.4, SVG Export Plug-In . SVG Version: 6.00 Build 0)  -->
<svg version="1.2" baseProfile="tiny" xmlns="http://www.w3.org/2000/svg" xmlns:xlink="http://www.w3.org/1999/xlink" x="0px"
	 y="0px" width="300px" height="300px" viewBox="0 0 300 300" xml:space="preserve">
<g id="Redes_sociales">
</g>
<g id="web">
</g>
<g id="publi_digital">
	<g>
		<path fill="#FFFFFF" d="M187.707,61.795c-0.627-1.925-1.994-3.526-3.8-4.445c-1.805-0.921-3.898-1.085-5.828-0.459L146.12,67.277
			c-4.009,1.307-6.207,5.615-4.904,9.627l1.597,4.918l-81.29,59.71l-32.068,10.419c-1.925,0.627-3.526,1.989-4.446,3.795
			c-0.92,1.805-1.084,3.903-0.458,5.828l19.486,59.956c1.049,3.228,4.043,5.281,7.261,5.281c0.786,0,1.582-0.119,2.362-0.378
			l32.063-10.414l16.472,0.085c3.312,15.621,17.203,27.378,33.795,27.378c16.462,0,30.263-11.583,33.709-27.025l16.895,0.09
			l1.597,4.919c0.626,1.929,1.989,3.525,3.795,4.445c1.084,0.553,2.272,0.836,3.472,0.836c0.79,0,1.591-0.124,2.357-0.378
			l31.959-10.385c4.013-1.303,6.212-5.609,4.903-9.623L187.707,61.795z M56.206,209.545l-14.761-45.423l18.704-6.078l14.757,45.424
			L56.206,209.545z M135.989,228.205c-8.062,0-14.97-4.979-17.84-12.016l35.604,0.189
			C150.84,223.316,143.977,228.205,135.989,228.205L135.989,228.205z M90.09,200.762l-8.032-24.729l-8.037-24.728l73.766-54.18
			l22.618,69.617l11.211,34.501L90.09,200.762z M200.359,209.48l-0.939-2.885c0-0.005,0-0.01-0.006-0.02l-20.182-62.112
			l-21.127-65.018l17.432-5.665l42.249,130.035L200.359,209.48z M200.359,209.48"/>
		<path fill="#FFFFFF" d="M213.43,98.931c1.114,0.567,2.298,0.836,3.461,0.836c2.785,0,5.466-1.527,6.814-4.173l13.711-26.901
			c1.915-3.759,0.423-8.36-3.337-10.275c-3.755-1.914-8.36-0.423-10.275,3.338l-13.711,26.9
			C208.178,92.417,209.67,97.017,213.43,98.931L213.43,98.931z M213.43,98.931"/>
		<path fill="#FFFFFF" d="M270.848,171.572l-26.906-13.702c-3.76-1.914-8.36-0.423-10.275,3.337
			c-1.914,3.761-0.418,8.36,3.338,10.275l26.905,13.702c1.109,0.566,2.293,0.835,3.462,0.835c2.78,0,5.461-1.526,6.813-4.173
			C276.1,178.087,274.603,173.486,270.848,171.572L270.848,171.572z M270.848,171.572"/>
		<path fill="#FFFFFF" d="M232.209,127.26c1.05,3.228,4.043,5.277,7.262,5.277c0.785,0,1.576-0.118,2.362-0.373l28.711-9.33
			c4.014-1.303,6.207-5.615,4.903-9.628c-1.303-4.014-5.614-6.201-9.628-4.904l-28.706,9.33
			C233.1,118.934,230.901,123.246,232.209,127.26L232.209,127.26z M232.209,127.26"/>
	</g>
</g>
<g id="dis_digital">
</g>
</svg>
