<?xml version="1.0" encoding="utf-8"?>
<!-- Generator: Adobe Illustrator 16.0.4, SVG Export Plug-In . SVG Version: 6.00 Build 0)  -->
<svg version="1.2" baseProfile="tiny" xmlns="http://www.w3.org/2000/svg" xmlns:xlink="http://www.w3.org/1999/xlink" x="0px"
	 y="0px" width="800px" height="341px" viewBox="0 0 800 341" xml:space="preserve">
<g id="Capa_2">
</g>
<g id="Redes_Sociales">
	<path fill="rgba(255,110,64,.5)" d="M563.372,300.547c-0.68-0.809-1.936-1.139-4.333-1.139h-8.705c-2.452,0-3.729,0.352-4.407,1.212
		c-0.66,0.839-0.66,2.076-0.66,3.787v3.262c0,3.315,0.784,4.998,5.067,4.998h8.705c2.08,0,3.232-0.291,3.978-1.004
		c0.764-0.731,1.091-1.926,1.091-3.994v-3.262C564.106,302.603,564.055,301.359,563.372,300.547L563.372,300.547z M557.362,306.488
		l-3.953,2.065c-0.089,0.046-0.186,0.069-0.282,0.069c-0.108,0-0.218-0.03-0.315-0.088c-0.182-0.11-0.293-0.308-0.293-0.52v-4.118
		c0-0.212,0.111-0.409,0.293-0.52c0.182-0.11,0.407-0.118,0.595-0.02l3.953,2.052c0.201,0.104,0.328,0.312,0.328,0.539
		C557.688,306.176,557.562,306.383,557.362,306.488L557.362,306.488z M557.362,306.488"/>
	<path fill="rgba(255,110,64,.5)" d="M142.874,113.423c-1.24-1.476-3.532-2.077-7.907-2.077h-15.884c-4.476,0-6.806,0.641-8.042,2.211
		c-1.205,1.531-1.205,3.788-1.205,6.91v5.952c0,6.05,1.43,9.121,9.248,9.121h15.884c3.795,0,5.897-0.531,7.257-1.833
		c1.395-1.334,1.99-3.514,1.99-7.289v-5.952C144.214,117.174,144.121,114.905,142.874,113.423L142.874,113.423z M131.906,124.266
		l-7.213,3.769c-0.162,0.085-0.338,0.126-0.514,0.126c-0.2,0-0.399-0.053-0.575-0.16c-0.332-0.201-0.534-0.561-0.534-0.948v-7.516
		c0-0.387,0.202-0.747,0.533-0.947c0.332-0.201,0.743-0.215,1.087-0.037l7.212,3.746c0.366,0.19,0.597,0.569,0.598,0.983
		C132.502,123.695,132.272,124.074,131.906,124.266L131.906,124.266z M131.906,124.266"/>
	<path fill="rgba(255,110,64,.5)" d="M550.404,110.406c-1.867-2.221-5.317-3.127-11.903-3.127h-23.912c-6.737,0-10.245,0.965-12.107,3.329
		c-1.814,2.305-1.814,5.702-1.814,10.402v8.959c0,9.108,2.153,13.731,13.921,13.731h23.912c5.713,0,8.878-0.799,10.925-2.759
		c2.1-2.009,2.996-5.29,2.996-10.972v-8.959C552.422,116.052,552.282,112.637,550.404,110.406L550.404,110.406z M533.895,126.727
		l-10.858,5.673c-0.244,0.128-0.509,0.19-0.773,0.19c-0.301,0-0.601-0.08-0.865-0.241c-0.499-0.302-0.804-0.844-0.804-1.428v-11.313
		c0-0.582,0.305-1.124,0.803-1.426c0.499-0.303,1.119-0.324,1.637-0.056l10.857,5.639c0.551,0.287,0.899,0.856,0.9,1.479
		C534.792,125.869,534.446,126.438,533.895,126.727L533.895,126.727z M533.895,126.727"/>
	<path fill="rgba(255,110,64,.5)" d="M348.329,238.128c-8.379,0-15.197,6.817-15.197,15.199c0,2.651,0.694,5.256,2.007,7.548l-2.496,7.487
		c-0.06,0.181-0.017,0.376,0.111,0.515c0.101,0.105,0.236,0.164,0.377,0.164c0.042,0,0.088-0.006,0.13-0.018l8.173-2.151
		c2.125,1.082,4.503,1.654,6.893,1.654c8.382,0,15.199-6.818,15.199-15.198C363.528,244.945,356.711,238.128,348.329,238.128
		L348.329,238.128z M357.813,260.229l-0.906,0.906c-1.141,1.144-2.42,1.722-3.791,1.722c-1.85,0-3.844-1.054-5.927-3.137
		l-5.25-5.251c-1.643-1.644-2.654-3.239-3.002-4.743c-0.422-1.83,0.111-3.501,1.585-4.977l0.906-0.904
		c0.583-0.584,1.527-0.727,2.257-0.34c1.37,0.725,2.791,3.104,2.948,3.374c0.286,0.497,0.372,1.012,0.248,1.455
		c-0.092,0.336-0.304,0.611-0.611,0.799c-0.415,0.347-0.903,0.783-0.991,0.89c-0.522,0.773-0.463,1.366,0.211,2.041l4.104,4.102
		c0.679,0.683,1.262,0.737,2.047,0.207c0.103-0.083,0.535-0.572,0.885-0.986c0.259-0.431,0.684-0.667,1.203-0.667
		c0.339,0,0.702,0.103,1.047,0.299c0.271,0.162,2.651,1.582,3.375,2.953C358.55,258.721,358.414,259.627,357.813,260.229
		L357.813,260.229z M357.813,260.229"/>
	<path fill="rgba(255,110,64,.5)" d="M246.158,156.706c-6.295,0-11.417,5.122-11.417,11.419c0,1.992,0.522,3.948,1.509,5.67l-1.875,5.624
		c-0.046,0.136-0.013,0.283,0.083,0.388c0.075,0.078,0.177,0.123,0.283,0.123c0.033,0,0.067-0.005,0.099-0.014l6.14-1.617
		c1.598,0.813,3.383,1.242,5.179,1.242c6.296,0,11.417-5.122,11.417-11.417C257.575,161.828,252.454,156.706,246.158,156.706
		L246.158,156.706z M253.282,173.31l-0.68,0.681c-0.858,0.859-1.818,1.294-2.848,1.294c-1.389,0-2.888-0.792-4.452-2.357
		l-3.945-3.946c-1.234-1.234-1.994-2.433-2.255-3.562c-0.317-1.375,0.083-2.63,1.19-3.737l0.681-0.681
		c0.438-0.438,1.147-0.546,1.696-0.255c1.03,0.544,2.097,2.331,2.214,2.535c0.215,0.374,0.28,0.759,0.187,1.092
		c-0.069,0.253-0.229,0.459-0.459,0.601c-0.312,0.261-0.679,0.588-0.744,0.669c-0.393,0.58-0.348,1.026,0.158,1.533l3.083,3.081
		c0.51,0.514,0.948,0.554,1.539,0.156c0.078-0.062,0.402-0.43,0.665-0.741c0.194-0.324,0.514-0.501,0.903-0.501
		c0.255,0,0.527,0.078,0.787,0.225c0.204,0.122,1.992,1.189,2.536,2.219C253.836,172.176,253.733,172.857,253.282,173.31
		L253.282,173.31z M253.282,173.31"/>
	<path fill="rgba(255,110,64,.5)" d="M723.816,219.717c-6.295,0-11.417,5.122-11.417,11.419c0,1.992,0.522,3.948,1.509,5.67l-1.875,5.624
		c-0.046,0.136-0.013,0.283,0.083,0.388c0.075,0.078,0.177,0.123,0.283,0.123c0.033,0,0.067-0.005,0.099-0.014l6.14-1.617
		c1.598,0.813,3.383,1.242,5.179,1.242c6.296,0,11.417-5.122,11.417-11.417C735.234,224.839,730.113,219.717,723.816,219.717
		L723.816,219.717z M730.94,236.321l-0.68,0.681c-0.858,0.859-1.818,1.294-2.848,1.294c-1.389,0-2.888-0.792-4.452-2.357
		l-3.945-3.946c-1.234-1.234-1.994-2.433-2.255-3.562c-0.317-1.375,0.083-2.63,1.19-3.737l0.681-0.681
		c0.438-0.438,1.147-0.546,1.696-0.255c1.03,0.544,2.097,2.331,2.214,2.535c0.215,0.374,0.28,0.759,0.187,1.092
		c-0.069,0.253-0.229,0.459-0.459,0.601c-0.312,0.261-0.679,0.588-0.744,0.669c-0.393,0.58-0.348,1.026,0.158,1.533l3.083,3.081
		c0.51,0.514,0.948,0.554,1.539,0.156c0.078-0.062,0.402-0.43,0.665-0.741c0.194-0.324,0.514-0.501,0.903-0.501
		c0.255,0,0.527,0.078,0.787,0.225c0.204,0.122,1.992,1.189,2.536,2.219C731.495,235.187,731.392,235.868,730.94,236.321
		L730.94,236.321z M730.94,236.321"/>
	<path fill="rgba(255,110,64,.5)" d="M517.43,31.096c-9.931,0-18.01,8.08-18.01,18.012c0,3.142,0.824,6.228,2.38,8.944l-2.958,8.871
		c-0.072,0.214-0.02,0.446,0.132,0.612c0.118,0.123,0.279,0.194,0.445,0.194c0.052,0,0.106-0.008,0.156-0.022l9.685-2.55
		c2.52,1.283,5.337,1.959,8.17,1.959c9.932,0,18.01-8.08,18.01-18.008C535.44,39.176,527.362,31.096,517.43,31.096L517.43,31.096z
		 M528.667,57.287l-1.073,1.074c-1.354,1.355-2.869,2.042-4.492,2.042c-2.191,0-4.556-1.25-7.023-3.718l-6.222-6.225
		c-1.946-1.947-3.145-3.838-3.558-5.62c-0.5-2.168,0.131-4.149,1.877-5.895l1.075-1.074c0.691-0.691,1.81-0.861,2.675-0.403
		c1.625,0.858,3.308,3.677,3.493,3.998c0.339,0.589,0.441,1.198,0.295,1.723c-0.108,0.399-0.36,0.724-0.724,0.947
		c-0.492,0.411-1.071,0.928-1.174,1.056c-0.62,0.915-0.549,1.619,0.25,2.418l4.862,4.859c0.805,0.811,1.495,0.875,2.427,0.247
		c0.123-0.099,0.634-0.679,1.049-1.169c0.306-0.51,0.81-0.79,1.424-0.79c0.402,0,0.832,0.123,1.241,0.354
		c0.321,0.192,3.142,1.875,4,3.5C529.542,55.499,529.38,56.572,528.667,57.287L528.667,57.287z M528.667,57.287"/>
	<path fill-rule="evenodd" fill="rgba(255,110,64,.5)" d="M400.339,305.89c-0.471,0.124-0.96,0.21-1.466,0.257
		c-2.427,0.227-4.474-0.479-5.824-2.63c-0.807-1.288-1.029-2.735-0.939-4.234c0.038-0.602,0.146-1.186,0.466-1.71
		c0.298-0.488,0.705-0.806,1.301-0.828c0.852-0.032,1.443,0.494,1.678,1.52c0.302,1.316,0.097,2.606-0.267,3.875
		c-0.036,0.129-0.106,0.403-0.106,0.403s0.175,0.199,0.301,0.325c0.878,0.882,1.962,1.085,3.141,0.991
		c0.186-0.016,0.443-0.04,0.443-0.04s0.118-0.295,0.165-0.422c0.635-1.736,0.896-3.515,0.707-5.359
		c-0.27-2.634-1.666-4.926-5.024-5.267c-3.006-0.305-5.499,1.08-6.545,3.949c-0.6,1.647-0.63,3.336-0.326,5.037
		c0.511,2.844,1.85,5.155,4.409,6.64c0.256,0.147,0.259,0.264,0.134,0.501c-1.039,1.979-2.282,3.82-3.786,5.48
		c-0.649,0.714-0.644,0.707-1.253-0.064c-3.065-3.88-4.753-8.359-5.71-13.156c-0.261-1.314-0.476-2.629-0.639-3.958l-0.04-0.46
		l-4.574-0.002l0.037,0.26c0.579,4.13,1.453,8.185,2.999,12.075c1.137,2.858,2.57,5.54,4.645,7.841
		c0.676,0.75,1.416,1.424,2.267,1.973c0.998,0.643,1.973,0.601,2.932-0.07c0.273-0.192,0.538-0.4,0.786-0.623
		c2.639-2.391,4.771-5.172,6.385-8.344c0.125-0.249,0.255-0.363,0.552-0.364c0.669-0.001,1.336-0.079,1.998-0.189
		c0.39-0.066,0.774-0.147,1.154-0.242V305.89z M400.339,305.89"/>
	<path fill-rule="evenodd" fill="rgba(255,110,64,.5)" d="M664.238,111.137c-0.667,0.175-1.358,0.297-2.073,0.364
		c-3.433,0.321-6.327-0.678-8.236-3.72c-1.142-1.821-1.455-3.868-1.328-5.989c0.053-0.851,0.207-1.676,0.659-2.419
		c0.421-0.689,0.998-1.14,1.84-1.17c1.205-0.045,2.041,0.698,2.373,2.15c0.427,1.861,0.137,3.686-0.378,5.481
		c-0.051,0.183-0.15,0.569-0.15,0.569s0.248,0.281,0.425,0.459c1.243,1.248,2.775,1.535,4.442,1.401
		c0.263-0.022,0.626-0.056,0.626-0.056s0.167-0.418,0.233-0.597c0.897-2.455,1.267-4.971,1-7.579
		c-0.382-3.725-2.356-6.966-7.106-7.448c-4.251-0.432-7.776,1.527-9.257,5.585c-0.848,2.33-0.892,4.718-0.46,7.124
		c0.722,4.021,2.616,7.29,6.236,9.391c0.362,0.208,0.366,0.373,0.189,0.709c-1.469,2.799-3.228,5.402-5.354,7.75
		c-0.918,1.01-0.911,0.999-1.772-0.091c-4.334-5.488-6.723-11.822-8.076-18.605c-0.37-1.858-0.672-3.718-0.903-5.597l-0.057-0.651
		l-6.468-0.002l0.053,0.368c0.818,5.84,2.055,11.575,4.24,17.076c1.608,4.042,3.635,7.835,6.569,11.089
		c0.957,1.061,2.002,2.015,3.206,2.79c1.412,0.909,2.791,0.85,4.147-0.099c0.387-0.271,0.761-0.566,1.112-0.881
		c3.731-3.382,6.747-7.314,9.03-11.8c0.176-0.352,0.36-0.513,0.781-0.515c0.946-0.002,1.889-0.111,2.825-0.268
		c0.552-0.093,1.095-0.208,1.632-0.342V111.137z M664.238,111.137"/>
	<path fill="rgba(255,110,64,.5)" d="M559.821,237.041c-0.623,0.276-1.263,0.509-1.918,0.699c0.775-0.876,1.366-1.908,1.727-3.036
		c0.081-0.253-0.003-0.53-0.211-0.695s-0.496-0.186-0.725-0.05c-1.391,0.825-2.89,1.417-4.461,1.764
		c-1.584-1.548-3.736-2.429-5.959-2.429c-4.694,0-8.514,3.819-8.514,8.514c0,0.37,0.023,0.737,0.069,1.1
		c-5.825-0.511-11.241-3.375-14.96-7.937c-0.132-0.163-0.336-0.25-0.545-0.233c-0.209,0.016-0.397,0.134-0.503,0.315
		c-0.755,1.294-1.153,2.774-1.153,4.281c0,2.051,0.732,3.997,2.026,5.519c-0.394-0.137-0.775-0.308-1.14-0.509
		c-0.195-0.109-0.434-0.107-0.628,0.004s-0.316,0.316-0.321,0.54c-0.001,0.039-0.001,0.075-0.001,0.114
		c0,3.062,1.648,5.819,4.168,7.321c-0.217-0.022-0.433-0.053-0.648-0.094c-0.222-0.042-0.45,0.036-0.599,0.205
		c-0.15,0.168-0.199,0.404-0.129,0.619c0.933,2.912,3.333,5.054,6.235,5.707c-2.407,1.508-5.16,2.297-8.051,2.297
		c-0.603,0-1.208-0.035-1.803-0.105c-0.295-0.035-0.577,0.14-0.677,0.42s0.006,0.592,0.257,0.754
		c3.713,2.38,8.006,3.638,12.416,3.638c8.667,0,14.09-4.087,17.111-7.516c3.77-4.275,5.931-9.936,5.931-15.527
		c0-0.233-0.003-0.469-0.01-0.704c1.487-1.121,2.767-2.476,3.809-4.035c0.159-0.237,0.141-0.549-0.042-0.767
		C560.387,236.996,560.081,236.925,559.821,237.041L559.821,237.041z M559.821,237.041"/>
	<path fill="rgba(255,110,64,.5)" d="M79.957,101.719c-0.666,0.295-1.35,0.544-2.048,0.747c0.827-0.937,1.458-2.038,1.844-3.243
		c0.086-0.271-0.003-0.566-0.225-0.743c-0.222-0.177-0.53-0.198-0.774-0.053c-1.485,0.881-3.087,1.513-4.766,1.884
		c-1.692-1.653-3.99-2.594-6.365-2.594c-5.014,0-9.093,4.079-9.093,9.093c0,0.395,0.024,0.787,0.074,1.175
		c-6.221-0.546-12.006-3.605-15.978-8.477c-0.142-0.173-0.36-0.268-0.583-0.249c-0.224,0.018-0.424,0.144-0.537,0.337
		c-0.806,1.382-1.231,2.963-1.231,4.572c0,2.191,0.782,4.269,2.164,5.895c-0.42-0.146-0.828-0.329-1.218-0.544
		c-0.209-0.117-0.463-0.114-0.671,0.005c-0.208,0.119-0.338,0.338-0.344,0.577c0,0.041,0,0.08,0,0.121
		c0,3.271,1.76,6.216,4.452,7.82c-0.232-0.023-0.463-0.056-0.692-0.101c-0.237-0.045-0.481,0.038-0.64,0.219
		c-0.16,0.18-0.212,0.432-0.139,0.661c0.996,3.11,3.56,5.398,6.66,6.095c-2.571,1.61-5.511,2.454-8.599,2.454
		c-0.644,0-1.291-0.038-1.926-0.112c-0.315-0.038-0.616,0.148-0.724,0.448c-0.107,0.3,0.007,0.633,0.274,0.806
		c3.966,2.542,8.551,3.886,13.261,3.886c9.258,0,15.049-4.365,18.277-8.027c4.026-4.566,6.334-10.612,6.334-16.584
		c0-0.249-0.003-0.501-0.011-0.752c1.588-1.196,2.956-2.644,4.068-4.309c0.169-0.253,0.15-0.586-0.045-0.819
		C80.561,101.67,80.235,101.595,79.957,101.719L79.957,101.719z M79.957,101.719"/>
	<path fill="rgba(255,110,64,.5)" d="M132.757,62.004l8.673,3.237l3.357,10.796c0.214,0.691,1.061,0.947,1.622,0.488l4.834-3.941
		c0.507-0.413,1.228-0.434,1.758-0.049l8.72,6.331c0.601,0.436,1.451,0.106,1.602-0.618l6.388-30.726
		c0.165-0.793-0.614-1.455-1.369-1.162l-35.593,13.73C131.869,60.43,131.876,61.674,132.757,62.004L132.757,62.004z M144.247,63.518
		l16.95-10.439c0.304-0.188,0.618,0.224,0.356,0.467l-13.99,13.003c-0.491,0.458-0.809,1.07-0.898,1.735l-0.477,3.531
		c-0.063,0.472-0.725,0.52-0.855,0.063l-1.833-6.44C143.291,64.703,143.597,63.919,144.247,63.518L144.247,63.518z M144.247,63.518"
		/>
	<path fill="rgba(255,110,64,.5)" d="M561.757,172.681l13.541,5.054l5.241,16.854c0.335,1.079,1.656,1.478,2.532,0.762l7.547-6.153
		c0.792-0.645,1.917-0.677,2.744-0.076l13.613,9.884c0.938,0.681,2.265,0.166,2.5-0.965l9.972-47.968
		c0.257-1.238-0.959-2.271-2.138-1.814l-55.567,21.436C560.37,170.224,560.382,172.166,561.757,172.681L561.757,172.681z
		 M579.694,175.044l26.462-16.297c0.475-0.293,0.965,0.349,0.557,0.729l-21.84,20.3c-0.767,0.715-1.263,1.671-1.403,2.708
		l-0.744,5.512c-0.099,0.737-1.132,0.811-1.335,0.099l-2.861-10.054C578.202,176.895,578.679,175.67,579.694,175.044
		L579.694,175.044z M579.694,175.044"/>
	<path fill="rgba(255,110,64,.5)" d="M345.836,143.348c1.309-2.387,2-5.077,2-7.808c0-8.96-7.292-16.252-16.255-16.252
		c-8.96,0-16.251,7.292-16.251,16.252c0,8.962,7.292,16.253,16.251,16.253c2.936,0,5.801-0.79,8.312-2.288l8.181,2.193
		L345.836,143.348z M323.251,137.583c-1.129,0-2.041-0.916-2.041-2.043c0-1.126,0.912-2.043,2.041-2.043
		c1.128,0,2.041,0.917,2.041,2.043C325.292,136.668,324.379,137.583,323.251,137.583z M331.58,137.583
		c-1.125,0-2.041-0.916-2.041-2.043c0-1.126,0.916-2.043,2.041-2.043c1.129,0,2.044,0.917,2.044,2.043
		C333.625,136.668,332.709,137.583,331.58,137.583z M339.913,137.583c-1.128,0-2.043-0.916-2.043-2.043
		c0-1.126,0.916-2.043,2.043-2.043c1.127,0,2.042,0.917,2.042,2.043C341.955,136.668,341.04,137.583,339.913,137.583z"/>
	<path fill="rgba(255,110,64,.5)" d="M201.347,119.085c0.676-1.232,1.032-2.62,1.032-4.03c0-4.625-3.764-8.387-8.389-8.387
		c-4.625,0-8.388,3.763-8.388,8.387c0,4.625,3.763,8.388,8.388,8.388c1.515,0,2.993-0.408,4.29-1.181l4.222,1.132L201.347,119.085z
		 M189.691,116.109c-0.583,0-1.053-0.472-1.053-1.054c0-0.581,0.471-1.054,1.053-1.054s1.053,0.473,1.053,1.054
		C190.745,115.637,190.274,116.109,189.691,116.109z M193.99,116.109c-0.581,0-1.054-0.472-1.054-1.054
		c0-0.581,0.473-1.054,1.054-1.054c0.583,0,1.055,0.473,1.055,1.054C195.045,115.637,194.573,116.109,193.99,116.109z
		 M198.291,116.109c-0.583,0-1.055-0.472-1.055-1.054c0-0.581,0.472-1.054,1.055-1.054c0.582,0,1.053,0.473,1.053,1.054
		C199.344,115.637,198.872,116.109,198.291,116.109z"/>
	<path fill="rgba(255,110,64,.5)" d="M146.155,324.264c1.302-2.375,1.989-5.051,1.989-7.768c0-8.914-7.253-16.167-16.171-16.167
		c-8.914,0-16.168,7.254-16.168,16.167c0,8.916,7.254,16.17,16.168,16.17c2.92,0,5.77-0.786,8.268-2.276l8.139,2.182
		L146.155,324.264z M123.687,318.528c-1.123,0-2.031-0.91-2.031-2.033c0-1.12,0.908-2.032,2.031-2.032
		c1.123,0,2.03,0.912,2.03,2.032C125.717,317.618,124.81,318.528,123.687,318.528z M131.973,318.528c-1.12,0-2.031-0.91-2.031-2.033
		c0-1.12,0.911-2.032,2.031-2.032c1.124,0,2.034,0.912,2.034,2.032C134.007,317.618,133.097,318.528,131.973,318.528z
		 M140.262,318.528c-1.122,0-2.032-0.91-2.032-2.033c0-1.12,0.91-2.032,2.032-2.032c1.121,0,2.031,0.912,2.031,2.032
		C142.293,317.618,141.383,318.528,140.262,318.528z"/>
	<path fill="rgba(255,110,64,.5)" d="M419.341,161.566c2.802,0,5.135,2.333,5.139,5.141c0.001,0.658,0.021,1.264,0.059,1.822
		c0.022,0.344,0.31,0.599,0.637,0.599c0.048,0,0.097-0.005,0.147-0.017l0.877-0.206c0.038-0.008,0.075-0.012,0.112-0.012
		c0.223,0,0.428,0.152,0.478,0.378c0.07,0.319-0.107,0.641-0.417,0.75l-1.333,0.537c-0.336,0.136-0.517,0.502-0.422,0.853
		c1.068,3.951,4.054,3.541,4.054,4.055c0,0.647-2.25,0.738-2.454,0.941c-0.204,0.204-0.009,1.19-0.463,1.381
		c-0.086,0.037-0.208,0.049-0.356,0.049c-0.342,0-0.826-0.067-1.336-0.067c-0.442,0-0.904,0.05-1.311,0.238
		c-1.078,0.498-2.116,1.427-3.404,1.427s-2.327-0.93-3.404-1.427c-0.407-0.188-0.869-0.238-1.311-0.238
		c-0.51,0-0.994,0.067-1.337,0.067c-0.147,0-0.27-0.013-0.355-0.049c-0.455-0.191-0.26-1.177-0.464-1.381
		c-0.203-0.204-2.454-0.294-2.454-0.941c0-0.514,2.986-0.104,4.055-4.055c0.095-0.35-0.085-0.716-0.422-0.853l-1.333-0.537
		c-0.309-0.108-0.487-0.431-0.417-0.75c0.05-0.226,0.255-0.378,0.478-0.378c0.037,0,0.075,0.004,0.112,0.012l0.878,0.206
		c0.049,0.012,0.098,0.017,0.146,0.017c0.329,0,0.615-0.255,0.638-0.599c0.037-0.558,0.057-1.164,0.058-1.822
		C414.224,163.899,416.539,161.566,419.341,161.566 M419.342,160.451h-0.001c-0.836,0.001-1.651,0.169-2.421,0.5
		c-0.739,0.317-1.405,0.771-1.979,1.346c-0.571,0.577-1.022,1.244-1.338,1.985c-0.328,0.771-0.495,1.587-0.497,2.424
		c0,0.411-0.009,0.81-0.025,1.191l-0.327-0.076c-0.12-0.029-0.243-0.042-0.366-0.042c-0.355,0-0.706,0.12-0.987,0.337
		c-0.293,0.228-0.499,0.553-0.579,0.914c-0.191,0.858,0.283,1.726,1.105,2.031l0.979,0.395c-0.647,1.987-1.842,2.368-2.646,2.625
		c-0.213,0.068-0.397,0.127-0.573,0.214c-0.699,0.347-0.774,0.935-0.774,1.171c0,0.454,0.214,0.867,0.603,1.165
		c0.194,0.147,0.435,0.271,0.735,0.374c0.409,0.141,0.884,0.23,1.269,0.301c0.019,0.143,0.046,0.297,0.092,0.451
		c0.191,0.643,0.595,0.931,0.899,1.059c0.29,0.122,0.588,0.135,0.788,0.135c0.195,0,0.402-0.016,0.621-0.032
		c0.234-0.017,0.477-0.035,0.716-0.035c0.37,0,0.646,0.045,0.843,0.136c0.271,0.125,0.557,0.292,0.861,0.471
		c0.845,0.496,1.803,1.059,3.011,1.059c1.208,0,2.166-0.563,3.011-1.059c0.304-0.179,0.591-0.346,0.861-0.471
		c0.198-0.091,0.473-0.136,0.844-0.136c0.239,0,0.481,0.018,0.715,0.035c0.219,0.016,0.426,0.032,0.621,0.032
		c0.199,0,0.499-0.013,0.788-0.135c0.305-0.128,0.708-0.416,0.899-1.059c0.046-0.154,0.074-0.308,0.092-0.451
		c0.386-0.071,0.86-0.161,1.27-0.301c0.3-0.103,0.54-0.227,0.734-0.374c0.389-0.298,0.604-0.711,0.604-1.165
		c0-0.236-0.075-0.825-0.774-1.171c-0.176-0.086-0.36-0.146-0.573-0.214c-0.804-0.257-1.999-0.637-2.646-2.625l0.978-0.395
		c0.822-0.304,1.296-1.173,1.105-2.031c-0.08-0.361-0.286-0.686-0.579-0.914c-0.281-0.218-0.631-0.337-0.987-0.337
		c-0.123,0-0.247,0.014-0.366,0.042l-0.327,0.076c-0.017-0.381-0.025-0.78-0.025-1.191c-0.001-0.837-0.17-1.654-0.501-2.426
		c-0.318-0.742-0.771-1.409-1.346-1.985c-0.575-0.575-1.242-1.027-1.983-1.345C420.993,160.62,420.178,160.452,419.342,160.451
		L419.342,160.451z M419.342,160.451"/>
	<path fill="rgba(255,110,64,.5)" d="M287.328,206.865h-0.001c-1.018,0-2.01,0.205-2.947,0.608c-0.9,0.387-1.711,0.938-2.409,1.64
		c-0.696,0.701-1.245,1.513-1.628,2.417c-0.4,0.939-0.603,1.931-0.604,2.949c0,0.499-0.011,0.985-0.031,1.45l-0.397-0.093
		c-0.146-0.034-0.295-0.051-0.445-0.052c-0.433,0-0.859,0.146-1.202,0.413c-0.356,0.276-0.607,0.67-0.705,1.11
		c-0.232,1.046,0.345,2.101,1.346,2.473l1.191,0.481c-0.789,2.418-2.242,2.883-3.221,3.194c-0.26,0.083-0.484,0.155-0.697,0.261
		c-0.851,0.423-0.942,1.138-0.942,1.426c0,0.552,0.26,1.055,0.734,1.418c0.236,0.181,0.529,0.33,0.895,0.455
		c0.498,0.171,1.075,0.28,1.544,0.367c0.023,0.175,0.057,0.36,0.112,0.55c0.234,0.781,0.725,1.131,1.095,1.288
		c0.352,0.147,0.716,0.165,0.958,0.165c0.238,0,0.489-0.019,0.755-0.038c0.285-0.021,0.581-0.043,0.872-0.043
		c0.451,0,0.787,0.054,1.026,0.165c0.329,0.153,0.678,0.357,1.047,0.574c1.029,0.605,2.195,1.289,3.666,1.289
		c1.471,0,2.637-0.684,3.666-1.289c0.37-0.217,0.719-0.421,1.048-0.574c0.24-0.111,0.575-0.165,1.026-0.165
		c0.291,0,0.586,0.022,0.871,0.043c0.266,0.02,0.518,0.038,0.755,0.038c0.244,0,0.607-0.017,0.959-0.165
		c0.371-0.156,0.862-0.506,1.095-1.288c0.057-0.189,0.09-0.375,0.113-0.55c0.469-0.087,1.046-0.196,1.545-0.367
		c0.365-0.125,0.657-0.274,0.894-0.455c0.474-0.363,0.735-0.866,0.735-1.418c0-0.288-0.091-1.002-0.942-1.426
		c-0.213-0.105-0.438-0.178-0.698-0.261c-0.979-0.311-2.432-0.775-3.22-3.194l1.19-0.481c1-0.371,1.578-1.427,1.346-2.473
		c-0.097-0.44-0.348-0.834-0.705-1.11c-0.342-0.267-0.769-0.413-1.201-0.413c-0.15,0-0.3,0.018-0.446,0.052l-0.397,0.093
		c-0.02-0.464-0.031-0.951-0.031-1.45c-0.001-1.02-0.207-2.012-0.61-2.954c-0.387-0.902-0.938-1.715-1.638-2.415
		c-0.7-0.701-1.512-1.251-2.415-1.639C289.337,207.07,288.345,206.865,287.328,206.865L287.328,206.865z M287.328,206.865"/>
	<path fill="rgba(255,110,64,.5)" d="M609.356,46.29h-0.001c-1.018,0-2.01,0.205-2.947,0.608c-0.9,0.387-1.711,0.938-2.409,1.64
		c-0.696,0.701-1.245,1.513-1.628,2.417c-0.4,0.939-0.603,1.931-0.604,2.949c0,0.499-0.011,0.985-0.031,1.45l-0.397-0.093
		c-0.146-0.034-0.295-0.051-0.445-0.052c-0.433,0-0.859,0.146-1.202,0.413c-0.356,0.276-0.607,0.67-0.705,1.11
		c-0.232,1.046,0.345,2.101,1.346,2.473l1.191,0.481c-0.789,2.418-2.242,2.883-3.221,3.194c-0.26,0.083-0.484,0.155-0.697,0.261
		c-0.851,0.423-0.942,1.138-0.942,1.426c0,0.552,0.26,1.055,0.734,1.418c0.236,0.181,0.529,0.33,0.895,0.455
		c0.498,0.171,1.075,0.28,1.544,0.367c0.023,0.175,0.057,0.36,0.112,0.55c0.234,0.781,0.725,1.131,1.095,1.288
		c0.352,0.147,0.716,0.165,0.958,0.165c0.238,0,0.489-0.019,0.755-0.038c0.285-0.021,0.581-0.043,0.872-0.043
		c0.451,0,0.787,0.054,1.026,0.165c0.329,0.153,0.678,0.357,1.047,0.574c1.029,0.605,2.195,1.289,3.666,1.289
		c1.471,0,2.637-0.684,3.666-1.289c0.37-0.217,0.719-0.421,1.048-0.574c0.24-0.111,0.575-0.165,1.026-0.165
		c0.291,0,0.586,0.022,0.871,0.043c0.266,0.02,0.518,0.038,0.755,0.038c0.244,0,0.607-0.017,0.959-0.165
		c0.371-0.156,0.862-0.506,1.095-1.288c0.057-0.189,0.09-0.375,0.113-0.55c0.469-0.087,1.046-0.196,1.545-0.367
		c0.365-0.125,0.657-0.274,0.894-0.455c0.474-0.363,0.735-0.866,0.735-1.418c0-0.288-0.091-1.002-0.942-1.426
		c-0.213-0.105-0.438-0.178-0.698-0.261c-0.979-0.311-2.432-0.775-3.22-3.194l1.19-0.481c1-0.371,1.578-1.427,1.346-2.473
		c-0.097-0.44-0.348-0.834-0.705-1.11c-0.342-0.267-0.769-0.413-1.201-0.413c-0.15,0-0.3,0.018-0.446,0.052l-0.397,0.093
		c-0.02-0.464-0.031-0.951-0.031-1.45c-0.001-1.02-0.207-2.012-0.61-2.954c-0.387-0.902-0.938-1.715-1.638-2.415
		c-0.7-0.701-1.512-1.251-2.415-1.639C611.366,46.495,610.374,46.29,609.356,46.29L609.356,46.29z M609.356,46.29"/>
	<path fill="rgba(255,110,64,.5)" d="M49.275,210.386c0.23-1.051,0.352-2.143,0.352-3.263c0-8.4-6.81-15.21-15.21-15.21
		c-0.887,0-1.756,0.076-2.601,0.221c-1.359-0.856-2.967-1.353-4.692-1.353c-4.873,0-8.821,3.951-8.821,8.821
		c0,1.627,0.443,3.152,1.212,4.462c-0.202,0.988-0.308,2.01-0.308,3.058c0,8.401,6.81,15.21,15.21,15.21
		c0.951,0,1.882-0.088,2.785-0.255c1.242,0.667,2.663,1.046,4.171,1.046c4.871,0,8.82-3.949,8.82-8.82
		C50.192,212.896,49.861,211.566,49.275,210.386L49.275,210.386z M42.217,214.392c-0.703,0.995-1.743,1.784-3.09,2.344
		c-1.334,0.553-2.933,0.835-4.753,0.835c-2.185,0-4.016-0.385-5.446-1.144c-1.022-0.551-1.864-1.298-2.504-2.222
		c-0.646-0.932-0.974-1.856-0.974-2.748c0-0.556,0.213-1.04,0.635-1.437c0.417-0.391,0.95-0.589,1.587-0.589
		c0.522,0,0.973,0.157,1.34,0.466c0.35,0.297,0.65,0.735,0.893,1.303c0.269,0.617,0.562,1.139,0.873,1.549
		c0.298,0.395,0.728,0.727,1.276,0.986c0.551,0.261,1.294,0.394,2.209,0.394c1.257,0,2.289-0.269,3.063-0.799
		c0.757-0.517,1.126-1.138,1.126-1.897c0-0.6-0.192-1.072-0.587-1.443c-0.415-0.387-0.961-0.688-1.624-0.894
		c-0.692-0.216-1.629-0.449-2.791-0.691c-1.572-0.337-2.909-0.737-3.973-1.188c-0.005-0.001-0.009-0.003-0.013-0.005
		c-1.091-0.464-1.969-1.107-2.613-1.913c-0.652-0.817-0.983-1.842-0.983-3.048c0-1.15,0.347-2.185,1.033-3.079
		c0.68-0.887,1.673-1.577,2.952-2.049c1.262-0.467,2.765-0.703,4.463-0.703c1.358,0,2.552,0.156,3.55,0.466
		c1.002,0.313,1.847,0.735,2.511,1.253c0.669,0.522,1.167,1.083,1.479,1.662c0.315,0.588,0.475,1.172,0.475,1.736
		c0,0.544-0.21,1.036-0.624,1.467c-0.417,0.434-0.943,0.653-1.562,0.653c-0.563,0-1.004-0.138-1.311-0.408
		c-0.284-0.251-0.579-0.644-0.907-1.21c-0.379-0.719-0.838-1.288-1.365-1.688c-0.511-0.389-1.365-0.586-2.54-0.586
		c-1.091,0-1.977,0.218-2.635,0.65c-0.634,0.415-0.943,0.892-0.943,1.458c0,0.346,0.1,0.636,0.304,0.885
		c0.217,0.265,0.521,0.497,0.906,0.689c0.4,0.2,0.812,0.359,1.225,0.475c0.423,0.117,1.131,0.29,2.104,0.516
		c1.025,0.22,1.979,0.463,2.848,0.722c0.174,0.052,0.347,0.104,0.515,0.158c1.013,0.324,1.888,0.724,2.603,1.188
		c0.728,0.475,1.304,1.085,1.713,1.812c0.411,0.729,0.619,1.631,0.619,2.678C43.282,212.25,42.923,213.392,42.217,214.392
		L42.217,214.392z M42.217,214.392"/>
	<path fill="rgba(255,110,64,.5)" d="M685.02,316.1c0.23-1.051,0.352-2.143,0.352-3.263c0-8.4-6.81-15.21-15.21-15.21
		c-0.887,0-1.756,0.076-2.601,0.221c-1.359-0.856-2.967-1.353-4.692-1.353c-4.873,0-8.821,3.951-8.821,8.821
		c0,1.627,0.443,3.152,1.212,4.462c-0.202,0.988-0.308,2.01-0.308,3.058c0,8.401,6.81,15.21,15.21,15.21
		c0.951,0,1.882-0.088,2.785-0.255c1.242,0.667,2.663,1.046,4.171,1.046c4.871,0,8.82-3.949,8.82-8.82
		C685.937,318.611,685.605,317.281,685.02,316.1L685.02,316.1z M677.962,320.106c-0.703,0.995-1.743,1.784-3.09,2.344
		c-1.334,0.553-2.933,0.835-4.753,0.835c-2.185,0-4.016-0.385-5.446-1.144c-1.022-0.551-1.864-1.298-2.504-2.222
		c-0.646-0.932-0.974-1.856-0.974-2.748c0-0.556,0.213-1.04,0.635-1.437c0.417-0.391,0.95-0.589,1.587-0.589
		c0.522,0,0.973,0.157,1.34,0.466c0.35,0.297,0.65,0.735,0.893,1.303c0.269,0.617,0.562,1.139,0.873,1.549
		c0.298,0.395,0.728,0.727,1.276,0.986c0.551,0.261,1.294,0.394,2.209,0.394c1.257,0,2.289-0.269,3.063-0.799
		c0.757-0.517,1.126-1.138,1.126-1.897c0-0.6-0.192-1.072-0.587-1.443c-0.415-0.387-0.961-0.688-1.624-0.894
		c-0.692-0.216-1.629-0.449-2.791-0.691c-1.572-0.337-2.909-0.737-3.973-1.188c-0.005-0.001-0.009-0.003-0.013-0.005
		c-1.091-0.464-1.969-1.107-2.613-1.913c-0.652-0.817-0.983-1.842-0.983-3.048c0-1.15,0.347-2.185,1.033-3.079
		c0.68-0.887,1.673-1.577,2.952-2.049c1.262-0.467,2.765-0.703,4.463-0.703c1.358,0,2.552,0.156,3.55,0.466
		c1.002,0.313,1.847,0.735,2.511,1.253c0.669,0.522,1.167,1.083,1.479,1.662c0.315,0.588,0.475,1.172,0.475,1.736
		c0,0.544-0.21,1.036-0.624,1.467c-0.417,0.434-0.943,0.653-1.562,0.653c-0.563,0-1.004-0.138-1.311-0.408
		c-0.284-0.251-0.579-0.644-0.907-1.21c-0.379-0.719-0.838-1.288-1.365-1.688c-0.511-0.389-1.365-0.586-2.54-0.586
		c-1.091,0-1.977,0.218-2.635,0.65c-0.634,0.415-0.943,0.892-0.943,1.458c0,0.346,0.1,0.636,0.304,0.885
		c0.217,0.265,0.521,0.497,0.906,0.689c0.4,0.2,0.812,0.359,1.225,0.475c0.423,0.117,1.131,0.29,2.104,0.516
		c1.025,0.22,1.979,0.463,2.848,0.722c0.174,0.052,0.347,0.104,0.515,0.158c1.013,0.324,1.888,0.724,2.603,1.188
		c0.728,0.475,1.304,1.085,1.713,1.812c0.411,0.729,0.619,1.631,0.619,2.678C679.026,317.964,678.668,319.106,677.962,320.106
		L677.962,320.106z M677.962,320.106"/>
	<path fill="rgba(255,110,64,.5)" d="M260.113,90.848l2.481-10.823c0,0,0.77-3.088,4.092-3.088c3.315,0,26.278,0.899,31.367-15.718
		c1.862-6.076,3.155-20.489-20.032-20.489h-16.747c0,0-3.481-0.162-4.34,3.54l-10.943,47.226c0,0-0.47,2.96,2.524,2.96h7.476
		C255.991,94.457,259.436,94.651,260.113,90.848L260.113,90.848z M266.424,63.375l2.225-9.596c0,0,0.708-2.609,2.997-2.996
		c2.287-0.388,6.18,0.069,7.182,0.258c6.503,1.222,5.12,7.375,5.12,7.375c-1.287,9.499-16.073,8.181-16.073,8.181
		C265.557,65.759,266.424,63.375,266.424,63.375L266.424,63.375z M266.424,63.375 M299.702,50.981
		c2.387,4.378,1.6,9.542,0.659,12.592c-5.088,16.622-28.047,15.718-31.37,15.718c-3.318,0-4.09,3.093-4.09,3.093l-2.481,10.823
		c-0.676,3.798-4.121,3.608-4.121,3.608h-7.474c-0.188,0-0.363-0.012-0.524-0.034c-0.036,0.695,0.062,2.728,2.549,2.728h7.471
		c0,0,3.445,0.193,4.124-3.604l2.478-10.822c0,0,0.775-3.094,4.093-3.094c3.316,0,26.281,0.904,31.372-15.719
		C303.523,62.555,304.447,55.729,299.702,50.981L299.702,50.981z M299.702,50.981"/>
	<path fill="rgba(255,110,64,.5)" d="M621.405,266.081l1.496-6.525c0,0,0.464-1.861,2.467-1.861c1.999,0,15.841,0.542,18.909-9.475
		c1.122-3.663,1.902-12.351-12.076-12.351h-10.096c0,0-2.098-0.098-2.616,2.134l-6.597,28.469c0,0-0.283,1.785,1.522,1.785h4.506
		C618.92,268.255,620.997,268.373,621.405,266.081L621.405,266.081z M625.209,249.519l1.341-5.785c0,0,0.427-1.573,1.806-1.806
		c1.378-0.234,3.726,0.042,4.33,0.155c3.92,0.736,3.086,4.446,3.086,4.446c-0.775,5.726-9.689,4.932-9.689,4.932
		C624.687,250.956,625.209,249.519,625.209,249.519L625.209,249.519z M625.209,249.519 M645.27,242.048
		c1.439,2.639,0.964,5.751,0.397,7.591c-3.067,10.02-16.908,9.475-18.911,9.475c-2,0-2.465,1.864-2.465,1.864l-1.496,6.524
		c-0.408,2.29-2.484,2.175-2.484,2.175h-4.505c-0.113,0-0.219-0.007-0.316-0.021c-0.021,0.419,0.038,1.645,1.537,1.645h4.504
		c0,0,2.077,0.116,2.485-2.173l1.494-6.524c0,0,0.467-1.865,2.468-1.865c1.999,0,15.843,0.545,18.912-9.476
		C647.574,249.025,648.13,244.91,645.27,242.048L645.27,242.048z M645.27,242.048"/>
	<path fill="rgba(255,110,64,.5)" d="M467.722,313.217l0.859-3.749c0,0,0.266-1.069,1.417-1.069c1.148,0,9.102,0.311,10.865-5.445
		c0.645-2.104,1.093-7.096-6.938-7.096h-5.801c0,0-1.205-0.056-1.503,1.226l-3.791,16.358c0,0-0.163,1.025,0.875,1.025h2.589
		C466.294,314.466,467.487,314.534,467.722,313.217L467.722,313.217z M469.908,303.701l0.771-3.325c0,0,0.246-0.904,1.038-1.037
		c0.792-0.135,2.14,0.024,2.488,0.089c2.252,0.423,1.773,2.555,1.773,2.555c-0.445,3.29-5.567,2.833-5.567,2.833
		C469.607,304.527,469.908,303.701,469.908,303.701L469.908,303.701z M469.908,303.701 M481.434,299.408
		c0.827,1.517,0.554,3.305,0.229,4.362c-1.763,5.758-9.715,5.444-10.866,5.444c-1.148,0-1.417,1.071-1.417,1.071l-0.859,3.749
		c-0.234,1.315-1.428,1.25-1.428,1.25h-2.588c-0.065,0-0.125-0.004-0.182-0.013c-0.013,0.241,0.021,0.945,0.883,0.945h2.587
		c0,0,1.194,0.067,1.428-1.249l0.858-3.748c0,0,0.269-1.072,1.418-1.072c1.148,0,9.103,0.312,10.867-5.444
		C482.758,303.416,483.078,301.053,481.434,299.408L481.434,299.408z M481.434,299.408"/>
	<path fill="rgba(255,110,64,.5)" d="M396.854,32.046h-27.875c-1.888,0-3.484,1.596-3.484,3.485v19.163c0,1.889,1.596,3.486,3.484,3.486h4.645
		v5.807c0,0.241,0.147,0.458,0.372,0.543c0.069,0.023,0.139,0.04,0.209,0.04c0.162,0,0.318-0.069,0.432-0.191l5.634-6.198h16.583
		c1.889,0,3.485-1.597,3.485-3.486V35.531C400.339,33.642,398.743,32.046,396.854,32.046L396.854,32.046z M395.048,38.705
		l-6.97,13.355c-0.077,0.15-0.218,0.259-0.38,0.297c-0.046,0.01-0.09,0.015-0.136,0.015c-0.119,0-0.238-0.036-0.337-0.11
		l-10.036-7.246l-5.457,6.003c-0.194,0.216-0.521,0.251-0.759,0.091c-0.238-0.165-0.321-0.479-0.19-0.74l5.808-11.616
		c0.077-0.153,0.216-0.263,0.38-0.303c0.167-0.04,0.34-0.006,0.479,0.093l10.019,7.237l6.624-7.725
		c0.191-0.224,0.52-0.27,0.767-0.105C395.102,38.118,395.184,38.441,395.048,38.705L395.048,38.705z M395.048,38.705"/>
	<path fill="rgba(255,110,64,.5)" d="M445.364,242.941h-11.292c-0.765,0-1.411,0.646-1.411,1.412v7.762c0,0.765,0.646,1.413,1.411,1.413h1.882
		v2.352c0,0.098,0.06,0.186,0.151,0.22c0.027,0.01,0.056,0.016,0.084,0.016c0.065,0,0.129-0.028,0.175-0.078l2.282-2.51h6.717
		c0.766,0,1.412-0.647,1.412-1.413v-7.762C446.776,243.587,446.129,242.941,445.364,242.941L445.364,242.941z M444.632,245.638
		l-2.823,5.411c-0.031,0.06-0.088,0.104-0.154,0.12c-0.019,0.004-0.037,0.006-0.055,0.006c-0.048,0-0.097-0.014-0.137-0.044
		l-4.065-2.936l-2.21,2.432c-0.079,0.087-0.211,0.102-0.308,0.037c-0.097-0.067-0.13-0.194-0.077-0.299l2.353-4.706
		c0.031-0.062,0.087-0.107,0.154-0.123c0.068-0.016,0.138-0.002,0.194,0.038l4.059,2.932l2.683-3.129
		c0.077-0.091,0.21-0.109,0.311-0.042C444.654,245.4,444.688,245.531,444.632,245.638L444.632,245.638z M444.632,245.638"/>
	<path fill="rgba(255,110,64,.5)" d="M372.175,191.252c-1.607,0-2.915,1.306-2.915,2.912c0,1.606,1.308,2.913,2.915,2.913
		c1.605,0,2.912-1.307,2.912-2.913S373.78,191.252,372.175,191.252L372.175,191.252z M372.175,191.252 M385.615,197.953
		c-1.774,0-3.085,0.763-3.88,1.629v-0.921c0-0.197-0.159-0.355-0.355-0.355h-4.229c-0.196,0-0.354,0.159-0.354,0.355v14.188
		c0,0.196,0.158,0.355,0.354,0.355h4.407c0.196,0,0.354-0.159,0.354-0.355v-7.02c0-2.366,0.643-3.287,2.292-3.287
		c1.796,0,1.939,1.478,1.939,3.409v6.898c0,0.196,0.159,0.355,0.355,0.355h4.408c0.196,0,0.355-0.159,0.355-0.355v-7.782
		C391.261,201.549,390.589,197.953,385.615,197.953L385.615,197.953z M385.615,197.953 M374.381,198.306h-4.417
		c-0.196,0-0.355,0.159-0.355,0.355v14.188c0,0.196,0.159,0.355,0.355,0.355h4.417c0.196,0,0.355-0.159,0.355-0.355v-14.188
		C374.736,198.464,374.578,198.306,374.381,198.306L374.381,198.306z M374.381,198.306"/>
	<path fill="rgba(255,110,64,.5)" d="M476.843,183.53h23.687c2.25,0,4.09,1.84,4.09,4.09v23.687c0,2.25-1.839,4.088-4.09,4.088h-23.687
		c-2.25,0-4.092-1.839-4.092-4.088v-23.687C472.751,185.371,474.592,183.53,476.843,183.53L476.843,183.53z M495.967,187.069
		c-0.79,0-1.435,0.647-1.435,1.437v3.433c0,0.79,0.645,1.436,1.435,1.436h3.602c0.789,0,1.435-0.646,1.435-1.436v-3.433
		c0-0.79-0.646-1.437-1.435-1.437H495.967z M501.017,197.006h-2.804c0.267,0.868,0.411,1.785,0.411,2.736
		c0,5.298-4.437,9.597-9.908,9.597c-5.47,0-9.907-4.298-9.907-9.597c0-0.952,0.146-1.868,0.411-2.736h-2.925v13.463
		c0,0.697,0.569,1.264,1.265,1.264h22.192c0.697,0,1.265-0.567,1.265-1.264V197.006z M488.715,193.193
		c-3.533,0-6.399,2.775-6.399,6.203c0,3.424,2.866,6.201,6.399,6.201c3.535,0,6.401-2.777,6.401-6.201
		C495.116,195.969,492.25,193.193,488.715,193.193L488.715,193.193z M488.715,193.193"/>
	<path fill="rgba(255,110,64,.5)" d="M125.772,250.491h12.641c1.201,0,2.183,0.982,2.183,2.184v12.642c0,1.2-0.982,2.182-2.183,2.182h-12.641
		c-1.202,0-2.184-0.981-2.184-2.182v-12.642C123.588,251.473,124.571,250.491,125.772,250.491L125.772,250.491z M135.979,252.379
		c-0.422,0-0.766,0.346-0.766,0.767v1.833c0,0.421,0.344,0.766,0.766,0.766h1.922c0.42,0,0.766-0.345,0.766-0.766v-1.833
		c0-0.421-0.345-0.767-0.766-0.767H135.979z M138.673,257.683h-1.497c0.142,0.463,0.219,0.952,0.219,1.46
		c0,2.828-2.368,5.122-5.288,5.122c-2.919,0-5.287-2.294-5.287-5.122c0-0.508,0.078-0.998,0.219-1.46h-1.561v7.185
		c0,0.372,0.304,0.675,0.675,0.675h11.844c0.372,0,0.675-0.303,0.675-0.675V257.683z M132.108,255.648
		c-1.885,0-3.415,1.481-3.415,3.311c0,1.827,1.53,3.31,3.415,3.31c1.886,0,3.416-1.482,3.416-3.31
		C135.524,257.129,133.995,255.648,132.108,255.648L132.108,255.648z M132.108,255.648"/>
	<path fill="rgba(255,110,64,.5)" d="M727.56,102.921h40.865c3.881,0,7.055,3.176,7.055,7.059v40.866c0,3.879-3.174,7.052-7.055,7.052H727.56
		c-3.884,0-7.06-3.173-7.06-7.052V109.98C720.5,106.097,723.676,102.921,727.56,102.921L727.56,102.921z M760.553,109.027
		c-1.364,0-2.475,1.117-2.475,2.479v5.924c0,1.36,1.111,2.476,2.475,2.476h6.214c1.359,0,2.476-1.116,2.476-2.476v-5.924
		c0-1.363-1.116-2.479-2.476-2.479H760.553z M769.264,126.171h-4.837c0.459,1.497,0.709,3.078,0.709,4.722
		c0,9.141-7.656,16.556-17.093,16.556c-9.435,0-17.091-7.415-17.091-16.556c0-1.644,0.253-3.225,0.708-4.722h-5.046v23.226
		c0,1.203,0.982,2.182,2.183,2.182h38.287c1.203,0,2.181-0.979,2.181-2.182V126.171z M748.042,119.593
		c-6.094,0-11.039,4.788-11.039,10.702c0,5.906,4.945,10.699,11.039,10.699c6.098,0,11.042-4.792,11.042-10.699
		C759.084,124.381,754.14,119.593,748.042,119.593L748.042,119.593z M748.042,119.593"/>
	<path fill="rgba(255,110,64,.5)" d="M280.517,308.476c1.116,0,2.188,0.301,3.102,0.869l1.044,0.715c0.364,0.25,0.854,0.206,1.167-0.105
		l3.047-3.018c0.195-0.193,0.293-0.463,0.269-0.736c-0.024-0.273-0.169-0.521-0.396-0.676l-1.771-1.215
		c-0.037-0.025-0.074-0.047-0.113-0.066l-1.716-0.847c-0.022-0.011-0.046-0.021-0.07-0.031c-1.477-0.583-3.034-0.878-4.627-0.878
		c-3.283,0-6.379,1.26-8.719,3.548c-2.377,2.322-3.698,5.482-3.721,8.896s1.256,6.591,3.602,8.947
		c2.328,2.337,5.629,3.678,9.06,3.678c3.394,0,6.578-1.318,8.736-3.615c1.709-1.82,2.758-4.25,3.034-7.03
		c0.003-0.026,0.004-0.053,0.005-0.079l0.032-2.497c0-0.051-0.003-0.103-0.011-0.154l-0.134-0.853
		c-0.07-0.448-0.456-0.778-0.909-0.778h-10.635c-0.509,0-0.92,0.412-0.92,0.92v3.678c0,0.508,0.412,0.92,0.92,0.92h5.421
		c-0.249,0.545-0.64,1.12-1.135,1.655c-1.08,1.167-2.69,1.836-4.418,1.836c-1.765,0-3.455-0.691-4.637-1.896
		c-2.461-2.509-2.432-6.881,0.06-9.355C277.256,309.144,278.873,308.476,280.517,308.476L280.517,308.476z M280.517,308.476
		 M305.745,312.491h-2.429v-2.428c0-0.508-0.412-0.92-0.92-0.92h-3.278c-0.508,0-0.92,0.412-0.92,0.92v2.428h-2.428
		c-0.508,0-0.92,0.413-0.92,0.921v3.278c0,0.509,0.412,0.92,0.92,0.92h2.428v2.428c0,0.509,0.413,0.92,0.92,0.92h3.278
		c0.508,0,0.92-0.412,0.92-0.92v-2.428h2.429c0.508,0,0.92-0.412,0.92-0.92v-3.278C306.665,312.904,306.252,312.491,305.745,312.491
		L305.745,312.491z M305.745,312.491"/>
	<path fill="rgba(255,110,64,.5)" d="M80.639,32.046H57.923c-2.269,0-4.005,1.735-4.005,4.005v9.356c0,2.27,1.736,4.005,4.005,4.005h22.716
		c2.27,0,4.005-1.735,4.005-4.005v-9.356C84.645,33.782,82.909,32.046,80.639,32.046L80.639,32.046z M65.941,37.389h-4.005
		c-0.803,0-1.337,0.537-1.337,1.338v4.005c0,0.803,0.534,1.338,1.337,1.338h2.667v-2.668h-2.667v-1.337h4.005v5.344h-4.005
		c-1.468,0-2.674-1.201-2.674-2.676v-4.005c0-1.468,1.206-2.675,2.674-2.675h4.005V37.389z M71.284,37.389h-1.331v6.681h1.331v1.338
		h-4.005V44.07h1.337v-6.681h-1.337v-1.337h4.005V37.389z M79.302,37.389h-5.343v2.675h4.005v1.337h-4.005v4.006h-1.337v-9.356h6.68
		V37.389z M79.302,37.389"/>
	<path fill="rgba(255,110,64,.5)" d="M774.795,281.994h-53.611c-5.355,0-9.452,4.096-9.452,9.452v22.082c0,5.356,4.097,9.452,9.452,9.452h53.611
		c5.357,0,9.453-4.096,9.453-9.452v-22.082C784.248,286.089,780.152,281.994,774.795,281.994L774.795,281.994z M740.107,294.602
		h-9.453c-1.896,0-3.157,1.266-3.157,3.158v9.453c0,1.895,1.261,3.157,3.157,3.157h6.295v-6.298h-6.295v-3.156h9.453v12.611h-9.453
		c-3.465,0-6.312-2.834-6.312-6.314v-9.453c0-3.465,2.847-6.314,6.312-6.314h9.453V294.602z M752.716,294.602h-3.14v15.768h3.14
		v3.157h-9.453v-3.157h3.156v-15.768h-3.156v-3.157h9.453V294.602z M771.639,294.602h-12.609v6.314h9.453v3.156h-9.453v9.455h-3.156
		v-22.082h15.766V294.602z M771.639,294.602"/>
	<path fill="rgba(255,110,64,.5)" d="M195.229,282.407h7.994v32.914c0,0.65,0.528,1.176,1.177,1.176h13.556c0.65,0,1.176-0.526,1.176-1.176
		v-32.759h9.191c0.598,0,1.1-0.449,1.169-1.042l1.396-12.118c0.038-0.333-0.068-0.668-0.29-0.917
		c-0.223-0.251-0.544-0.394-0.878-0.394h-10.588v-7.597c0-2.29,1.234-3.452,3.666-3.452h6.922c0.649,0,1.177-0.525,1.177-1.174
		v-11.122c0-0.65-0.528-1.176-1.177-1.176h-9.539c-0.068-0.005-0.217-0.011-0.437-0.011c-1.656,0-7.409,0.326-11.954,4.506
		c-5.035,4.634-4.335,10.181-4.167,11.142v8.884h-8.393c-0.651,0-1.177,0.526-1.177,1.176v11.963
		C194.052,281.88,194.578,282.407,195.229,282.407L195.229,282.407z M195.229,282.407"/>
	<path fill="rgba(255,110,64,.5)" d="M668.982,174.873h3.841v15.814c0,0.312,0.253,0.565,0.565,0.565h6.514c0.312,0,0.565-0.253,0.565-0.565
		v-15.74h4.416c0.287,0,0.529-0.215,0.562-0.5l0.67-5.823c0.019-0.16-0.033-0.321-0.139-0.44c-0.107-0.121-0.262-0.189-0.422-0.189
		h-5.087v-3.65c0-1.1,0.593-1.659,1.761-1.659h3.326c0.312,0,0.565-0.252,0.565-0.564v-5.344c0-0.312-0.253-0.565-0.565-0.565
		h-4.583c-0.033-0.002-0.104-0.005-0.21-0.005c-0.796,0-3.56,0.157-5.744,2.165c-2.419,2.227-2.083,4.892-2.002,5.354v4.268h-4.033
		c-0.313,0-0.565,0.253-0.565,0.565v5.748C668.417,174.619,668.669,174.873,668.982,174.873L668.982,174.873z M668.982,174.873"/>
	<path fill="rgba(255,110,64,.5)" d="M414.608,106.41h5.627v23.171c0,0.458,0.372,0.828,0.829,0.828h9.543c0.458,0,0.828-0.37,0.828-0.828
		V106.52h6.471c0.421,0,0.775-0.316,0.823-0.734l0.983-8.531c0.026-0.234-0.048-0.47-0.205-0.645
		c-0.157-0.177-0.383-0.277-0.618-0.277h-7.454v-5.348c0-1.611,0.869-2.43,2.581-2.43h4.874c0.457,0,0.829-0.37,0.829-0.827v-7.83
		c0-0.458-0.372-0.829-0.829-0.829h-6.716c-0.048-0.003-0.153-0.007-0.308-0.007c-1.166,0-5.216,0.229-8.415,3.173
		c-3.545,3.262-3.052,7.167-2.935,7.843v6.254h-5.908c-0.458,0-0.829,0.371-0.829,0.828v8.422
		C413.78,106.039,414.15,106.41,414.608,106.41L414.608,106.41z M414.608,106.41"/>
	<path fill="rgba(255,110,64,.5)" d="M145.134,197.607l-5.913-5.179l-16.884,14.47c0.615,0.582,1.433,0.932,2.35,0.932h40.875
		c0.916,0,1.732-0.35,2.348-0.932l-16.885-14.47L145.134,197.607z M145.134,197.607 M167.911,174.662
		c-0.599-0.581-1.432-0.932-2.348-0.932h-40.875c-0.901,0-1.735,0.351-2.35,0.932l22.797,19.532L167.911,174.662z M167.911,174.662
		 M121.255,176.727v28.322l16.484-14.005L121.255,176.727z M121.255,176.727 M152.508,191.044l16.484,14.005v-28.338
		L152.508,191.044z M152.508,191.044"/>
	<path fill="rgba(255,110,64,.5)" d="M723.633,56.24l-5.913-5.179l-16.884,14.47c0.615,0.582,1.433,0.932,2.35,0.932h40.875
		c0.916,0,1.732-0.35,2.348-0.932l-16.885-14.47L723.633,56.24z M723.633,56.24 M746.41,33.295
		c-0.599-0.581-1.432-0.932-2.348-0.932h-40.875c-0.901,0-1.735,0.351-2.35,0.932l22.797,19.532L746.41,33.295z M746.41,33.295
		 M699.754,35.36v28.322l16.484-14.005L699.754,35.36z M699.754,35.36 M731.007,49.677l16.484,14.005V35.344L731.007,49.677z
		 M731.007,49.677"/>
	<path fill="rgba(255,110,64,.5)" d="M61.241,291.965l-2.365-2.071l-6.751,5.786c0.246,0.233,0.573,0.373,0.939,0.373h16.347
		c0.366,0,0.692-0.14,0.938-0.373l-6.752-5.786L61.241,291.965z M61.241,291.965 M70.349,282.789
		c-0.24-0.232-0.573-0.372-0.938-0.372H53.064c-0.36,0-0.694,0.14-0.939,0.372l9.116,7.812L70.349,282.789z M70.349,282.789
		 M51.692,283.615v11.326l6.592-5.6L51.692,283.615z M51.692,283.615 M64.19,289.34l6.592,5.6v-11.333L64.19,289.34z M64.19,289.34"
		/>
</g>
</svg>
